G04 #@! TF.GenerationSoftware,KiCad,Pcbnew,(5.1.5)-3*
G04 #@! TF.CreationDate,2020-01-28T12:29:25+09:00*
G04 #@! TF.ProjectId,SchoolDesk,5363686f-6f6c-4446-9573-6b2e6b696361,rev?*
G04 #@! TF.SameCoordinates,Original*
G04 #@! TF.FileFunction,Soldermask,Bot*
G04 #@! TF.FilePolarity,Negative*
%FSLAX46Y46*%
G04 Gerber Fmt 4.6, Leading zero omitted, Abs format (unit mm)*
G04 Created by KiCad (PCBNEW (5.1.5)-3) date 2020-01-28 12:29:25*
%MOMM*%
%LPD*%
G04 APERTURE LIST*
%ADD10C,0.100000*%
G04 APERTURE END LIST*
D10*
G36*
X82663512Y-184523927D02*
G01*
X82812812Y-184553624D01*
X82976784Y-184621544D01*
X83124354Y-184720147D01*
X83249853Y-184845646D01*
X83348456Y-184993216D01*
X83416376Y-185157188D01*
X83451000Y-185331259D01*
X83451000Y-185508741D01*
X83416376Y-185682812D01*
X83348456Y-185846784D01*
X83249853Y-185994354D01*
X83124354Y-186119853D01*
X82976784Y-186218456D01*
X82812812Y-186286376D01*
X82663512Y-186316073D01*
X82638742Y-186321000D01*
X82461258Y-186321000D01*
X82436488Y-186316073D01*
X82287188Y-186286376D01*
X82123216Y-186218456D01*
X81975646Y-186119853D01*
X81850147Y-185994354D01*
X81751544Y-185846784D01*
X81683624Y-185682812D01*
X81649000Y-185508741D01*
X81649000Y-185331259D01*
X81683624Y-185157188D01*
X81751544Y-184993216D01*
X81850147Y-184845646D01*
X81975646Y-184720147D01*
X82123216Y-184621544D01*
X82287188Y-184553624D01*
X82436488Y-184523927D01*
X82461258Y-184519000D01*
X82638742Y-184519000D01*
X82663512Y-184523927D01*
G37*
G36*
X67423512Y-184523927D02*
G01*
X67572812Y-184553624D01*
X67736784Y-184621544D01*
X67884354Y-184720147D01*
X68009853Y-184845646D01*
X68108456Y-184993216D01*
X68176376Y-185157188D01*
X68211000Y-185331259D01*
X68211000Y-185508741D01*
X68176376Y-185682812D01*
X68108456Y-185846784D01*
X68009853Y-185994354D01*
X67884354Y-186119853D01*
X67736784Y-186218456D01*
X67572812Y-186286376D01*
X67423512Y-186316073D01*
X67398742Y-186321000D01*
X67221258Y-186321000D01*
X67196488Y-186316073D01*
X67047188Y-186286376D01*
X66883216Y-186218456D01*
X66735646Y-186119853D01*
X66610147Y-185994354D01*
X66511544Y-185846784D01*
X66443624Y-185682812D01*
X66409000Y-185508741D01*
X66409000Y-185331259D01*
X66443624Y-185157188D01*
X66511544Y-184993216D01*
X66610147Y-184845646D01*
X66735646Y-184720147D01*
X66883216Y-184621544D01*
X67047188Y-184553624D01*
X67196488Y-184523927D01*
X67221258Y-184519000D01*
X67398742Y-184519000D01*
X67423512Y-184523927D01*
G37*
G36*
X75656000Y-185892000D02*
G01*
X74204000Y-185892000D01*
X74204000Y-184440000D01*
X75656000Y-184440000D01*
X75656000Y-185892000D01*
G37*
G36*
X29199266Y-184404399D02*
G01*
X29331388Y-184459126D01*
X29331390Y-184459127D01*
X29450298Y-184538579D01*
X29551421Y-184639702D01*
X29605173Y-184720148D01*
X29630874Y-184758612D01*
X29685601Y-184890734D01*
X29713500Y-185030994D01*
X29713500Y-185174006D01*
X29685601Y-185314266D01*
X29630874Y-185446388D01*
X29630873Y-185446390D01*
X29551421Y-185565298D01*
X29450298Y-185666421D01*
X29331390Y-185745873D01*
X29331389Y-185745874D01*
X29331388Y-185745874D01*
X29199266Y-185800601D01*
X29059006Y-185828500D01*
X28915994Y-185828500D01*
X28775734Y-185800601D01*
X28643612Y-185745874D01*
X28643611Y-185745874D01*
X28643610Y-185745873D01*
X28524702Y-185666421D01*
X28423579Y-185565298D01*
X28344127Y-185446390D01*
X28344126Y-185446388D01*
X28289399Y-185314266D01*
X28261500Y-185174006D01*
X28261500Y-185030994D01*
X28289399Y-184890734D01*
X28344126Y-184758612D01*
X28369827Y-184720148D01*
X28423579Y-184639702D01*
X28524702Y-184538579D01*
X28643610Y-184459127D01*
X28643612Y-184459126D01*
X28775734Y-184404399D01*
X28915994Y-184376500D01*
X29059006Y-184376500D01*
X29199266Y-184404399D01*
G37*
G36*
X124233500Y-185828500D02*
G01*
X122781500Y-185828500D01*
X122781500Y-184376500D01*
X124233500Y-184376500D01*
X124233500Y-185828500D01*
G37*
G36*
X121719266Y-184404399D02*
G01*
X121851388Y-184459126D01*
X121851390Y-184459127D01*
X121970298Y-184538579D01*
X122071421Y-184639702D01*
X122125173Y-184720148D01*
X122150874Y-184758612D01*
X122205601Y-184890734D01*
X122233500Y-185030994D01*
X122233500Y-185174006D01*
X122205601Y-185314266D01*
X122150874Y-185446388D01*
X122150873Y-185446390D01*
X122071421Y-185565298D01*
X121970298Y-185666421D01*
X121851390Y-185745873D01*
X121851389Y-185745874D01*
X121851388Y-185745874D01*
X121719266Y-185800601D01*
X121579006Y-185828500D01*
X121435994Y-185828500D01*
X121295734Y-185800601D01*
X121163612Y-185745874D01*
X121163611Y-185745874D01*
X121163610Y-185745873D01*
X121044702Y-185666421D01*
X120943579Y-185565298D01*
X120864127Y-185446390D01*
X120864126Y-185446388D01*
X120809399Y-185314266D01*
X120781500Y-185174006D01*
X120781500Y-185030994D01*
X120809399Y-184890734D01*
X120864126Y-184758612D01*
X120889827Y-184720148D01*
X120943579Y-184639702D01*
X121044702Y-184538579D01*
X121163610Y-184459127D01*
X121163612Y-184459126D01*
X121295734Y-184404399D01*
X121435994Y-184376500D01*
X121579006Y-184376500D01*
X121719266Y-184404399D01*
G37*
G36*
X27713500Y-185828500D02*
G01*
X26261500Y-185828500D01*
X26261500Y-184376500D01*
X27713500Y-184376500D01*
X27713500Y-185828500D01*
G37*
G36*
X64186375Y-182445479D02*
G01*
X64260016Y-182467818D01*
X64296837Y-182478987D01*
X64398639Y-182533402D01*
X64455727Y-182580253D01*
X64487869Y-182606631D01*
X64561098Y-182695861D01*
X64561099Y-182695863D01*
X64615513Y-182797662D01*
X64616024Y-182799347D01*
X64649021Y-182908124D01*
X64657500Y-182994215D01*
X64657500Y-183781785D01*
X64649021Y-183867876D01*
X64626682Y-183941517D01*
X64615513Y-183978338D01*
X64561098Y-184080140D01*
X64487870Y-184169370D01*
X64398640Y-184242598D01*
X64296838Y-184297013D01*
X64260017Y-184308182D01*
X64186376Y-184330521D01*
X64071500Y-184341835D01*
X63956625Y-184330521D01*
X63882984Y-184308182D01*
X63846163Y-184297013D01*
X63744361Y-184242598D01*
X63655131Y-184169370D01*
X63581902Y-184080138D01*
X63546740Y-184014355D01*
X63533127Y-183993980D01*
X63515800Y-183976653D01*
X63495425Y-183963040D01*
X63472786Y-183953662D01*
X63448753Y-183948882D01*
X63424249Y-183948882D01*
X63400216Y-183953662D01*
X63377577Y-183963040D01*
X63357202Y-183976653D01*
X63339875Y-183993980D01*
X63326262Y-184014354D01*
X63291098Y-184080140D01*
X63217870Y-184169370D01*
X63128640Y-184242598D01*
X63026838Y-184297013D01*
X62990017Y-184308182D01*
X62916376Y-184330521D01*
X62801500Y-184341835D01*
X62686625Y-184330521D01*
X62612984Y-184308182D01*
X62576163Y-184297013D01*
X62474361Y-184242598D01*
X62385131Y-184169370D01*
X62311902Y-184080138D01*
X62276740Y-184014355D01*
X62263127Y-183993980D01*
X62245800Y-183976653D01*
X62225425Y-183963040D01*
X62202786Y-183953662D01*
X62178753Y-183948882D01*
X62154249Y-183948882D01*
X62130216Y-183953662D01*
X62107577Y-183963040D01*
X62087202Y-183976653D01*
X62069875Y-183993980D01*
X62056262Y-184014354D01*
X62021098Y-184080140D01*
X61947870Y-184169370D01*
X61858640Y-184242598D01*
X61756838Y-184297013D01*
X61720017Y-184308182D01*
X61646376Y-184330521D01*
X61531500Y-184341835D01*
X61416625Y-184330521D01*
X61342984Y-184308182D01*
X61306163Y-184297013D01*
X61204361Y-184242598D01*
X61115131Y-184169370D01*
X61069125Y-184113310D01*
X61051798Y-184095983D01*
X61031424Y-184082369D01*
X61008785Y-184072992D01*
X60984752Y-184068211D01*
X60960248Y-184068211D01*
X60936214Y-184072991D01*
X60913576Y-184082368D01*
X60893201Y-184095982D01*
X60875874Y-184113309D01*
X60862260Y-184133683D01*
X60852883Y-184156322D01*
X60848102Y-184180355D01*
X60847500Y-184192608D01*
X60847500Y-184339000D01*
X59675500Y-184339000D01*
X59675500Y-182437000D01*
X60847500Y-182437000D01*
X60847500Y-182583392D01*
X60849902Y-182607778D01*
X60857015Y-182631227D01*
X60868566Y-182652838D01*
X60884111Y-182671780D01*
X60903053Y-182687325D01*
X60924664Y-182698876D01*
X60948113Y-182705989D01*
X60972499Y-182708391D01*
X60996885Y-182705989D01*
X61020334Y-182698876D01*
X61041945Y-182687325D01*
X61060887Y-182671780D01*
X61069125Y-182662690D01*
X61094946Y-182631227D01*
X61115131Y-182606631D01*
X61204361Y-182533402D01*
X61216007Y-182527177D01*
X61306162Y-182478987D01*
X61342983Y-182467818D01*
X61416624Y-182445479D01*
X61531500Y-182434165D01*
X61646375Y-182445479D01*
X61720016Y-182467818D01*
X61756837Y-182478987D01*
X61858639Y-182533402D01*
X61915727Y-182580253D01*
X61947869Y-182606631D01*
X62021098Y-182695861D01*
X62021101Y-182695865D01*
X62056261Y-182761645D01*
X62069874Y-182782020D01*
X62087201Y-182799347D01*
X62107576Y-182812960D01*
X62130215Y-182822338D01*
X62154248Y-182827118D01*
X62178752Y-182827118D01*
X62202785Y-182822338D01*
X62225424Y-182812960D01*
X62245799Y-182799347D01*
X62263126Y-182782020D01*
X62276739Y-182761646D01*
X62311902Y-182695861D01*
X62364946Y-182631227D01*
X62385131Y-182606631D01*
X62474361Y-182533402D01*
X62486007Y-182527177D01*
X62576162Y-182478987D01*
X62612983Y-182467818D01*
X62686624Y-182445479D01*
X62801500Y-182434165D01*
X62916375Y-182445479D01*
X62990016Y-182467818D01*
X63026837Y-182478987D01*
X63128639Y-182533402D01*
X63185727Y-182580253D01*
X63217869Y-182606631D01*
X63291098Y-182695861D01*
X63291101Y-182695865D01*
X63326261Y-182761645D01*
X63339874Y-182782020D01*
X63357201Y-182799347D01*
X63377576Y-182812960D01*
X63400215Y-182822338D01*
X63424248Y-182827118D01*
X63448752Y-182827118D01*
X63472785Y-182822338D01*
X63495424Y-182812960D01*
X63515799Y-182799347D01*
X63533126Y-182782020D01*
X63546739Y-182761646D01*
X63581902Y-182695861D01*
X63634946Y-182631227D01*
X63655131Y-182606631D01*
X63744361Y-182533402D01*
X63756007Y-182527177D01*
X63846162Y-182478987D01*
X63882983Y-182467818D01*
X63956624Y-182445479D01*
X64071500Y-182434165D01*
X64186375Y-182445479D01*
G37*
G36*
X82663512Y-181983927D02*
G01*
X82812812Y-182013624D01*
X82976784Y-182081544D01*
X83124354Y-182180147D01*
X83249853Y-182305646D01*
X83348456Y-182453216D01*
X83416376Y-182617188D01*
X83451000Y-182791259D01*
X83451000Y-182968741D01*
X83416376Y-183142812D01*
X83348456Y-183306784D01*
X83249853Y-183454354D01*
X83124354Y-183579853D01*
X82976784Y-183678456D01*
X82812812Y-183746376D01*
X82663512Y-183776073D01*
X82638742Y-183781000D01*
X82461258Y-183781000D01*
X82436488Y-183776073D01*
X82287188Y-183746376D01*
X82123216Y-183678456D01*
X81975646Y-183579853D01*
X81850147Y-183454354D01*
X81751544Y-183306784D01*
X81683624Y-183142812D01*
X81649000Y-182968741D01*
X81649000Y-182791259D01*
X81683624Y-182617188D01*
X81751544Y-182453216D01*
X81850147Y-182305646D01*
X81975646Y-182180147D01*
X82123216Y-182081544D01*
X82287188Y-182013624D01*
X82436488Y-181983927D01*
X82461258Y-181979000D01*
X82638742Y-181979000D01*
X82663512Y-181983927D01*
G37*
G36*
X67423512Y-181983927D02*
G01*
X67572812Y-182013624D01*
X67736784Y-182081544D01*
X67884354Y-182180147D01*
X68009853Y-182305646D01*
X68108456Y-182453216D01*
X68176376Y-182617188D01*
X68211000Y-182791259D01*
X68211000Y-182968741D01*
X68176376Y-183142812D01*
X68108456Y-183306784D01*
X68009853Y-183454354D01*
X67884354Y-183579853D01*
X67736784Y-183678456D01*
X67572812Y-183746376D01*
X67423512Y-183776073D01*
X67398742Y-183781000D01*
X67221258Y-183781000D01*
X67196488Y-183776073D01*
X67047188Y-183746376D01*
X66883216Y-183678456D01*
X66735646Y-183579853D01*
X66610147Y-183454354D01*
X66511544Y-183306784D01*
X66443624Y-183142812D01*
X66409000Y-182968741D01*
X66409000Y-182791259D01*
X66443624Y-182617188D01*
X66511544Y-182453216D01*
X66610147Y-182305646D01*
X66735646Y-182180147D01*
X66883216Y-182081544D01*
X67047188Y-182013624D01*
X67196488Y-181983927D01*
X67221258Y-181979000D01*
X67398742Y-181979000D01*
X67423512Y-181983927D01*
G37*
G36*
X82663512Y-179443927D02*
G01*
X82812812Y-179473624D01*
X82976784Y-179541544D01*
X83124354Y-179640147D01*
X83249853Y-179765646D01*
X83348456Y-179913216D01*
X83416376Y-180077188D01*
X83451000Y-180251259D01*
X83451000Y-180428741D01*
X83416376Y-180602812D01*
X83348456Y-180766784D01*
X83249853Y-180914354D01*
X83124354Y-181039853D01*
X82976784Y-181138456D01*
X82812812Y-181206376D01*
X82663512Y-181236073D01*
X82638742Y-181241000D01*
X82461258Y-181241000D01*
X82436488Y-181236073D01*
X82287188Y-181206376D01*
X82123216Y-181138456D01*
X81975646Y-181039853D01*
X81850147Y-180914354D01*
X81751544Y-180766784D01*
X81683624Y-180602812D01*
X81649000Y-180428741D01*
X81649000Y-180251259D01*
X81683624Y-180077188D01*
X81751544Y-179913216D01*
X81850147Y-179765646D01*
X81975646Y-179640147D01*
X82123216Y-179541544D01*
X82287188Y-179473624D01*
X82436488Y-179443927D01*
X82461258Y-179439000D01*
X82638742Y-179439000D01*
X82663512Y-179443927D01*
G37*
G36*
X67423512Y-179443927D02*
G01*
X67572812Y-179473624D01*
X67736784Y-179541544D01*
X67884354Y-179640147D01*
X68009853Y-179765646D01*
X68108456Y-179913216D01*
X68176376Y-180077188D01*
X68211000Y-180251259D01*
X68211000Y-180428741D01*
X68176376Y-180602812D01*
X68108456Y-180766784D01*
X68009853Y-180914354D01*
X67884354Y-181039853D01*
X67736784Y-181138456D01*
X67572812Y-181206376D01*
X67423512Y-181236073D01*
X67398742Y-181241000D01*
X67221258Y-181241000D01*
X67196488Y-181236073D01*
X67047188Y-181206376D01*
X66883216Y-181138456D01*
X66735646Y-181039853D01*
X66610147Y-180914354D01*
X66511544Y-180766784D01*
X66443624Y-180602812D01*
X66409000Y-180428741D01*
X66409000Y-180251259D01*
X66443624Y-180077188D01*
X66511544Y-179913216D01*
X66610147Y-179765646D01*
X66735646Y-179640147D01*
X66883216Y-179541544D01*
X67047188Y-179473624D01*
X67196488Y-179443927D01*
X67221258Y-179439000D01*
X67398742Y-179439000D01*
X67423512Y-179443927D01*
G37*
G36*
X82663512Y-176903927D02*
G01*
X82812812Y-176933624D01*
X82976784Y-177001544D01*
X83124354Y-177100147D01*
X83249853Y-177225646D01*
X83348456Y-177373216D01*
X83416376Y-177537188D01*
X83451000Y-177711259D01*
X83451000Y-177888741D01*
X83416376Y-178062812D01*
X83348456Y-178226784D01*
X83249853Y-178374354D01*
X83124354Y-178499853D01*
X82976784Y-178598456D01*
X82812812Y-178666376D01*
X82663512Y-178696073D01*
X82638742Y-178701000D01*
X82461258Y-178701000D01*
X82436488Y-178696073D01*
X82287188Y-178666376D01*
X82123216Y-178598456D01*
X81975646Y-178499853D01*
X81850147Y-178374354D01*
X81751544Y-178226784D01*
X81683624Y-178062812D01*
X81649000Y-177888741D01*
X81649000Y-177711259D01*
X81683624Y-177537188D01*
X81751544Y-177373216D01*
X81850147Y-177225646D01*
X81975646Y-177100147D01*
X82123216Y-177001544D01*
X82287188Y-176933624D01*
X82436488Y-176903927D01*
X82461258Y-176899000D01*
X82638742Y-176899000D01*
X82663512Y-176903927D01*
G37*
G36*
X67423512Y-176903927D02*
G01*
X67572812Y-176933624D01*
X67736784Y-177001544D01*
X67884354Y-177100147D01*
X68009853Y-177225646D01*
X68108456Y-177373216D01*
X68176376Y-177537188D01*
X68211000Y-177711259D01*
X68211000Y-177888741D01*
X68176376Y-178062812D01*
X68108456Y-178226784D01*
X68009853Y-178374354D01*
X67884354Y-178499853D01*
X67736784Y-178598456D01*
X67572812Y-178666376D01*
X67423512Y-178696073D01*
X67398742Y-178701000D01*
X67221258Y-178701000D01*
X67196488Y-178696073D01*
X67047188Y-178666376D01*
X66883216Y-178598456D01*
X66735646Y-178499853D01*
X66610147Y-178374354D01*
X66511544Y-178226784D01*
X66443624Y-178062812D01*
X66409000Y-177888741D01*
X66409000Y-177711259D01*
X66443624Y-177537188D01*
X66511544Y-177373216D01*
X66610147Y-177225646D01*
X66735646Y-177100147D01*
X66883216Y-177001544D01*
X67047188Y-176933624D01*
X67196488Y-176903927D01*
X67221258Y-176899000D01*
X67398742Y-176899000D01*
X67423512Y-176903927D01*
G37*
G36*
X67423512Y-174363927D02*
G01*
X67572812Y-174393624D01*
X67736784Y-174461544D01*
X67884354Y-174560147D01*
X68009853Y-174685646D01*
X68108456Y-174833216D01*
X68176376Y-174997188D01*
X68211000Y-175171259D01*
X68211000Y-175348741D01*
X68176376Y-175522812D01*
X68108456Y-175686784D01*
X68009853Y-175834354D01*
X67884354Y-175959853D01*
X67736784Y-176058456D01*
X67572812Y-176126376D01*
X67423512Y-176156073D01*
X67398742Y-176161000D01*
X67221258Y-176161000D01*
X67196488Y-176156073D01*
X67047188Y-176126376D01*
X66883216Y-176058456D01*
X66735646Y-175959853D01*
X66610147Y-175834354D01*
X66511544Y-175686784D01*
X66443624Y-175522812D01*
X66409000Y-175348741D01*
X66409000Y-175171259D01*
X66443624Y-174997188D01*
X66511544Y-174833216D01*
X66610147Y-174685646D01*
X66735646Y-174560147D01*
X66883216Y-174461544D01*
X67047188Y-174393624D01*
X67196488Y-174363927D01*
X67221258Y-174359000D01*
X67398742Y-174359000D01*
X67423512Y-174363927D01*
G37*
G36*
X82663512Y-174363927D02*
G01*
X82812812Y-174393624D01*
X82976784Y-174461544D01*
X83124354Y-174560147D01*
X83249853Y-174685646D01*
X83348456Y-174833216D01*
X83416376Y-174997188D01*
X83451000Y-175171259D01*
X83451000Y-175348741D01*
X83416376Y-175522812D01*
X83348456Y-175686784D01*
X83249853Y-175834354D01*
X83124354Y-175959853D01*
X82976784Y-176058456D01*
X82812812Y-176126376D01*
X82663512Y-176156073D01*
X82638742Y-176161000D01*
X82461258Y-176161000D01*
X82436488Y-176156073D01*
X82287188Y-176126376D01*
X82123216Y-176058456D01*
X81975646Y-175959853D01*
X81850147Y-175834354D01*
X81751544Y-175686784D01*
X81683624Y-175522812D01*
X81649000Y-175348741D01*
X81649000Y-175171259D01*
X81683624Y-174997188D01*
X81751544Y-174833216D01*
X81850147Y-174685646D01*
X81975646Y-174560147D01*
X82123216Y-174461544D01*
X82287188Y-174393624D01*
X82436488Y-174363927D01*
X82461258Y-174359000D01*
X82638742Y-174359000D01*
X82663512Y-174363927D01*
G37*
G36*
X67423512Y-171823927D02*
G01*
X67572812Y-171853624D01*
X67736784Y-171921544D01*
X67884354Y-172020147D01*
X68009853Y-172145646D01*
X68108456Y-172293216D01*
X68176376Y-172457188D01*
X68211000Y-172631259D01*
X68211000Y-172808741D01*
X68176376Y-172982812D01*
X68108456Y-173146784D01*
X68009853Y-173294354D01*
X67884354Y-173419853D01*
X67736784Y-173518456D01*
X67572812Y-173586376D01*
X67423512Y-173616073D01*
X67398742Y-173621000D01*
X67221258Y-173621000D01*
X67196488Y-173616073D01*
X67047188Y-173586376D01*
X66883216Y-173518456D01*
X66735646Y-173419853D01*
X66610147Y-173294354D01*
X66511544Y-173146784D01*
X66443624Y-172982812D01*
X66409000Y-172808741D01*
X66409000Y-172631259D01*
X66443624Y-172457188D01*
X66511544Y-172293216D01*
X66610147Y-172145646D01*
X66735646Y-172020147D01*
X66883216Y-171921544D01*
X67047188Y-171853624D01*
X67196488Y-171823927D01*
X67221258Y-171819000D01*
X67398742Y-171819000D01*
X67423512Y-171823927D01*
G37*
G36*
X82663512Y-171823927D02*
G01*
X82812812Y-171853624D01*
X82976784Y-171921544D01*
X83124354Y-172020147D01*
X83249853Y-172145646D01*
X83348456Y-172293216D01*
X83416376Y-172457188D01*
X83451000Y-172631259D01*
X83451000Y-172808741D01*
X83416376Y-172982812D01*
X83348456Y-173146784D01*
X83249853Y-173294354D01*
X83124354Y-173419853D01*
X82976784Y-173518456D01*
X82812812Y-173586376D01*
X82663512Y-173616073D01*
X82638742Y-173621000D01*
X82461258Y-173621000D01*
X82436488Y-173616073D01*
X82287188Y-173586376D01*
X82123216Y-173518456D01*
X81975646Y-173419853D01*
X81850147Y-173294354D01*
X81751544Y-173146784D01*
X81683624Y-172982812D01*
X81649000Y-172808741D01*
X81649000Y-172631259D01*
X81683624Y-172457188D01*
X81751544Y-172293216D01*
X81850147Y-172145646D01*
X81975646Y-172020147D01*
X82123216Y-171921544D01*
X82287188Y-171853624D01*
X82436488Y-171823927D01*
X82461258Y-171819000D01*
X82638742Y-171819000D01*
X82663512Y-171823927D01*
G37*
G36*
X67423512Y-169283927D02*
G01*
X67572812Y-169313624D01*
X67736784Y-169381544D01*
X67884354Y-169480147D01*
X68009853Y-169605646D01*
X68108456Y-169753216D01*
X68176376Y-169917188D01*
X68211000Y-170091259D01*
X68211000Y-170268741D01*
X68176376Y-170442812D01*
X68108456Y-170606784D01*
X68009853Y-170754354D01*
X67884354Y-170879853D01*
X67736784Y-170978456D01*
X67572812Y-171046376D01*
X67423512Y-171076073D01*
X67398742Y-171081000D01*
X67221258Y-171081000D01*
X67196488Y-171076073D01*
X67047188Y-171046376D01*
X66883216Y-170978456D01*
X66735646Y-170879853D01*
X66610147Y-170754354D01*
X66511544Y-170606784D01*
X66443624Y-170442812D01*
X66409000Y-170268741D01*
X66409000Y-170091259D01*
X66443624Y-169917188D01*
X66511544Y-169753216D01*
X66610147Y-169605646D01*
X66735646Y-169480147D01*
X66883216Y-169381544D01*
X67047188Y-169313624D01*
X67196488Y-169283927D01*
X67221258Y-169279000D01*
X67398742Y-169279000D01*
X67423512Y-169283927D01*
G37*
G36*
X82663512Y-169283927D02*
G01*
X82812812Y-169313624D01*
X82976784Y-169381544D01*
X83124354Y-169480147D01*
X83249853Y-169605646D01*
X83348456Y-169753216D01*
X83416376Y-169917188D01*
X83451000Y-170091259D01*
X83451000Y-170268741D01*
X83416376Y-170442812D01*
X83348456Y-170606784D01*
X83249853Y-170754354D01*
X83124354Y-170879853D01*
X82976784Y-170978456D01*
X82812812Y-171046376D01*
X82663512Y-171076073D01*
X82638742Y-171081000D01*
X82461258Y-171081000D01*
X82436488Y-171076073D01*
X82287188Y-171046376D01*
X82123216Y-170978456D01*
X81975646Y-170879853D01*
X81850147Y-170754354D01*
X81751544Y-170606784D01*
X81683624Y-170442812D01*
X81649000Y-170268741D01*
X81649000Y-170091259D01*
X81683624Y-169917188D01*
X81751544Y-169753216D01*
X81850147Y-169605646D01*
X81975646Y-169480147D01*
X82123216Y-169381544D01*
X82287188Y-169313624D01*
X82436488Y-169283927D01*
X82461258Y-169279000D01*
X82638742Y-169279000D01*
X82663512Y-169283927D01*
G37*
G36*
X106928228Y-167456703D02*
G01*
X107083100Y-167520853D01*
X107222481Y-167613985D01*
X107341015Y-167732519D01*
X107434147Y-167871900D01*
X107498297Y-168026772D01*
X107531000Y-168191184D01*
X107531000Y-168358816D01*
X107498297Y-168523228D01*
X107434147Y-168678100D01*
X107341015Y-168817481D01*
X107222481Y-168936015D01*
X107083100Y-169029147D01*
X106928228Y-169093297D01*
X106763816Y-169126000D01*
X106596184Y-169126000D01*
X106431772Y-169093297D01*
X106276900Y-169029147D01*
X106137519Y-168936015D01*
X106018985Y-168817481D01*
X105925853Y-168678100D01*
X105861703Y-168523228D01*
X105829000Y-168358816D01*
X105829000Y-168191184D01*
X105861703Y-168026772D01*
X105925853Y-167871900D01*
X106018985Y-167732519D01*
X106137519Y-167613985D01*
X106276900Y-167520853D01*
X106431772Y-167456703D01*
X106596184Y-167424000D01*
X106763816Y-167424000D01*
X106928228Y-167456703D01*
G37*
G36*
X110166728Y-167456703D02*
G01*
X110321600Y-167520853D01*
X110460981Y-167613985D01*
X110579515Y-167732519D01*
X110672647Y-167871900D01*
X110736797Y-168026772D01*
X110769500Y-168191184D01*
X110769500Y-168358816D01*
X110736797Y-168523228D01*
X110672647Y-168678100D01*
X110579515Y-168817481D01*
X110460981Y-168936015D01*
X110321600Y-169029147D01*
X110166728Y-169093297D01*
X110002316Y-169126000D01*
X109834684Y-169126000D01*
X109670272Y-169093297D01*
X109515400Y-169029147D01*
X109376019Y-168936015D01*
X109257485Y-168817481D01*
X109164353Y-168678100D01*
X109100203Y-168523228D01*
X109067500Y-168358816D01*
X109067500Y-168191184D01*
X109100203Y-168026772D01*
X109164353Y-167871900D01*
X109257485Y-167732519D01*
X109376019Y-167613985D01*
X109515400Y-167520853D01*
X109670272Y-167456703D01*
X109834684Y-167424000D01*
X110002316Y-167424000D01*
X110166728Y-167456703D01*
G37*
G36*
X67423512Y-166743927D02*
G01*
X67572812Y-166773624D01*
X67736784Y-166841544D01*
X67884354Y-166940147D01*
X68009853Y-167065646D01*
X68108456Y-167213216D01*
X68176376Y-167377188D01*
X68211000Y-167551259D01*
X68211000Y-167728741D01*
X68176376Y-167902812D01*
X68108456Y-168066784D01*
X68009853Y-168214354D01*
X67884354Y-168339853D01*
X67736784Y-168438456D01*
X67572812Y-168506376D01*
X67423512Y-168536073D01*
X67398742Y-168541000D01*
X67221258Y-168541000D01*
X67196488Y-168536073D01*
X67047188Y-168506376D01*
X66883216Y-168438456D01*
X66735646Y-168339853D01*
X66610147Y-168214354D01*
X66511544Y-168066784D01*
X66443624Y-167902812D01*
X66409000Y-167728741D01*
X66409000Y-167551259D01*
X66443624Y-167377188D01*
X66511544Y-167213216D01*
X66610147Y-167065646D01*
X66735646Y-166940147D01*
X66883216Y-166841544D01*
X67047188Y-166773624D01*
X67196488Y-166743927D01*
X67221258Y-166739000D01*
X67398742Y-166739000D01*
X67423512Y-166743927D01*
G37*
G36*
X82663512Y-166743927D02*
G01*
X82812812Y-166773624D01*
X82976784Y-166841544D01*
X83124354Y-166940147D01*
X83249853Y-167065646D01*
X83348456Y-167213216D01*
X83416376Y-167377188D01*
X83451000Y-167551259D01*
X83451000Y-167728741D01*
X83416376Y-167902812D01*
X83348456Y-168066784D01*
X83249853Y-168214354D01*
X83124354Y-168339853D01*
X82976784Y-168438456D01*
X82812812Y-168506376D01*
X82663512Y-168536073D01*
X82638742Y-168541000D01*
X82461258Y-168541000D01*
X82436488Y-168536073D01*
X82287188Y-168506376D01*
X82123216Y-168438456D01*
X81975646Y-168339853D01*
X81850147Y-168214354D01*
X81751544Y-168066784D01*
X81683624Y-167902812D01*
X81649000Y-167728741D01*
X81649000Y-167551259D01*
X81683624Y-167377188D01*
X81751544Y-167213216D01*
X81850147Y-167065646D01*
X81975646Y-166940147D01*
X82123216Y-166841544D01*
X82287188Y-166773624D01*
X82436488Y-166743927D01*
X82461258Y-166739000D01*
X82638742Y-166739000D01*
X82663512Y-166743927D01*
G37*
G36*
X55776318Y-165365653D02*
G01*
X55994885Y-165456187D01*
X55994887Y-165456188D01*
X56191593Y-165587622D01*
X56358878Y-165754907D01*
X56490312Y-165951613D01*
X56490313Y-165951615D01*
X56580847Y-166170182D01*
X56627000Y-166402210D01*
X56627000Y-166638790D01*
X56580847Y-166870818D01*
X56490313Y-167089385D01*
X56490312Y-167089387D01*
X56358878Y-167286093D01*
X56191593Y-167453378D01*
X55994887Y-167584812D01*
X55994886Y-167584813D01*
X55994885Y-167584813D01*
X55776318Y-167675347D01*
X55544290Y-167721500D01*
X55307710Y-167721500D01*
X55075682Y-167675347D01*
X54857115Y-167584813D01*
X54857114Y-167584813D01*
X54857113Y-167584812D01*
X54660407Y-167453378D01*
X54493122Y-167286093D01*
X54361688Y-167089387D01*
X54361687Y-167089385D01*
X54271153Y-166870818D01*
X54225000Y-166638790D01*
X54225000Y-166402210D01*
X54271153Y-166170182D01*
X54361687Y-165951615D01*
X54361688Y-165951613D01*
X54493122Y-165754907D01*
X54660407Y-165587622D01*
X54857113Y-165456188D01*
X54857115Y-165456187D01*
X55075682Y-165365653D01*
X55307710Y-165319500D01*
X55544290Y-165319500D01*
X55776318Y-165365653D01*
G37*
G36*
X45776318Y-165365653D02*
G01*
X45994885Y-165456187D01*
X45994887Y-165456188D01*
X46191593Y-165587622D01*
X46358878Y-165754907D01*
X46490312Y-165951613D01*
X46490313Y-165951615D01*
X46580847Y-166170182D01*
X46627000Y-166402210D01*
X46627000Y-166638790D01*
X46580847Y-166870818D01*
X46490313Y-167089385D01*
X46490312Y-167089387D01*
X46358878Y-167286093D01*
X46191593Y-167453378D01*
X45994887Y-167584812D01*
X45994886Y-167584813D01*
X45994885Y-167584813D01*
X45776318Y-167675347D01*
X45544290Y-167721500D01*
X45307710Y-167721500D01*
X45075682Y-167675347D01*
X44857115Y-167584813D01*
X44857114Y-167584813D01*
X44857113Y-167584812D01*
X44660407Y-167453378D01*
X44493122Y-167286093D01*
X44361688Y-167089387D01*
X44361687Y-167089385D01*
X44271153Y-166870818D01*
X44225000Y-166638790D01*
X44225000Y-166402210D01*
X44271153Y-166170182D01*
X44361687Y-165951615D01*
X44361688Y-165951613D01*
X44493122Y-165754907D01*
X44660407Y-165587622D01*
X44857113Y-165456188D01*
X44857115Y-165456187D01*
X45075682Y-165365653D01*
X45307710Y-165319500D01*
X45544290Y-165319500D01*
X45776318Y-165365653D01*
G37*
G36*
X35808228Y-164916703D02*
G01*
X35963100Y-164980853D01*
X36102481Y-165073985D01*
X36221015Y-165192519D01*
X36314147Y-165331900D01*
X36378297Y-165486772D01*
X36411000Y-165651184D01*
X36411000Y-165818816D01*
X36378297Y-165983228D01*
X36314147Y-166138100D01*
X36221015Y-166277481D01*
X36102481Y-166396015D01*
X35963100Y-166489147D01*
X35808228Y-166553297D01*
X35643816Y-166586000D01*
X35476184Y-166586000D01*
X35311772Y-166553297D01*
X35156900Y-166489147D01*
X35017519Y-166396015D01*
X34898985Y-166277481D01*
X34805853Y-166138100D01*
X34741703Y-165983228D01*
X34709000Y-165818816D01*
X34709000Y-165651184D01*
X34741703Y-165486772D01*
X34805853Y-165331900D01*
X34898985Y-165192519D01*
X35017519Y-165073985D01*
X35156900Y-164980853D01*
X35311772Y-164916703D01*
X35476184Y-164884000D01*
X35643816Y-164884000D01*
X35808228Y-164916703D01*
G37*
G36*
X38348228Y-164916703D02*
G01*
X38503100Y-164980853D01*
X38642481Y-165073985D01*
X38761015Y-165192519D01*
X38854147Y-165331900D01*
X38918297Y-165486772D01*
X38951000Y-165651184D01*
X38951000Y-165818816D01*
X38918297Y-165983228D01*
X38854147Y-166138100D01*
X38761015Y-166277481D01*
X38642481Y-166396015D01*
X38503100Y-166489147D01*
X38348228Y-166553297D01*
X38183816Y-166586000D01*
X38016184Y-166586000D01*
X37851772Y-166553297D01*
X37696900Y-166489147D01*
X37557519Y-166396015D01*
X37438985Y-166277481D01*
X37345853Y-166138100D01*
X37281703Y-165983228D01*
X37249000Y-165818816D01*
X37249000Y-165651184D01*
X37281703Y-165486772D01*
X37345853Y-165331900D01*
X37438985Y-165192519D01*
X37557519Y-165073985D01*
X37696900Y-164980853D01*
X37851772Y-164916703D01*
X38016184Y-164884000D01*
X38183816Y-164884000D01*
X38348228Y-164916703D01*
G37*
G36*
X106928228Y-164916703D02*
G01*
X107083100Y-164980853D01*
X107222481Y-165073985D01*
X107341015Y-165192519D01*
X107434147Y-165331900D01*
X107498297Y-165486772D01*
X107531000Y-165651184D01*
X107531000Y-165818816D01*
X107498297Y-165983228D01*
X107434147Y-166138100D01*
X107341015Y-166277481D01*
X107222481Y-166396015D01*
X107083100Y-166489147D01*
X106928228Y-166553297D01*
X106763816Y-166586000D01*
X106596184Y-166586000D01*
X106431772Y-166553297D01*
X106276900Y-166489147D01*
X106137519Y-166396015D01*
X106018985Y-166277481D01*
X105925853Y-166138100D01*
X105861703Y-165983228D01*
X105829000Y-165818816D01*
X105829000Y-165651184D01*
X105861703Y-165486772D01*
X105925853Y-165331900D01*
X106018985Y-165192519D01*
X106137519Y-165073985D01*
X106276900Y-164980853D01*
X106431772Y-164916703D01*
X106596184Y-164884000D01*
X106763816Y-164884000D01*
X106928228Y-164916703D01*
G37*
G36*
X110166728Y-164916703D02*
G01*
X110321600Y-164980853D01*
X110460981Y-165073985D01*
X110579515Y-165192519D01*
X110672647Y-165331900D01*
X110736797Y-165486772D01*
X110769500Y-165651184D01*
X110769500Y-165818816D01*
X110736797Y-165983228D01*
X110672647Y-166138100D01*
X110579515Y-166277481D01*
X110460981Y-166396015D01*
X110321600Y-166489147D01*
X110166728Y-166553297D01*
X110002316Y-166586000D01*
X109834684Y-166586000D01*
X109670272Y-166553297D01*
X109515400Y-166489147D01*
X109376019Y-166396015D01*
X109257485Y-166277481D01*
X109164353Y-166138100D01*
X109100203Y-165983228D01*
X109067500Y-165818816D01*
X109067500Y-165651184D01*
X109100203Y-165486772D01*
X109164353Y-165331900D01*
X109257485Y-165192519D01*
X109376019Y-165073985D01*
X109515400Y-164980853D01*
X109670272Y-164916703D01*
X109834684Y-164884000D01*
X110002316Y-164884000D01*
X110166728Y-164916703D01*
G37*
G36*
X103850000Y-166397500D02*
G01*
X102398000Y-166397500D01*
X102398000Y-164945500D01*
X103850000Y-164945500D01*
X103850000Y-166397500D01*
G37*
G36*
X67423512Y-164203927D02*
G01*
X67572812Y-164233624D01*
X67736784Y-164301544D01*
X67884354Y-164400147D01*
X68009853Y-164525646D01*
X68108456Y-164673216D01*
X68176376Y-164837188D01*
X68211000Y-165011259D01*
X68211000Y-165188741D01*
X68176376Y-165362812D01*
X68108456Y-165526784D01*
X68009853Y-165674354D01*
X67884354Y-165799853D01*
X67736784Y-165898456D01*
X67572812Y-165966376D01*
X67423512Y-165996073D01*
X67398742Y-166001000D01*
X67221258Y-166001000D01*
X67196488Y-165996073D01*
X67047188Y-165966376D01*
X66883216Y-165898456D01*
X66735646Y-165799853D01*
X66610147Y-165674354D01*
X66511544Y-165526784D01*
X66443624Y-165362812D01*
X66409000Y-165188741D01*
X66409000Y-165011259D01*
X66443624Y-164837188D01*
X66511544Y-164673216D01*
X66610147Y-164525646D01*
X66735646Y-164400147D01*
X66883216Y-164301544D01*
X67047188Y-164233624D01*
X67196488Y-164203927D01*
X67221258Y-164199000D01*
X67398742Y-164199000D01*
X67423512Y-164203927D01*
G37*
G36*
X82663512Y-164203927D02*
G01*
X82812812Y-164233624D01*
X82976784Y-164301544D01*
X83124354Y-164400147D01*
X83249853Y-164525646D01*
X83348456Y-164673216D01*
X83416376Y-164837188D01*
X83451000Y-165011259D01*
X83451000Y-165188741D01*
X83416376Y-165362812D01*
X83348456Y-165526784D01*
X83249853Y-165674354D01*
X83124354Y-165799853D01*
X82976784Y-165898456D01*
X82812812Y-165966376D01*
X82663512Y-165996073D01*
X82638742Y-166001000D01*
X82461258Y-166001000D01*
X82436488Y-165996073D01*
X82287188Y-165966376D01*
X82123216Y-165898456D01*
X81975646Y-165799853D01*
X81850147Y-165674354D01*
X81751544Y-165526784D01*
X81683624Y-165362812D01*
X81649000Y-165188741D01*
X81649000Y-165011259D01*
X81683624Y-164837188D01*
X81751544Y-164673216D01*
X81850147Y-164525646D01*
X81975646Y-164400147D01*
X82123216Y-164301544D01*
X82287188Y-164233624D01*
X82436488Y-164203927D01*
X82461258Y-164199000D01*
X82638742Y-164199000D01*
X82663512Y-164203927D01*
G37*
G36*
X95005500Y-165695500D02*
G01*
X91303500Y-165695500D01*
X91303500Y-162793500D01*
X95005500Y-162793500D01*
X95005500Y-165695500D01*
G37*
G36*
X58276318Y-162865653D02*
G01*
X58494885Y-162956187D01*
X58494887Y-162956188D01*
X58691593Y-163087622D01*
X58858878Y-163254907D01*
X58973449Y-163426376D01*
X58990313Y-163451615D01*
X59080847Y-163670182D01*
X59127000Y-163902210D01*
X59127000Y-164138790D01*
X59080847Y-164370818D01*
X59016714Y-164525647D01*
X58990312Y-164589387D01*
X58858878Y-164786093D01*
X58691593Y-164953378D01*
X58494887Y-165084812D01*
X58494886Y-165084813D01*
X58494885Y-165084813D01*
X58276318Y-165175347D01*
X58044290Y-165221500D01*
X57807710Y-165221500D01*
X57575682Y-165175347D01*
X57357115Y-165084813D01*
X57357114Y-165084813D01*
X57357113Y-165084812D01*
X57160407Y-164953378D01*
X56993122Y-164786093D01*
X56861688Y-164589387D01*
X56835286Y-164525647D01*
X56771153Y-164370818D01*
X56725000Y-164138790D01*
X56725000Y-163902210D01*
X56771153Y-163670182D01*
X56861687Y-163451615D01*
X56878551Y-163426376D01*
X56993122Y-163254907D01*
X57160407Y-163087622D01*
X57357113Y-162956188D01*
X57357115Y-162956187D01*
X57575682Y-162865653D01*
X57807710Y-162819500D01*
X58044290Y-162819500D01*
X58276318Y-162865653D01*
G37*
G36*
X50776318Y-162865653D02*
G01*
X50994885Y-162956187D01*
X50994887Y-162956188D01*
X51191593Y-163087622D01*
X51358878Y-163254907D01*
X51473449Y-163426376D01*
X51490313Y-163451615D01*
X51580847Y-163670182D01*
X51627000Y-163902210D01*
X51627000Y-164138790D01*
X51580847Y-164370818D01*
X51516714Y-164525647D01*
X51490312Y-164589387D01*
X51358878Y-164786093D01*
X51191593Y-164953378D01*
X50994887Y-165084812D01*
X50994886Y-165084813D01*
X50994885Y-165084813D01*
X50776318Y-165175347D01*
X50544290Y-165221500D01*
X50307710Y-165221500D01*
X50075682Y-165175347D01*
X49857115Y-165084813D01*
X49857114Y-165084813D01*
X49857113Y-165084812D01*
X49660407Y-164953378D01*
X49493122Y-164786093D01*
X49361688Y-164589387D01*
X49335286Y-164525647D01*
X49271153Y-164370818D01*
X49225000Y-164138790D01*
X49225000Y-163902210D01*
X49271153Y-163670182D01*
X49361687Y-163451615D01*
X49378551Y-163426376D01*
X49493122Y-163254907D01*
X49660407Y-163087622D01*
X49857113Y-162956188D01*
X49857115Y-162956187D01*
X50075682Y-162865653D01*
X50307710Y-162819500D01*
X50544290Y-162819500D01*
X50776318Y-162865653D01*
G37*
G36*
X43276318Y-162865653D02*
G01*
X43494885Y-162956187D01*
X43494887Y-162956188D01*
X43691593Y-163087622D01*
X43858878Y-163254907D01*
X43973449Y-163426376D01*
X43990313Y-163451615D01*
X44080847Y-163670182D01*
X44127000Y-163902210D01*
X44127000Y-164138790D01*
X44080847Y-164370818D01*
X44016714Y-164525647D01*
X43990312Y-164589387D01*
X43858878Y-164786093D01*
X43691593Y-164953378D01*
X43494887Y-165084812D01*
X43494886Y-165084813D01*
X43494885Y-165084813D01*
X43276318Y-165175347D01*
X43044290Y-165221500D01*
X42807710Y-165221500D01*
X42575682Y-165175347D01*
X42357115Y-165084813D01*
X42357114Y-165084813D01*
X42357113Y-165084812D01*
X42160407Y-164953378D01*
X41993122Y-164786093D01*
X41861688Y-164589387D01*
X41835286Y-164525647D01*
X41771153Y-164370818D01*
X41725000Y-164138790D01*
X41725000Y-163902210D01*
X41771153Y-163670182D01*
X41861687Y-163451615D01*
X41878551Y-163426376D01*
X41993122Y-163254907D01*
X42160407Y-163087622D01*
X42357113Y-162956188D01*
X42357115Y-162956187D01*
X42575682Y-162865653D01*
X42807710Y-162819500D01*
X43044290Y-162819500D01*
X43276318Y-162865653D01*
G37*
G36*
X67423512Y-161663927D02*
G01*
X67572812Y-161693624D01*
X67736784Y-161761544D01*
X67884354Y-161860147D01*
X68009853Y-161985646D01*
X68108456Y-162133216D01*
X68176376Y-162297188D01*
X68211000Y-162471259D01*
X68211000Y-162648741D01*
X68176376Y-162822812D01*
X68108456Y-162986784D01*
X68009853Y-163134354D01*
X67884354Y-163259853D01*
X67736784Y-163358456D01*
X67572812Y-163426376D01*
X67423512Y-163456073D01*
X67398742Y-163461000D01*
X67221258Y-163461000D01*
X67196488Y-163456073D01*
X67047188Y-163426376D01*
X66883216Y-163358456D01*
X66735646Y-163259853D01*
X66610147Y-163134354D01*
X66511544Y-162986784D01*
X66443624Y-162822812D01*
X66409000Y-162648741D01*
X66409000Y-162471259D01*
X66443624Y-162297188D01*
X66511544Y-162133216D01*
X66610147Y-161985646D01*
X66735646Y-161860147D01*
X66883216Y-161761544D01*
X67047188Y-161693624D01*
X67196488Y-161663927D01*
X67221258Y-161659000D01*
X67398742Y-161659000D01*
X67423512Y-161663927D01*
G37*
G36*
X82663512Y-161663927D02*
G01*
X82812812Y-161693624D01*
X82976784Y-161761544D01*
X83124354Y-161860147D01*
X83249853Y-161985646D01*
X83348456Y-162133216D01*
X83416376Y-162297188D01*
X83451000Y-162471259D01*
X83451000Y-162648741D01*
X83416376Y-162822812D01*
X83348456Y-162986784D01*
X83249853Y-163134354D01*
X83124354Y-163259853D01*
X82976784Y-163358456D01*
X82812812Y-163426376D01*
X82663512Y-163456073D01*
X82638742Y-163461000D01*
X82461258Y-163461000D01*
X82436488Y-163456073D01*
X82287188Y-163426376D01*
X82123216Y-163358456D01*
X81975646Y-163259853D01*
X81850147Y-163134354D01*
X81751544Y-162986784D01*
X81683624Y-162822812D01*
X81649000Y-162648741D01*
X81649000Y-162471259D01*
X81683624Y-162297188D01*
X81751544Y-162133216D01*
X81850147Y-161985646D01*
X81975646Y-161860147D01*
X82123216Y-161761544D01*
X82287188Y-161693624D01*
X82436488Y-161663927D01*
X82461258Y-161659000D01*
X82638742Y-161659000D01*
X82663512Y-161663927D01*
G37*
G36*
X85961064Y-160033889D02*
G01*
X86152333Y-160113115D01*
X86152335Y-160113116D01*
X86324473Y-160228135D01*
X86470865Y-160374527D01*
X86582659Y-160541838D01*
X86585885Y-160546667D01*
X86665111Y-160737936D01*
X86705500Y-160940984D01*
X86705500Y-161148016D01*
X86665111Y-161351064D01*
X86585885Y-161542333D01*
X86585884Y-161542335D01*
X86470865Y-161714473D01*
X86324473Y-161860865D01*
X86152335Y-161975884D01*
X86152334Y-161975885D01*
X86152333Y-161975885D01*
X85961064Y-162055111D01*
X85758016Y-162095500D01*
X85550984Y-162095500D01*
X85347936Y-162055111D01*
X85156667Y-161975885D01*
X85156666Y-161975885D01*
X85156665Y-161975884D01*
X84984527Y-161860865D01*
X84838135Y-161714473D01*
X84723116Y-161542335D01*
X84723115Y-161542333D01*
X84643889Y-161351064D01*
X84603500Y-161148016D01*
X84603500Y-160940984D01*
X84643889Y-160737936D01*
X84723115Y-160546667D01*
X84726342Y-160541838D01*
X84838135Y-160374527D01*
X84984527Y-160228135D01*
X85156665Y-160113116D01*
X85156667Y-160113115D01*
X85347936Y-160033889D01*
X85550984Y-159993500D01*
X85758016Y-159993500D01*
X85961064Y-160033889D01*
G37*
G36*
X100461064Y-160033889D02*
G01*
X100652333Y-160113115D01*
X100652335Y-160113116D01*
X100824473Y-160228135D01*
X100970865Y-160374527D01*
X101082659Y-160541838D01*
X101085885Y-160546667D01*
X101165111Y-160737936D01*
X101205500Y-160940984D01*
X101205500Y-161148016D01*
X101165111Y-161351064D01*
X101085885Y-161542333D01*
X101085884Y-161542335D01*
X100970865Y-161714473D01*
X100824473Y-161860865D01*
X100652335Y-161975884D01*
X100652334Y-161975885D01*
X100652333Y-161975885D01*
X100461064Y-162055111D01*
X100258016Y-162095500D01*
X100050984Y-162095500D01*
X99847936Y-162055111D01*
X99656667Y-161975885D01*
X99656666Y-161975885D01*
X99656665Y-161975884D01*
X99484527Y-161860865D01*
X99338135Y-161714473D01*
X99223116Y-161542335D01*
X99223115Y-161542333D01*
X99143889Y-161351064D01*
X99103500Y-161148016D01*
X99103500Y-160940984D01*
X99143889Y-160737936D01*
X99223115Y-160546667D01*
X99226342Y-160541838D01*
X99338135Y-160374527D01*
X99484527Y-160228135D01*
X99656665Y-160113116D01*
X99656667Y-160113115D01*
X99847936Y-160033889D01*
X100050984Y-159993500D01*
X100258016Y-159993500D01*
X100461064Y-160033889D01*
G37*
G36*
X82654638Y-159122162D02*
G01*
X82812812Y-159153624D01*
X82976784Y-159221544D01*
X83124354Y-159320147D01*
X83249853Y-159445646D01*
X83348456Y-159593216D01*
X83416376Y-159757188D01*
X83451000Y-159931259D01*
X83451000Y-160108741D01*
X83416376Y-160282812D01*
X83348456Y-160446784D01*
X83249853Y-160594354D01*
X83124354Y-160719853D01*
X82976784Y-160818456D01*
X82812812Y-160886376D01*
X82663512Y-160916073D01*
X82638742Y-160921000D01*
X82461258Y-160921000D01*
X82436488Y-160916073D01*
X82287188Y-160886376D01*
X82123216Y-160818456D01*
X81975646Y-160719853D01*
X81850147Y-160594354D01*
X81751544Y-160446784D01*
X81683624Y-160282812D01*
X81649000Y-160108741D01*
X81649000Y-159931259D01*
X81683624Y-159757188D01*
X81751544Y-159593216D01*
X81850147Y-159445646D01*
X81975646Y-159320147D01*
X82123216Y-159221544D01*
X82287188Y-159153624D01*
X82445362Y-159122162D01*
X82461258Y-159119000D01*
X82638742Y-159119000D01*
X82654638Y-159122162D01*
G37*
G36*
X67414638Y-159122162D02*
G01*
X67572812Y-159153624D01*
X67736784Y-159221544D01*
X67884354Y-159320147D01*
X68009853Y-159445646D01*
X68108456Y-159593216D01*
X68176376Y-159757188D01*
X68211000Y-159931259D01*
X68211000Y-160108741D01*
X68176376Y-160282812D01*
X68108456Y-160446784D01*
X68009853Y-160594354D01*
X67884354Y-160719853D01*
X67736784Y-160818456D01*
X67572812Y-160886376D01*
X67423512Y-160916073D01*
X67398742Y-160921000D01*
X67221258Y-160921000D01*
X67196488Y-160916073D01*
X67047188Y-160886376D01*
X66883216Y-160818456D01*
X66735646Y-160719853D01*
X66610147Y-160594354D01*
X66511544Y-160446784D01*
X66443624Y-160282812D01*
X66409000Y-160108741D01*
X66409000Y-159931259D01*
X66443624Y-159757188D01*
X66511544Y-159593216D01*
X66610147Y-159445646D01*
X66735646Y-159320147D01*
X66883216Y-159221544D01*
X67047188Y-159153624D01*
X67205362Y-159122162D01*
X67221258Y-159119000D01*
X67398742Y-159119000D01*
X67414638Y-159122162D01*
G37*
G36*
X106850142Y-159125281D02*
G01*
X106995914Y-159185662D01*
X106995916Y-159185663D01*
X107127108Y-159273322D01*
X107238678Y-159384892D01*
X107283909Y-159452586D01*
X107326338Y-159516086D01*
X107386719Y-159661858D01*
X107417500Y-159816607D01*
X107417500Y-159974393D01*
X107386719Y-160129142D01*
X107326338Y-160274914D01*
X107326337Y-160274916D01*
X107238678Y-160406108D01*
X107127108Y-160517678D01*
X106995916Y-160605337D01*
X106995915Y-160605338D01*
X106995914Y-160605338D01*
X106850142Y-160665719D01*
X106695393Y-160696500D01*
X106537607Y-160696500D01*
X106382858Y-160665719D01*
X106237086Y-160605338D01*
X106237085Y-160605338D01*
X106237084Y-160605337D01*
X106105892Y-160517678D01*
X105994322Y-160406108D01*
X105906663Y-160274916D01*
X105906662Y-160274914D01*
X105846281Y-160129142D01*
X105815500Y-159974393D01*
X105815500Y-159816607D01*
X105846281Y-159661858D01*
X105906662Y-159516086D01*
X105949091Y-159452586D01*
X105994322Y-159384892D01*
X106105892Y-159273322D01*
X106237084Y-159185663D01*
X106237086Y-159185662D01*
X106382858Y-159125281D01*
X106537607Y-159094500D01*
X106695393Y-159094500D01*
X106850142Y-159125281D01*
G37*
G36*
X117073642Y-159125281D02*
G01*
X117219414Y-159185662D01*
X117219416Y-159185663D01*
X117350608Y-159273322D01*
X117462178Y-159384892D01*
X117507409Y-159452586D01*
X117549838Y-159516086D01*
X117610219Y-159661858D01*
X117641000Y-159816607D01*
X117641000Y-159974393D01*
X117610219Y-160129142D01*
X117549838Y-160274914D01*
X117549837Y-160274916D01*
X117462178Y-160406108D01*
X117350608Y-160517678D01*
X117219416Y-160605337D01*
X117219415Y-160605338D01*
X117219414Y-160605338D01*
X117073642Y-160665719D01*
X116918893Y-160696500D01*
X116761107Y-160696500D01*
X116606358Y-160665719D01*
X116460586Y-160605338D01*
X116460585Y-160605338D01*
X116460584Y-160605337D01*
X116329392Y-160517678D01*
X116217822Y-160406108D01*
X116130163Y-160274916D01*
X116130162Y-160274914D01*
X116069781Y-160129142D01*
X116039000Y-159974393D01*
X116039000Y-159816607D01*
X116069781Y-159661858D01*
X116130162Y-159516086D01*
X116172591Y-159452586D01*
X116217822Y-159384892D01*
X116329392Y-159273322D01*
X116460584Y-159185663D01*
X116460586Y-159185662D01*
X116606358Y-159125281D01*
X116761107Y-159094500D01*
X116918893Y-159094500D01*
X117073642Y-159125281D01*
G37*
G36*
X33761642Y-159061781D02*
G01*
X33899780Y-159119000D01*
X33907416Y-159122163D01*
X34038608Y-159209822D01*
X34150178Y-159321392D01*
X34233201Y-159445646D01*
X34237838Y-159452586D01*
X34298219Y-159598358D01*
X34329000Y-159753107D01*
X34329000Y-159910893D01*
X34298219Y-160065642D01*
X34271916Y-160129142D01*
X34237837Y-160211416D01*
X34150178Y-160342608D01*
X34038608Y-160454178D01*
X33907416Y-160541837D01*
X33907415Y-160541838D01*
X33907414Y-160541838D01*
X33761642Y-160602219D01*
X33606893Y-160633000D01*
X33449107Y-160633000D01*
X33294358Y-160602219D01*
X33148586Y-160541838D01*
X33148585Y-160541838D01*
X33148584Y-160541837D01*
X33017392Y-160454178D01*
X32905822Y-160342608D01*
X32818163Y-160211416D01*
X32784084Y-160129142D01*
X32757781Y-160065642D01*
X32727000Y-159910893D01*
X32727000Y-159753107D01*
X32757781Y-159598358D01*
X32818162Y-159452586D01*
X32822799Y-159445646D01*
X32905822Y-159321392D01*
X33017392Y-159209822D01*
X33148584Y-159122163D01*
X33156220Y-159119000D01*
X33294358Y-159061781D01*
X33449107Y-159031000D01*
X33606893Y-159031000D01*
X33761642Y-159061781D01*
G37*
G36*
X85961064Y-157533889D02*
G01*
X86152333Y-157613115D01*
X86152335Y-157613116D01*
X86324473Y-157728135D01*
X86470865Y-157874527D01*
X86585885Y-158046667D01*
X86665111Y-158237936D01*
X86705500Y-158440984D01*
X86705500Y-158648016D01*
X86665111Y-158851064D01*
X86590579Y-159031000D01*
X86585884Y-159042335D01*
X86470865Y-159214473D01*
X86324473Y-159360865D01*
X86152335Y-159475884D01*
X86152334Y-159475885D01*
X86152333Y-159475885D01*
X85961064Y-159555111D01*
X85758016Y-159595500D01*
X85550984Y-159595500D01*
X85347936Y-159555111D01*
X85156667Y-159475885D01*
X85156666Y-159475885D01*
X85156665Y-159475884D01*
X84984527Y-159360865D01*
X84838135Y-159214473D01*
X84723116Y-159042335D01*
X84718421Y-159031000D01*
X84643889Y-158851064D01*
X84603500Y-158648016D01*
X84603500Y-158440984D01*
X84643889Y-158237936D01*
X84723115Y-158046667D01*
X84838135Y-157874527D01*
X84984527Y-157728135D01*
X85156665Y-157613116D01*
X85156667Y-157613115D01*
X85347936Y-157533889D01*
X85550984Y-157493500D01*
X85758016Y-157493500D01*
X85961064Y-157533889D01*
G37*
G36*
X82663512Y-156583927D02*
G01*
X82812812Y-156613624D01*
X82976784Y-156681544D01*
X83124354Y-156780147D01*
X83249853Y-156905646D01*
X83348456Y-157053216D01*
X83416376Y-157217188D01*
X83451000Y-157391259D01*
X83451000Y-157568741D01*
X83416376Y-157742812D01*
X83348456Y-157906784D01*
X83249853Y-158054354D01*
X83124354Y-158179853D01*
X82976784Y-158278456D01*
X82812812Y-158346376D01*
X82663512Y-158376073D01*
X82638742Y-158381000D01*
X82461258Y-158381000D01*
X82436488Y-158376073D01*
X82287188Y-158346376D01*
X82123216Y-158278456D01*
X81975646Y-158179853D01*
X81850147Y-158054354D01*
X81751544Y-157906784D01*
X81683624Y-157742812D01*
X81649000Y-157568741D01*
X81649000Y-157391259D01*
X81683624Y-157217188D01*
X81751544Y-157053216D01*
X81850147Y-156905646D01*
X81975646Y-156780147D01*
X82123216Y-156681544D01*
X82287188Y-156613624D01*
X82436488Y-156583927D01*
X82461258Y-156579000D01*
X82638742Y-156579000D01*
X82663512Y-156583927D01*
G37*
G36*
X67423512Y-156583927D02*
G01*
X67572812Y-156613624D01*
X67736784Y-156681544D01*
X67884354Y-156780147D01*
X68009853Y-156905646D01*
X68108456Y-157053216D01*
X68176376Y-157217188D01*
X68211000Y-157391259D01*
X68211000Y-157568741D01*
X68176376Y-157742812D01*
X68108456Y-157906784D01*
X68009853Y-158054354D01*
X67884354Y-158179853D01*
X67736784Y-158278456D01*
X67572812Y-158346376D01*
X67423512Y-158376073D01*
X67398742Y-158381000D01*
X67221258Y-158381000D01*
X67196488Y-158376073D01*
X67047188Y-158346376D01*
X66883216Y-158278456D01*
X66735646Y-158179853D01*
X66610147Y-158054354D01*
X66511544Y-157906784D01*
X66443624Y-157742812D01*
X66409000Y-157568741D01*
X66409000Y-157391259D01*
X66443624Y-157217188D01*
X66511544Y-157053216D01*
X66610147Y-156905646D01*
X66735646Y-156780147D01*
X66883216Y-156681544D01*
X67047188Y-156613624D01*
X67196488Y-156583927D01*
X67221258Y-156579000D01*
X67398742Y-156579000D01*
X67423512Y-156583927D01*
G37*
G36*
X100461064Y-155033889D02*
G01*
X100652333Y-155113115D01*
X100652335Y-155113116D01*
X100786573Y-155202811D01*
X100824473Y-155228135D01*
X100970865Y-155374527D01*
X101085885Y-155546667D01*
X101165111Y-155737936D01*
X101205500Y-155940984D01*
X101205500Y-156148016D01*
X101165111Y-156351064D01*
X101085885Y-156542333D01*
X101085884Y-156542335D01*
X100970865Y-156714473D01*
X100824473Y-156860865D01*
X100652335Y-156975884D01*
X100652334Y-156975885D01*
X100652333Y-156975885D01*
X100461064Y-157055111D01*
X100258016Y-157095500D01*
X100050984Y-157095500D01*
X99847936Y-157055111D01*
X99656667Y-156975885D01*
X99656666Y-156975885D01*
X99656665Y-156975884D01*
X99484527Y-156860865D01*
X99338135Y-156714473D01*
X99223116Y-156542335D01*
X99223115Y-156542333D01*
X99143889Y-156351064D01*
X99103500Y-156148016D01*
X99103500Y-155940984D01*
X99143889Y-155737936D01*
X99223115Y-155546667D01*
X99338135Y-155374527D01*
X99484527Y-155228135D01*
X99522427Y-155202811D01*
X99656665Y-155113116D01*
X99656667Y-155113115D01*
X99847936Y-155033889D01*
X100050984Y-154993500D01*
X100258016Y-154993500D01*
X100461064Y-155033889D01*
G37*
G36*
X85961064Y-155033889D02*
G01*
X86152333Y-155113115D01*
X86152335Y-155113116D01*
X86286573Y-155202811D01*
X86324473Y-155228135D01*
X86470865Y-155374527D01*
X86585885Y-155546667D01*
X86665111Y-155737936D01*
X86705500Y-155940984D01*
X86705500Y-156148016D01*
X86665111Y-156351064D01*
X86585885Y-156542333D01*
X86585884Y-156542335D01*
X86470865Y-156714473D01*
X86324473Y-156860865D01*
X86152335Y-156975884D01*
X86152334Y-156975885D01*
X86152333Y-156975885D01*
X85961064Y-157055111D01*
X85758016Y-157095500D01*
X85550984Y-157095500D01*
X85347936Y-157055111D01*
X85156667Y-156975885D01*
X85156666Y-156975885D01*
X85156665Y-156975884D01*
X84984527Y-156860865D01*
X84838135Y-156714473D01*
X84723116Y-156542335D01*
X84723115Y-156542333D01*
X84643889Y-156351064D01*
X84603500Y-156148016D01*
X84603500Y-155940984D01*
X84643889Y-155737936D01*
X84723115Y-155546667D01*
X84838135Y-155374527D01*
X84984527Y-155228135D01*
X85022427Y-155202811D01*
X85156665Y-155113116D01*
X85156667Y-155113115D01*
X85347936Y-155033889D01*
X85550984Y-154993500D01*
X85758016Y-154993500D01*
X85961064Y-155033889D01*
G37*
G36*
X82663512Y-154043927D02*
G01*
X82812812Y-154073624D01*
X82976784Y-154141544D01*
X83124354Y-154240147D01*
X83249853Y-154365646D01*
X83348456Y-154513216D01*
X83416376Y-154677188D01*
X83451000Y-154851259D01*
X83451000Y-155028741D01*
X83416376Y-155202812D01*
X83348456Y-155366784D01*
X83249853Y-155514354D01*
X83124354Y-155639853D01*
X82976784Y-155738456D01*
X82812812Y-155806376D01*
X82663512Y-155836073D01*
X82638742Y-155841000D01*
X82461258Y-155841000D01*
X82436488Y-155836073D01*
X82287188Y-155806376D01*
X82123216Y-155738456D01*
X81975646Y-155639853D01*
X81850147Y-155514354D01*
X81751544Y-155366784D01*
X81683624Y-155202812D01*
X81649000Y-155028741D01*
X81649000Y-154851259D01*
X81683624Y-154677188D01*
X81751544Y-154513216D01*
X81850147Y-154365646D01*
X81975646Y-154240147D01*
X82123216Y-154141544D01*
X82287188Y-154073624D01*
X82436488Y-154043927D01*
X82461258Y-154039000D01*
X82638742Y-154039000D01*
X82663512Y-154043927D01*
G37*
G36*
X67423512Y-154043927D02*
G01*
X67572812Y-154073624D01*
X67736784Y-154141544D01*
X67884354Y-154240147D01*
X68009853Y-154365646D01*
X68108456Y-154513216D01*
X68176376Y-154677188D01*
X68211000Y-154851259D01*
X68211000Y-155028741D01*
X68176376Y-155202812D01*
X68108456Y-155366784D01*
X68009853Y-155514354D01*
X67884354Y-155639853D01*
X67736784Y-155738456D01*
X67572812Y-155806376D01*
X67423512Y-155836073D01*
X67398742Y-155841000D01*
X67221258Y-155841000D01*
X67196488Y-155836073D01*
X67047188Y-155806376D01*
X66883216Y-155738456D01*
X66735646Y-155639853D01*
X66610147Y-155514354D01*
X66511544Y-155366784D01*
X66443624Y-155202812D01*
X66409000Y-155028741D01*
X66409000Y-154851259D01*
X66443624Y-154677188D01*
X66511544Y-154513216D01*
X66610147Y-154365646D01*
X66735646Y-154240147D01*
X66883216Y-154141544D01*
X67047188Y-154073624D01*
X67196488Y-154043927D01*
X67221258Y-154039000D01*
X67398742Y-154039000D01*
X67423512Y-154043927D01*
G37*
G36*
X124271600Y-155412000D02*
G01*
X122819600Y-155412000D01*
X122819600Y-153960000D01*
X124271600Y-153960000D01*
X124271600Y-155412000D01*
G37*
G36*
X27713500Y-155412000D02*
G01*
X26261500Y-155412000D01*
X26261500Y-153960000D01*
X27713500Y-153960000D01*
X27713500Y-155412000D01*
G37*
G36*
X48232564Y-153009889D02*
G01*
X48367166Y-153065643D01*
X48423835Y-153089116D01*
X48595973Y-153204135D01*
X48742365Y-153350527D01*
X48854052Y-153517678D01*
X48857385Y-153522667D01*
X48936611Y-153713936D01*
X48977000Y-153916984D01*
X48977000Y-154124016D01*
X48936611Y-154327064D01*
X48859504Y-154513218D01*
X48857384Y-154518335D01*
X48742365Y-154690473D01*
X48595973Y-154836865D01*
X48423835Y-154951884D01*
X48423834Y-154951885D01*
X48423833Y-154951885D01*
X48232564Y-155031111D01*
X48029516Y-155071500D01*
X47822484Y-155071500D01*
X47619436Y-155031111D01*
X47428167Y-154951885D01*
X47428166Y-154951885D01*
X47428165Y-154951884D01*
X47256027Y-154836865D01*
X47109635Y-154690473D01*
X46994616Y-154518335D01*
X46992496Y-154513218D01*
X46915389Y-154327064D01*
X46875000Y-154124016D01*
X46875000Y-153916984D01*
X46915389Y-153713936D01*
X46994615Y-153522667D01*
X46997949Y-153517678D01*
X47109635Y-153350527D01*
X47256027Y-153204135D01*
X47428165Y-153089116D01*
X47484834Y-153065643D01*
X47619436Y-153009889D01*
X47822484Y-152969500D01*
X48029516Y-152969500D01*
X48232564Y-153009889D01*
G37*
G36*
X53232564Y-153009889D02*
G01*
X53367166Y-153065643D01*
X53423835Y-153089116D01*
X53595973Y-153204135D01*
X53742365Y-153350527D01*
X53854052Y-153517678D01*
X53857385Y-153522667D01*
X53936611Y-153713936D01*
X53977000Y-153916984D01*
X53977000Y-154124016D01*
X53936611Y-154327064D01*
X53859504Y-154513218D01*
X53857384Y-154518335D01*
X53742365Y-154690473D01*
X53595973Y-154836865D01*
X53423835Y-154951884D01*
X53423834Y-154951885D01*
X53423833Y-154951885D01*
X53232564Y-155031111D01*
X53029516Y-155071500D01*
X52822484Y-155071500D01*
X52619436Y-155031111D01*
X52428167Y-154951885D01*
X52428166Y-154951885D01*
X52428165Y-154951884D01*
X52256027Y-154836865D01*
X52109635Y-154690473D01*
X51994616Y-154518335D01*
X51992496Y-154513218D01*
X51915389Y-154327064D01*
X51875000Y-154124016D01*
X51875000Y-153916984D01*
X51915389Y-153713936D01*
X51994615Y-153522667D01*
X51997949Y-153517678D01*
X52109635Y-153350527D01*
X52256027Y-153204135D01*
X52428165Y-153089116D01*
X52484834Y-153065643D01*
X52619436Y-153009889D01*
X52822484Y-152969500D01*
X53029516Y-152969500D01*
X53232564Y-153009889D01*
G37*
G36*
X95005500Y-154295500D02*
G01*
X91303500Y-154295500D01*
X91303500Y-151393500D01*
X95005500Y-151393500D01*
X95005500Y-154295500D01*
G37*
G36*
X117073642Y-152125281D02*
G01*
X117219414Y-152185662D01*
X117219416Y-152185663D01*
X117350608Y-152273322D01*
X117462178Y-152384892D01*
X117507409Y-152452586D01*
X117549838Y-152516086D01*
X117610219Y-152661858D01*
X117641000Y-152816607D01*
X117641000Y-152974393D01*
X117610219Y-153129142D01*
X117560190Y-153249921D01*
X117549837Y-153274916D01*
X117462178Y-153406108D01*
X117350608Y-153517678D01*
X117219416Y-153605337D01*
X117219415Y-153605338D01*
X117219414Y-153605338D01*
X117073642Y-153665719D01*
X116918893Y-153696500D01*
X116761107Y-153696500D01*
X116606358Y-153665719D01*
X116460586Y-153605338D01*
X116460585Y-153605338D01*
X116460584Y-153605337D01*
X116329392Y-153517678D01*
X116217822Y-153406108D01*
X116130163Y-153274916D01*
X116119810Y-153249921D01*
X116069781Y-153129142D01*
X116039000Y-152974393D01*
X116039000Y-152816607D01*
X116069781Y-152661858D01*
X116130162Y-152516086D01*
X116172591Y-152452586D01*
X116217822Y-152384892D01*
X116329392Y-152273322D01*
X116460584Y-152185663D01*
X116460586Y-152185662D01*
X116606358Y-152125281D01*
X116761107Y-152094500D01*
X116918893Y-152094500D01*
X117073642Y-152125281D01*
G37*
G36*
X106850142Y-152125281D02*
G01*
X106995914Y-152185662D01*
X106995916Y-152185663D01*
X107127108Y-152273322D01*
X107238678Y-152384892D01*
X107283909Y-152452586D01*
X107326338Y-152516086D01*
X107386719Y-152661858D01*
X107417500Y-152816607D01*
X107417500Y-152974393D01*
X107386719Y-153129142D01*
X107336690Y-153249921D01*
X107326337Y-153274916D01*
X107238678Y-153406108D01*
X107127108Y-153517678D01*
X106995916Y-153605337D01*
X106995915Y-153605338D01*
X106995914Y-153605338D01*
X106850142Y-153665719D01*
X106695393Y-153696500D01*
X106537607Y-153696500D01*
X106382858Y-153665719D01*
X106237086Y-153605338D01*
X106237085Y-153605338D01*
X106237084Y-153605337D01*
X106105892Y-153517678D01*
X105994322Y-153406108D01*
X105906663Y-153274916D01*
X105896310Y-153249921D01*
X105846281Y-153129142D01*
X105815500Y-152974393D01*
X105815500Y-152816607D01*
X105846281Y-152661858D01*
X105906662Y-152516086D01*
X105949091Y-152452586D01*
X105994322Y-152384892D01*
X106105892Y-152273322D01*
X106237084Y-152185663D01*
X106237086Y-152185662D01*
X106382858Y-152125281D01*
X106537607Y-152094500D01*
X106695393Y-152094500D01*
X106850142Y-152125281D01*
G37*
G36*
X33761642Y-152061781D02*
G01*
X33907414Y-152122162D01*
X33907416Y-152122163D01*
X34038608Y-152209822D01*
X34150178Y-152321392D01*
X34237837Y-152452584D01*
X34237838Y-152452586D01*
X34298219Y-152598358D01*
X34329000Y-152753107D01*
X34329000Y-152910893D01*
X34298219Y-153065642D01*
X34240853Y-153204135D01*
X34237837Y-153211416D01*
X34150178Y-153342608D01*
X34038608Y-153454178D01*
X33907416Y-153541837D01*
X33907415Y-153541838D01*
X33907414Y-153541838D01*
X33761642Y-153602219D01*
X33606893Y-153633000D01*
X33449107Y-153633000D01*
X33294358Y-153602219D01*
X33148586Y-153541838D01*
X33148585Y-153541838D01*
X33148584Y-153541837D01*
X33017392Y-153454178D01*
X32905822Y-153342608D01*
X32818163Y-153211416D01*
X32815147Y-153204135D01*
X32757781Y-153065642D01*
X32727000Y-152910893D01*
X32727000Y-152753107D01*
X32757781Y-152598358D01*
X32818162Y-152452586D01*
X32818163Y-152452584D01*
X32905822Y-152321392D01*
X33017392Y-152209822D01*
X33148584Y-152122163D01*
X33148586Y-152122162D01*
X33294358Y-152061781D01*
X33449107Y-152031000D01*
X33606893Y-152031000D01*
X33761642Y-152061781D01*
G37*
G36*
X64670500Y-153443500D02*
G01*
X63218500Y-153443500D01*
X63218500Y-151991500D01*
X64670500Y-151991500D01*
X64670500Y-153443500D01*
G37*
G36*
X123757366Y-151987899D02*
G01*
X123861420Y-152031000D01*
X123889490Y-152042627D01*
X124008398Y-152122079D01*
X124109521Y-152223202D01*
X124175130Y-152321393D01*
X124188974Y-152342112D01*
X124243701Y-152474234D01*
X124271600Y-152614494D01*
X124271600Y-152757506D01*
X124243701Y-152897766D01*
X124197258Y-153009889D01*
X124188973Y-153029890D01*
X124109521Y-153148798D01*
X124008398Y-153249921D01*
X123889490Y-153329373D01*
X123889489Y-153329374D01*
X123889488Y-153329374D01*
X123757366Y-153384101D01*
X123617106Y-153412000D01*
X123474094Y-153412000D01*
X123333834Y-153384101D01*
X123201712Y-153329374D01*
X123201711Y-153329374D01*
X123201710Y-153329373D01*
X123082802Y-153249921D01*
X122981679Y-153148798D01*
X122902227Y-153029890D01*
X122893942Y-153009889D01*
X122847499Y-152897766D01*
X122819600Y-152757506D01*
X122819600Y-152614494D01*
X122847499Y-152474234D01*
X122902226Y-152342112D01*
X122916070Y-152321393D01*
X122981679Y-152223202D01*
X123082802Y-152122079D01*
X123201710Y-152042627D01*
X123229780Y-152031000D01*
X123333834Y-151987899D01*
X123474094Y-151960000D01*
X123617106Y-151960000D01*
X123757366Y-151987899D01*
G37*
G36*
X27199266Y-151987899D02*
G01*
X27303320Y-152031000D01*
X27331390Y-152042627D01*
X27450298Y-152122079D01*
X27551421Y-152223202D01*
X27617030Y-152321393D01*
X27630874Y-152342112D01*
X27685601Y-152474234D01*
X27713500Y-152614494D01*
X27713500Y-152757506D01*
X27685601Y-152897766D01*
X27639158Y-153009889D01*
X27630873Y-153029890D01*
X27551421Y-153148798D01*
X27450298Y-153249921D01*
X27331390Y-153329373D01*
X27331389Y-153329374D01*
X27331388Y-153329374D01*
X27199266Y-153384101D01*
X27059006Y-153412000D01*
X26915994Y-153412000D01*
X26775734Y-153384101D01*
X26643612Y-153329374D01*
X26643611Y-153329374D01*
X26643610Y-153329373D01*
X26524702Y-153249921D01*
X26423579Y-153148798D01*
X26344127Y-153029890D01*
X26335842Y-153009889D01*
X26289399Y-152897766D01*
X26261500Y-152757506D01*
X26261500Y-152614494D01*
X26289399Y-152474234D01*
X26344126Y-152342112D01*
X26357970Y-152321393D01*
X26423579Y-152223202D01*
X26524702Y-152122079D01*
X26643610Y-152042627D01*
X26671680Y-152031000D01*
X26775734Y-151987899D01*
X26915994Y-151960000D01*
X27059006Y-151960000D01*
X27199266Y-151987899D01*
G37*
G36*
X83451000Y-153301000D02*
G01*
X81649000Y-153301000D01*
X81649000Y-151499000D01*
X83451000Y-151499000D01*
X83451000Y-153301000D01*
G37*
G36*
X68211000Y-153301000D02*
G01*
X66409000Y-153301000D01*
X66409000Y-151499000D01*
X68211000Y-151499000D01*
X68211000Y-153301000D01*
G37*
M02*
