M48
; DRILL file {KiCad (5.1.5)-3} date 1/28/2020 12:29:35 PM
; FORMAT={-:-/ absolute / inch / decimal}
; #@! TF.CreationDate,2020-01-28T12:29:35+09:00
; #@! TF.GenerationSoftware,Kicad,Pcbnew,(5.1.5)-3
; #@! TF.FileFunction,Plated,1,2,PTH
FMAT,2
INCH
T1C0.0157
T2C0.0315
T3C0.0354
T4C0.0394
T5C0.0512
T6C0.0709
%
G90
G05
T1
X2.375Y-6.65
T2
X4.3275Y-6.525
X4.3275Y-6.625
X1.4Y-6.525
X1.5Y-6.525
X4.2Y-6.525
X4.2Y-6.625
X1.0625Y-6.0113
X1.0625Y-6.09
X4.06Y-6.5225
X2.95Y-7.29
X2.5175Y-6.0125
X4.7838Y-7.2875
X4.8625Y-7.2875
X1.0625Y-7.2875
X1.1412Y-7.2875
X4.864Y-6.0113
X4.864Y-6.09
T3
X2.3725Y-7.22
X2.4225Y-7.22
X2.4725Y-7.22
X2.5225Y-7.22
T4
X2.65Y-6.0
X2.65Y-6.1
X2.65Y-6.2
X2.65Y-6.3
X2.65Y-6.4
X2.65Y-6.5
X2.65Y-6.6
X2.65Y-6.7
X2.65Y-6.8
X2.65Y-6.9
X2.65Y-7.0
X2.65Y-7.1
X2.65Y-7.2
X2.65Y-7.3
X3.3722Y-6.1435
X3.3722Y-6.2419
X3.3722Y-6.3403
X3.9431Y-6.1435
X3.9431Y-6.3403
X3.25Y-6.0
X3.25Y-6.1
X3.25Y-6.2
X3.25Y-6.3
X3.25Y-6.4
X3.25Y-6.5
X3.25Y-6.6
X3.25Y-6.7
X3.25Y-6.8
X3.25Y-6.9
X3.25Y-7.0
X3.25Y-7.1
X3.25Y-7.2
X3.25Y-7.3
T5
X1.69Y-6.4575
X1.7884Y-6.5559
X1.8869Y-6.0638
X1.9853Y-6.4575
X2.0837Y-6.0638
X2.1821Y-6.5559
X2.2806Y-6.4575
T6
G00X3.6832Y-6.0175
M15
G01X3.6518Y-6.0175
M16
G05
G00X3.6832Y-6.4663
M15
G01X3.6518Y-6.4663
M16
G05
T0
M30
