G04 #@! TF.GenerationSoftware,KiCad,Pcbnew,(5.1.5)-3*
G04 #@! TF.CreationDate,2020-01-28T12:29:24+09:00*
G04 #@! TF.ProjectId,SchoolDesk,5363686f-6f6c-4446-9573-6b2e6b696361,rev?*
G04 #@! TF.SameCoordinates,Original*
G04 #@! TF.FileFunction,Legend,Bot*
G04 #@! TF.FilePolarity,Positive*
%FSLAX46Y46*%
G04 Gerber Fmt 4.6, Leading zero omitted, Abs format (unit mm)*
G04 Created by KiCad (PCBNEW (5.1.5)-3) date 2020-01-28 12:29:24*
%MOMM*%
%LPD*%
G04 APERTURE LIST*
%ADD10C,0.150000*%
%ADD11C,0.120000*%
%ADD12C,0.010000*%
G04 APERTURE END LIST*
D10*
X114283833Y-153106380D02*
X114283833Y-152106380D01*
X113902880Y-152106380D01*
X113807642Y-152154000D01*
X113760023Y-152201619D01*
X113712404Y-152296857D01*
X113712404Y-152439714D01*
X113760023Y-152534952D01*
X113807642Y-152582571D01*
X113902880Y-152630190D01*
X114283833Y-152630190D01*
X113140976Y-153106380D02*
X113236214Y-153058761D01*
X113283833Y-153011142D01*
X113331452Y-152915904D01*
X113331452Y-152630190D01*
X113283833Y-152534952D01*
X113236214Y-152487333D01*
X113140976Y-152439714D01*
X112998119Y-152439714D01*
X112902880Y-152487333D01*
X112855261Y-152534952D01*
X112807642Y-152630190D01*
X112807642Y-152915904D01*
X112855261Y-153011142D01*
X112902880Y-153058761D01*
X112998119Y-153106380D01*
X113140976Y-153106380D01*
X112521928Y-152439714D02*
X112140976Y-152439714D01*
X112379071Y-152106380D02*
X112379071Y-152963523D01*
X112331452Y-153058761D01*
X112236214Y-153106380D01*
X112140976Y-153106380D01*
X110521928Y-153106380D02*
X111093357Y-153106380D01*
X110807642Y-153106380D02*
X110807642Y-152106380D01*
X110902880Y-152249238D01*
X110998119Y-152344476D01*
X111093357Y-152392095D01*
X109664785Y-152439714D02*
X109664785Y-153106380D01*
X109902880Y-152058761D02*
X110140976Y-152773047D01*
X109521928Y-152773047D01*
D11*
X27940000Y-154940000D02*
X28575000Y-155575000D01*
X27940000Y-153035000D02*
X28575000Y-153670000D01*
X122555000Y-154940000D02*
X121285000Y-156210000D01*
X122555000Y-153035000D02*
X121285000Y-154305000D01*
D10*
X98448761Y-155424571D02*
X98496380Y-155567428D01*
X98496380Y-155805523D01*
X98448761Y-155900761D01*
X98401142Y-155948380D01*
X98305904Y-155996000D01*
X98210666Y-155996000D01*
X98115428Y-155948380D01*
X98067809Y-155900761D01*
X98020190Y-155805523D01*
X97972571Y-155615047D01*
X97924952Y-155519809D01*
X97877333Y-155472190D01*
X97782095Y-155424571D01*
X97686857Y-155424571D01*
X97591619Y-155472190D01*
X97544000Y-155519809D01*
X97496380Y-155615047D01*
X97496380Y-155853142D01*
X97544000Y-155996000D01*
X97829714Y-156329333D02*
X98496380Y-156519809D01*
X98020190Y-156710285D01*
X98496380Y-156900761D01*
X97829714Y-157091238D01*
X98496380Y-157472190D02*
X97829714Y-157472190D01*
X97496380Y-157472190D02*
X97544000Y-157424571D01*
X97591619Y-157472190D01*
X97544000Y-157519809D01*
X97496380Y-157472190D01*
X97591619Y-157472190D01*
X97829714Y-157805523D02*
X97829714Y-158186476D01*
X97496380Y-157948380D02*
X98353523Y-157948380D01*
X98448761Y-157996000D01*
X98496380Y-158091238D01*
X98496380Y-158186476D01*
X98448761Y-158948380D02*
X98496380Y-158853142D01*
X98496380Y-158662666D01*
X98448761Y-158567428D01*
X98401142Y-158519809D01*
X98305904Y-158472190D01*
X98020190Y-158472190D01*
X97924952Y-158519809D01*
X97877333Y-158567428D01*
X97829714Y-158662666D01*
X97829714Y-158853142D01*
X97877333Y-158948380D01*
X98496380Y-159376952D02*
X97496380Y-159376952D01*
X98496380Y-159805523D02*
X97972571Y-159805523D01*
X97877333Y-159757904D01*
X97829714Y-159662666D01*
X97829714Y-159519809D01*
X97877333Y-159424571D01*
X97924952Y-159376952D01*
X97496380Y-160948380D02*
X97496380Y-161615047D01*
X98496380Y-161186476D01*
X93170000Y-156075071D02*
X92836666Y-156075071D01*
X92693809Y-156598880D02*
X93170000Y-156598880D01*
X93170000Y-155598880D01*
X92693809Y-155598880D01*
X92265238Y-155932214D02*
X92265238Y-156598880D01*
X92265238Y-156027452D02*
X92217619Y-155979833D01*
X92122380Y-155932214D01*
X91979523Y-155932214D01*
X91884285Y-155979833D01*
X91836666Y-156075071D01*
X91836666Y-156598880D01*
X90931904Y-156551261D02*
X91027142Y-156598880D01*
X91217619Y-156598880D01*
X91312857Y-156551261D01*
X91360476Y-156503642D01*
X91408095Y-156408404D01*
X91408095Y-156122690D01*
X91360476Y-156027452D01*
X91312857Y-155979833D01*
X91217619Y-155932214D01*
X91027142Y-155932214D01*
X90931904Y-155979833D01*
X90503333Y-156217928D02*
X89741428Y-156217928D01*
X89312857Y-156313166D02*
X88836666Y-156313166D01*
X89408095Y-156598880D02*
X89074761Y-155598880D01*
X88741428Y-156598880D01*
X87693809Y-155694119D02*
X87646190Y-155646500D01*
X87550952Y-155598880D01*
X87312857Y-155598880D01*
X87217619Y-155646500D01*
X87170000Y-155694119D01*
X87122380Y-155789357D01*
X87122380Y-155884595D01*
X87170000Y-156027452D01*
X87741428Y-156598880D01*
X87122380Y-156598880D01*
X93241428Y-160964571D02*
X92908095Y-160964571D01*
X92765238Y-161488380D02*
X93241428Y-161488380D01*
X93241428Y-160488380D01*
X92765238Y-160488380D01*
X92336666Y-160821714D02*
X92336666Y-161488380D01*
X92336666Y-160916952D02*
X92289047Y-160869333D01*
X92193809Y-160821714D01*
X92050952Y-160821714D01*
X91955714Y-160869333D01*
X91908095Y-160964571D01*
X91908095Y-161488380D01*
X91003333Y-161440761D02*
X91098571Y-161488380D01*
X91289047Y-161488380D01*
X91384285Y-161440761D01*
X91431904Y-161393142D01*
X91479523Y-161297904D01*
X91479523Y-161012190D01*
X91431904Y-160916952D01*
X91384285Y-160869333D01*
X91289047Y-160821714D01*
X91098571Y-160821714D01*
X91003333Y-160869333D01*
X90574761Y-161107428D02*
X89812857Y-161107428D01*
X89003333Y-160964571D02*
X88860476Y-161012190D01*
X88812857Y-161059809D01*
X88765238Y-161155047D01*
X88765238Y-161297904D01*
X88812857Y-161393142D01*
X88860476Y-161440761D01*
X88955714Y-161488380D01*
X89336666Y-161488380D01*
X89336666Y-160488380D01*
X89003333Y-160488380D01*
X88908095Y-160536000D01*
X88860476Y-160583619D01*
X88812857Y-160678857D01*
X88812857Y-160774095D01*
X88860476Y-160869333D01*
X88908095Y-160916952D01*
X89003333Y-160964571D01*
X89336666Y-160964571D01*
X87098571Y-160488380D02*
X87574761Y-160488380D01*
X87622380Y-160964571D01*
X87574761Y-160916952D01*
X87479523Y-160869333D01*
X87241428Y-160869333D01*
X87146190Y-160916952D01*
X87098571Y-160964571D01*
X87050952Y-161059809D01*
X87050952Y-161297904D01*
X87098571Y-161393142D01*
X87146190Y-161440761D01*
X87241428Y-161488380D01*
X87479523Y-161488380D01*
X87574761Y-161440761D01*
X87622380Y-161393142D01*
X72191119Y-185322595D02*
X72191119Y-185894023D01*
X72191119Y-185608309D02*
X73191119Y-185608309D01*
X73048261Y-185703547D01*
X72953023Y-185798785D01*
X72905404Y-185894023D01*
X73191119Y-184417833D02*
X73191119Y-184894023D01*
X72714928Y-184941642D01*
X72762547Y-184894023D01*
X72810166Y-184798785D01*
X72810166Y-184560690D01*
X72762547Y-184465452D01*
X72714928Y-184417833D01*
X72619690Y-184370214D01*
X72381595Y-184370214D01*
X72286357Y-184417833D01*
X72238738Y-184465452D01*
X72191119Y-184560690D01*
X72191119Y-184798785D01*
X72238738Y-184894023D01*
X72286357Y-184941642D01*
X71541119Y-185989261D02*
X71541119Y-185417833D01*
X70541119Y-185703547D02*
X71541119Y-185703547D01*
X70541119Y-184941642D02*
X70588738Y-185036880D01*
X70636357Y-185084500D01*
X70731595Y-185132119D01*
X71017309Y-185132119D01*
X71112547Y-185084500D01*
X71160166Y-185036880D01*
X71207785Y-184941642D01*
X71207785Y-184798785D01*
X71160166Y-184703547D01*
X71112547Y-184655928D01*
X71017309Y-184608309D01*
X70731595Y-184608309D01*
X70636357Y-184655928D01*
X70588738Y-184703547D01*
X70541119Y-184798785D01*
X70541119Y-184941642D01*
X71207785Y-183751166D02*
X70541119Y-183751166D01*
X71207785Y-184179738D02*
X70683976Y-184179738D01*
X70588738Y-184132119D01*
X70541119Y-184036880D01*
X70541119Y-183894023D01*
X70588738Y-183798785D01*
X70636357Y-183751166D01*
X70588738Y-182846404D02*
X70541119Y-182941642D01*
X70541119Y-183132119D01*
X70588738Y-183227357D01*
X70636357Y-183274976D01*
X70731595Y-183322595D01*
X71017309Y-183322595D01*
X71112547Y-183274976D01*
X71160166Y-183227357D01*
X71207785Y-183132119D01*
X71207785Y-182941642D01*
X71160166Y-182846404D01*
X70541119Y-182417833D02*
X71541119Y-182417833D01*
X70541119Y-181989261D02*
X71064928Y-181989261D01*
X71160166Y-182036880D01*
X71207785Y-182132119D01*
X71207785Y-182274976D01*
X71160166Y-182370214D01*
X71112547Y-182417833D01*
X101655238Y-152233380D02*
X101560000Y-152233380D01*
X101464761Y-152281000D01*
X101417142Y-152328619D01*
X101369523Y-152423857D01*
X101321904Y-152614333D01*
X101321904Y-152852428D01*
X101369523Y-153042904D01*
X101417142Y-153138142D01*
X101464761Y-153185761D01*
X101560000Y-153233380D01*
X101655238Y-153233380D01*
X101750476Y-153185761D01*
X101798095Y-153138142D01*
X101845714Y-153042904D01*
X101893333Y-152852428D01*
X101893333Y-152614333D01*
X101845714Y-152423857D01*
X101798095Y-152328619D01*
X101750476Y-152281000D01*
X101655238Y-152233380D01*
X100274285Y-152233380D02*
X99702857Y-152233380D01*
X99988571Y-153233380D02*
X99988571Y-152233380D01*
X99226666Y-153233380D02*
X99321904Y-153185761D01*
X99369523Y-153138142D01*
X99417142Y-153042904D01*
X99417142Y-152757190D01*
X99369523Y-152661952D01*
X99321904Y-152614333D01*
X99226666Y-152566714D01*
X99083809Y-152566714D01*
X98988571Y-152614333D01*
X98940952Y-152661952D01*
X98893333Y-152757190D01*
X98893333Y-153042904D01*
X98940952Y-153138142D01*
X98988571Y-153185761D01*
X99083809Y-153233380D01*
X99226666Y-153233380D01*
X98036190Y-152566714D02*
X98036190Y-153233380D01*
X98464761Y-152566714D02*
X98464761Y-153090523D01*
X98417142Y-153185761D01*
X98321904Y-153233380D01*
X98179047Y-153233380D01*
X98083809Y-153185761D01*
X98036190Y-153138142D01*
X97131428Y-153185761D02*
X97226666Y-153233380D01*
X97417142Y-153233380D01*
X97512380Y-153185761D01*
X97560000Y-153138142D01*
X97607619Y-153042904D01*
X97607619Y-152757190D01*
X97560000Y-152661952D01*
X97512380Y-152614333D01*
X97417142Y-152566714D01*
X97226666Y-152566714D01*
X97131428Y-152614333D01*
X96702857Y-153233380D02*
X96702857Y-152233380D01*
X96274285Y-153233380D02*
X96274285Y-152709571D01*
X96321904Y-152614333D01*
X96417142Y-152566714D01*
X96560000Y-152566714D01*
X96655238Y-152614333D01*
X96702857Y-152661952D01*
X47085071Y-168171880D02*
X46466023Y-168171880D01*
X46799357Y-168552833D01*
X46656500Y-168552833D01*
X46561261Y-168600452D01*
X46513642Y-168648071D01*
X46466023Y-168743309D01*
X46466023Y-168981404D01*
X46513642Y-169076642D01*
X46561261Y-169124261D01*
X46656500Y-169171880D01*
X46942214Y-169171880D01*
X47037452Y-169124261D01*
X47085071Y-169076642D01*
X46037452Y-169076642D02*
X45989833Y-169124261D01*
X46037452Y-169171880D01*
X46085071Y-169124261D01*
X46037452Y-169076642D01*
X46037452Y-169171880D01*
X45656500Y-168171880D02*
X45037452Y-168171880D01*
X45370785Y-168552833D01*
X45227928Y-168552833D01*
X45132690Y-168600452D01*
X45085071Y-168648071D01*
X45037452Y-168743309D01*
X45037452Y-168981404D01*
X45085071Y-169076642D01*
X45132690Y-169124261D01*
X45227928Y-169171880D01*
X45513642Y-169171880D01*
X45608880Y-169124261D01*
X45656500Y-169076642D01*
X44704119Y-168505214D02*
X44466023Y-169171880D01*
X44227928Y-168505214D01*
X54323190Y-180047380D02*
X54323190Y-180237857D01*
X53942238Y-180047380D02*
X53942238Y-180237857D01*
X53561285Y-180999761D02*
X53418428Y-181047380D01*
X53180333Y-181047380D01*
X53085095Y-180999761D01*
X53037476Y-180952142D01*
X52989857Y-180856904D01*
X52989857Y-180761666D01*
X53037476Y-180666428D01*
X53085095Y-180618809D01*
X53180333Y-180571190D01*
X53370809Y-180523571D01*
X53466047Y-180475952D01*
X53513666Y-180428333D01*
X53561285Y-180333095D01*
X53561285Y-180237857D01*
X53513666Y-180142619D01*
X53466047Y-180095000D01*
X53370809Y-180047380D01*
X53132714Y-180047380D01*
X52989857Y-180095000D01*
X52132714Y-180999761D02*
X52227952Y-181047380D01*
X52418428Y-181047380D01*
X52513666Y-180999761D01*
X52561285Y-180952142D01*
X52608904Y-180856904D01*
X52608904Y-180571190D01*
X52561285Y-180475952D01*
X52513666Y-180428333D01*
X52418428Y-180380714D01*
X52227952Y-180380714D01*
X52132714Y-180428333D01*
X51704142Y-181047380D02*
X51704142Y-180047380D01*
X51275571Y-181047380D02*
X51275571Y-180523571D01*
X51323190Y-180428333D01*
X51418428Y-180380714D01*
X51561285Y-180380714D01*
X51656523Y-180428333D01*
X51704142Y-180475952D01*
X50656523Y-181047380D02*
X50751761Y-180999761D01*
X50799380Y-180952142D01*
X50847000Y-180856904D01*
X50847000Y-180571190D01*
X50799380Y-180475952D01*
X50751761Y-180428333D01*
X50656523Y-180380714D01*
X50513666Y-180380714D01*
X50418428Y-180428333D01*
X50370809Y-180475952D01*
X50323190Y-180571190D01*
X50323190Y-180856904D01*
X50370809Y-180952142D01*
X50418428Y-180999761D01*
X50513666Y-181047380D01*
X50656523Y-181047380D01*
X49751761Y-181047380D02*
X49847000Y-180999761D01*
X49894619Y-180952142D01*
X49942238Y-180856904D01*
X49942238Y-180571190D01*
X49894619Y-180475952D01*
X49847000Y-180428333D01*
X49751761Y-180380714D01*
X49608904Y-180380714D01*
X49513666Y-180428333D01*
X49466047Y-180475952D01*
X49418428Y-180571190D01*
X49418428Y-180856904D01*
X49466047Y-180952142D01*
X49513666Y-180999761D01*
X49608904Y-181047380D01*
X49751761Y-181047380D01*
X48847000Y-181047380D02*
X48942238Y-180999761D01*
X48989857Y-180904523D01*
X48989857Y-180047380D01*
X47704142Y-181047380D02*
X47704142Y-180047380D01*
X47466047Y-180047380D01*
X47323190Y-180095000D01*
X47227952Y-180190238D01*
X47180333Y-180285476D01*
X47132714Y-180475952D01*
X47132714Y-180618809D01*
X47180333Y-180809285D01*
X47227952Y-180904523D01*
X47323190Y-180999761D01*
X47466047Y-181047380D01*
X47704142Y-181047380D01*
X46323190Y-180999761D02*
X46418428Y-181047380D01*
X46608904Y-181047380D01*
X46704142Y-180999761D01*
X46751761Y-180904523D01*
X46751761Y-180523571D01*
X46704142Y-180428333D01*
X46608904Y-180380714D01*
X46418428Y-180380714D01*
X46323190Y-180428333D01*
X46275571Y-180523571D01*
X46275571Y-180618809D01*
X46751761Y-180714047D01*
X45894619Y-180999761D02*
X45799380Y-181047380D01*
X45608904Y-181047380D01*
X45513666Y-180999761D01*
X45466047Y-180904523D01*
X45466047Y-180856904D01*
X45513666Y-180761666D01*
X45608904Y-180714047D01*
X45751761Y-180714047D01*
X45847000Y-180666428D01*
X45894619Y-180571190D01*
X45894619Y-180523571D01*
X45847000Y-180428333D01*
X45751761Y-180380714D01*
X45608904Y-180380714D01*
X45513666Y-180428333D01*
X45037476Y-181047380D02*
X45037476Y-180047380D01*
X44942238Y-180666428D02*
X44656523Y-181047380D01*
X44656523Y-180380714D02*
X45037476Y-180761666D01*
X44275571Y-180047380D02*
X44275571Y-180237857D01*
X43894619Y-180047380D02*
X43894619Y-180237857D01*
X42132714Y-181047380D02*
X42466047Y-180571190D01*
X42704142Y-181047380D02*
X42704142Y-180047380D01*
X42323190Y-180047380D01*
X42227952Y-180095000D01*
X42180333Y-180142619D01*
X42132714Y-180237857D01*
X42132714Y-180380714D01*
X42180333Y-180475952D01*
X42227952Y-180523571D01*
X42323190Y-180571190D01*
X42704142Y-180571190D01*
X41323190Y-180999761D02*
X41418428Y-181047380D01*
X41608904Y-181047380D01*
X41704142Y-180999761D01*
X41751761Y-180904523D01*
X41751761Y-180523571D01*
X41704142Y-180428333D01*
X41608904Y-180380714D01*
X41418428Y-180380714D01*
X41323190Y-180428333D01*
X41275571Y-180523571D01*
X41275571Y-180618809D01*
X41751761Y-180714047D01*
X40942238Y-180380714D02*
X40704142Y-181047380D01*
X40466047Y-180380714D01*
X38799380Y-181047380D02*
X39370809Y-181047380D01*
X39085095Y-181047380D02*
X39085095Y-180047380D01*
X39180333Y-180190238D01*
X39275571Y-180285476D01*
X39370809Y-180333095D01*
X38370809Y-180952142D02*
X38323190Y-180999761D01*
X38370809Y-181047380D01*
X38418428Y-180999761D01*
X38370809Y-180952142D01*
X38370809Y-181047380D01*
X37704142Y-180047380D02*
X37608904Y-180047380D01*
X37513666Y-180095000D01*
X37466047Y-180142619D01*
X37418428Y-180237857D01*
X37370809Y-180428333D01*
X37370809Y-180666428D01*
X37418428Y-180856904D01*
X37466047Y-180952142D01*
X37513666Y-180999761D01*
X37608904Y-181047380D01*
X37704142Y-181047380D01*
X37799380Y-180999761D01*
X37847000Y-180952142D01*
X37894619Y-180856904D01*
X37942238Y-180666428D01*
X37942238Y-180428333D01*
X37894619Y-180237857D01*
X37847000Y-180142619D01*
X37799380Y-180095000D01*
X37704142Y-180047380D01*
X56323190Y-182697380D02*
X56323190Y-181697380D01*
X56085095Y-181697380D01*
X55942238Y-181745000D01*
X55847000Y-181840238D01*
X55799380Y-181935476D01*
X55751761Y-182125952D01*
X55751761Y-182268809D01*
X55799380Y-182459285D01*
X55847000Y-182554523D01*
X55942238Y-182649761D01*
X56085095Y-182697380D01*
X56323190Y-182697380D01*
X54942238Y-182649761D02*
X55037476Y-182697380D01*
X55227952Y-182697380D01*
X55323190Y-182649761D01*
X55370809Y-182554523D01*
X55370809Y-182173571D01*
X55323190Y-182078333D01*
X55227952Y-182030714D01*
X55037476Y-182030714D01*
X54942238Y-182078333D01*
X54894619Y-182173571D01*
X54894619Y-182268809D01*
X55370809Y-182364047D01*
X54513666Y-182649761D02*
X54418428Y-182697380D01*
X54227952Y-182697380D01*
X54132714Y-182649761D01*
X54085095Y-182554523D01*
X54085095Y-182506904D01*
X54132714Y-182411666D01*
X54227952Y-182364047D01*
X54370809Y-182364047D01*
X54466047Y-182316428D01*
X54513666Y-182221190D01*
X54513666Y-182173571D01*
X54466047Y-182078333D01*
X54370809Y-182030714D01*
X54227952Y-182030714D01*
X54132714Y-182078333D01*
X53656523Y-182697380D02*
X53656523Y-182030714D01*
X53656523Y-181697380D02*
X53704142Y-181745000D01*
X53656523Y-181792619D01*
X53608904Y-181745000D01*
X53656523Y-181697380D01*
X53656523Y-181792619D01*
X52751761Y-182030714D02*
X52751761Y-182840238D01*
X52799380Y-182935476D01*
X52847000Y-182983095D01*
X52942238Y-183030714D01*
X53085095Y-183030714D01*
X53180333Y-182983095D01*
X52751761Y-182649761D02*
X52847000Y-182697380D01*
X53037476Y-182697380D01*
X53132714Y-182649761D01*
X53180333Y-182602142D01*
X53227952Y-182506904D01*
X53227952Y-182221190D01*
X53180333Y-182125952D01*
X53132714Y-182078333D01*
X53037476Y-182030714D01*
X52847000Y-182030714D01*
X52751761Y-182078333D01*
X52275571Y-182030714D02*
X52275571Y-182697380D01*
X52275571Y-182125952D02*
X52227952Y-182078333D01*
X52132714Y-182030714D01*
X51989857Y-182030714D01*
X51894619Y-182078333D01*
X51847000Y-182173571D01*
X51847000Y-182697380D01*
X50989857Y-182649761D02*
X51085095Y-182697380D01*
X51275571Y-182697380D01*
X51370809Y-182649761D01*
X51418428Y-182554523D01*
X51418428Y-182173571D01*
X51370809Y-182078333D01*
X51275571Y-182030714D01*
X51085095Y-182030714D01*
X50989857Y-182078333D01*
X50942238Y-182173571D01*
X50942238Y-182268809D01*
X51418428Y-182364047D01*
X50085095Y-182697380D02*
X50085095Y-181697380D01*
X50085095Y-182649761D02*
X50180333Y-182697380D01*
X50370809Y-182697380D01*
X50466047Y-182649761D01*
X50513666Y-182602142D01*
X50561285Y-182506904D01*
X50561285Y-182221190D01*
X50513666Y-182125952D01*
X50466047Y-182078333D01*
X50370809Y-182030714D01*
X50180333Y-182030714D01*
X50085095Y-182078333D01*
X48847000Y-182697380D02*
X48847000Y-181697380D01*
X48847000Y-182078333D02*
X48751761Y-182030714D01*
X48561285Y-182030714D01*
X48466047Y-182078333D01*
X48418428Y-182125952D01*
X48370809Y-182221190D01*
X48370809Y-182506904D01*
X48418428Y-182602142D01*
X48466047Y-182649761D01*
X48561285Y-182697380D01*
X48751761Y-182697380D01*
X48847000Y-182649761D01*
X48037476Y-182030714D02*
X47799380Y-182697380D01*
X47561285Y-182030714D02*
X47799380Y-182697380D01*
X47894619Y-182935476D01*
X47942238Y-182983095D01*
X48037476Y-183030714D01*
X46132714Y-181697380D02*
X46132714Y-182411666D01*
X46180333Y-182554523D01*
X46275571Y-182649761D01*
X46418428Y-182697380D01*
X46513666Y-182697380D01*
X45513666Y-182697380D02*
X45608904Y-182649761D01*
X45656523Y-182602142D01*
X45704142Y-182506904D01*
X45704142Y-182221190D01*
X45656523Y-182125952D01*
X45608904Y-182078333D01*
X45513666Y-182030714D01*
X45370809Y-182030714D01*
X45275571Y-182078333D01*
X45227952Y-182125952D01*
X45180333Y-182221190D01*
X45180333Y-182506904D01*
X45227952Y-182602142D01*
X45275571Y-182649761D01*
X45370809Y-182697380D01*
X45513666Y-182697380D01*
X44799380Y-182649761D02*
X44704142Y-182697380D01*
X44513666Y-182697380D01*
X44418428Y-182649761D01*
X44370809Y-182554523D01*
X44370809Y-182506904D01*
X44418428Y-182411666D01*
X44513666Y-182364047D01*
X44656523Y-182364047D01*
X44751761Y-182316428D01*
X44799380Y-182221190D01*
X44799380Y-182173571D01*
X44751761Y-182078333D01*
X44656523Y-182030714D01*
X44513666Y-182030714D01*
X44418428Y-182078333D01*
X43942238Y-182697380D02*
X43942238Y-181697380D01*
X43513666Y-182697380D02*
X43513666Y-182173571D01*
X43561285Y-182078333D01*
X43656523Y-182030714D01*
X43799380Y-182030714D01*
X43894619Y-182078333D01*
X43942238Y-182125952D01*
X42275571Y-182697380D02*
X42275571Y-181697380D01*
X41704142Y-182697380D01*
X41704142Y-181697380D01*
X41227952Y-182697380D02*
X41227952Y-182030714D01*
X41227952Y-181697380D02*
X41275571Y-181745000D01*
X41227952Y-181792619D01*
X41180333Y-181745000D01*
X41227952Y-181697380D01*
X41227952Y-181792619D01*
X40799380Y-182649761D02*
X40704142Y-182697380D01*
X40513666Y-182697380D01*
X40418428Y-182649761D01*
X40370809Y-182554523D01*
X40370809Y-182506904D01*
X40418428Y-182411666D01*
X40513666Y-182364047D01*
X40656523Y-182364047D01*
X40751761Y-182316428D01*
X40799380Y-182221190D01*
X40799380Y-182173571D01*
X40751761Y-182078333D01*
X40656523Y-182030714D01*
X40513666Y-182030714D01*
X40418428Y-182078333D01*
X39942238Y-182697380D02*
X39942238Y-181697380D01*
X39513666Y-182697380D02*
X39513666Y-182173571D01*
X39561285Y-182078333D01*
X39656523Y-182030714D01*
X39799380Y-182030714D01*
X39894619Y-182078333D01*
X39942238Y-182125952D01*
X39037476Y-182697380D02*
X39037476Y-182030714D01*
X39037476Y-181697380D02*
X39085095Y-181745000D01*
X39037476Y-181792619D01*
X38989857Y-181745000D01*
X39037476Y-181697380D01*
X39037476Y-181792619D01*
X38561285Y-182697380D02*
X38561285Y-181697380D01*
X38466047Y-182316428D02*
X38180333Y-182697380D01*
X38180333Y-182030714D02*
X38561285Y-182411666D01*
X37323190Y-182697380D02*
X37323190Y-182173571D01*
X37370809Y-182078333D01*
X37466047Y-182030714D01*
X37656523Y-182030714D01*
X37751761Y-182078333D01*
X37323190Y-182649761D02*
X37418428Y-182697380D01*
X37656523Y-182697380D01*
X37751761Y-182649761D01*
X37799380Y-182554523D01*
X37799380Y-182459285D01*
X37751761Y-182364047D01*
X37656523Y-182316428D01*
X37418428Y-182316428D01*
X37323190Y-182268809D01*
X36942238Y-182030714D02*
X36751761Y-182697380D01*
X36561285Y-182221190D01*
X36370809Y-182697380D01*
X36180333Y-182030714D01*
X35370809Y-182697380D02*
X35370809Y-182173571D01*
X35418428Y-182078333D01*
X35513666Y-182030714D01*
X35704142Y-182030714D01*
X35799380Y-182078333D01*
X35370809Y-182649761D02*
X35466047Y-182697380D01*
X35704142Y-182697380D01*
X35799380Y-182649761D01*
X35847000Y-182554523D01*
X35847000Y-182459285D01*
X35799380Y-182364047D01*
X35704142Y-182316428D01*
X35466047Y-182316428D01*
X35370809Y-182268809D01*
X55275571Y-183680714D02*
X55275571Y-184537857D01*
X55323190Y-184633095D01*
X55418428Y-184680714D01*
X55466047Y-184680714D01*
X55275571Y-183347380D02*
X55323190Y-183395000D01*
X55275571Y-183442619D01*
X55227952Y-183395000D01*
X55275571Y-183347380D01*
X55275571Y-183442619D01*
X54656523Y-184347380D02*
X54751761Y-184299761D01*
X54799380Y-184252142D01*
X54847000Y-184156904D01*
X54847000Y-183871190D01*
X54799380Y-183775952D01*
X54751761Y-183728333D01*
X54656523Y-183680714D01*
X54513666Y-183680714D01*
X54418428Y-183728333D01*
X54370809Y-183775952D01*
X54323190Y-183871190D01*
X54323190Y-184156904D01*
X54370809Y-184252142D01*
X54418428Y-184299761D01*
X54513666Y-184347380D01*
X54656523Y-184347380D01*
X53942238Y-184299761D02*
X53847000Y-184347380D01*
X53656523Y-184347380D01*
X53561285Y-184299761D01*
X53513666Y-184204523D01*
X53513666Y-184156904D01*
X53561285Y-184061666D01*
X53656523Y-184014047D01*
X53799380Y-184014047D01*
X53894619Y-183966428D01*
X53942238Y-183871190D01*
X53942238Y-183823571D01*
X53894619Y-183728333D01*
X53799380Y-183680714D01*
X53656523Y-183680714D01*
X53561285Y-183728333D01*
X53085095Y-184347380D02*
X53085095Y-183347380D01*
X52656523Y-184347380D02*
X52656523Y-183823571D01*
X52704142Y-183728333D01*
X52799380Y-183680714D01*
X52942238Y-183680714D01*
X53037476Y-183728333D01*
X53085095Y-183775952D01*
X52180333Y-183680714D02*
X52180333Y-184347380D01*
X52180333Y-183775952D02*
X52132714Y-183728333D01*
X52037476Y-183680714D01*
X51894619Y-183680714D01*
X51799380Y-183728333D01*
X51751761Y-183823571D01*
X51751761Y-184347380D01*
X51275571Y-184347380D02*
X51275571Y-183680714D01*
X51275571Y-183347380D02*
X51323190Y-183395000D01*
X51275571Y-183442619D01*
X51227952Y-183395000D01*
X51275571Y-183347380D01*
X51275571Y-183442619D01*
X50847000Y-184299761D02*
X50751761Y-184347380D01*
X50561285Y-184347380D01*
X50466047Y-184299761D01*
X50418428Y-184204523D01*
X50418428Y-184156904D01*
X50466047Y-184061666D01*
X50561285Y-184014047D01*
X50704142Y-184014047D01*
X50799380Y-183966428D01*
X50847000Y-183871190D01*
X50847000Y-183823571D01*
X50799380Y-183728333D01*
X50704142Y-183680714D01*
X50561285Y-183680714D01*
X50466047Y-183728333D01*
X49989857Y-184347380D02*
X49989857Y-183347380D01*
X49561285Y-184347380D02*
X49561285Y-183823571D01*
X49608904Y-183728333D01*
X49704142Y-183680714D01*
X49847000Y-183680714D01*
X49942238Y-183728333D01*
X49989857Y-183775952D01*
X49085095Y-184347380D02*
X49085095Y-183680714D01*
X49085095Y-183347380D02*
X49132714Y-183395000D01*
X49085095Y-183442619D01*
X49037476Y-183395000D01*
X49085095Y-183347380D01*
X49085095Y-183442619D01*
X48608904Y-184347380D02*
X48608904Y-183347380D01*
X48513666Y-183966428D02*
X48227952Y-184347380D01*
X48227952Y-183680714D02*
X48608904Y-184061666D01*
X47370809Y-184347380D02*
X47370809Y-183823571D01*
X47418428Y-183728333D01*
X47513666Y-183680714D01*
X47704142Y-183680714D01*
X47799380Y-183728333D01*
X47370809Y-184299761D02*
X47466047Y-184347380D01*
X47704142Y-184347380D01*
X47799380Y-184299761D01*
X47847000Y-184204523D01*
X47847000Y-184109285D01*
X47799380Y-184014047D01*
X47704142Y-183966428D01*
X47466047Y-183966428D01*
X47370809Y-183918809D01*
X46989857Y-183680714D02*
X46799380Y-184347380D01*
X46608904Y-183871190D01*
X46418428Y-184347380D01*
X46227952Y-183680714D01*
X45418428Y-184347380D02*
X45418428Y-183823571D01*
X45466047Y-183728333D01*
X45561285Y-183680714D01*
X45751761Y-183680714D01*
X45847000Y-183728333D01*
X45418428Y-184299761D02*
X45513666Y-184347380D01*
X45751761Y-184347380D01*
X45847000Y-184299761D01*
X45894619Y-184204523D01*
X45894619Y-184109285D01*
X45847000Y-184014047D01*
X45751761Y-183966428D01*
X45513666Y-183966428D01*
X45418428Y-183918809D01*
X44323190Y-183871190D02*
X44370809Y-183823571D01*
X44466047Y-183775952D01*
X44561285Y-183775952D01*
X44656523Y-183823571D01*
X44704142Y-183871190D01*
X44751761Y-183966428D01*
X44751761Y-184061666D01*
X44704142Y-184156904D01*
X44656523Y-184204523D01*
X44561285Y-184252142D01*
X44466047Y-184252142D01*
X44370809Y-184204523D01*
X44323190Y-184156904D01*
X44323190Y-183775952D02*
X44323190Y-184156904D01*
X44275571Y-184204523D01*
X44227952Y-184204523D01*
X44132714Y-184156904D01*
X44085095Y-184061666D01*
X44085095Y-183823571D01*
X44180333Y-183680714D01*
X44323190Y-183585476D01*
X44513666Y-183537857D01*
X44704142Y-183585476D01*
X44847000Y-183680714D01*
X44942238Y-183823571D01*
X44989857Y-184014047D01*
X44942238Y-184204523D01*
X44847000Y-184347380D01*
X44704142Y-184442619D01*
X44513666Y-184490238D01*
X44323190Y-184442619D01*
X44180333Y-184347380D01*
X43227952Y-183680714D02*
X43227952Y-184490238D01*
X43275571Y-184585476D01*
X43323190Y-184633095D01*
X43418428Y-184680714D01*
X43561285Y-184680714D01*
X43656523Y-184633095D01*
X43227952Y-184299761D02*
X43323190Y-184347380D01*
X43513666Y-184347380D01*
X43608904Y-184299761D01*
X43656523Y-184252142D01*
X43704142Y-184156904D01*
X43704142Y-183871190D01*
X43656523Y-183775952D01*
X43608904Y-183728333D01*
X43513666Y-183680714D01*
X43323190Y-183680714D01*
X43227952Y-183728333D01*
X42751761Y-184347380D02*
X42751761Y-183680714D01*
X42751761Y-183775952D02*
X42704142Y-183728333D01*
X42608904Y-183680714D01*
X42466047Y-183680714D01*
X42370809Y-183728333D01*
X42323190Y-183823571D01*
X42323190Y-184347380D01*
X42323190Y-183823571D02*
X42275571Y-183728333D01*
X42180333Y-183680714D01*
X42037476Y-183680714D01*
X41942238Y-183728333D01*
X41894619Y-183823571D01*
X41894619Y-184347380D01*
X40989857Y-184347380D02*
X40989857Y-183823571D01*
X41037476Y-183728333D01*
X41132714Y-183680714D01*
X41323190Y-183680714D01*
X41418428Y-183728333D01*
X40989857Y-184299761D02*
X41085095Y-184347380D01*
X41323190Y-184347380D01*
X41418428Y-184299761D01*
X41466047Y-184204523D01*
X41466047Y-184109285D01*
X41418428Y-184014047D01*
X41323190Y-183966428D01*
X41085095Y-183966428D01*
X40989857Y-183918809D01*
X40513666Y-184347380D02*
X40513666Y-183680714D01*
X40513666Y-183347380D02*
X40561285Y-183395000D01*
X40513666Y-183442619D01*
X40466047Y-183395000D01*
X40513666Y-183347380D01*
X40513666Y-183442619D01*
X39894619Y-184347380D02*
X39989857Y-184299761D01*
X40037476Y-184204523D01*
X40037476Y-183347380D01*
X39513666Y-184252142D02*
X39466047Y-184299761D01*
X39513666Y-184347380D01*
X39561285Y-184299761D01*
X39513666Y-184252142D01*
X39513666Y-184347380D01*
X38608904Y-184299761D02*
X38704142Y-184347380D01*
X38894619Y-184347380D01*
X38989857Y-184299761D01*
X39037476Y-184252142D01*
X39085095Y-184156904D01*
X39085095Y-183871190D01*
X39037476Y-183775952D01*
X38989857Y-183728333D01*
X38894619Y-183680714D01*
X38704142Y-183680714D01*
X38608904Y-183728333D01*
X38037476Y-184347380D02*
X38132714Y-184299761D01*
X38180333Y-184252142D01*
X38227952Y-184156904D01*
X38227952Y-183871190D01*
X38180333Y-183775952D01*
X38132714Y-183728333D01*
X38037476Y-183680714D01*
X37894619Y-183680714D01*
X37799380Y-183728333D01*
X37751761Y-183775952D01*
X37704142Y-183871190D01*
X37704142Y-184156904D01*
X37751761Y-184252142D01*
X37799380Y-184299761D01*
X37894619Y-184347380D01*
X38037476Y-184347380D01*
X37275571Y-184347380D02*
X37275571Y-183680714D01*
X37275571Y-183775952D02*
X37227952Y-183728333D01*
X37132714Y-183680714D01*
X36989857Y-183680714D01*
X36894619Y-183728333D01*
X36847000Y-183823571D01*
X36847000Y-184347380D01*
X36847000Y-183823571D02*
X36799380Y-183728333D01*
X36704142Y-183680714D01*
X36561285Y-183680714D01*
X36466047Y-183728333D01*
X36418428Y-183823571D01*
X36418428Y-184347380D01*
X55530738Y-168601452D02*
X55625976Y-168553833D01*
X55673595Y-168506214D01*
X55721214Y-168410976D01*
X55721214Y-168363357D01*
X55673595Y-168268119D01*
X55625976Y-168220500D01*
X55530738Y-168172880D01*
X55340261Y-168172880D01*
X55245023Y-168220500D01*
X55197404Y-168268119D01*
X55149785Y-168363357D01*
X55149785Y-168410976D01*
X55197404Y-168506214D01*
X55245023Y-168553833D01*
X55340261Y-168601452D01*
X55530738Y-168601452D01*
X55625976Y-168649071D01*
X55673595Y-168696690D01*
X55721214Y-168791928D01*
X55721214Y-168982404D01*
X55673595Y-169077642D01*
X55625976Y-169125261D01*
X55530738Y-169172880D01*
X55340261Y-169172880D01*
X55245023Y-169125261D01*
X55197404Y-169077642D01*
X55149785Y-168982404D01*
X55149785Y-168791928D01*
X55197404Y-168696690D01*
X55245023Y-168649071D01*
X55340261Y-168601452D01*
X58316452Y-170822880D02*
X58316452Y-169822880D01*
X57983119Y-170537166D01*
X57649785Y-169822880D01*
X57649785Y-170822880D01*
X57173595Y-170822880D02*
X57173595Y-169822880D01*
X56697404Y-170822880D02*
X56697404Y-169822880D01*
X56459309Y-169822880D01*
X56316452Y-169870500D01*
X56221214Y-169965738D01*
X56173595Y-170060976D01*
X56125976Y-170251452D01*
X56125976Y-170394309D01*
X56173595Y-170584785D01*
X56221214Y-170680023D01*
X56316452Y-170775261D01*
X56459309Y-170822880D01*
X56697404Y-170822880D01*
X55697404Y-170822880D02*
X55697404Y-169822880D01*
X54316452Y-170822880D02*
X54411690Y-170775261D01*
X54459309Y-170727642D01*
X54506928Y-170632404D01*
X54506928Y-170346690D01*
X54459309Y-170251452D01*
X54411690Y-170203833D01*
X54316452Y-170156214D01*
X54173595Y-170156214D01*
X54078357Y-170203833D01*
X54030738Y-170251452D01*
X53983119Y-170346690D01*
X53983119Y-170632404D01*
X54030738Y-170727642D01*
X54078357Y-170775261D01*
X54173595Y-170822880D01*
X54316452Y-170822880D01*
X53125976Y-170156214D02*
X53125976Y-170822880D01*
X53554547Y-170156214D02*
X53554547Y-170680023D01*
X53506928Y-170775261D01*
X53411690Y-170822880D01*
X53268833Y-170822880D01*
X53173595Y-170775261D01*
X53125976Y-170727642D01*
X52792642Y-170156214D02*
X52411690Y-170156214D01*
X52649785Y-169822880D02*
X52649785Y-170680023D01*
X52602166Y-170775261D01*
X52506928Y-170822880D01*
X52411690Y-170822880D01*
X56911690Y-172853833D02*
X56959309Y-172806214D01*
X57054547Y-172663357D01*
X57102166Y-172568119D01*
X57149785Y-172425261D01*
X57197404Y-172187166D01*
X57197404Y-171996690D01*
X57149785Y-171758595D01*
X57102166Y-171615738D01*
X57054547Y-171520500D01*
X56959309Y-171377642D01*
X56911690Y-171330023D01*
X56673595Y-171472880D02*
X56102166Y-171472880D01*
X56387880Y-172472880D02*
X56387880Y-171472880D01*
X55864071Y-171472880D02*
X55197404Y-172472880D01*
X55197404Y-171472880D02*
X55864071Y-172472880D01*
X54911690Y-171472880D02*
X54292642Y-171472880D01*
X54625976Y-171853833D01*
X54483119Y-171853833D01*
X54387880Y-171901452D01*
X54340261Y-171949071D01*
X54292642Y-172044309D01*
X54292642Y-172282404D01*
X54340261Y-172377642D01*
X54387880Y-172425261D01*
X54483119Y-172472880D01*
X54768833Y-172472880D01*
X54864071Y-172425261D01*
X54911690Y-172377642D01*
X53959309Y-172853833D02*
X53911690Y-172806214D01*
X53816452Y-172663357D01*
X53768833Y-172568119D01*
X53721214Y-172425261D01*
X53673595Y-172187166D01*
X53673595Y-171996690D01*
X53721214Y-171758595D01*
X53768833Y-171615738D01*
X53816452Y-171520500D01*
X53911690Y-171377642D01*
X53959309Y-171330023D01*
X77667928Y-168092380D02*
X77667928Y-167092380D01*
X77286976Y-167092380D01*
X77191738Y-167140000D01*
X77144119Y-167187619D01*
X77096500Y-167282857D01*
X77096500Y-167425714D01*
X77144119Y-167520952D01*
X77191738Y-167568571D01*
X77286976Y-167616190D01*
X77667928Y-167616190D01*
X76286976Y-168044761D02*
X76382214Y-168092380D01*
X76572690Y-168092380D01*
X76667928Y-168044761D01*
X76715547Y-167949523D01*
X76715547Y-167568571D01*
X76667928Y-167473333D01*
X76572690Y-167425714D01*
X76382214Y-167425714D01*
X76286976Y-167473333D01*
X76239357Y-167568571D01*
X76239357Y-167663809D01*
X76715547Y-167759047D01*
X75382214Y-168092380D02*
X75382214Y-167092380D01*
X75382214Y-168044761D02*
X75477452Y-168092380D01*
X75667928Y-168092380D01*
X75763166Y-168044761D01*
X75810785Y-167997142D01*
X75858404Y-167901904D01*
X75858404Y-167616190D01*
X75810785Y-167520952D01*
X75763166Y-167473333D01*
X75667928Y-167425714D01*
X75477452Y-167425714D01*
X75382214Y-167473333D01*
X74477452Y-168092380D02*
X74477452Y-167568571D01*
X74525071Y-167473333D01*
X74620309Y-167425714D01*
X74810785Y-167425714D01*
X74906023Y-167473333D01*
X74477452Y-168044761D02*
X74572690Y-168092380D01*
X74810785Y-168092380D01*
X74906023Y-168044761D01*
X74953642Y-167949523D01*
X74953642Y-167854285D01*
X74906023Y-167759047D01*
X74810785Y-167711428D01*
X74572690Y-167711428D01*
X74477452Y-167663809D01*
X73858404Y-168092380D02*
X73953642Y-168044761D01*
X74001261Y-167949523D01*
X74001261Y-167092380D01*
X72382214Y-167568571D02*
X72239357Y-167616190D01*
X72191738Y-167663809D01*
X72144119Y-167759047D01*
X72144119Y-167901904D01*
X72191738Y-167997142D01*
X72239357Y-168044761D01*
X72334595Y-168092380D01*
X72715547Y-168092380D01*
X72715547Y-167092380D01*
X72382214Y-167092380D01*
X72286976Y-167140000D01*
X72239357Y-167187619D01*
X72191738Y-167282857D01*
X72191738Y-167378095D01*
X72239357Y-167473333D01*
X72286976Y-167520952D01*
X72382214Y-167568571D01*
X72715547Y-167568571D01*
X71001261Y-167187619D02*
X70953642Y-167140000D01*
X70858404Y-167092380D01*
X70620309Y-167092380D01*
X70525071Y-167140000D01*
X70477452Y-167187619D01*
X70429833Y-167282857D01*
X70429833Y-167378095D01*
X70477452Y-167520952D01*
X71048880Y-168092380D01*
X70429833Y-168092380D01*
X69810785Y-167092380D02*
X69715547Y-167092380D01*
X69620309Y-167140000D01*
X69572690Y-167187619D01*
X69525071Y-167282857D01*
X69477452Y-167473333D01*
X69477452Y-167711428D01*
X69525071Y-167901904D01*
X69572690Y-167997142D01*
X69620309Y-168044761D01*
X69715547Y-168092380D01*
X69810785Y-168092380D01*
X69906023Y-168044761D01*
X69953642Y-167997142D01*
X70001261Y-167901904D01*
X70048880Y-167711428D01*
X70048880Y-167473333D01*
X70001261Y-167282857D01*
X69953642Y-167187619D01*
X69906023Y-167140000D01*
X69810785Y-167092380D01*
X77469500Y-165615880D02*
X77469500Y-164615880D01*
X77088547Y-164615880D01*
X76993309Y-164663500D01*
X76945690Y-164711119D01*
X76898071Y-164806357D01*
X76898071Y-164949214D01*
X76945690Y-165044452D01*
X76993309Y-165092071D01*
X77088547Y-165139690D01*
X77469500Y-165139690D01*
X76088547Y-165568261D02*
X76183785Y-165615880D01*
X76374261Y-165615880D01*
X76469500Y-165568261D01*
X76517119Y-165473023D01*
X76517119Y-165092071D01*
X76469500Y-164996833D01*
X76374261Y-164949214D01*
X76183785Y-164949214D01*
X76088547Y-164996833D01*
X76040928Y-165092071D01*
X76040928Y-165187309D01*
X76517119Y-165282547D01*
X75183785Y-165615880D02*
X75183785Y-164615880D01*
X75183785Y-165568261D02*
X75279023Y-165615880D01*
X75469500Y-165615880D01*
X75564738Y-165568261D01*
X75612357Y-165520642D01*
X75659976Y-165425404D01*
X75659976Y-165139690D01*
X75612357Y-165044452D01*
X75564738Y-164996833D01*
X75469500Y-164949214D01*
X75279023Y-164949214D01*
X75183785Y-164996833D01*
X74279023Y-165615880D02*
X74279023Y-165092071D01*
X74326642Y-164996833D01*
X74421880Y-164949214D01*
X74612357Y-164949214D01*
X74707595Y-164996833D01*
X74279023Y-165568261D02*
X74374261Y-165615880D01*
X74612357Y-165615880D01*
X74707595Y-165568261D01*
X74755214Y-165473023D01*
X74755214Y-165377785D01*
X74707595Y-165282547D01*
X74612357Y-165234928D01*
X74374261Y-165234928D01*
X74279023Y-165187309D01*
X73659976Y-165615880D02*
X73755214Y-165568261D01*
X73802833Y-165473023D01*
X73802833Y-164615880D01*
X72564738Y-165330166D02*
X72088547Y-165330166D01*
X72659976Y-165615880D02*
X72326642Y-164615880D01*
X71993309Y-165615880D01*
X70945690Y-164711119D02*
X70898071Y-164663500D01*
X70802833Y-164615880D01*
X70564738Y-164615880D01*
X70469500Y-164663500D01*
X70421880Y-164711119D01*
X70374261Y-164806357D01*
X70374261Y-164901595D01*
X70421880Y-165044452D01*
X70993309Y-165615880D01*
X70374261Y-165615880D01*
X69421880Y-165615880D02*
X69993309Y-165615880D01*
X69707595Y-165615880D02*
X69707595Y-164615880D01*
X69802833Y-164758738D01*
X69898071Y-164853976D01*
X69993309Y-164901595D01*
X35789761Y-153757380D02*
X35218333Y-153757380D01*
X35504047Y-154757380D02*
X35504047Y-153757380D01*
X34742142Y-154757380D02*
X34837380Y-154709761D01*
X34885000Y-154662142D01*
X34932619Y-154566904D01*
X34932619Y-154281190D01*
X34885000Y-154185952D01*
X34837380Y-154138333D01*
X34742142Y-154090714D01*
X34599285Y-154090714D01*
X34504047Y-154138333D01*
X34456428Y-154185952D01*
X34408809Y-154281190D01*
X34408809Y-154566904D01*
X34456428Y-154662142D01*
X34504047Y-154709761D01*
X34599285Y-154757380D01*
X34742142Y-154757380D01*
X33551666Y-154090714D02*
X33551666Y-154757380D01*
X33980238Y-154090714D02*
X33980238Y-154614523D01*
X33932619Y-154709761D01*
X33837380Y-154757380D01*
X33694523Y-154757380D01*
X33599285Y-154709761D01*
X33551666Y-154662142D01*
X32646904Y-154709761D02*
X32742142Y-154757380D01*
X32932619Y-154757380D01*
X33027857Y-154709761D01*
X33075476Y-154662142D01*
X33123095Y-154566904D01*
X33123095Y-154281190D01*
X33075476Y-154185952D01*
X33027857Y-154138333D01*
X32932619Y-154090714D01*
X32742142Y-154090714D01*
X32646904Y-154138333D01*
X32218333Y-154757380D02*
X32218333Y-153757380D01*
X31789761Y-154757380D02*
X31789761Y-154233571D01*
X31837380Y-154138333D01*
X31932619Y-154090714D01*
X32075476Y-154090714D01*
X32170714Y-154138333D01*
X32218333Y-154185952D01*
X30027857Y-154757380D02*
X30599285Y-154757380D01*
X30313571Y-154757380D02*
X30313571Y-153757380D01*
X30408809Y-153900238D01*
X30504047Y-153995476D01*
X30599285Y-154043095D01*
X29551666Y-154757380D02*
X29361190Y-154757380D01*
X29265952Y-154709761D01*
X29218333Y-154662142D01*
X29123095Y-154519285D01*
X29075476Y-154328809D01*
X29075476Y-153947857D01*
X29123095Y-153852619D01*
X29170714Y-153805000D01*
X29265952Y-153757380D01*
X29456428Y-153757380D01*
X29551666Y-153805000D01*
X29599285Y-153852619D01*
X29646904Y-153947857D01*
X29646904Y-154185952D01*
X29599285Y-154281190D01*
X29551666Y-154328809D01*
X29456428Y-154376428D01*
X29265952Y-154376428D01*
X29170714Y-154328809D01*
X29123095Y-154281190D01*
X29075476Y-154185952D01*
X35789761Y-155662380D02*
X35218333Y-155662380D01*
X35504047Y-156662380D02*
X35504047Y-155662380D01*
X34742142Y-156662380D02*
X34837380Y-156614761D01*
X34885000Y-156567142D01*
X34932619Y-156471904D01*
X34932619Y-156186190D01*
X34885000Y-156090952D01*
X34837380Y-156043333D01*
X34742142Y-155995714D01*
X34599285Y-155995714D01*
X34504047Y-156043333D01*
X34456428Y-156090952D01*
X34408809Y-156186190D01*
X34408809Y-156471904D01*
X34456428Y-156567142D01*
X34504047Y-156614761D01*
X34599285Y-156662380D01*
X34742142Y-156662380D01*
X33551666Y-155995714D02*
X33551666Y-156662380D01*
X33980238Y-155995714D02*
X33980238Y-156519523D01*
X33932619Y-156614761D01*
X33837380Y-156662380D01*
X33694523Y-156662380D01*
X33599285Y-156614761D01*
X33551666Y-156567142D01*
X32646904Y-156614761D02*
X32742142Y-156662380D01*
X32932619Y-156662380D01*
X33027857Y-156614761D01*
X33075476Y-156567142D01*
X33123095Y-156471904D01*
X33123095Y-156186190D01*
X33075476Y-156090952D01*
X33027857Y-156043333D01*
X32932619Y-155995714D01*
X32742142Y-155995714D01*
X32646904Y-156043333D01*
X32218333Y-156662380D02*
X32218333Y-155662380D01*
X31789761Y-156662380D02*
X31789761Y-156138571D01*
X31837380Y-156043333D01*
X31932619Y-155995714D01*
X32075476Y-155995714D01*
X32170714Y-156043333D01*
X32218333Y-156090952D01*
X30027857Y-156662380D02*
X30599285Y-156662380D01*
X30313571Y-156662380D02*
X30313571Y-155662380D01*
X30408809Y-155805238D01*
X30504047Y-155900476D01*
X30599285Y-155948095D01*
X29456428Y-156090952D02*
X29551666Y-156043333D01*
X29599285Y-155995714D01*
X29646904Y-155900476D01*
X29646904Y-155852857D01*
X29599285Y-155757619D01*
X29551666Y-155710000D01*
X29456428Y-155662380D01*
X29265952Y-155662380D01*
X29170714Y-155710000D01*
X29123095Y-155757619D01*
X29075476Y-155852857D01*
X29075476Y-155900476D01*
X29123095Y-155995714D01*
X29170714Y-156043333D01*
X29265952Y-156090952D01*
X29456428Y-156090952D01*
X29551666Y-156138571D01*
X29599285Y-156186190D01*
X29646904Y-156281428D01*
X29646904Y-156471904D01*
X29599285Y-156567142D01*
X29551666Y-156614761D01*
X29456428Y-156662380D01*
X29265952Y-156662380D01*
X29170714Y-156614761D01*
X29123095Y-156567142D01*
X29075476Y-156471904D01*
X29075476Y-156281428D01*
X29123095Y-156186190D01*
X29170714Y-156138571D01*
X29265952Y-156090952D01*
X26122380Y-176300238D02*
X26122380Y-176871666D01*
X27122380Y-176585952D02*
X26122380Y-176585952D01*
X27122380Y-177347857D02*
X27074761Y-177252619D01*
X27027142Y-177205000D01*
X26931904Y-177157380D01*
X26646190Y-177157380D01*
X26550952Y-177205000D01*
X26503333Y-177252619D01*
X26455714Y-177347857D01*
X26455714Y-177490714D01*
X26503333Y-177585952D01*
X26550952Y-177633571D01*
X26646190Y-177681190D01*
X26931904Y-177681190D01*
X27027142Y-177633571D01*
X27074761Y-177585952D01*
X27122380Y-177490714D01*
X27122380Y-177347857D01*
X26455714Y-178538333D02*
X27122380Y-178538333D01*
X26455714Y-178109761D02*
X26979523Y-178109761D01*
X27074761Y-178157380D01*
X27122380Y-178252619D01*
X27122380Y-178395476D01*
X27074761Y-178490714D01*
X27027142Y-178538333D01*
X27074761Y-179443095D02*
X27122380Y-179347857D01*
X27122380Y-179157380D01*
X27074761Y-179062142D01*
X27027142Y-179014523D01*
X26931904Y-178966904D01*
X26646190Y-178966904D01*
X26550952Y-179014523D01*
X26503333Y-179062142D01*
X26455714Y-179157380D01*
X26455714Y-179347857D01*
X26503333Y-179443095D01*
X27122380Y-179871666D02*
X26122380Y-179871666D01*
X27122380Y-180300238D02*
X26598571Y-180300238D01*
X26503333Y-180252619D01*
X26455714Y-180157380D01*
X26455714Y-180014523D01*
X26503333Y-179919285D01*
X26550952Y-179871666D01*
X27122380Y-182062142D02*
X27122380Y-181490714D01*
X27122380Y-181776428D02*
X26122380Y-181776428D01*
X26265238Y-181681190D01*
X26360476Y-181585952D01*
X26408095Y-181490714D01*
X26122380Y-182395476D02*
X26122380Y-183062142D01*
X27122380Y-182633571D01*
X28471880Y-176554238D02*
X28471880Y-177125666D01*
X29471880Y-176839952D02*
X28471880Y-176839952D01*
X29471880Y-177601857D02*
X29424261Y-177506619D01*
X29376642Y-177459000D01*
X29281404Y-177411380D01*
X28995690Y-177411380D01*
X28900452Y-177459000D01*
X28852833Y-177506619D01*
X28805214Y-177601857D01*
X28805214Y-177744714D01*
X28852833Y-177839952D01*
X28900452Y-177887571D01*
X28995690Y-177935190D01*
X29281404Y-177935190D01*
X29376642Y-177887571D01*
X29424261Y-177839952D01*
X29471880Y-177744714D01*
X29471880Y-177601857D01*
X28805214Y-178792333D02*
X29471880Y-178792333D01*
X28805214Y-178363761D02*
X29329023Y-178363761D01*
X29424261Y-178411380D01*
X29471880Y-178506619D01*
X29471880Y-178649476D01*
X29424261Y-178744714D01*
X29376642Y-178792333D01*
X29424261Y-179697095D02*
X29471880Y-179601857D01*
X29471880Y-179411380D01*
X29424261Y-179316142D01*
X29376642Y-179268523D01*
X29281404Y-179220904D01*
X28995690Y-179220904D01*
X28900452Y-179268523D01*
X28852833Y-179316142D01*
X28805214Y-179411380D01*
X28805214Y-179601857D01*
X28852833Y-179697095D01*
X29471880Y-180125666D02*
X28471880Y-180125666D01*
X29471880Y-180554238D02*
X28948071Y-180554238D01*
X28852833Y-180506619D01*
X28805214Y-180411380D01*
X28805214Y-180268523D01*
X28852833Y-180173285D01*
X28900452Y-180125666D01*
X29471880Y-182316142D02*
X29471880Y-181744714D01*
X29471880Y-182030428D02*
X28471880Y-182030428D01*
X28614738Y-181935190D01*
X28709976Y-181839952D01*
X28757595Y-181744714D01*
X28471880Y-183173285D02*
X28471880Y-182982809D01*
X28519500Y-182887571D01*
X28567119Y-182839952D01*
X28709976Y-182744714D01*
X28900452Y-182697095D01*
X29281404Y-182697095D01*
X29376642Y-182744714D01*
X29424261Y-182792333D01*
X29471880Y-182887571D01*
X29471880Y-183078047D01*
X29424261Y-183173285D01*
X29376642Y-183220904D01*
X29281404Y-183268523D01*
X29043309Y-183268523D01*
X28948071Y-183220904D01*
X28900452Y-183173285D01*
X28852833Y-183078047D01*
X28852833Y-182887571D01*
X28900452Y-182792333D01*
X28948071Y-182744714D01*
X29043309Y-182697095D01*
X120927880Y-176617738D02*
X120927880Y-177189166D01*
X121927880Y-176903452D02*
X120927880Y-176903452D01*
X121927880Y-177665357D02*
X121880261Y-177570119D01*
X121832642Y-177522500D01*
X121737404Y-177474880D01*
X121451690Y-177474880D01*
X121356452Y-177522500D01*
X121308833Y-177570119D01*
X121261214Y-177665357D01*
X121261214Y-177808214D01*
X121308833Y-177903452D01*
X121356452Y-177951071D01*
X121451690Y-177998690D01*
X121737404Y-177998690D01*
X121832642Y-177951071D01*
X121880261Y-177903452D01*
X121927880Y-177808214D01*
X121927880Y-177665357D01*
X121261214Y-178855833D02*
X121927880Y-178855833D01*
X121261214Y-178427261D02*
X121785023Y-178427261D01*
X121880261Y-178474880D01*
X121927880Y-178570119D01*
X121927880Y-178712976D01*
X121880261Y-178808214D01*
X121832642Y-178855833D01*
X121880261Y-179760595D02*
X121927880Y-179665357D01*
X121927880Y-179474880D01*
X121880261Y-179379642D01*
X121832642Y-179332023D01*
X121737404Y-179284404D01*
X121451690Y-179284404D01*
X121356452Y-179332023D01*
X121308833Y-179379642D01*
X121261214Y-179474880D01*
X121261214Y-179665357D01*
X121308833Y-179760595D01*
X121927880Y-180189166D02*
X120927880Y-180189166D01*
X121927880Y-180617738D02*
X121404071Y-180617738D01*
X121308833Y-180570119D01*
X121261214Y-180474880D01*
X121261214Y-180332023D01*
X121308833Y-180236785D01*
X121356452Y-180189166D01*
X121023119Y-181808214D02*
X120975500Y-181855833D01*
X120927880Y-181951071D01*
X120927880Y-182189166D01*
X120975500Y-182284404D01*
X121023119Y-182332023D01*
X121118357Y-182379642D01*
X121213595Y-182379642D01*
X121356452Y-182332023D01*
X121927880Y-181760595D01*
X121927880Y-182379642D01*
X121023119Y-182760595D02*
X120975500Y-182808214D01*
X120927880Y-182903452D01*
X120927880Y-183141547D01*
X120975500Y-183236785D01*
X121023119Y-183284404D01*
X121118357Y-183332023D01*
X121213595Y-183332023D01*
X121356452Y-183284404D01*
X121927880Y-182712976D01*
X121927880Y-183332023D01*
X63555619Y-154805476D02*
X63508000Y-154853095D01*
X63460380Y-154948333D01*
X63460380Y-155186428D01*
X63508000Y-155281666D01*
X63555619Y-155329285D01*
X63650857Y-155376904D01*
X63746095Y-155376904D01*
X63888952Y-155329285D01*
X64460380Y-154757857D01*
X64460380Y-155376904D01*
X63460380Y-155710238D02*
X63460380Y-156329285D01*
X63841333Y-155995952D01*
X63841333Y-156138809D01*
X63888952Y-156234047D01*
X63936571Y-156281666D01*
X64031809Y-156329285D01*
X64269904Y-156329285D01*
X64365142Y-156281666D01*
X64412761Y-156234047D01*
X64460380Y-156138809D01*
X64460380Y-155853095D01*
X64412761Y-155757857D01*
X64365142Y-155710238D01*
X63460380Y-157376904D02*
X63460380Y-157948333D01*
X64460380Y-157662619D02*
X63460380Y-157662619D01*
X64460380Y-158424523D02*
X64412761Y-158329285D01*
X64365142Y-158281666D01*
X64269904Y-158234047D01*
X63984190Y-158234047D01*
X63888952Y-158281666D01*
X63841333Y-158329285D01*
X63793714Y-158424523D01*
X63793714Y-158567380D01*
X63841333Y-158662619D01*
X63888952Y-158710238D01*
X63984190Y-158757857D01*
X64269904Y-158757857D01*
X64365142Y-158710238D01*
X64412761Y-158662619D01*
X64460380Y-158567380D01*
X64460380Y-158424523D01*
X63793714Y-159615000D02*
X64460380Y-159615000D01*
X63793714Y-159186428D02*
X64317523Y-159186428D01*
X64412761Y-159234047D01*
X64460380Y-159329285D01*
X64460380Y-159472142D01*
X64412761Y-159567380D01*
X64365142Y-159615000D01*
X64412761Y-160519761D02*
X64460380Y-160424523D01*
X64460380Y-160234047D01*
X64412761Y-160138809D01*
X64365142Y-160091190D01*
X64269904Y-160043571D01*
X63984190Y-160043571D01*
X63888952Y-160091190D01*
X63841333Y-160138809D01*
X63793714Y-160234047D01*
X63793714Y-160424523D01*
X63841333Y-160519761D01*
X64460380Y-160948333D02*
X63460380Y-160948333D01*
X64460380Y-161376904D02*
X63936571Y-161376904D01*
X63841333Y-161329285D01*
X63793714Y-161234047D01*
X63793714Y-161091190D01*
X63841333Y-160995952D01*
X63888952Y-160948333D01*
X123023380Y-177538428D02*
X123023380Y-178109857D01*
X124023380Y-177824142D02*
X123023380Y-177824142D01*
X124023380Y-178586047D02*
X123975761Y-178490809D01*
X123928142Y-178443190D01*
X123832904Y-178395571D01*
X123547190Y-178395571D01*
X123451952Y-178443190D01*
X123404333Y-178490809D01*
X123356714Y-178586047D01*
X123356714Y-178728904D01*
X123404333Y-178824142D01*
X123451952Y-178871761D01*
X123547190Y-178919380D01*
X123832904Y-178919380D01*
X123928142Y-178871761D01*
X123975761Y-178824142D01*
X124023380Y-178728904D01*
X124023380Y-178586047D01*
X123356714Y-179776523D02*
X124023380Y-179776523D01*
X123356714Y-179347952D02*
X123880523Y-179347952D01*
X123975761Y-179395571D01*
X124023380Y-179490809D01*
X124023380Y-179633666D01*
X123975761Y-179728904D01*
X123928142Y-179776523D01*
X123975761Y-180681285D02*
X124023380Y-180586047D01*
X124023380Y-180395571D01*
X123975761Y-180300333D01*
X123928142Y-180252714D01*
X123832904Y-180205095D01*
X123547190Y-180205095D01*
X123451952Y-180252714D01*
X123404333Y-180300333D01*
X123356714Y-180395571D01*
X123356714Y-180586047D01*
X123404333Y-180681285D01*
X124023380Y-181109857D02*
X123023380Y-181109857D01*
X124023380Y-181538428D02*
X123499571Y-181538428D01*
X123404333Y-181490809D01*
X123356714Y-181395571D01*
X123356714Y-181252714D01*
X123404333Y-181157476D01*
X123451952Y-181109857D01*
X123356714Y-183205095D02*
X124023380Y-183205095D01*
X122975761Y-182967000D02*
X123690047Y-182728904D01*
X123690047Y-183347952D01*
X120990952Y-155662380D02*
X120371904Y-155662380D01*
X120705238Y-156043333D01*
X120562380Y-156043333D01*
X120467142Y-156090952D01*
X120419523Y-156138571D01*
X120371904Y-156233809D01*
X120371904Y-156471904D01*
X120419523Y-156567142D01*
X120467142Y-156614761D01*
X120562380Y-156662380D01*
X120848095Y-156662380D01*
X120943333Y-156614761D01*
X120990952Y-156567142D01*
X119324285Y-155662380D02*
X118752857Y-155662380D01*
X119038571Y-156662380D02*
X119038571Y-155662380D01*
X118276666Y-156662380D02*
X118371904Y-156614761D01*
X118419523Y-156567142D01*
X118467142Y-156471904D01*
X118467142Y-156186190D01*
X118419523Y-156090952D01*
X118371904Y-156043333D01*
X118276666Y-155995714D01*
X118133809Y-155995714D01*
X118038571Y-156043333D01*
X117990952Y-156090952D01*
X117943333Y-156186190D01*
X117943333Y-156471904D01*
X117990952Y-156567142D01*
X118038571Y-156614761D01*
X118133809Y-156662380D01*
X118276666Y-156662380D01*
X117086190Y-155995714D02*
X117086190Y-156662380D01*
X117514761Y-155995714D02*
X117514761Y-156519523D01*
X117467142Y-156614761D01*
X117371904Y-156662380D01*
X117229047Y-156662380D01*
X117133809Y-156614761D01*
X117086190Y-156567142D01*
X116181428Y-156614761D02*
X116276666Y-156662380D01*
X116467142Y-156662380D01*
X116562380Y-156614761D01*
X116610000Y-156567142D01*
X116657619Y-156471904D01*
X116657619Y-156186190D01*
X116610000Y-156090952D01*
X116562380Y-156043333D01*
X116467142Y-155995714D01*
X116276666Y-155995714D01*
X116181428Y-156043333D01*
X115752857Y-156662380D02*
X115752857Y-155662380D01*
X115324285Y-156662380D02*
X115324285Y-156138571D01*
X115371904Y-156043333D01*
X115467142Y-155995714D01*
X115610000Y-155995714D01*
X115705238Y-156043333D01*
X115752857Y-156090952D01*
X120371904Y-154757380D02*
X120943333Y-154757380D01*
X120657619Y-154757380D02*
X120657619Y-153757380D01*
X120752857Y-153900238D01*
X120848095Y-153995476D01*
X120943333Y-154043095D01*
X119324285Y-153757380D02*
X118752857Y-153757380D01*
X119038571Y-154757380D02*
X119038571Y-153757380D01*
X118276666Y-154757380D02*
X118371904Y-154709761D01*
X118419523Y-154662142D01*
X118467142Y-154566904D01*
X118467142Y-154281190D01*
X118419523Y-154185952D01*
X118371904Y-154138333D01*
X118276666Y-154090714D01*
X118133809Y-154090714D01*
X118038571Y-154138333D01*
X117990952Y-154185952D01*
X117943333Y-154281190D01*
X117943333Y-154566904D01*
X117990952Y-154662142D01*
X118038571Y-154709761D01*
X118133809Y-154757380D01*
X118276666Y-154757380D01*
X117086190Y-154090714D02*
X117086190Y-154757380D01*
X117514761Y-154090714D02*
X117514761Y-154614523D01*
X117467142Y-154709761D01*
X117371904Y-154757380D01*
X117229047Y-154757380D01*
X117133809Y-154709761D01*
X117086190Y-154662142D01*
X116181428Y-154709761D02*
X116276666Y-154757380D01*
X116467142Y-154757380D01*
X116562380Y-154709761D01*
X116610000Y-154662142D01*
X116657619Y-154566904D01*
X116657619Y-154281190D01*
X116610000Y-154185952D01*
X116562380Y-154138333D01*
X116467142Y-154090714D01*
X116276666Y-154090714D01*
X116181428Y-154138333D01*
X115752857Y-154757380D02*
X115752857Y-153757380D01*
X115324285Y-154757380D02*
X115324285Y-154233571D01*
X115371904Y-154138333D01*
X115467142Y-154090714D01*
X115610000Y-154090714D01*
X115705238Y-154138333D01*
X115752857Y-154185952D01*
D12*
G36*
X116810808Y-180760166D02*
G01*
X116723015Y-180803540D01*
X116614751Y-180879122D01*
X116535845Y-180961542D01*
X116481805Y-181065037D01*
X116448141Y-181203843D01*
X116430363Y-181392194D01*
X116423980Y-181644328D01*
X116423607Y-181752724D01*
X116424696Y-181990287D01*
X116429222Y-182160068D01*
X116439068Y-182277550D01*
X116456118Y-182358215D01*
X116482259Y-182417545D01*
X116509458Y-182458020D01*
X116683080Y-182630225D01*
X116887538Y-182733806D01*
X117108104Y-182764960D01*
X117330046Y-182719885D01*
X117400360Y-182688009D01*
X117568689Y-182600271D01*
X117568689Y-183975172D01*
X117445838Y-183911643D01*
X117283967Y-183862491D01*
X117085005Y-183849900D01*
X116886328Y-183873147D01*
X116736290Y-183925370D01*
X116611841Y-184024826D01*
X116505508Y-184167143D01*
X116497513Y-184181755D01*
X116463793Y-184250582D01*
X116439166Y-184319956D01*
X116422214Y-184403996D01*
X116411519Y-184516816D01*
X116405662Y-184672533D01*
X116403227Y-184885265D01*
X116402787Y-185124664D01*
X116402787Y-185888443D01*
X116860820Y-185888443D01*
X116860820Y-184480108D01*
X116988933Y-184372308D01*
X117122018Y-184286079D01*
X117248048Y-184270401D01*
X117374778Y-184310747D01*
X117442317Y-184350254D01*
X117492586Y-184406527D01*
X117528338Y-184491572D01*
X117552328Y-184617394D01*
X117567311Y-184795998D01*
X117576040Y-185039391D01*
X117579114Y-185201394D01*
X117589508Y-185867623D01*
X117808115Y-185880209D01*
X118026721Y-185892795D01*
X118026721Y-181758464D01*
X117568689Y-181758464D01*
X117557011Y-181988953D01*
X117517662Y-182148950D01*
X117444166Y-182248497D01*
X117330049Y-182297639D01*
X117214754Y-182307459D01*
X117084238Y-182296175D01*
X116997617Y-182251764D01*
X116943451Y-182193081D01*
X116900810Y-182129962D01*
X116875426Y-182059645D01*
X116864131Y-181961123D01*
X116863760Y-181813387D01*
X116867560Y-181689683D01*
X116876288Y-181503328D01*
X116889280Y-181380982D01*
X116911159Y-181303377D01*
X116946546Y-181251245D01*
X116979941Y-181221111D01*
X117119475Y-181155399D01*
X117284619Y-181144787D01*
X117379446Y-181167423D01*
X117473334Y-181247881D01*
X117535526Y-181404392D01*
X117565669Y-181635852D01*
X117568689Y-181758464D01*
X118026721Y-181758464D01*
X118026721Y-180725164D01*
X117797705Y-180725164D01*
X117660206Y-180730602D01*
X117589267Y-180749909D01*
X117568697Y-180787576D01*
X117568689Y-180788692D01*
X117559145Y-180825581D01*
X117517051Y-180821393D01*
X117433361Y-180780859D01*
X117238354Y-180718850D01*
X117018954Y-180712332D01*
X116810808Y-180760166D01*
G37*
X116810808Y-180760166D02*
X116723015Y-180803540D01*
X116614751Y-180879122D01*
X116535845Y-180961542D01*
X116481805Y-181065037D01*
X116448141Y-181203843D01*
X116430363Y-181392194D01*
X116423980Y-181644328D01*
X116423607Y-181752724D01*
X116424696Y-181990287D01*
X116429222Y-182160068D01*
X116439068Y-182277550D01*
X116456118Y-182358215D01*
X116482259Y-182417545D01*
X116509458Y-182458020D01*
X116683080Y-182630225D01*
X116887538Y-182733806D01*
X117108104Y-182764960D01*
X117330046Y-182719885D01*
X117400360Y-182688009D01*
X117568689Y-182600271D01*
X117568689Y-183975172D01*
X117445838Y-183911643D01*
X117283967Y-183862491D01*
X117085005Y-183849900D01*
X116886328Y-183873147D01*
X116736290Y-183925370D01*
X116611841Y-184024826D01*
X116505508Y-184167143D01*
X116497513Y-184181755D01*
X116463793Y-184250582D01*
X116439166Y-184319956D01*
X116422214Y-184403996D01*
X116411519Y-184516816D01*
X116405662Y-184672533D01*
X116403227Y-184885265D01*
X116402787Y-185124664D01*
X116402787Y-185888443D01*
X116860820Y-185888443D01*
X116860820Y-184480108D01*
X116988933Y-184372308D01*
X117122018Y-184286079D01*
X117248048Y-184270401D01*
X117374778Y-184310747D01*
X117442317Y-184350254D01*
X117492586Y-184406527D01*
X117528338Y-184491572D01*
X117552328Y-184617394D01*
X117567311Y-184795998D01*
X117576040Y-185039391D01*
X117579114Y-185201394D01*
X117589508Y-185867623D01*
X117808115Y-185880209D01*
X118026721Y-185892795D01*
X118026721Y-181758464D01*
X117568689Y-181758464D01*
X117557011Y-181988953D01*
X117517662Y-182148950D01*
X117444166Y-182248497D01*
X117330049Y-182297639D01*
X117214754Y-182307459D01*
X117084238Y-182296175D01*
X116997617Y-182251764D01*
X116943451Y-182193081D01*
X116900810Y-182129962D01*
X116875426Y-182059645D01*
X116864131Y-181961123D01*
X116863760Y-181813387D01*
X116867560Y-181689683D01*
X116876288Y-181503328D01*
X116889280Y-181380982D01*
X116911159Y-181303377D01*
X116946546Y-181251245D01*
X116979941Y-181221111D01*
X117119475Y-181155399D01*
X117284619Y-181144787D01*
X117379446Y-181167423D01*
X117473334Y-181247881D01*
X117535526Y-181404392D01*
X117565669Y-181635852D01*
X117568689Y-181758464D01*
X118026721Y-181758464D01*
X118026721Y-180725164D01*
X117797705Y-180725164D01*
X117660206Y-180730602D01*
X117589267Y-180749909D01*
X117568697Y-180787576D01*
X117568689Y-180788692D01*
X117559145Y-180825581D01*
X117517051Y-180821393D01*
X117433361Y-180780859D01*
X117238354Y-180718850D01*
X117018954Y-180712332D01*
X116810808Y-180760166D01*
G36*
X115073779Y-183864247D02*
G01*
X114877889Y-183916514D01*
X114728767Y-184011253D01*
X114623535Y-184135338D01*
X114590821Y-184188296D01*
X114566669Y-184243768D01*
X114549784Y-184314730D01*
X114538873Y-184414154D01*
X114532640Y-184555016D01*
X114529791Y-184750289D01*
X114529032Y-185012948D01*
X114529016Y-185082633D01*
X114529016Y-185888443D01*
X114728885Y-185888443D01*
X114856370Y-185879515D01*
X114950634Y-185856896D01*
X114974251Y-185842946D01*
X115038815Y-185818870D01*
X115104759Y-185842946D01*
X115213332Y-185873003D01*
X115371042Y-185885100D01*
X115545844Y-185879851D01*
X115705693Y-185857869D01*
X115799016Y-185829663D01*
X115979609Y-185713731D01*
X116092470Y-185552847D01*
X116143209Y-185338936D01*
X116143680Y-185333443D01*
X116139227Y-185238547D01*
X115736557Y-185238547D01*
X115701354Y-185346484D01*
X115644014Y-185407229D01*
X115528913Y-185453172D01*
X115376986Y-185471512D01*
X115222061Y-185462485D01*
X115097964Y-185426332D01*
X115063197Y-185403137D01*
X115002444Y-185295960D01*
X114987049Y-185174120D01*
X114987049Y-185014017D01*
X115217403Y-185014017D01*
X115436241Y-185030863D01*
X115602137Y-185078593D01*
X115705338Y-185152986D01*
X115736557Y-185238547D01*
X116139227Y-185238547D01*
X116132713Y-185099731D01*
X116055631Y-184914946D01*
X115910714Y-184775206D01*
X115890683Y-184762495D01*
X115804610Y-184721105D01*
X115698073Y-184696041D01*
X115549141Y-184683858D01*
X115372213Y-184681057D01*
X114987049Y-184680902D01*
X114987049Y-184519443D01*
X115003387Y-184394168D01*
X115045078Y-184310241D01*
X115049959Y-184305773D01*
X115142736Y-184269059D01*
X115282784Y-184254828D01*
X115437555Y-184261821D01*
X115574499Y-184288780D01*
X115655759Y-184329212D01*
X115699790Y-184361601D01*
X115746285Y-184367784D01*
X115810451Y-184341248D01*
X115907495Y-184275479D01*
X116052626Y-184163963D01*
X116065947Y-184153516D01*
X116059121Y-184114862D01*
X116002178Y-184050572D01*
X115915630Y-183979131D01*
X115819992Y-183919021D01*
X115789944Y-183904827D01*
X115680341Y-183876503D01*
X115519735Y-183856300D01*
X115340302Y-183848196D01*
X115331911Y-183848180D01*
X115073779Y-183864247D01*
G37*
X115073779Y-183864247D02*
X114877889Y-183916514D01*
X114728767Y-184011253D01*
X114623535Y-184135338D01*
X114590821Y-184188296D01*
X114566669Y-184243768D01*
X114549784Y-184314730D01*
X114538873Y-184414154D01*
X114532640Y-184555016D01*
X114529791Y-184750289D01*
X114529032Y-185012948D01*
X114529016Y-185082633D01*
X114529016Y-185888443D01*
X114728885Y-185888443D01*
X114856370Y-185879515D01*
X114950634Y-185856896D01*
X114974251Y-185842946D01*
X115038815Y-185818870D01*
X115104759Y-185842946D01*
X115213332Y-185873003D01*
X115371042Y-185885100D01*
X115545844Y-185879851D01*
X115705693Y-185857869D01*
X115799016Y-185829663D01*
X115979609Y-185713731D01*
X116092470Y-185552847D01*
X116143209Y-185338936D01*
X116143680Y-185333443D01*
X116139227Y-185238547D01*
X115736557Y-185238547D01*
X115701354Y-185346484D01*
X115644014Y-185407229D01*
X115528913Y-185453172D01*
X115376986Y-185471512D01*
X115222061Y-185462485D01*
X115097964Y-185426332D01*
X115063197Y-185403137D01*
X115002444Y-185295960D01*
X114987049Y-185174120D01*
X114987049Y-185014017D01*
X115217403Y-185014017D01*
X115436241Y-185030863D01*
X115602137Y-185078593D01*
X115705338Y-185152986D01*
X115736557Y-185238547D01*
X116139227Y-185238547D01*
X116132713Y-185099731D01*
X116055631Y-184914946D01*
X115910714Y-184775206D01*
X115890683Y-184762495D01*
X115804610Y-184721105D01*
X115698073Y-184696041D01*
X115549141Y-184683858D01*
X115372213Y-184681057D01*
X114987049Y-184680902D01*
X114987049Y-184519443D01*
X115003387Y-184394168D01*
X115045078Y-184310241D01*
X115049959Y-184305773D01*
X115142736Y-184269059D01*
X115282784Y-184254828D01*
X115437555Y-184261821D01*
X115574499Y-184288780D01*
X115655759Y-184329212D01*
X115699790Y-184361601D01*
X115746285Y-184367784D01*
X115810451Y-184341248D01*
X115907495Y-184275479D01*
X116052626Y-184163963D01*
X116065947Y-184153516D01*
X116059121Y-184114862D01*
X116002178Y-184050572D01*
X115915630Y-183979131D01*
X115819992Y-183919021D01*
X115789944Y-183904827D01*
X115680341Y-183876503D01*
X115519735Y-183856300D01*
X115340302Y-183848196D01*
X115331911Y-183848180D01*
X115073779Y-183864247D01*
G36*
X113779475Y-183852540D02*
G01*
X113717163Y-183871218D01*
X113697075Y-183912255D01*
X113696230Y-183930782D01*
X113692625Y-183982383D01*
X113667800Y-183990484D01*
X113600737Y-183955108D01*
X113560902Y-183930937D01*
X113435227Y-183879175D01*
X113285123Y-183853581D01*
X113127737Y-183851613D01*
X112980214Y-183870729D01*
X112859700Y-183908387D01*
X112783340Y-183962044D01*
X112768281Y-184029158D01*
X112775881Y-184047333D01*
X112831282Y-184122777D01*
X112917190Y-184215568D01*
X112932728Y-184230568D01*
X113014612Y-184299540D01*
X113085263Y-184321825D01*
X113184068Y-184306272D01*
X113223652Y-184295938D01*
X113346828Y-184271116D01*
X113433436Y-184282278D01*
X113506576Y-184321646D01*
X113573574Y-184374479D01*
X113622918Y-184440924D01*
X113657209Y-184533652D01*
X113679048Y-184665334D01*
X113691034Y-184848641D01*
X113695769Y-185096246D01*
X113696230Y-185245744D01*
X113696230Y-185888443D01*
X114112623Y-185888443D01*
X114112623Y-183848115D01*
X113904426Y-183848115D01*
X113779475Y-183852540D01*
G37*
X113779475Y-183852540D02*
X113717163Y-183871218D01*
X113697075Y-183912255D01*
X113696230Y-183930782D01*
X113692625Y-183982383D01*
X113667800Y-183990484D01*
X113600737Y-183955108D01*
X113560902Y-183930937D01*
X113435227Y-183879175D01*
X113285123Y-183853581D01*
X113127737Y-183851613D01*
X112980214Y-183870729D01*
X112859700Y-183908387D01*
X112783340Y-183962044D01*
X112768281Y-184029158D01*
X112775881Y-184047333D01*
X112831282Y-184122777D01*
X112917190Y-184215568D01*
X112932728Y-184230568D01*
X113014612Y-184299540D01*
X113085263Y-184321825D01*
X113184068Y-184306272D01*
X113223652Y-184295938D01*
X113346828Y-184271116D01*
X113433436Y-184282278D01*
X113506576Y-184321646D01*
X113573574Y-184374479D01*
X113622918Y-184440924D01*
X113657209Y-184533652D01*
X113679048Y-184665334D01*
X113691034Y-184848641D01*
X113695769Y-185096246D01*
X113696230Y-185245744D01*
X113696230Y-185888443D01*
X114112623Y-185888443D01*
X114112623Y-183848115D01*
X113904426Y-183848115D01*
X113779475Y-183852540D01*
G36*
X111156230Y-185888443D02*
G01*
X111385246Y-185888443D01*
X111518175Y-185884546D01*
X111587405Y-185868407D01*
X111612332Y-185833354D01*
X111614262Y-185809653D01*
X111618466Y-185762123D01*
X111644974Y-185753008D01*
X111714633Y-185782308D01*
X111768804Y-185809653D01*
X111976777Y-185874451D01*
X112202853Y-185878201D01*
X112386655Y-185829873D01*
X112557813Y-185713118D01*
X112688284Y-185540781D01*
X112759727Y-185337506D01*
X112761546Y-185326141D01*
X112772161Y-185202136D01*
X112777440Y-185024117D01*
X112777016Y-184889480D01*
X112322172Y-184889480D01*
X112311635Y-185068428D01*
X112287666Y-185215924D01*
X112255217Y-185299217D01*
X112132456Y-185413041D01*
X111986701Y-185453845D01*
X111836393Y-185420848D01*
X111707951Y-185322422D01*
X111659308Y-185256224D01*
X111630866Y-185177231D01*
X111617544Y-185061926D01*
X111614262Y-184888736D01*
X111620135Y-184717229D01*
X111635647Y-184566540D01*
X111657638Y-184465698D01*
X111661303Y-184456659D01*
X111749988Y-184349195D01*
X111879428Y-184290195D01*
X112024257Y-184280669D01*
X112159109Y-184321626D01*
X112258617Y-184414076D01*
X112268940Y-184432473D01*
X112301250Y-184544646D01*
X112318852Y-184705934D01*
X112322172Y-184889480D01*
X112777016Y-184889480D01*
X112776800Y-184821212D01*
X112773806Y-184712010D01*
X112753442Y-184441856D01*
X112711117Y-184239024D01*
X112640706Y-184089077D01*
X112536088Y-183977579D01*
X112434521Y-183912127D01*
X112292616Y-183866117D01*
X112116121Y-183850336D01*
X111935393Y-183863190D01*
X111780787Y-183903081D01*
X111699101Y-183950801D01*
X111614262Y-184027579D01*
X111614262Y-183056967D01*
X111156230Y-183056967D01*
X111156230Y-185888443D01*
G37*
X111156230Y-185888443D02*
X111385246Y-185888443D01*
X111518175Y-185884546D01*
X111587405Y-185868407D01*
X111612332Y-185833354D01*
X111614262Y-185809653D01*
X111618466Y-185762123D01*
X111644974Y-185753008D01*
X111714633Y-185782308D01*
X111768804Y-185809653D01*
X111976777Y-185874451D01*
X112202853Y-185878201D01*
X112386655Y-185829873D01*
X112557813Y-185713118D01*
X112688284Y-185540781D01*
X112759727Y-185337506D01*
X112761546Y-185326141D01*
X112772161Y-185202136D01*
X112777440Y-185024117D01*
X112777016Y-184889480D01*
X112322172Y-184889480D01*
X112311635Y-185068428D01*
X112287666Y-185215924D01*
X112255217Y-185299217D01*
X112132456Y-185413041D01*
X111986701Y-185453845D01*
X111836393Y-185420848D01*
X111707951Y-185322422D01*
X111659308Y-185256224D01*
X111630866Y-185177231D01*
X111617544Y-185061926D01*
X111614262Y-184888736D01*
X111620135Y-184717229D01*
X111635647Y-184566540D01*
X111657638Y-184465698D01*
X111661303Y-184456659D01*
X111749988Y-184349195D01*
X111879428Y-184290195D01*
X112024257Y-184280669D01*
X112159109Y-184321626D01*
X112258617Y-184414076D01*
X112268940Y-184432473D01*
X112301250Y-184544646D01*
X112318852Y-184705934D01*
X112322172Y-184889480D01*
X112777016Y-184889480D01*
X112776800Y-184821212D01*
X112773806Y-184712010D01*
X112753442Y-184441856D01*
X112711117Y-184239024D01*
X112640706Y-184089077D01*
X112536088Y-183977579D01*
X112434521Y-183912127D01*
X112292616Y-183866117D01*
X112116121Y-183850336D01*
X111935393Y-183863190D01*
X111780787Y-183903081D01*
X111699101Y-183950801D01*
X111614262Y-184027579D01*
X111614262Y-183056967D01*
X111156230Y-183056967D01*
X111156230Y-185888443D01*
G36*
X109393058Y-183868935D02*
G01*
X109177752Y-184514344D01*
X108962445Y-185159754D01*
X108894936Y-184930738D01*
X108854309Y-184789204D01*
X108800867Y-184597936D01*
X108743158Y-184387693D01*
X108712645Y-184274918D01*
X108597864Y-183848115D01*
X108124313Y-183848115D01*
X108265861Y-184295738D01*
X108335567Y-184515903D01*
X108419777Y-184781471D01*
X108507719Y-185058492D01*
X108586228Y-185305492D01*
X108765048Y-185867623D01*
X108958118Y-185880185D01*
X109151189Y-185892746D01*
X109255882Y-185547070D01*
X109320447Y-185332335D01*
X109390908Y-185095604D01*
X109452489Y-184886526D01*
X109454919Y-184878205D01*
X109500915Y-184736537D01*
X109541497Y-184639874D01*
X109569920Y-184603321D01*
X109575761Y-184607549D01*
X109596262Y-184664217D01*
X109635215Y-184785605D01*
X109687878Y-184956448D01*
X109749509Y-185161482D01*
X109782857Y-185274262D01*
X109963454Y-185888443D01*
X110346733Y-185888443D01*
X110653133Y-184920328D01*
X110739209Y-184648759D01*
X110817620Y-184402138D01*
X110884661Y-184192048D01*
X110936631Y-184030076D01*
X110969826Y-183927808D01*
X110979916Y-183897928D01*
X110971928Y-183867334D01*
X110909208Y-183853935D01*
X110778685Y-183855275D01*
X110758253Y-183856288D01*
X110516208Y-183868935D01*
X110357683Y-184451885D01*
X110299415Y-184664486D01*
X110247345Y-184851377D01*
X110206056Y-184996331D01*
X110180134Y-185083120D01*
X110175344Y-185097269D01*
X110155496Y-185080998D01*
X110115470Y-184996697D01*
X110059862Y-184855842D01*
X109993269Y-184669911D01*
X109936976Y-184501956D01*
X109722422Y-183844209D01*
X109393058Y-183868935D01*
G37*
X109393058Y-183868935D02*
X109177752Y-184514344D01*
X108962445Y-185159754D01*
X108894936Y-184930738D01*
X108854309Y-184789204D01*
X108800867Y-184597936D01*
X108743158Y-184387693D01*
X108712645Y-184274918D01*
X108597864Y-183848115D01*
X108124313Y-183848115D01*
X108265861Y-184295738D01*
X108335567Y-184515903D01*
X108419777Y-184781471D01*
X108507719Y-185058492D01*
X108586228Y-185305492D01*
X108765048Y-185867623D01*
X108958118Y-185880185D01*
X109151189Y-185892746D01*
X109255882Y-185547070D01*
X109320447Y-185332335D01*
X109390908Y-185095604D01*
X109452489Y-184886526D01*
X109454919Y-184878205D01*
X109500915Y-184736537D01*
X109541497Y-184639874D01*
X109569920Y-184603321D01*
X109575761Y-184607549D01*
X109596262Y-184664217D01*
X109635215Y-184785605D01*
X109687878Y-184956448D01*
X109749509Y-185161482D01*
X109782857Y-185274262D01*
X109963454Y-185888443D01*
X110346733Y-185888443D01*
X110653133Y-184920328D01*
X110739209Y-184648759D01*
X110817620Y-184402138D01*
X110884661Y-184192048D01*
X110936631Y-184030076D01*
X110969826Y-183927808D01*
X110979916Y-183897928D01*
X110971928Y-183867334D01*
X110909208Y-183853935D01*
X110778685Y-183855275D01*
X110758253Y-183856288D01*
X110516208Y-183868935D01*
X110357683Y-184451885D01*
X110299415Y-184664486D01*
X110247345Y-184851377D01*
X110206056Y-184996331D01*
X110180134Y-185083120D01*
X110175344Y-185097269D01*
X110155496Y-185080998D01*
X110115470Y-184996697D01*
X110059862Y-184855842D01*
X109993269Y-184669911D01*
X109936976Y-184501956D01*
X109722422Y-183844209D01*
X109393058Y-183868935D01*
G36*
X107051330Y-183860480D02*
G01*
X106875821Y-183903109D01*
X106825088Y-183925693D01*
X106726746Y-183984847D01*
X106651273Y-184051472D01*
X106595429Y-184137135D01*
X106555974Y-184253405D01*
X106529668Y-184411848D01*
X106513271Y-184624034D01*
X106503543Y-184901529D01*
X106499849Y-185086885D01*
X106486255Y-185888443D01*
X106718456Y-185888443D01*
X106859323Y-185882536D01*
X106931898Y-185862350D01*
X106950656Y-185828453D01*
X106960559Y-185791799D01*
X107004834Y-185798807D01*
X107065164Y-185828197D01*
X107216197Y-185873246D01*
X107410307Y-185885385D01*
X107614469Y-185865529D01*
X107795660Y-185814592D01*
X107811911Y-185807522D01*
X107977509Y-185691188D01*
X108086676Y-185529467D01*
X108136909Y-185340430D01*
X108133072Y-185272515D01*
X107723237Y-185272515D01*
X107687125Y-185363914D01*
X107580058Y-185429411D01*
X107407316Y-185464563D01*
X107315000Y-185469231D01*
X107161150Y-185457282D01*
X107058885Y-185410844D01*
X107033934Y-185388771D01*
X106966339Y-185268681D01*
X106950656Y-185159754D01*
X106950656Y-185014017D01*
X107153648Y-185014017D01*
X107389613Y-185026043D01*
X107555119Y-185063871D01*
X107659695Y-185130121D01*
X107683109Y-185159656D01*
X107723237Y-185272515D01*
X108133072Y-185272515D01*
X108125705Y-185142148D01*
X108050560Y-184952692D01*
X107948032Y-184824656D01*
X107885935Y-184769302D01*
X107825145Y-184732924D01*
X107746048Y-184710744D01*
X107629029Y-184697982D01*
X107454473Y-184689857D01*
X107385237Y-184687521D01*
X106950656Y-184673321D01*
X106951293Y-184541784D01*
X106968124Y-184403519D01*
X107028974Y-184319917D01*
X107151905Y-184266507D01*
X107155203Y-184265555D01*
X107329496Y-184244555D01*
X107500048Y-184271985D01*
X107626800Y-184338689D01*
X107677658Y-184371625D01*
X107732435Y-184367068D01*
X107816728Y-184319349D01*
X107866227Y-184285671D01*
X107963045Y-184213716D01*
X108023018Y-184159779D01*
X108032641Y-184144337D01*
X107993015Y-184064424D01*
X107875936Y-183968989D01*
X107825082Y-183936789D01*
X107678887Y-183881332D01*
X107481863Y-183849913D01*
X107263011Y-183842855D01*
X107051330Y-183860480D01*
G37*
X107051330Y-183860480D02*
X106875821Y-183903109D01*
X106825088Y-183925693D01*
X106726746Y-183984847D01*
X106651273Y-184051472D01*
X106595429Y-184137135D01*
X106555974Y-184253405D01*
X106529668Y-184411848D01*
X106513271Y-184624034D01*
X106503543Y-184901529D01*
X106499849Y-185086885D01*
X106486255Y-185888443D01*
X106718456Y-185888443D01*
X106859323Y-185882536D01*
X106931898Y-185862350D01*
X106950656Y-185828453D01*
X106960559Y-185791799D01*
X107004834Y-185798807D01*
X107065164Y-185828197D01*
X107216197Y-185873246D01*
X107410307Y-185885385D01*
X107614469Y-185865529D01*
X107795660Y-185814592D01*
X107811911Y-185807522D01*
X107977509Y-185691188D01*
X108086676Y-185529467D01*
X108136909Y-185340430D01*
X108133072Y-185272515D01*
X107723237Y-185272515D01*
X107687125Y-185363914D01*
X107580058Y-185429411D01*
X107407316Y-185464563D01*
X107315000Y-185469231D01*
X107161150Y-185457282D01*
X107058885Y-185410844D01*
X107033934Y-185388771D01*
X106966339Y-185268681D01*
X106950656Y-185159754D01*
X106950656Y-185014017D01*
X107153648Y-185014017D01*
X107389613Y-185026043D01*
X107555119Y-185063871D01*
X107659695Y-185130121D01*
X107683109Y-185159656D01*
X107723237Y-185272515D01*
X108133072Y-185272515D01*
X108125705Y-185142148D01*
X108050560Y-184952692D01*
X107948032Y-184824656D01*
X107885935Y-184769302D01*
X107825145Y-184732924D01*
X107746048Y-184710744D01*
X107629029Y-184697982D01*
X107454473Y-184689857D01*
X107385237Y-184687521D01*
X106950656Y-184673321D01*
X106951293Y-184541784D01*
X106968124Y-184403519D01*
X107028974Y-184319917D01*
X107151905Y-184266507D01*
X107155203Y-184265555D01*
X107329496Y-184244555D01*
X107500048Y-184271985D01*
X107626800Y-184338689D01*
X107677658Y-184371625D01*
X107732435Y-184367068D01*
X107816728Y-184319349D01*
X107866227Y-184285671D01*
X107963045Y-184213716D01*
X108023018Y-184159779D01*
X108032641Y-184144337D01*
X107993015Y-184064424D01*
X107875936Y-183968989D01*
X107825082Y-183936789D01*
X107678887Y-183881332D01*
X107481863Y-183849913D01*
X107263011Y-183842855D01*
X107051330Y-183860480D01*
G36*
X105074893Y-183847460D02*
G01*
X104914818Y-183879017D01*
X104823688Y-183925743D01*
X104727821Y-184003370D01*
X104864213Y-184175579D01*
X104948306Y-184279867D01*
X105005408Y-184330746D01*
X105062156Y-184338519D01*
X105145189Y-184313488D01*
X105184167Y-184299327D01*
X105343074Y-184278433D01*
X105488601Y-184323220D01*
X105595440Y-184424399D01*
X105612795Y-184456659D01*
X105631697Y-184542115D01*
X105646284Y-184699606D01*
X105655874Y-184917969D01*
X105659781Y-185186038D01*
X105659836Y-185224172D01*
X105659836Y-185888443D01*
X106117869Y-185888443D01*
X106117869Y-183848115D01*
X105888852Y-183848115D01*
X105756801Y-183851563D01*
X105688008Y-183866907D01*
X105662570Y-183901648D01*
X105659836Y-183934416D01*
X105659836Y-184020717D01*
X105550122Y-183934416D01*
X105424320Y-183875538D01*
X105255319Y-183846426D01*
X105074893Y-183847460D01*
G37*
X105074893Y-183847460D02*
X104914818Y-183879017D01*
X104823688Y-183925743D01*
X104727821Y-184003370D01*
X104864213Y-184175579D01*
X104948306Y-184279867D01*
X105005408Y-184330746D01*
X105062156Y-184338519D01*
X105145189Y-184313488D01*
X105184167Y-184299327D01*
X105343074Y-184278433D01*
X105488601Y-184323220D01*
X105595440Y-184424399D01*
X105612795Y-184456659D01*
X105631697Y-184542115D01*
X105646284Y-184699606D01*
X105655874Y-184917969D01*
X105659781Y-185186038D01*
X105659836Y-185224172D01*
X105659836Y-185888443D01*
X106117869Y-185888443D01*
X106117869Y-183848115D01*
X105888852Y-183848115D01*
X105756801Y-183851563D01*
X105688008Y-183866907D01*
X105662570Y-183901648D01*
X105659836Y-183934416D01*
X105659836Y-184020717D01*
X105550122Y-183934416D01*
X105424320Y-183875538D01*
X105255319Y-183846426D01*
X105074893Y-183847460D01*
G36*
X103759158Y-183858999D02*
G01*
X103560124Y-183910746D01*
X103393439Y-184017544D01*
X103312731Y-184097326D01*
X103180432Y-184285931D01*
X103104610Y-184504720D01*
X103078562Y-184773668D01*
X103078429Y-184795410D01*
X103078197Y-185014017D01*
X104336405Y-185014017D01*
X104309585Y-185128525D01*
X104261159Y-185232232D01*
X104176404Y-185340290D01*
X104158677Y-185357541D01*
X104006320Y-185450904D01*
X103832576Y-185466738D01*
X103632589Y-185405313D01*
X103598689Y-185388771D01*
X103494712Y-185338484D01*
X103425069Y-185309834D01*
X103412917Y-185307184D01*
X103370499Y-185332913D01*
X103289601Y-185395861D01*
X103248535Y-185430259D01*
X103163440Y-185509276D01*
X103135497Y-185561451D01*
X103154890Y-185609446D01*
X103165257Y-185622570D01*
X103235469Y-185680008D01*
X103351326Y-185749813D01*
X103432131Y-185790564D01*
X103661499Y-185862362D01*
X103915436Y-185885625D01*
X104155926Y-185858059D01*
X104223279Y-185838321D01*
X104431738Y-185726612D01*
X104586254Y-185554721D01*
X104687722Y-185320979D01*
X104737035Y-185023716D01*
X104742449Y-184868279D01*
X104726641Y-184641973D01*
X104327377Y-184641973D01*
X104288760Y-184658702D01*
X104184958Y-184671829D01*
X104034044Y-184679575D01*
X103931803Y-184680902D01*
X103747899Y-184679623D01*
X103631826Y-184673638D01*
X103568148Y-184659724D01*
X103541433Y-184634655D01*
X103536230Y-184598280D01*
X103571927Y-184486229D01*
X103661804Y-184375488D01*
X103780034Y-184290489D01*
X103898310Y-184255718D01*
X104058956Y-184286563D01*
X104198022Y-184375732D01*
X104294443Y-184504263D01*
X104327377Y-184641973D01*
X104726641Y-184641973D01*
X104719428Y-184538733D01*
X104648376Y-184276175D01*
X104527790Y-184078525D01*
X104356166Y-183943702D01*
X104132002Y-183869626D01*
X104010562Y-183855360D01*
X103759158Y-183858999D01*
G37*
X103759158Y-183858999D02*
X103560124Y-183910746D01*
X103393439Y-184017544D01*
X103312731Y-184097326D01*
X103180432Y-184285931D01*
X103104610Y-184504720D01*
X103078562Y-184773668D01*
X103078429Y-184795410D01*
X103078197Y-185014017D01*
X104336405Y-185014017D01*
X104309585Y-185128525D01*
X104261159Y-185232232D01*
X104176404Y-185340290D01*
X104158677Y-185357541D01*
X104006320Y-185450904D01*
X103832576Y-185466738D01*
X103632589Y-185405313D01*
X103598689Y-185388771D01*
X103494712Y-185338484D01*
X103425069Y-185309834D01*
X103412917Y-185307184D01*
X103370499Y-185332913D01*
X103289601Y-185395861D01*
X103248535Y-185430259D01*
X103163440Y-185509276D01*
X103135497Y-185561451D01*
X103154890Y-185609446D01*
X103165257Y-185622570D01*
X103235469Y-185680008D01*
X103351326Y-185749813D01*
X103432131Y-185790564D01*
X103661499Y-185862362D01*
X103915436Y-185885625D01*
X104155926Y-185858059D01*
X104223279Y-185838321D01*
X104431738Y-185726612D01*
X104586254Y-185554721D01*
X104687722Y-185320979D01*
X104737035Y-185023716D01*
X104742449Y-184868279D01*
X104726641Y-184641973D01*
X104327377Y-184641973D01*
X104288760Y-184658702D01*
X104184958Y-184671829D01*
X104034044Y-184679575D01*
X103931803Y-184680902D01*
X103747899Y-184679623D01*
X103631826Y-184673638D01*
X103568148Y-184659724D01*
X103541433Y-184634655D01*
X103536230Y-184598280D01*
X103571927Y-184486229D01*
X103661804Y-184375488D01*
X103780034Y-184290489D01*
X103898310Y-184255718D01*
X104058956Y-184286563D01*
X104198022Y-184375732D01*
X104294443Y-184504263D01*
X104327377Y-184641973D01*
X104726641Y-184641973D01*
X104719428Y-184538733D01*
X104648376Y-184276175D01*
X104527790Y-184078525D01*
X104356166Y-183943702D01*
X104132002Y-183869626D01*
X104010562Y-183855360D01*
X103759158Y-183858999D01*
G36*
X118895390Y-180746802D02*
G01*
X118677553Y-180843108D01*
X118512184Y-181003919D01*
X118399043Y-181229482D01*
X118337888Y-181520042D01*
X118333505Y-181565408D01*
X118330070Y-181885256D01*
X118374602Y-182165614D01*
X118464391Y-182392847D01*
X118512471Y-182465941D01*
X118679945Y-182620643D01*
X118893232Y-182720838D01*
X119131846Y-182762418D01*
X119375303Y-182741272D01*
X119560370Y-182676145D01*
X119719521Y-182566393D01*
X119849596Y-182422496D01*
X119851846Y-182419130D01*
X119904670Y-182330314D01*
X119938999Y-182241005D01*
X119959788Y-182128294D01*
X119971991Y-181969273D01*
X119977367Y-181838868D01*
X119979605Y-181720611D01*
X119563294Y-181720611D01*
X119559225Y-181838335D01*
X119544455Y-181995049D01*
X119518398Y-182095621D01*
X119471407Y-182167173D01*
X119427397Y-182208971D01*
X119271377Y-182296484D01*
X119108131Y-182308179D01*
X118956096Y-182245212D01*
X118880080Y-182174653D01*
X118825303Y-182103550D01*
X118793263Y-182035512D01*
X118779200Y-181946967D01*
X118778358Y-181814339D01*
X118782691Y-181692195D01*
X118792011Y-181517710D01*
X118806788Y-181404538D01*
X118833420Y-181330721D01*
X118878309Y-181274298D01*
X118913880Y-181242050D01*
X119062671Y-181157340D01*
X119223187Y-181153117D01*
X119357780Y-181203292D01*
X119472600Y-181308075D01*
X119541004Y-181480198D01*
X119563294Y-181720611D01*
X119979605Y-181720611D01*
X119982276Y-181579548D01*
X119973893Y-181385610D01*
X119948772Y-181239745D01*
X119903468Y-181124641D01*
X119834536Y-181022986D01*
X119808978Y-180992802D01*
X119649175Y-180842412D01*
X119477769Y-180754566D01*
X119268151Y-180717762D01*
X119165936Y-180714754D01*
X118895390Y-180746802D01*
G37*
X118895390Y-180746802D02*
X118677553Y-180843108D01*
X118512184Y-181003919D01*
X118399043Y-181229482D01*
X118337888Y-181520042D01*
X118333505Y-181565408D01*
X118330070Y-181885256D01*
X118374602Y-182165614D01*
X118464391Y-182392847D01*
X118512471Y-182465941D01*
X118679945Y-182620643D01*
X118893232Y-182720838D01*
X119131846Y-182762418D01*
X119375303Y-182741272D01*
X119560370Y-182676145D01*
X119719521Y-182566393D01*
X119849596Y-182422496D01*
X119851846Y-182419130D01*
X119904670Y-182330314D01*
X119938999Y-182241005D01*
X119959788Y-182128294D01*
X119971991Y-181969273D01*
X119977367Y-181838868D01*
X119979605Y-181720611D01*
X119563294Y-181720611D01*
X119559225Y-181838335D01*
X119544455Y-181995049D01*
X119518398Y-182095621D01*
X119471407Y-182167173D01*
X119427397Y-182208971D01*
X119271377Y-182296484D01*
X119108131Y-182308179D01*
X118956096Y-182245212D01*
X118880080Y-182174653D01*
X118825303Y-182103550D01*
X118793263Y-182035512D01*
X118779200Y-181946967D01*
X118778358Y-181814339D01*
X118782691Y-181692195D01*
X118792011Y-181517710D01*
X118806788Y-181404538D01*
X118833420Y-181330721D01*
X118878309Y-181274298D01*
X118913880Y-181242050D01*
X119062671Y-181157340D01*
X119223187Y-181153117D01*
X119357780Y-181203292D01*
X119472600Y-181308075D01*
X119541004Y-181480198D01*
X119563294Y-181720611D01*
X119979605Y-181720611D01*
X119982276Y-181579548D01*
X119973893Y-181385610D01*
X119948772Y-181239745D01*
X119903468Y-181124641D01*
X119834536Y-181022986D01*
X119808978Y-180992802D01*
X119649175Y-180842412D01*
X119477769Y-180754566D01*
X119268151Y-180717762D01*
X119165936Y-180714754D01*
X118895390Y-180746802D01*
G36*
X114982675Y-180771526D02*
G01*
X114941181Y-180791061D01*
X114797566Y-180896263D01*
X114661764Y-181049793D01*
X114560362Y-181218845D01*
X114531520Y-181296567D01*
X114505206Y-181435398D01*
X114489515Y-181603177D01*
X114487609Y-181672459D01*
X114487377Y-181891066D01*
X115745585Y-181891066D01*
X115718766Y-182005574D01*
X115652934Y-182141004D01*
X115537839Y-182258046D01*
X115400913Y-182333442D01*
X115313658Y-182349098D01*
X115195328Y-182330099D01*
X115054149Y-182282446D01*
X115006189Y-182260521D01*
X114828829Y-182171944D01*
X114677470Y-182287391D01*
X114590131Y-182365474D01*
X114543658Y-182429922D01*
X114541305Y-182448837D01*
X114582822Y-182494681D01*
X114673810Y-182564349D01*
X114756395Y-182618700D01*
X114979249Y-182716405D01*
X115229087Y-182760628D01*
X115476710Y-182749130D01*
X115674098Y-182689029D01*
X115877576Y-182560284D01*
X116022179Y-182390774D01*
X116112639Y-182171462D01*
X116153689Y-181893309D01*
X116157329Y-181766034D01*
X116142761Y-181474375D01*
X116140972Y-181465891D01*
X115724059Y-181465891D01*
X115712577Y-181493242D01*
X115665384Y-181508324D01*
X115568049Y-181514788D01*
X115406136Y-181516285D01*
X115343790Y-181516312D01*
X115154103Y-181514052D01*
X115033811Y-181505844D01*
X114969116Y-181489550D01*
X114946220Y-181463027D01*
X114945410Y-181454510D01*
X114971540Y-181386825D01*
X115036937Y-181292005D01*
X115065052Y-181258805D01*
X115169426Y-181164906D01*
X115278225Y-181127988D01*
X115336843Y-181124902D01*
X115495426Y-181163493D01*
X115628413Y-181267155D01*
X115712772Y-181417717D01*
X115714267Y-181422623D01*
X115724059Y-181465891D01*
X116140972Y-181465891D01*
X116094316Y-181244722D01*
X116007045Y-181060983D01*
X115900311Y-180930557D01*
X115702980Y-180789131D01*
X115471015Y-180713556D01*
X115224288Y-180706724D01*
X114982675Y-180771526D01*
G37*
X114982675Y-180771526D02*
X114941181Y-180791061D01*
X114797566Y-180896263D01*
X114661764Y-181049793D01*
X114560362Y-181218845D01*
X114531520Y-181296567D01*
X114505206Y-181435398D01*
X114489515Y-181603177D01*
X114487609Y-181672459D01*
X114487377Y-181891066D01*
X115745585Y-181891066D01*
X115718766Y-182005574D01*
X115652934Y-182141004D01*
X115537839Y-182258046D01*
X115400913Y-182333442D01*
X115313658Y-182349098D01*
X115195328Y-182330099D01*
X115054149Y-182282446D01*
X115006189Y-182260521D01*
X114828829Y-182171944D01*
X114677470Y-182287391D01*
X114590131Y-182365474D01*
X114543658Y-182429922D01*
X114541305Y-182448837D01*
X114582822Y-182494681D01*
X114673810Y-182564349D01*
X114756395Y-182618700D01*
X114979249Y-182716405D01*
X115229087Y-182760628D01*
X115476710Y-182749130D01*
X115674098Y-182689029D01*
X115877576Y-182560284D01*
X116022179Y-182390774D01*
X116112639Y-182171462D01*
X116153689Y-181893309D01*
X116157329Y-181766034D01*
X116142761Y-181474375D01*
X116140972Y-181465891D01*
X115724059Y-181465891D01*
X115712577Y-181493242D01*
X115665384Y-181508324D01*
X115568049Y-181514788D01*
X115406136Y-181516285D01*
X115343790Y-181516312D01*
X115154103Y-181514052D01*
X115033811Y-181505844D01*
X114969116Y-181489550D01*
X114946220Y-181463027D01*
X114945410Y-181454510D01*
X114971540Y-181386825D01*
X115036937Y-181292005D01*
X115065052Y-181258805D01*
X115169426Y-181164906D01*
X115278225Y-181127988D01*
X115336843Y-181124902D01*
X115495426Y-181163493D01*
X115628413Y-181267155D01*
X115712772Y-181417717D01*
X115714267Y-181422623D01*
X115724059Y-181465891D01*
X116140972Y-181465891D01*
X116094316Y-181244722D01*
X116007045Y-181060983D01*
X115900311Y-180930557D01*
X115702980Y-180789131D01*
X115471015Y-180713556D01*
X115224288Y-180706724D01*
X114982675Y-180771526D01*
G36*
X110443582Y-180718003D02*
G01*
X110285900Y-180747907D01*
X110122315Y-180810452D01*
X110104836Y-180818426D01*
X109980783Y-180883656D01*
X109894871Y-180944274D01*
X109867102Y-180983106D01*
X109893547Y-181046437D01*
X109957780Y-181139881D01*
X109986292Y-181174762D01*
X110103789Y-181312066D01*
X110255268Y-181222691D01*
X110399430Y-181163152D01*
X110566000Y-181131326D01*
X110725738Y-181129316D01*
X110849406Y-181159221D01*
X110879084Y-181177886D01*
X110935602Y-181263466D01*
X110942471Y-181362049D01*
X110900180Y-181439062D01*
X110875164Y-181453998D01*
X110800204Y-181472547D01*
X110668439Y-181494348D01*
X110506009Y-181515180D01*
X110476044Y-181518447D01*
X110215160Y-181563575D01*
X110025945Y-181640230D01*
X109900457Y-181755491D01*
X109830757Y-181916435D01*
X109809044Y-182113015D01*
X109839039Y-182336473D01*
X109936441Y-182511949D01*
X110101639Y-182639758D01*
X110335023Y-182720218D01*
X110594098Y-182751962D01*
X110805367Y-182751580D01*
X110976735Y-182722749D01*
X111093770Y-182682944D01*
X111241650Y-182613587D01*
X111378313Y-182533097D01*
X111426885Y-182497670D01*
X111551803Y-182395705D01*
X111250491Y-182090813D01*
X111079204Y-182204165D01*
X110907406Y-182289300D01*
X110723952Y-182333830D01*
X110547603Y-182338528D01*
X110397119Y-182304170D01*
X110291260Y-182231529D01*
X110257079Y-182170238D01*
X110262206Y-182071941D01*
X110347143Y-181996773D01*
X110511657Y-181944866D01*
X110691899Y-181920875D01*
X110969291Y-181875104D01*
X111175365Y-181788748D01*
X111312878Y-181659280D01*
X111384587Y-181484172D01*
X111394521Y-181276565D01*
X111345452Y-181059714D01*
X111233580Y-180895805D01*
X111057903Y-180784088D01*
X110817419Y-180723814D01*
X110639257Y-180711999D01*
X110443582Y-180718003D01*
G37*
X110443582Y-180718003D02*
X110285900Y-180747907D01*
X110122315Y-180810452D01*
X110104836Y-180818426D01*
X109980783Y-180883656D01*
X109894871Y-180944274D01*
X109867102Y-180983106D01*
X109893547Y-181046437D01*
X109957780Y-181139881D01*
X109986292Y-181174762D01*
X110103789Y-181312066D01*
X110255268Y-181222691D01*
X110399430Y-181163152D01*
X110566000Y-181131326D01*
X110725738Y-181129316D01*
X110849406Y-181159221D01*
X110879084Y-181177886D01*
X110935602Y-181263466D01*
X110942471Y-181362049D01*
X110900180Y-181439062D01*
X110875164Y-181453998D01*
X110800204Y-181472547D01*
X110668439Y-181494348D01*
X110506009Y-181515180D01*
X110476044Y-181518447D01*
X110215160Y-181563575D01*
X110025945Y-181640230D01*
X109900457Y-181755491D01*
X109830757Y-181916435D01*
X109809044Y-182113015D01*
X109839039Y-182336473D01*
X109936441Y-182511949D01*
X110101639Y-182639758D01*
X110335023Y-182720218D01*
X110594098Y-182751962D01*
X110805367Y-182751580D01*
X110976735Y-182722749D01*
X111093770Y-182682944D01*
X111241650Y-182613587D01*
X111378313Y-182533097D01*
X111426885Y-182497670D01*
X111551803Y-182395705D01*
X111250491Y-182090813D01*
X111079204Y-182204165D01*
X110907406Y-182289300D01*
X110723952Y-182333830D01*
X110547603Y-182338528D01*
X110397119Y-182304170D01*
X110291260Y-182231529D01*
X110257079Y-182170238D01*
X110262206Y-182071941D01*
X110347143Y-181996773D01*
X110511657Y-181944866D01*
X110691899Y-181920875D01*
X110969291Y-181875104D01*
X111175365Y-181788748D01*
X111312878Y-181659280D01*
X111384587Y-181484172D01*
X111394521Y-181276565D01*
X111345452Y-181059714D01*
X111233580Y-180895805D01*
X111057903Y-180784088D01*
X110817419Y-180723814D01*
X110639257Y-180711999D01*
X110443582Y-180718003D01*
G36*
X108467479Y-180749805D02*
G01*
X108256864Y-180864505D01*
X108092085Y-181045574D01*
X108014446Y-181192838D01*
X107981114Y-181322907D01*
X107959517Y-181508333D01*
X107950261Y-181721939D01*
X107953955Y-181936550D01*
X107971206Y-182124991D01*
X107991357Y-182225637D01*
X108059333Y-182363323D01*
X108177058Y-182509566D01*
X108318935Y-182637452D01*
X108459368Y-182720063D01*
X108462793Y-182721373D01*
X108637055Y-182757472D01*
X108843573Y-182758365D01*
X109039826Y-182725501D01*
X109115604Y-182699161D01*
X109310779Y-182588484D01*
X109450562Y-182443478D01*
X109542401Y-182251503D01*
X109593746Y-181999920D01*
X109605363Y-181868142D01*
X109603881Y-181702553D01*
X109157541Y-181702553D01*
X109142506Y-181944177D01*
X109099228Y-182128303D01*
X109030449Y-182245949D01*
X108981450Y-182279590D01*
X108855907Y-182303050D01*
X108706682Y-182296104D01*
X108577667Y-182262345D01*
X108543834Y-182243772D01*
X108454572Y-182135599D01*
X108395655Y-181970051D01*
X108370576Y-181768581D01*
X108382826Y-181552646D01*
X108410204Y-181422690D01*
X108488809Y-181272191D01*
X108612896Y-181178114D01*
X108762339Y-181145587D01*
X108917013Y-181179738D01*
X109035826Y-181263273D01*
X109098265Y-181332193D01*
X109134707Y-181400126D01*
X109152077Y-181492064D01*
X109157301Y-181632999D01*
X109157541Y-181702553D01*
X109603881Y-181702553D01*
X109602215Y-181516495D01*
X109544944Y-181228134D01*
X109433543Y-181003049D01*
X109268007Y-180841230D01*
X109048330Y-180742666D01*
X109001158Y-180731236D01*
X108717664Y-180704406D01*
X108467479Y-180749805D01*
G37*
X108467479Y-180749805D02*
X108256864Y-180864505D01*
X108092085Y-181045574D01*
X108014446Y-181192838D01*
X107981114Y-181322907D01*
X107959517Y-181508333D01*
X107950261Y-181721939D01*
X107953955Y-181936550D01*
X107971206Y-182124991D01*
X107991357Y-182225637D01*
X108059333Y-182363323D01*
X108177058Y-182509566D01*
X108318935Y-182637452D01*
X108459368Y-182720063D01*
X108462793Y-182721373D01*
X108637055Y-182757472D01*
X108843573Y-182758365D01*
X109039826Y-182725501D01*
X109115604Y-182699161D01*
X109310779Y-182588484D01*
X109450562Y-182443478D01*
X109542401Y-182251503D01*
X109593746Y-181999920D01*
X109605363Y-181868142D01*
X109603881Y-181702553D01*
X109157541Y-181702553D01*
X109142506Y-181944177D01*
X109099228Y-182128303D01*
X109030449Y-182245949D01*
X108981450Y-182279590D01*
X108855907Y-182303050D01*
X108706682Y-182296104D01*
X108577667Y-182262345D01*
X108543834Y-182243772D01*
X108454572Y-182135599D01*
X108395655Y-181970051D01*
X108370576Y-181768581D01*
X108382826Y-181552646D01*
X108410204Y-181422690D01*
X108488809Y-181272191D01*
X108612896Y-181178114D01*
X108762339Y-181145587D01*
X108917013Y-181179738D01*
X109035826Y-181263273D01*
X109098265Y-181332193D01*
X109134707Y-181400126D01*
X109152077Y-181492064D01*
X109157301Y-181632999D01*
X109157541Y-181702553D01*
X109603881Y-181702553D01*
X109602215Y-181516495D01*
X109544944Y-181228134D01*
X109433543Y-181003049D01*
X109268007Y-180841230D01*
X109048330Y-180742666D01*
X109001158Y-180731236D01*
X108717664Y-180704406D01*
X108467479Y-180749805D01*
G36*
X107200492Y-181373311D02*
G01*
X107196556Y-181678698D01*
X107182177Y-181910660D01*
X107153496Y-182078786D01*
X107106652Y-182192671D01*
X107037789Y-182261905D01*
X106943046Y-182296080D01*
X106825738Y-182304811D01*
X106702877Y-182295028D01*
X106609556Y-182259287D01*
X106541916Y-182187995D01*
X106496099Y-182071561D01*
X106468245Y-181900391D01*
X106454496Y-181664896D01*
X106450984Y-181373311D01*
X106450984Y-180725164D01*
X105992951Y-180725164D01*
X105992951Y-182723853D01*
X106221967Y-182723853D01*
X106360029Y-182718258D01*
X106431122Y-182698611D01*
X106450984Y-182661313D01*
X106462946Y-182628094D01*
X106510553Y-182635121D01*
X106606515Y-182682132D01*
X106826452Y-182754654D01*
X107059726Y-182749516D01*
X107283245Y-182670766D01*
X107389687Y-182608558D01*
X107470878Y-182541204D01*
X107530192Y-182456928D01*
X107571004Y-182343957D01*
X107596688Y-182190515D01*
X107610619Y-181984827D01*
X107616171Y-181715118D01*
X107616885Y-181506551D01*
X107616885Y-180725164D01*
X107200492Y-180725164D01*
X107200492Y-181373311D01*
G37*
X107200492Y-181373311D02*
X107196556Y-181678698D01*
X107182177Y-181910660D01*
X107153496Y-182078786D01*
X107106652Y-182192671D01*
X107037789Y-182261905D01*
X106943046Y-182296080D01*
X106825738Y-182304811D01*
X106702877Y-182295028D01*
X106609556Y-182259287D01*
X106541916Y-182187995D01*
X106496099Y-182071561D01*
X106468245Y-181900391D01*
X106454496Y-181664896D01*
X106450984Y-181373311D01*
X106450984Y-180725164D01*
X105992951Y-180725164D01*
X105992951Y-182723853D01*
X106221967Y-182723853D01*
X106360029Y-182718258D01*
X106431122Y-182698611D01*
X106450984Y-182661313D01*
X106462946Y-182628094D01*
X106510553Y-182635121D01*
X106606515Y-182682132D01*
X106826452Y-182754654D01*
X107059726Y-182749516D01*
X107283245Y-182670766D01*
X107389687Y-182608558D01*
X107470878Y-182541204D01*
X107530192Y-182456928D01*
X107571004Y-182343957D01*
X107596688Y-182190515D01*
X107610619Y-181984827D01*
X107616171Y-181715118D01*
X107616885Y-181506551D01*
X107616885Y-180725164D01*
X107200492Y-180725164D01*
X107200492Y-181373311D01*
G36*
X103147712Y-180742602D02*
G01*
X102906457Y-180845090D01*
X102830469Y-180894981D01*
X102733352Y-180971651D01*
X102672388Y-181031936D01*
X102661803Y-181051571D01*
X102691692Y-181095142D01*
X102768181Y-181169077D01*
X102829418Y-181220679D01*
X102997033Y-181355378D01*
X103129386Y-181244010D01*
X103231664Y-181172113D01*
X103331390Y-181147296D01*
X103445525Y-181153357D01*
X103626766Y-181198418D01*
X103751525Y-181291949D01*
X103827342Y-181443154D01*
X103861760Y-181661236D01*
X103861769Y-181661373D01*
X103858792Y-181905124D01*
X103812533Y-182083966D01*
X103720258Y-182205730D01*
X103657350Y-182246964D01*
X103490283Y-182298311D01*
X103311838Y-182298342D01*
X103156585Y-182248522D01*
X103119836Y-182224180D01*
X103027670Y-182162004D01*
X102955613Y-182151813D01*
X102877898Y-182198092D01*
X102791982Y-182281212D01*
X102655989Y-182421521D01*
X102806977Y-182545978D01*
X103040260Y-182686443D01*
X103303327Y-182755666D01*
X103578240Y-182750653D01*
X103758784Y-182704755D01*
X103969806Y-182591249D01*
X104138574Y-182412685D01*
X104215247Y-182286639D01*
X104277346Y-182105791D01*
X104308419Y-181876745D01*
X104308658Y-181628510D01*
X104278257Y-181390093D01*
X104217408Y-181190503D01*
X104207824Y-181170039D01*
X104065898Y-180969341D01*
X103873741Y-180823217D01*
X103646536Y-180734698D01*
X103399465Y-180706815D01*
X103147712Y-180742602D01*
G37*
X103147712Y-180742602D02*
X102906457Y-180845090D01*
X102830469Y-180894981D01*
X102733352Y-180971651D01*
X102672388Y-181031936D01*
X102661803Y-181051571D01*
X102691692Y-181095142D01*
X102768181Y-181169077D01*
X102829418Y-181220679D01*
X102997033Y-181355378D01*
X103129386Y-181244010D01*
X103231664Y-181172113D01*
X103331390Y-181147296D01*
X103445525Y-181153357D01*
X103626766Y-181198418D01*
X103751525Y-181291949D01*
X103827342Y-181443154D01*
X103861760Y-181661236D01*
X103861769Y-181661373D01*
X103858792Y-181905124D01*
X103812533Y-182083966D01*
X103720258Y-182205730D01*
X103657350Y-182246964D01*
X103490283Y-182298311D01*
X103311838Y-182298342D01*
X103156585Y-182248522D01*
X103119836Y-182224180D01*
X103027670Y-182162004D01*
X102955613Y-182151813D01*
X102877898Y-182198092D01*
X102791982Y-182281212D01*
X102655989Y-182421521D01*
X102806977Y-182545978D01*
X103040260Y-182686443D01*
X103303327Y-182755666D01*
X103578240Y-182750653D01*
X103758784Y-182704755D01*
X103969806Y-182591249D01*
X104138574Y-182412685D01*
X104215247Y-182286639D01*
X104277346Y-182105791D01*
X104308419Y-181876745D01*
X104308658Y-181628510D01*
X104278257Y-181390093D01*
X104217408Y-181190503D01*
X104207824Y-181170039D01*
X104065898Y-180969341D01*
X103873741Y-180823217D01*
X103646536Y-180734698D01*
X103399465Y-180706815D01*
X103147712Y-180742602D01*
G36*
X101622208Y-180718019D02*
G01*
X101515586Y-180743922D01*
X101311170Y-180838772D01*
X101136375Y-180983633D01*
X101015403Y-181157320D01*
X100998783Y-181196317D01*
X100975984Y-181298465D01*
X100960025Y-181449573D01*
X100954590Y-181602301D01*
X100954590Y-181891066D01*
X101558361Y-181891066D01*
X101807381Y-181892007D01*
X101982811Y-181897723D01*
X102094335Y-181912550D01*
X102151640Y-181940827D01*
X102164412Y-181986890D01*
X102142338Y-182055077D01*
X102102795Y-182134863D01*
X101992491Y-182268017D01*
X101839208Y-182334355D01*
X101651859Y-182332194D01*
X101439637Y-182259991D01*
X101256227Y-182170883D01*
X101104038Y-182291220D01*
X100951849Y-182411558D01*
X101095026Y-182543843D01*
X101286172Y-182668832D01*
X101521247Y-182744189D01*
X101774102Y-182765278D01*
X102018587Y-182727460D01*
X102058033Y-182714628D01*
X102272910Y-182602414D01*
X102432750Y-182435118D01*
X102540920Y-182207748D01*
X102600790Y-181915308D01*
X102601487Y-181909040D01*
X102606848Y-181590332D01*
X102585177Y-181476632D01*
X102162131Y-181476632D01*
X102123278Y-181494116D01*
X102017795Y-181507508D01*
X101862293Y-181515155D01*
X101763751Y-181516312D01*
X101579987Y-181515588D01*
X101465086Y-181510983D01*
X101404634Y-181498848D01*
X101384217Y-181475530D01*
X101389419Y-181437382D01*
X101393783Y-181422623D01*
X101468276Y-181283944D01*
X101585434Y-181172179D01*
X101688827Y-181123066D01*
X101826184Y-181126032D01*
X101965371Y-181187278D01*
X102082126Y-181288683D01*
X102152190Y-181412122D01*
X102162131Y-181476632D01*
X102585177Y-181476632D01*
X102553421Y-181310020D01*
X102447428Y-181074780D01*
X102295089Y-180891284D01*
X102102626Y-180766209D01*
X101876258Y-180706229D01*
X101622208Y-180718019D01*
G37*
X101622208Y-180718019D02*
X101515586Y-180743922D01*
X101311170Y-180838772D01*
X101136375Y-180983633D01*
X101015403Y-181157320D01*
X100998783Y-181196317D01*
X100975984Y-181298465D01*
X100960025Y-181449573D01*
X100954590Y-181602301D01*
X100954590Y-181891066D01*
X101558361Y-181891066D01*
X101807381Y-181892007D01*
X101982811Y-181897723D01*
X102094335Y-181912550D01*
X102151640Y-181940827D01*
X102164412Y-181986890D01*
X102142338Y-182055077D01*
X102102795Y-182134863D01*
X101992491Y-182268017D01*
X101839208Y-182334355D01*
X101651859Y-182332194D01*
X101439637Y-182259991D01*
X101256227Y-182170883D01*
X101104038Y-182291220D01*
X100951849Y-182411558D01*
X101095026Y-182543843D01*
X101286172Y-182668832D01*
X101521247Y-182744189D01*
X101774102Y-182765278D01*
X102018587Y-182727460D01*
X102058033Y-182714628D01*
X102272910Y-182602414D01*
X102432750Y-182435118D01*
X102540920Y-182207748D01*
X102600790Y-181915308D01*
X102601487Y-181909040D01*
X102606848Y-181590332D01*
X102585177Y-181476632D01*
X102162131Y-181476632D01*
X102123278Y-181494116D01*
X102017795Y-181507508D01*
X101862293Y-181515155D01*
X101763751Y-181516312D01*
X101579987Y-181515588D01*
X101465086Y-181510983D01*
X101404634Y-181498848D01*
X101384217Y-181475530D01*
X101389419Y-181437382D01*
X101393783Y-181422623D01*
X101468276Y-181283944D01*
X101585434Y-181172179D01*
X101688827Y-181123066D01*
X101826184Y-181126032D01*
X101965371Y-181187278D01*
X102082126Y-181288683D01*
X102152190Y-181412122D01*
X102162131Y-181476632D01*
X102585177Y-181476632D01*
X102553421Y-181310020D01*
X102447428Y-181074780D01*
X102295089Y-180891284D01*
X102102626Y-180766209D01*
X101876258Y-180706229D01*
X101622208Y-180718019D01*
G36*
X112986892Y-180759563D02*
G01*
X112883260Y-180809062D01*
X112782894Y-180880561D01*
X112706432Y-180962853D01*
X112650738Y-181067811D01*
X112612677Y-181207313D01*
X112589115Y-181393233D01*
X112576915Y-181637448D01*
X112572944Y-181951833D01*
X112572882Y-181984754D01*
X112571967Y-182723853D01*
X113030000Y-182723853D01*
X113030000Y-182042481D01*
X113030326Y-181790050D01*
X113032581Y-181607093D01*
X113038681Y-181479807D01*
X113050541Y-181394386D01*
X113070076Y-181337026D01*
X113099203Y-181293924D01*
X113139776Y-181251334D01*
X113281731Y-181159824D01*
X113436694Y-181142843D01*
X113584323Y-181200701D01*
X113635663Y-181243763D01*
X113673353Y-181284249D01*
X113700413Y-181327607D01*
X113718603Y-181387463D01*
X113729684Y-181477441D01*
X113735414Y-181611168D01*
X113737556Y-181802270D01*
X113737869Y-182034911D01*
X113737869Y-182723853D01*
X114195902Y-182723853D01*
X114195902Y-180725164D01*
X113966885Y-180725164D01*
X113829386Y-180730602D01*
X113758447Y-180749909D01*
X113737878Y-180787576D01*
X113737869Y-180788692D01*
X113728325Y-180825581D01*
X113686233Y-180821395D01*
X113602541Y-180780861D01*
X113412727Y-180721224D01*
X113195599Y-180714591D01*
X112986892Y-180759563D01*
G37*
X112986892Y-180759563D02*
X112883260Y-180809062D01*
X112782894Y-180880561D01*
X112706432Y-180962853D01*
X112650738Y-181067811D01*
X112612677Y-181207313D01*
X112589115Y-181393233D01*
X112576915Y-181637448D01*
X112572944Y-181951833D01*
X112572882Y-181984754D01*
X112571967Y-182723853D01*
X113030000Y-182723853D01*
X113030000Y-182042481D01*
X113030326Y-181790050D01*
X113032581Y-181607093D01*
X113038681Y-181479807D01*
X113050541Y-181394386D01*
X113070076Y-181337026D01*
X113099203Y-181293924D01*
X113139776Y-181251334D01*
X113281731Y-181159824D01*
X113436694Y-181142843D01*
X113584323Y-181200701D01*
X113635663Y-181243763D01*
X113673353Y-181284249D01*
X113700413Y-181327607D01*
X113718603Y-181387463D01*
X113729684Y-181477441D01*
X113735414Y-181611168D01*
X113737556Y-181802270D01*
X113737869Y-182034911D01*
X113737869Y-182723853D01*
X114195902Y-182723853D01*
X114195902Y-180725164D01*
X113966885Y-180725164D01*
X113829386Y-180730602D01*
X113758447Y-180749909D01*
X113737878Y-180787576D01*
X113737869Y-180788692D01*
X113728325Y-180825581D01*
X113686233Y-180821395D01*
X113602541Y-180780861D01*
X113412727Y-180721224D01*
X113195599Y-180714591D01*
X112986892Y-180759563D01*
G36*
X104531131Y-180723231D02*
G01*
X104387908Y-180766989D01*
X104295694Y-180822280D01*
X104265656Y-180866004D01*
X104273924Y-180917834D01*
X104327573Y-180999259D01*
X104372937Y-181056927D01*
X104466454Y-181161182D01*
X104536713Y-181205045D01*
X104596607Y-181202182D01*
X104774280Y-181156967D01*
X104904766Y-181159020D01*
X105010727Y-181210261D01*
X105046300Y-181240252D01*
X105160164Y-181345778D01*
X105160164Y-182723853D01*
X105618197Y-182723853D01*
X105618197Y-180725164D01*
X105389180Y-180725164D01*
X105251682Y-180730602D01*
X105180742Y-180749909D01*
X105160173Y-180787576D01*
X105160164Y-180788692D01*
X105150450Y-180828146D01*
X105106522Y-180823000D01*
X105045656Y-180794536D01*
X104919946Y-180741569D01*
X104817866Y-180709703D01*
X104686520Y-180701533D01*
X104531131Y-180723231D01*
G37*
X104531131Y-180723231D02*
X104387908Y-180766989D01*
X104295694Y-180822280D01*
X104265656Y-180866004D01*
X104273924Y-180917834D01*
X104327573Y-180999259D01*
X104372937Y-181056927D01*
X104466454Y-181161182D01*
X104536713Y-181205045D01*
X104596607Y-181202182D01*
X104774280Y-181156967D01*
X104904766Y-181159020D01*
X105010727Y-181210261D01*
X105046300Y-181240252D01*
X105160164Y-181345778D01*
X105160164Y-182723853D01*
X105618197Y-182723853D01*
X105618197Y-180725164D01*
X105389180Y-180725164D01*
X105251682Y-180730602D01*
X105180742Y-180749909D01*
X105160173Y-180787576D01*
X105160164Y-180788692D01*
X105150450Y-180828146D01*
X105106522Y-180823000D01*
X105045656Y-180794536D01*
X104919946Y-180741569D01*
X104817866Y-180709703D01*
X104686520Y-180701533D01*
X104531131Y-180723231D01*
G36*
X109241695Y-166920960D02*
G01*
X109053443Y-167919542D01*
X108358817Y-168205889D01*
X107664192Y-168492237D01*
X106830872Y-167925586D01*
X106597499Y-167767811D01*
X106386543Y-167626939D01*
X106207847Y-167509401D01*
X106071256Y-167421629D01*
X105986614Y-167370055D01*
X105963563Y-167358935D01*
X105922037Y-167387535D01*
X105833302Y-167466604D01*
X105707303Y-167586041D01*
X105553986Y-167735744D01*
X105383298Y-167905615D01*
X105205186Y-168085551D01*
X105029594Y-168265454D01*
X104866470Y-168435222D01*
X104725759Y-168584754D01*
X104617408Y-168703952D01*
X104551363Y-168782713D01*
X104535574Y-168809072D01*
X104558297Y-168857666D01*
X104622001Y-168964126D01*
X104719987Y-169118039D01*
X104845559Y-169308991D01*
X104992018Y-169526569D01*
X105076885Y-169650671D01*
X105231574Y-169877279D01*
X105369030Y-170081770D01*
X105482586Y-170253965D01*
X105565572Y-170383685D01*
X105611322Y-170460751D01*
X105618197Y-170476947D01*
X105602612Y-170522975D01*
X105560132Y-170630250D01*
X105497165Y-170783687D01*
X105420121Y-170968206D01*
X105335410Y-171168721D01*
X105249442Y-171370152D01*
X105168627Y-171557415D01*
X105099373Y-171715428D01*
X105048092Y-171829107D01*
X105021191Y-171883370D01*
X105019604Y-171885506D01*
X104977365Y-171895867D01*
X104864874Y-171918982D01*
X104693791Y-171952579D01*
X104475777Y-171994385D01*
X104222491Y-172042127D01*
X104074712Y-172069659D01*
X103804062Y-172121190D01*
X103559603Y-172170225D01*
X103353700Y-172214081D01*
X103198723Y-172250074D01*
X103107038Y-172275521D01*
X103088607Y-172283595D01*
X103070555Y-172338242D01*
X103055990Y-172461662D01*
X103044902Y-172639423D01*
X103037281Y-172857091D01*
X103033116Y-173100235D01*
X103032398Y-173354423D01*
X103035118Y-173605220D01*
X103041265Y-173838196D01*
X103050829Y-174038918D01*
X103063801Y-174192954D01*
X103080171Y-174285870D01*
X103089989Y-174305213D01*
X103148677Y-174328398D01*
X103273034Y-174361544D01*
X103446610Y-174400758D01*
X103652958Y-174442145D01*
X103724989Y-174455534D01*
X104072281Y-174519147D01*
X104346617Y-174570378D01*
X104557061Y-174611261D01*
X104712678Y-174643834D01*
X104822533Y-174670132D01*
X104895689Y-174692192D01*
X104941213Y-174712049D01*
X104968167Y-174731741D01*
X104971939Y-174735632D01*
X105009585Y-174798324D01*
X105067014Y-174920331D01*
X105138492Y-175086712D01*
X105218285Y-175282529D01*
X105300657Y-175492840D01*
X105379875Y-175702708D01*
X105450204Y-175897191D01*
X105505911Y-176061350D01*
X105541259Y-176180245D01*
X105550516Y-176238936D01*
X105549744Y-176240992D01*
X105518380Y-176288964D01*
X105447226Y-176394516D01*
X105343760Y-176546660D01*
X105215460Y-176734410D01*
X105069801Y-176946780D01*
X105028320Y-177007130D01*
X104880413Y-177225929D01*
X104750261Y-177425562D01*
X104644955Y-177594565D01*
X104571584Y-177721475D01*
X104537237Y-177794829D01*
X104535574Y-177803841D01*
X104564431Y-177851207D01*
X104644169Y-177945042D01*
X104764538Y-178075261D01*
X104915287Y-178231779D01*
X105086164Y-178404510D01*
X105266921Y-178583371D01*
X105447306Y-178758276D01*
X105617068Y-178919140D01*
X105765958Y-179055878D01*
X105883724Y-179158407D01*
X105960117Y-179216640D01*
X105981250Y-179226148D01*
X106030440Y-179203754D01*
X106131153Y-179143356D01*
X106266983Y-179055129D01*
X106371490Y-178984115D01*
X106560851Y-178853811D01*
X106785101Y-178700384D01*
X107010036Y-178547201D01*
X107130968Y-178465218D01*
X107540296Y-178188353D01*
X107883898Y-178374136D01*
X108040435Y-178455523D01*
X108173546Y-178518784D01*
X108263611Y-178554865D01*
X108286537Y-178559885D01*
X108314105Y-178522817D01*
X108368492Y-178418069D01*
X108445637Y-178255303D01*
X108541482Y-178044181D01*
X108651966Y-177794365D01*
X108773029Y-177515517D01*
X108900611Y-177217299D01*
X109030653Y-176909374D01*
X109159094Y-176601404D01*
X109281874Y-176303050D01*
X109394933Y-176023975D01*
X109494212Y-175773841D01*
X109575651Y-175562310D01*
X109635189Y-175399043D01*
X109668766Y-175293705D01*
X109674166Y-175257527D01*
X109631366Y-175211381D01*
X109537656Y-175136472D01*
X109412627Y-175048364D01*
X109402133Y-175041394D01*
X109078980Y-174782721D01*
X108818413Y-174480938D01*
X108622690Y-174145695D01*
X108494068Y-173786642D01*
X108434805Y-173413426D01*
X108447161Y-173035700D01*
X108533393Y-172663111D01*
X108695759Y-172305310D01*
X108743528Y-172227027D01*
X108991991Y-171910919D01*
X109285519Y-171657079D01*
X109613953Y-171466827D01*
X109967135Y-171341485D01*
X110334905Y-171282372D01*
X110707103Y-171290807D01*
X111073571Y-171368112D01*
X111424149Y-171515606D01*
X111748677Y-171734610D01*
X111849064Y-171823498D01*
X112104551Y-172101744D01*
X112290722Y-172394656D01*
X112418430Y-172722986D01*
X112489556Y-173048133D01*
X112507114Y-173413702D01*
X112448566Y-173781086D01*
X112319858Y-174137866D01*
X112126938Y-174471626D01*
X111875752Y-174769947D01*
X111572248Y-175020411D01*
X111532360Y-175046813D01*
X111405991Y-175133272D01*
X111309927Y-175208184D01*
X111264000Y-175256015D01*
X111263332Y-175257527D01*
X111273192Y-175309267D01*
X111312278Y-175426696D01*
X111376528Y-175600154D01*
X111461880Y-175819979D01*
X111564273Y-176076513D01*
X111679646Y-176360096D01*
X111803937Y-176661067D01*
X111933084Y-176969767D01*
X112063026Y-177276536D01*
X112189702Y-177571714D01*
X112309049Y-177845640D01*
X112417006Y-178088656D01*
X112509512Y-178291101D01*
X112582504Y-178443315D01*
X112631923Y-178535638D01*
X112651823Y-178559885D01*
X112712634Y-178541004D01*
X112826418Y-178490364D01*
X112973555Y-178417017D01*
X113054462Y-178374136D01*
X113398065Y-178188353D01*
X113807393Y-178465218D01*
X114016346Y-178607054D01*
X114245113Y-178763141D01*
X114459491Y-178910109D01*
X114566871Y-178984115D01*
X114717898Y-179085531D01*
X114845782Y-179165898D01*
X114933842Y-179215041D01*
X114962445Y-179225429D01*
X115004076Y-179197405D01*
X115096211Y-179119172D01*
X115229918Y-178998852D01*
X115396265Y-178844568D01*
X115586320Y-178664443D01*
X115706521Y-178548790D01*
X115916815Y-178342167D01*
X116098556Y-178157358D01*
X116244397Y-178002270D01*
X116346991Y-177884807D01*
X116398991Y-177812875D01*
X116403980Y-177798278D01*
X116380829Y-177742753D01*
X116316854Y-177630484D01*
X116219153Y-177472837D01*
X116094820Y-177281179D01*
X115950954Y-177066876D01*
X115910041Y-177007130D01*
X115760967Y-176789982D01*
X115627225Y-176594475D01*
X115516291Y-176431599D01*
X115435644Y-176312337D01*
X115392759Y-176247678D01*
X115388617Y-176240992D01*
X115394812Y-176189462D01*
X115427700Y-176076166D01*
X115481545Y-175916042D01*
X115550613Y-175724032D01*
X115629169Y-175515074D01*
X115711480Y-175304109D01*
X115791811Y-175106076D01*
X115864428Y-174935916D01*
X115923595Y-174808567D01*
X115963580Y-174738971D01*
X115966422Y-174735632D01*
X115990873Y-174715742D01*
X116032169Y-174696073D01*
X116099377Y-174674589D01*
X116201559Y-174649253D01*
X116347781Y-174618029D01*
X116547107Y-174578882D01*
X116808603Y-174529775D01*
X117141331Y-174468672D01*
X117213372Y-174455534D01*
X117426885Y-174414282D01*
X117613022Y-174373926D01*
X117755334Y-174338361D01*
X117837371Y-174311480D01*
X117848372Y-174305213D01*
X117866498Y-174249654D01*
X117881233Y-174125495D01*
X117892564Y-173947169D01*
X117900484Y-173729109D01*
X117904981Y-173485746D01*
X117906046Y-173231514D01*
X117903670Y-172980845D01*
X117897841Y-172748171D01*
X117888551Y-172547924D01*
X117875789Y-172394538D01*
X117859546Y-172302444D01*
X117849754Y-172283595D01*
X117795239Y-172264582D01*
X117671104Y-172233650D01*
X117489715Y-172193482D01*
X117263440Y-172146762D01*
X117004647Y-172096173D01*
X116863649Y-172069659D01*
X116596127Y-172019650D01*
X116357562Y-171974346D01*
X116159614Y-171936021D01*
X116013943Y-171906947D01*
X115932209Y-171889397D01*
X115918757Y-171885506D01*
X115896021Y-171841638D01*
X115847960Y-171735976D01*
X115780981Y-171583613D01*
X115701490Y-171399646D01*
X115615892Y-171199170D01*
X115530595Y-170997281D01*
X115452005Y-170809073D01*
X115386527Y-170649642D01*
X115340569Y-170534084D01*
X115320537Y-170477494D01*
X115320164Y-170475021D01*
X115342874Y-170430379D01*
X115406541Y-170327647D01*
X115504475Y-170177037D01*
X115629983Y-169988757D01*
X115776374Y-169773018D01*
X115861475Y-169649098D01*
X116016545Y-169421883D01*
X116154275Y-169215595D01*
X116267947Y-169040671D01*
X116350839Y-168907545D01*
X116396231Y-168826653D01*
X116402787Y-168808520D01*
X116374605Y-168766312D01*
X116296696Y-168676191D01*
X116179010Y-168548254D01*
X116031500Y-168392596D01*
X115864119Y-168219315D01*
X115686819Y-168038507D01*
X115509552Y-167860267D01*
X115342270Y-167694693D01*
X115194925Y-167551880D01*
X115077470Y-167441925D01*
X114999857Y-167374924D01*
X114973892Y-167358935D01*
X114931616Y-167381419D01*
X114830499Y-167444585D01*
X114680373Y-167542003D01*
X114491070Y-167667243D01*
X114272421Y-167813875D01*
X114107489Y-167925586D01*
X113274169Y-168492237D01*
X112579544Y-168205889D01*
X111884918Y-167919542D01*
X111696666Y-166920960D01*
X111508413Y-165922377D01*
X109429948Y-165922377D01*
X109241695Y-166920960D01*
G37*
X109241695Y-166920960D02*
X109053443Y-167919542D01*
X108358817Y-168205889D01*
X107664192Y-168492237D01*
X106830872Y-167925586D01*
X106597499Y-167767811D01*
X106386543Y-167626939D01*
X106207847Y-167509401D01*
X106071256Y-167421629D01*
X105986614Y-167370055D01*
X105963563Y-167358935D01*
X105922037Y-167387535D01*
X105833302Y-167466604D01*
X105707303Y-167586041D01*
X105553986Y-167735744D01*
X105383298Y-167905615D01*
X105205186Y-168085551D01*
X105029594Y-168265454D01*
X104866470Y-168435222D01*
X104725759Y-168584754D01*
X104617408Y-168703952D01*
X104551363Y-168782713D01*
X104535574Y-168809072D01*
X104558297Y-168857666D01*
X104622001Y-168964126D01*
X104719987Y-169118039D01*
X104845559Y-169308991D01*
X104992018Y-169526569D01*
X105076885Y-169650671D01*
X105231574Y-169877279D01*
X105369030Y-170081770D01*
X105482586Y-170253965D01*
X105565572Y-170383685D01*
X105611322Y-170460751D01*
X105618197Y-170476947D01*
X105602612Y-170522975D01*
X105560132Y-170630250D01*
X105497165Y-170783687D01*
X105420121Y-170968206D01*
X105335410Y-171168721D01*
X105249442Y-171370152D01*
X105168627Y-171557415D01*
X105099373Y-171715428D01*
X105048092Y-171829107D01*
X105021191Y-171883370D01*
X105019604Y-171885506D01*
X104977365Y-171895867D01*
X104864874Y-171918982D01*
X104693791Y-171952579D01*
X104475777Y-171994385D01*
X104222491Y-172042127D01*
X104074712Y-172069659D01*
X103804062Y-172121190D01*
X103559603Y-172170225D01*
X103353700Y-172214081D01*
X103198723Y-172250074D01*
X103107038Y-172275521D01*
X103088607Y-172283595D01*
X103070555Y-172338242D01*
X103055990Y-172461662D01*
X103044902Y-172639423D01*
X103037281Y-172857091D01*
X103033116Y-173100235D01*
X103032398Y-173354423D01*
X103035118Y-173605220D01*
X103041265Y-173838196D01*
X103050829Y-174038918D01*
X103063801Y-174192954D01*
X103080171Y-174285870D01*
X103089989Y-174305213D01*
X103148677Y-174328398D01*
X103273034Y-174361544D01*
X103446610Y-174400758D01*
X103652958Y-174442145D01*
X103724989Y-174455534D01*
X104072281Y-174519147D01*
X104346617Y-174570378D01*
X104557061Y-174611261D01*
X104712678Y-174643834D01*
X104822533Y-174670132D01*
X104895689Y-174692192D01*
X104941213Y-174712049D01*
X104968167Y-174731741D01*
X104971939Y-174735632D01*
X105009585Y-174798324D01*
X105067014Y-174920331D01*
X105138492Y-175086712D01*
X105218285Y-175282529D01*
X105300657Y-175492840D01*
X105379875Y-175702708D01*
X105450204Y-175897191D01*
X105505911Y-176061350D01*
X105541259Y-176180245D01*
X105550516Y-176238936D01*
X105549744Y-176240992D01*
X105518380Y-176288964D01*
X105447226Y-176394516D01*
X105343760Y-176546660D01*
X105215460Y-176734410D01*
X105069801Y-176946780D01*
X105028320Y-177007130D01*
X104880413Y-177225929D01*
X104750261Y-177425562D01*
X104644955Y-177594565D01*
X104571584Y-177721475D01*
X104537237Y-177794829D01*
X104535574Y-177803841D01*
X104564431Y-177851207D01*
X104644169Y-177945042D01*
X104764538Y-178075261D01*
X104915287Y-178231779D01*
X105086164Y-178404510D01*
X105266921Y-178583371D01*
X105447306Y-178758276D01*
X105617068Y-178919140D01*
X105765958Y-179055878D01*
X105883724Y-179158407D01*
X105960117Y-179216640D01*
X105981250Y-179226148D01*
X106030440Y-179203754D01*
X106131153Y-179143356D01*
X106266983Y-179055129D01*
X106371490Y-178984115D01*
X106560851Y-178853811D01*
X106785101Y-178700384D01*
X107010036Y-178547201D01*
X107130968Y-178465218D01*
X107540296Y-178188353D01*
X107883898Y-178374136D01*
X108040435Y-178455523D01*
X108173546Y-178518784D01*
X108263611Y-178554865D01*
X108286537Y-178559885D01*
X108314105Y-178522817D01*
X108368492Y-178418069D01*
X108445637Y-178255303D01*
X108541482Y-178044181D01*
X108651966Y-177794365D01*
X108773029Y-177515517D01*
X108900611Y-177217299D01*
X109030653Y-176909374D01*
X109159094Y-176601404D01*
X109281874Y-176303050D01*
X109394933Y-176023975D01*
X109494212Y-175773841D01*
X109575651Y-175562310D01*
X109635189Y-175399043D01*
X109668766Y-175293705D01*
X109674166Y-175257527D01*
X109631366Y-175211381D01*
X109537656Y-175136472D01*
X109412627Y-175048364D01*
X109402133Y-175041394D01*
X109078980Y-174782721D01*
X108818413Y-174480938D01*
X108622690Y-174145695D01*
X108494068Y-173786642D01*
X108434805Y-173413426D01*
X108447161Y-173035700D01*
X108533393Y-172663111D01*
X108695759Y-172305310D01*
X108743528Y-172227027D01*
X108991991Y-171910919D01*
X109285519Y-171657079D01*
X109613953Y-171466827D01*
X109967135Y-171341485D01*
X110334905Y-171282372D01*
X110707103Y-171290807D01*
X111073571Y-171368112D01*
X111424149Y-171515606D01*
X111748677Y-171734610D01*
X111849064Y-171823498D01*
X112104551Y-172101744D01*
X112290722Y-172394656D01*
X112418430Y-172722986D01*
X112489556Y-173048133D01*
X112507114Y-173413702D01*
X112448566Y-173781086D01*
X112319858Y-174137866D01*
X112126938Y-174471626D01*
X111875752Y-174769947D01*
X111572248Y-175020411D01*
X111532360Y-175046813D01*
X111405991Y-175133272D01*
X111309927Y-175208184D01*
X111264000Y-175256015D01*
X111263332Y-175257527D01*
X111273192Y-175309267D01*
X111312278Y-175426696D01*
X111376528Y-175600154D01*
X111461880Y-175819979D01*
X111564273Y-176076513D01*
X111679646Y-176360096D01*
X111803937Y-176661067D01*
X111933084Y-176969767D01*
X112063026Y-177276536D01*
X112189702Y-177571714D01*
X112309049Y-177845640D01*
X112417006Y-178088656D01*
X112509512Y-178291101D01*
X112582504Y-178443315D01*
X112631923Y-178535638D01*
X112651823Y-178559885D01*
X112712634Y-178541004D01*
X112826418Y-178490364D01*
X112973555Y-178417017D01*
X113054462Y-178374136D01*
X113398065Y-178188353D01*
X113807393Y-178465218D01*
X114016346Y-178607054D01*
X114245113Y-178763141D01*
X114459491Y-178910109D01*
X114566871Y-178984115D01*
X114717898Y-179085531D01*
X114845782Y-179165898D01*
X114933842Y-179215041D01*
X114962445Y-179225429D01*
X115004076Y-179197405D01*
X115096211Y-179119172D01*
X115229918Y-178998852D01*
X115396265Y-178844568D01*
X115586320Y-178664443D01*
X115706521Y-178548790D01*
X115916815Y-178342167D01*
X116098556Y-178157358D01*
X116244397Y-178002270D01*
X116346991Y-177884807D01*
X116398991Y-177812875D01*
X116403980Y-177798278D01*
X116380829Y-177742753D01*
X116316854Y-177630484D01*
X116219153Y-177472837D01*
X116094820Y-177281179D01*
X115950954Y-177066876D01*
X115910041Y-177007130D01*
X115760967Y-176789982D01*
X115627225Y-176594475D01*
X115516291Y-176431599D01*
X115435644Y-176312337D01*
X115392759Y-176247678D01*
X115388617Y-176240992D01*
X115394812Y-176189462D01*
X115427700Y-176076166D01*
X115481545Y-175916042D01*
X115550613Y-175724032D01*
X115629169Y-175515074D01*
X115711480Y-175304109D01*
X115791811Y-175106076D01*
X115864428Y-174935916D01*
X115923595Y-174808567D01*
X115963580Y-174738971D01*
X115966422Y-174735632D01*
X115990873Y-174715742D01*
X116032169Y-174696073D01*
X116099377Y-174674589D01*
X116201559Y-174649253D01*
X116347781Y-174618029D01*
X116547107Y-174578882D01*
X116808603Y-174529775D01*
X117141331Y-174468672D01*
X117213372Y-174455534D01*
X117426885Y-174414282D01*
X117613022Y-174373926D01*
X117755334Y-174338361D01*
X117837371Y-174311480D01*
X117848372Y-174305213D01*
X117866498Y-174249654D01*
X117881233Y-174125495D01*
X117892564Y-173947169D01*
X117900484Y-173729109D01*
X117904981Y-173485746D01*
X117906046Y-173231514D01*
X117903670Y-172980845D01*
X117897841Y-172748171D01*
X117888551Y-172547924D01*
X117875789Y-172394538D01*
X117859546Y-172302444D01*
X117849754Y-172283595D01*
X117795239Y-172264582D01*
X117671104Y-172233650D01*
X117489715Y-172193482D01*
X117263440Y-172146762D01*
X117004647Y-172096173D01*
X116863649Y-172069659D01*
X116596127Y-172019650D01*
X116357562Y-171974346D01*
X116159614Y-171936021D01*
X116013943Y-171906947D01*
X115932209Y-171889397D01*
X115918757Y-171885506D01*
X115896021Y-171841638D01*
X115847960Y-171735976D01*
X115780981Y-171583613D01*
X115701490Y-171399646D01*
X115615892Y-171199170D01*
X115530595Y-170997281D01*
X115452005Y-170809073D01*
X115386527Y-170649642D01*
X115340569Y-170534084D01*
X115320537Y-170477494D01*
X115320164Y-170475021D01*
X115342874Y-170430379D01*
X115406541Y-170327647D01*
X115504475Y-170177037D01*
X115629983Y-169988757D01*
X115776374Y-169773018D01*
X115861475Y-169649098D01*
X116016545Y-169421883D01*
X116154275Y-169215595D01*
X116267947Y-169040671D01*
X116350839Y-168907545D01*
X116396231Y-168826653D01*
X116402787Y-168808520D01*
X116374605Y-168766312D01*
X116296696Y-168676191D01*
X116179010Y-168548254D01*
X116031500Y-168392596D01*
X115864119Y-168219315D01*
X115686819Y-168038507D01*
X115509552Y-167860267D01*
X115342270Y-167694693D01*
X115194925Y-167551880D01*
X115077470Y-167441925D01*
X114999857Y-167374924D01*
X114973892Y-167358935D01*
X114931616Y-167381419D01*
X114830499Y-167444585D01*
X114680373Y-167542003D01*
X114491070Y-167667243D01*
X114272421Y-167813875D01*
X114107489Y-167925586D01*
X113274169Y-168492237D01*
X112579544Y-168205889D01*
X111884918Y-167919542D01*
X111696666Y-166920960D01*
X111508413Y-165922377D01*
X109429948Y-165922377D01*
X109241695Y-166920960D01*
M02*
