G04 #@! TF.GenerationSoftware,KiCad,Pcbnew,(5.1.5)-3*
G04 #@! TF.CreationDate,2020-01-28T12:29:24+09:00*
G04 #@! TF.ProjectId,SchoolDesk,5363686f-6f6c-4446-9573-6b2e6b696361,rev?*
G04 #@! TF.SameCoordinates,Original*
G04 #@! TF.FileFunction,Paste,Top*
G04 #@! TF.FilePolarity,Positive*
%FSLAX46Y46*%
G04 Gerber Fmt 4.6, Leading zero omitted, Abs format (unit mm)*
G04 Created by KiCad (PCBNEW (5.1.5)-3) date 2020-01-28 12:29:24*
%MOMM*%
%LPD*%
G04 APERTURE LIST*
%ADD10R,2.500000X1.200000*%
%ADD11C,0.100000*%
G04 APERTURE END LIST*
D10*
X120090000Y-154495500D03*
X120090000Y-157495500D03*
X120090000Y-161495500D03*
X113590000Y-162595500D03*
D11*
G36*
X45685142Y-168465174D02*
G01*
X45708803Y-168468684D01*
X45732007Y-168474496D01*
X45754529Y-168482554D01*
X45776153Y-168492782D01*
X45796670Y-168505079D01*
X45815883Y-168519329D01*
X45833607Y-168535393D01*
X45849671Y-168553117D01*
X45863921Y-168572330D01*
X45876218Y-168592847D01*
X45886446Y-168614471D01*
X45894504Y-168636993D01*
X45900316Y-168660197D01*
X45903826Y-168683858D01*
X45905000Y-168707750D01*
X45905000Y-169620250D01*
X45903826Y-169644142D01*
X45900316Y-169667803D01*
X45894504Y-169691007D01*
X45886446Y-169713529D01*
X45876218Y-169735153D01*
X45863921Y-169755670D01*
X45849671Y-169774883D01*
X45833607Y-169792607D01*
X45815883Y-169808671D01*
X45796670Y-169822921D01*
X45776153Y-169835218D01*
X45754529Y-169845446D01*
X45732007Y-169853504D01*
X45708803Y-169859316D01*
X45685142Y-169862826D01*
X45661250Y-169864000D01*
X45173750Y-169864000D01*
X45149858Y-169862826D01*
X45126197Y-169859316D01*
X45102993Y-169853504D01*
X45080471Y-169845446D01*
X45058847Y-169835218D01*
X45038330Y-169822921D01*
X45019117Y-169808671D01*
X45001393Y-169792607D01*
X44985329Y-169774883D01*
X44971079Y-169755670D01*
X44958782Y-169735153D01*
X44948554Y-169713529D01*
X44940496Y-169691007D01*
X44934684Y-169667803D01*
X44931174Y-169644142D01*
X44930000Y-169620250D01*
X44930000Y-168707750D01*
X44931174Y-168683858D01*
X44934684Y-168660197D01*
X44940496Y-168636993D01*
X44948554Y-168614471D01*
X44958782Y-168592847D01*
X44971079Y-168572330D01*
X44985329Y-168553117D01*
X45001393Y-168535393D01*
X45019117Y-168519329D01*
X45038330Y-168505079D01*
X45058847Y-168492782D01*
X45080471Y-168482554D01*
X45102993Y-168474496D01*
X45126197Y-168468684D01*
X45149858Y-168465174D01*
X45173750Y-168464000D01*
X45661250Y-168464000D01*
X45685142Y-168465174D01*
G37*
G36*
X47560142Y-168465174D02*
G01*
X47583803Y-168468684D01*
X47607007Y-168474496D01*
X47629529Y-168482554D01*
X47651153Y-168492782D01*
X47671670Y-168505079D01*
X47690883Y-168519329D01*
X47708607Y-168535393D01*
X47724671Y-168553117D01*
X47738921Y-168572330D01*
X47751218Y-168592847D01*
X47761446Y-168614471D01*
X47769504Y-168636993D01*
X47775316Y-168660197D01*
X47778826Y-168683858D01*
X47780000Y-168707750D01*
X47780000Y-169620250D01*
X47778826Y-169644142D01*
X47775316Y-169667803D01*
X47769504Y-169691007D01*
X47761446Y-169713529D01*
X47751218Y-169735153D01*
X47738921Y-169755670D01*
X47724671Y-169774883D01*
X47708607Y-169792607D01*
X47690883Y-169808671D01*
X47671670Y-169822921D01*
X47651153Y-169835218D01*
X47629529Y-169845446D01*
X47607007Y-169853504D01*
X47583803Y-169859316D01*
X47560142Y-169862826D01*
X47536250Y-169864000D01*
X47048750Y-169864000D01*
X47024858Y-169862826D01*
X47001197Y-169859316D01*
X46977993Y-169853504D01*
X46955471Y-169845446D01*
X46933847Y-169835218D01*
X46913330Y-169822921D01*
X46894117Y-169808671D01*
X46876393Y-169792607D01*
X46860329Y-169774883D01*
X46846079Y-169755670D01*
X46833782Y-169735153D01*
X46823554Y-169713529D01*
X46815496Y-169691007D01*
X46809684Y-169667803D01*
X46806174Y-169644142D01*
X46805000Y-169620250D01*
X46805000Y-168707750D01*
X46806174Y-168683858D01*
X46809684Y-168660197D01*
X46815496Y-168636993D01*
X46823554Y-168614471D01*
X46833782Y-168592847D01*
X46846079Y-168572330D01*
X46860329Y-168553117D01*
X46876393Y-168535393D01*
X46894117Y-168519329D01*
X46913330Y-168505079D01*
X46933847Y-168492782D01*
X46955471Y-168482554D01*
X46977993Y-168474496D01*
X47001197Y-168468684D01*
X47024858Y-168465174D01*
X47048750Y-168464000D01*
X47536250Y-168464000D01*
X47560142Y-168465174D01*
G37*
G36*
X57593142Y-168465174D02*
G01*
X57616803Y-168468684D01*
X57640007Y-168474496D01*
X57662529Y-168482554D01*
X57684153Y-168492782D01*
X57704670Y-168505079D01*
X57723883Y-168519329D01*
X57741607Y-168535393D01*
X57757671Y-168553117D01*
X57771921Y-168572330D01*
X57784218Y-168592847D01*
X57794446Y-168614471D01*
X57802504Y-168636993D01*
X57808316Y-168660197D01*
X57811826Y-168683858D01*
X57813000Y-168707750D01*
X57813000Y-169620250D01*
X57811826Y-169644142D01*
X57808316Y-169667803D01*
X57802504Y-169691007D01*
X57794446Y-169713529D01*
X57784218Y-169735153D01*
X57771921Y-169755670D01*
X57757671Y-169774883D01*
X57741607Y-169792607D01*
X57723883Y-169808671D01*
X57704670Y-169822921D01*
X57684153Y-169835218D01*
X57662529Y-169845446D01*
X57640007Y-169853504D01*
X57616803Y-169859316D01*
X57593142Y-169862826D01*
X57569250Y-169864000D01*
X57081750Y-169864000D01*
X57057858Y-169862826D01*
X57034197Y-169859316D01*
X57010993Y-169853504D01*
X56988471Y-169845446D01*
X56966847Y-169835218D01*
X56946330Y-169822921D01*
X56927117Y-169808671D01*
X56909393Y-169792607D01*
X56893329Y-169774883D01*
X56879079Y-169755670D01*
X56866782Y-169735153D01*
X56856554Y-169713529D01*
X56848496Y-169691007D01*
X56842684Y-169667803D01*
X56839174Y-169644142D01*
X56838000Y-169620250D01*
X56838000Y-168707750D01*
X56839174Y-168683858D01*
X56842684Y-168660197D01*
X56848496Y-168636993D01*
X56856554Y-168614471D01*
X56866782Y-168592847D01*
X56879079Y-168572330D01*
X56893329Y-168553117D01*
X56909393Y-168535393D01*
X56927117Y-168519329D01*
X56946330Y-168505079D01*
X56966847Y-168492782D01*
X56988471Y-168482554D01*
X57010993Y-168474496D01*
X57034197Y-168468684D01*
X57057858Y-168465174D01*
X57081750Y-168464000D01*
X57569250Y-168464000D01*
X57593142Y-168465174D01*
G37*
G36*
X55718142Y-168465174D02*
G01*
X55741803Y-168468684D01*
X55765007Y-168474496D01*
X55787529Y-168482554D01*
X55809153Y-168492782D01*
X55829670Y-168505079D01*
X55848883Y-168519329D01*
X55866607Y-168535393D01*
X55882671Y-168553117D01*
X55896921Y-168572330D01*
X55909218Y-168592847D01*
X55919446Y-168614471D01*
X55927504Y-168636993D01*
X55933316Y-168660197D01*
X55936826Y-168683858D01*
X55938000Y-168707750D01*
X55938000Y-169620250D01*
X55936826Y-169644142D01*
X55933316Y-169667803D01*
X55927504Y-169691007D01*
X55919446Y-169713529D01*
X55909218Y-169735153D01*
X55896921Y-169755670D01*
X55882671Y-169774883D01*
X55866607Y-169792607D01*
X55848883Y-169808671D01*
X55829670Y-169822921D01*
X55809153Y-169835218D01*
X55787529Y-169845446D01*
X55765007Y-169853504D01*
X55741803Y-169859316D01*
X55718142Y-169862826D01*
X55694250Y-169864000D01*
X55206750Y-169864000D01*
X55182858Y-169862826D01*
X55159197Y-169859316D01*
X55135993Y-169853504D01*
X55113471Y-169845446D01*
X55091847Y-169835218D01*
X55071330Y-169822921D01*
X55052117Y-169808671D01*
X55034393Y-169792607D01*
X55018329Y-169774883D01*
X55004079Y-169755670D01*
X54991782Y-169735153D01*
X54981554Y-169713529D01*
X54973496Y-169691007D01*
X54967684Y-169667803D01*
X54964174Y-169644142D01*
X54963000Y-169620250D01*
X54963000Y-168707750D01*
X54964174Y-168683858D01*
X54967684Y-168660197D01*
X54973496Y-168636993D01*
X54981554Y-168614471D01*
X54991782Y-168592847D01*
X55004079Y-168572330D01*
X55018329Y-168553117D01*
X55034393Y-168535393D01*
X55052117Y-168519329D01*
X55071330Y-168505079D01*
X55091847Y-168492782D01*
X55113471Y-168482554D01*
X55135993Y-168474496D01*
X55159197Y-168468684D01*
X55182858Y-168465174D01*
X55206750Y-168464000D01*
X55694250Y-168464000D01*
X55718142Y-168465174D01*
G37*
D10*
X103366500Y-162595500D03*
X109866500Y-161495500D03*
X109866500Y-157495500D03*
X109866500Y-154495500D03*
X36778000Y-154432000D03*
X36778000Y-157432000D03*
X36778000Y-161432000D03*
X30278000Y-162532000D03*
D11*
G36*
X60360642Y-178822674D02*
G01*
X60384303Y-178826184D01*
X60407507Y-178831996D01*
X60430029Y-178840054D01*
X60451653Y-178850282D01*
X60472170Y-178862579D01*
X60491383Y-178876829D01*
X60509107Y-178892893D01*
X60525171Y-178910617D01*
X60539421Y-178929830D01*
X60551718Y-178950347D01*
X60561946Y-178971971D01*
X60570004Y-178994493D01*
X60575816Y-179017697D01*
X60579326Y-179041358D01*
X60580500Y-179065250D01*
X60580500Y-179552750D01*
X60579326Y-179576642D01*
X60575816Y-179600303D01*
X60570004Y-179623507D01*
X60561946Y-179646029D01*
X60551718Y-179667653D01*
X60539421Y-179688170D01*
X60525171Y-179707383D01*
X60509107Y-179725107D01*
X60491383Y-179741171D01*
X60472170Y-179755421D01*
X60451653Y-179767718D01*
X60430029Y-179777946D01*
X60407507Y-179786004D01*
X60384303Y-179791816D01*
X60360642Y-179795326D01*
X60336750Y-179796500D01*
X59424250Y-179796500D01*
X59400358Y-179795326D01*
X59376697Y-179791816D01*
X59353493Y-179786004D01*
X59330971Y-179777946D01*
X59309347Y-179767718D01*
X59288830Y-179755421D01*
X59269617Y-179741171D01*
X59251893Y-179725107D01*
X59235829Y-179707383D01*
X59221579Y-179688170D01*
X59209282Y-179667653D01*
X59199054Y-179646029D01*
X59190996Y-179623507D01*
X59185184Y-179600303D01*
X59181674Y-179576642D01*
X59180500Y-179552750D01*
X59180500Y-179065250D01*
X59181674Y-179041358D01*
X59185184Y-179017697D01*
X59190996Y-178994493D01*
X59199054Y-178971971D01*
X59209282Y-178950347D01*
X59221579Y-178929830D01*
X59235829Y-178910617D01*
X59251893Y-178892893D01*
X59269617Y-178876829D01*
X59288830Y-178862579D01*
X59309347Y-178850282D01*
X59330971Y-178840054D01*
X59353493Y-178831996D01*
X59376697Y-178826184D01*
X59400358Y-178822674D01*
X59424250Y-178821500D01*
X60336750Y-178821500D01*
X60360642Y-178822674D01*
G37*
G36*
X60360642Y-176947674D02*
G01*
X60384303Y-176951184D01*
X60407507Y-176956996D01*
X60430029Y-176965054D01*
X60451653Y-176975282D01*
X60472170Y-176987579D01*
X60491383Y-177001829D01*
X60509107Y-177017893D01*
X60525171Y-177035617D01*
X60539421Y-177054830D01*
X60551718Y-177075347D01*
X60561946Y-177096971D01*
X60570004Y-177119493D01*
X60575816Y-177142697D01*
X60579326Y-177166358D01*
X60580500Y-177190250D01*
X60580500Y-177677750D01*
X60579326Y-177701642D01*
X60575816Y-177725303D01*
X60570004Y-177748507D01*
X60561946Y-177771029D01*
X60551718Y-177792653D01*
X60539421Y-177813170D01*
X60525171Y-177832383D01*
X60509107Y-177850107D01*
X60491383Y-177866171D01*
X60472170Y-177880421D01*
X60451653Y-177892718D01*
X60430029Y-177902946D01*
X60407507Y-177911004D01*
X60384303Y-177916816D01*
X60360642Y-177920326D01*
X60336750Y-177921500D01*
X59424250Y-177921500D01*
X59400358Y-177920326D01*
X59376697Y-177916816D01*
X59353493Y-177911004D01*
X59330971Y-177902946D01*
X59309347Y-177892718D01*
X59288830Y-177880421D01*
X59269617Y-177866171D01*
X59251893Y-177850107D01*
X59235829Y-177832383D01*
X59221579Y-177813170D01*
X59209282Y-177792653D01*
X59199054Y-177771029D01*
X59190996Y-177748507D01*
X59185184Y-177725303D01*
X59181674Y-177701642D01*
X59180500Y-177677750D01*
X59180500Y-177190250D01*
X59181674Y-177166358D01*
X59185184Y-177142697D01*
X59190996Y-177119493D01*
X59199054Y-177096971D01*
X59209282Y-177075347D01*
X59221579Y-177054830D01*
X59235829Y-177035617D01*
X59251893Y-177017893D01*
X59269617Y-177001829D01*
X59288830Y-176987579D01*
X59309347Y-176975282D01*
X59330971Y-176965054D01*
X59353493Y-176956996D01*
X59376697Y-176951184D01*
X59400358Y-176947674D01*
X59424250Y-176946500D01*
X60336750Y-176946500D01*
X60360642Y-176947674D01*
G37*
G36*
X62964142Y-176947674D02*
G01*
X62987803Y-176951184D01*
X63011007Y-176956996D01*
X63033529Y-176965054D01*
X63055153Y-176975282D01*
X63075670Y-176987579D01*
X63094883Y-177001829D01*
X63112607Y-177017893D01*
X63128671Y-177035617D01*
X63142921Y-177054830D01*
X63155218Y-177075347D01*
X63165446Y-177096971D01*
X63173504Y-177119493D01*
X63179316Y-177142697D01*
X63182826Y-177166358D01*
X63184000Y-177190250D01*
X63184000Y-177677750D01*
X63182826Y-177701642D01*
X63179316Y-177725303D01*
X63173504Y-177748507D01*
X63165446Y-177771029D01*
X63155218Y-177792653D01*
X63142921Y-177813170D01*
X63128671Y-177832383D01*
X63112607Y-177850107D01*
X63094883Y-177866171D01*
X63075670Y-177880421D01*
X63055153Y-177892718D01*
X63033529Y-177902946D01*
X63011007Y-177911004D01*
X62987803Y-177916816D01*
X62964142Y-177920326D01*
X62940250Y-177921500D01*
X62027750Y-177921500D01*
X62003858Y-177920326D01*
X61980197Y-177916816D01*
X61956993Y-177911004D01*
X61934471Y-177902946D01*
X61912847Y-177892718D01*
X61892330Y-177880421D01*
X61873117Y-177866171D01*
X61855393Y-177850107D01*
X61839329Y-177832383D01*
X61825079Y-177813170D01*
X61812782Y-177792653D01*
X61802554Y-177771029D01*
X61794496Y-177748507D01*
X61788684Y-177725303D01*
X61785174Y-177701642D01*
X61784000Y-177677750D01*
X61784000Y-177190250D01*
X61785174Y-177166358D01*
X61788684Y-177142697D01*
X61794496Y-177119493D01*
X61802554Y-177096971D01*
X61812782Y-177075347D01*
X61825079Y-177054830D01*
X61839329Y-177035617D01*
X61855393Y-177017893D01*
X61873117Y-177001829D01*
X61892330Y-176987579D01*
X61912847Y-176975282D01*
X61934471Y-176965054D01*
X61956993Y-176956996D01*
X61980197Y-176951184D01*
X62003858Y-176947674D01*
X62027750Y-176946500D01*
X62940250Y-176946500D01*
X62964142Y-176947674D01*
G37*
G36*
X62964142Y-178822674D02*
G01*
X62987803Y-178826184D01*
X63011007Y-178831996D01*
X63033529Y-178840054D01*
X63055153Y-178850282D01*
X63075670Y-178862579D01*
X63094883Y-178876829D01*
X63112607Y-178892893D01*
X63128671Y-178910617D01*
X63142921Y-178929830D01*
X63155218Y-178950347D01*
X63165446Y-178971971D01*
X63173504Y-178994493D01*
X63179316Y-179017697D01*
X63182826Y-179041358D01*
X63184000Y-179065250D01*
X63184000Y-179552750D01*
X63182826Y-179576642D01*
X63179316Y-179600303D01*
X63173504Y-179623507D01*
X63165446Y-179646029D01*
X63155218Y-179667653D01*
X63142921Y-179688170D01*
X63128671Y-179707383D01*
X63112607Y-179725107D01*
X63094883Y-179741171D01*
X63075670Y-179755421D01*
X63055153Y-179767718D01*
X63033529Y-179777946D01*
X63011007Y-179786004D01*
X62987803Y-179791816D01*
X62964142Y-179795326D01*
X62940250Y-179796500D01*
X62027750Y-179796500D01*
X62003858Y-179795326D01*
X61980197Y-179791816D01*
X61956993Y-179786004D01*
X61934471Y-179777946D01*
X61912847Y-179767718D01*
X61892330Y-179755421D01*
X61873117Y-179741171D01*
X61855393Y-179725107D01*
X61839329Y-179707383D01*
X61825079Y-179688170D01*
X61812782Y-179667653D01*
X61802554Y-179646029D01*
X61794496Y-179623507D01*
X61788684Y-179600303D01*
X61785174Y-179576642D01*
X61784000Y-179552750D01*
X61784000Y-179065250D01*
X61785174Y-179041358D01*
X61788684Y-179017697D01*
X61794496Y-178994493D01*
X61802554Y-178971971D01*
X61812782Y-178950347D01*
X61825079Y-178929830D01*
X61839329Y-178910617D01*
X61855393Y-178892893D01*
X61873117Y-178876829D01*
X61892330Y-178862579D01*
X61912847Y-178850282D01*
X61934471Y-178840054D01*
X61956993Y-178831996D01*
X61980197Y-178826184D01*
X62003858Y-178822674D01*
X62027750Y-178821500D01*
X62940250Y-178821500D01*
X62964142Y-178822674D01*
G37*
G36*
X64932642Y-176947674D02*
G01*
X64956303Y-176951184D01*
X64979507Y-176956996D01*
X65002029Y-176965054D01*
X65023653Y-176975282D01*
X65044170Y-176987579D01*
X65063383Y-177001829D01*
X65081107Y-177017893D01*
X65097171Y-177035617D01*
X65111421Y-177054830D01*
X65123718Y-177075347D01*
X65133946Y-177096971D01*
X65142004Y-177119493D01*
X65147816Y-177142697D01*
X65151326Y-177166358D01*
X65152500Y-177190250D01*
X65152500Y-177677750D01*
X65151326Y-177701642D01*
X65147816Y-177725303D01*
X65142004Y-177748507D01*
X65133946Y-177771029D01*
X65123718Y-177792653D01*
X65111421Y-177813170D01*
X65097171Y-177832383D01*
X65081107Y-177850107D01*
X65063383Y-177866171D01*
X65044170Y-177880421D01*
X65023653Y-177892718D01*
X65002029Y-177902946D01*
X64979507Y-177911004D01*
X64956303Y-177916816D01*
X64932642Y-177920326D01*
X64908750Y-177921500D01*
X63996250Y-177921500D01*
X63972358Y-177920326D01*
X63948697Y-177916816D01*
X63925493Y-177911004D01*
X63902971Y-177902946D01*
X63881347Y-177892718D01*
X63860830Y-177880421D01*
X63841617Y-177866171D01*
X63823893Y-177850107D01*
X63807829Y-177832383D01*
X63793579Y-177813170D01*
X63781282Y-177792653D01*
X63771054Y-177771029D01*
X63762996Y-177748507D01*
X63757184Y-177725303D01*
X63753674Y-177701642D01*
X63752500Y-177677750D01*
X63752500Y-177190250D01*
X63753674Y-177166358D01*
X63757184Y-177142697D01*
X63762996Y-177119493D01*
X63771054Y-177096971D01*
X63781282Y-177075347D01*
X63793579Y-177054830D01*
X63807829Y-177035617D01*
X63823893Y-177017893D01*
X63841617Y-177001829D01*
X63860830Y-176987579D01*
X63881347Y-176975282D01*
X63902971Y-176965054D01*
X63925493Y-176956996D01*
X63948697Y-176951184D01*
X63972358Y-176947674D01*
X63996250Y-176946500D01*
X64908750Y-176946500D01*
X64932642Y-176947674D01*
G37*
G36*
X64932642Y-178822674D02*
G01*
X64956303Y-178826184D01*
X64979507Y-178831996D01*
X65002029Y-178840054D01*
X65023653Y-178850282D01*
X65044170Y-178862579D01*
X65063383Y-178876829D01*
X65081107Y-178892893D01*
X65097171Y-178910617D01*
X65111421Y-178929830D01*
X65123718Y-178950347D01*
X65133946Y-178971971D01*
X65142004Y-178994493D01*
X65147816Y-179017697D01*
X65151326Y-179041358D01*
X65152500Y-179065250D01*
X65152500Y-179552750D01*
X65151326Y-179576642D01*
X65147816Y-179600303D01*
X65142004Y-179623507D01*
X65133946Y-179646029D01*
X65123718Y-179667653D01*
X65111421Y-179688170D01*
X65097171Y-179707383D01*
X65081107Y-179725107D01*
X65063383Y-179741171D01*
X65044170Y-179755421D01*
X65023653Y-179767718D01*
X65002029Y-179777946D01*
X64979507Y-179786004D01*
X64956303Y-179791816D01*
X64932642Y-179795326D01*
X64908750Y-179796500D01*
X63996250Y-179796500D01*
X63972358Y-179795326D01*
X63948697Y-179791816D01*
X63925493Y-179786004D01*
X63902971Y-179777946D01*
X63881347Y-179767718D01*
X63860830Y-179755421D01*
X63841617Y-179741171D01*
X63823893Y-179725107D01*
X63807829Y-179707383D01*
X63793579Y-179688170D01*
X63781282Y-179667653D01*
X63771054Y-179646029D01*
X63762996Y-179623507D01*
X63757184Y-179600303D01*
X63753674Y-179576642D01*
X63752500Y-179552750D01*
X63752500Y-179065250D01*
X63753674Y-179041358D01*
X63757184Y-179017697D01*
X63762996Y-178994493D01*
X63771054Y-178971971D01*
X63781282Y-178950347D01*
X63793579Y-178929830D01*
X63807829Y-178910617D01*
X63823893Y-178892893D01*
X63841617Y-178876829D01*
X63860830Y-178862579D01*
X63881347Y-178850282D01*
X63902971Y-178840054D01*
X63925493Y-178831996D01*
X63948697Y-178826184D01*
X63972358Y-178822674D01*
X63996250Y-178821500D01*
X64908750Y-178821500D01*
X64932642Y-178822674D01*
G37*
G36*
X80159942Y-160805974D02*
G01*
X80183603Y-160809484D01*
X80206807Y-160815296D01*
X80229329Y-160823354D01*
X80250953Y-160833582D01*
X80271470Y-160845879D01*
X80290683Y-160860129D01*
X80308407Y-160876193D01*
X80324471Y-160893917D01*
X80338721Y-160913130D01*
X80351018Y-160933647D01*
X80361246Y-160955271D01*
X80369304Y-160977793D01*
X80375116Y-161000997D01*
X80378626Y-161024658D01*
X80379800Y-161048550D01*
X80379800Y-161536050D01*
X80378626Y-161559942D01*
X80375116Y-161583603D01*
X80369304Y-161606807D01*
X80361246Y-161629329D01*
X80351018Y-161650953D01*
X80338721Y-161671470D01*
X80324471Y-161690683D01*
X80308407Y-161708407D01*
X80290683Y-161724471D01*
X80271470Y-161738721D01*
X80250953Y-161751018D01*
X80229329Y-161761246D01*
X80206807Y-161769304D01*
X80183603Y-161775116D01*
X80159942Y-161778626D01*
X80136050Y-161779800D01*
X79223550Y-161779800D01*
X79199658Y-161778626D01*
X79175997Y-161775116D01*
X79152793Y-161769304D01*
X79130271Y-161761246D01*
X79108647Y-161751018D01*
X79088130Y-161738721D01*
X79068917Y-161724471D01*
X79051193Y-161708407D01*
X79035129Y-161690683D01*
X79020879Y-161671470D01*
X79008582Y-161650953D01*
X78998354Y-161629329D01*
X78990296Y-161606807D01*
X78984484Y-161583603D01*
X78980974Y-161559942D01*
X78979800Y-161536050D01*
X78979800Y-161048550D01*
X78980974Y-161024658D01*
X78984484Y-161000997D01*
X78990296Y-160977793D01*
X78998354Y-160955271D01*
X79008582Y-160933647D01*
X79020879Y-160913130D01*
X79035129Y-160893917D01*
X79051193Y-160876193D01*
X79068917Y-160860129D01*
X79088130Y-160845879D01*
X79108647Y-160833582D01*
X79130271Y-160823354D01*
X79152793Y-160815296D01*
X79175997Y-160809484D01*
X79199658Y-160805974D01*
X79223550Y-160804800D01*
X80136050Y-160804800D01*
X80159942Y-160805974D01*
G37*
G36*
X80159942Y-162680974D02*
G01*
X80183603Y-162684484D01*
X80206807Y-162690296D01*
X80229329Y-162698354D01*
X80250953Y-162708582D01*
X80271470Y-162720879D01*
X80290683Y-162735129D01*
X80308407Y-162751193D01*
X80324471Y-162768917D01*
X80338721Y-162788130D01*
X80351018Y-162808647D01*
X80361246Y-162830271D01*
X80369304Y-162852793D01*
X80375116Y-162875997D01*
X80378626Y-162899658D01*
X80379800Y-162923550D01*
X80379800Y-163411050D01*
X80378626Y-163434942D01*
X80375116Y-163458603D01*
X80369304Y-163481807D01*
X80361246Y-163504329D01*
X80351018Y-163525953D01*
X80338721Y-163546470D01*
X80324471Y-163565683D01*
X80308407Y-163583407D01*
X80290683Y-163599471D01*
X80271470Y-163613721D01*
X80250953Y-163626018D01*
X80229329Y-163636246D01*
X80206807Y-163644304D01*
X80183603Y-163650116D01*
X80159942Y-163653626D01*
X80136050Y-163654800D01*
X79223550Y-163654800D01*
X79199658Y-163653626D01*
X79175997Y-163650116D01*
X79152793Y-163644304D01*
X79130271Y-163636246D01*
X79108647Y-163626018D01*
X79088130Y-163613721D01*
X79068917Y-163599471D01*
X79051193Y-163583407D01*
X79035129Y-163565683D01*
X79020879Y-163546470D01*
X79008582Y-163525953D01*
X78998354Y-163504329D01*
X78990296Y-163481807D01*
X78984484Y-163458603D01*
X78980974Y-163434942D01*
X78979800Y-163411050D01*
X78979800Y-162923550D01*
X78980974Y-162899658D01*
X78984484Y-162875997D01*
X78990296Y-162852793D01*
X78998354Y-162830271D01*
X79008582Y-162808647D01*
X79020879Y-162788130D01*
X79035129Y-162768917D01*
X79051193Y-162751193D01*
X79068917Y-162735129D01*
X79088130Y-162720879D01*
X79108647Y-162708582D01*
X79130271Y-162698354D01*
X79152793Y-162690296D01*
X79175997Y-162684484D01*
X79199658Y-162680974D01*
X79223550Y-162679800D01*
X80136050Y-162679800D01*
X80159942Y-162680974D01*
G37*
G36*
X100619642Y-169361174D02*
G01*
X100643303Y-169364684D01*
X100666507Y-169370496D01*
X100689029Y-169378554D01*
X100710653Y-169388782D01*
X100731170Y-169401079D01*
X100750383Y-169415329D01*
X100768107Y-169431393D01*
X100784171Y-169449117D01*
X100798421Y-169468330D01*
X100810718Y-169488847D01*
X100820946Y-169510471D01*
X100829004Y-169532993D01*
X100834816Y-169556197D01*
X100838326Y-169579858D01*
X100839500Y-169603750D01*
X100839500Y-170091250D01*
X100838326Y-170115142D01*
X100834816Y-170138803D01*
X100829004Y-170162007D01*
X100820946Y-170184529D01*
X100810718Y-170206153D01*
X100798421Y-170226670D01*
X100784171Y-170245883D01*
X100768107Y-170263607D01*
X100750383Y-170279671D01*
X100731170Y-170293921D01*
X100710653Y-170306218D01*
X100689029Y-170316446D01*
X100666507Y-170324504D01*
X100643303Y-170330316D01*
X100619642Y-170333826D01*
X100595750Y-170335000D01*
X99683250Y-170335000D01*
X99659358Y-170333826D01*
X99635697Y-170330316D01*
X99612493Y-170324504D01*
X99589971Y-170316446D01*
X99568347Y-170306218D01*
X99547830Y-170293921D01*
X99528617Y-170279671D01*
X99510893Y-170263607D01*
X99494829Y-170245883D01*
X99480579Y-170226670D01*
X99468282Y-170206153D01*
X99458054Y-170184529D01*
X99449996Y-170162007D01*
X99444184Y-170138803D01*
X99440674Y-170115142D01*
X99439500Y-170091250D01*
X99439500Y-169603750D01*
X99440674Y-169579858D01*
X99444184Y-169556197D01*
X99449996Y-169532993D01*
X99458054Y-169510471D01*
X99468282Y-169488847D01*
X99480579Y-169468330D01*
X99494829Y-169449117D01*
X99510893Y-169431393D01*
X99528617Y-169415329D01*
X99547830Y-169401079D01*
X99568347Y-169388782D01*
X99589971Y-169378554D01*
X99612493Y-169370496D01*
X99635697Y-169364684D01*
X99659358Y-169361174D01*
X99683250Y-169360000D01*
X100595750Y-169360000D01*
X100619642Y-169361174D01*
G37*
G36*
X100619642Y-167486174D02*
G01*
X100643303Y-167489684D01*
X100666507Y-167495496D01*
X100689029Y-167503554D01*
X100710653Y-167513782D01*
X100731170Y-167526079D01*
X100750383Y-167540329D01*
X100768107Y-167556393D01*
X100784171Y-167574117D01*
X100798421Y-167593330D01*
X100810718Y-167613847D01*
X100820946Y-167635471D01*
X100829004Y-167657993D01*
X100834816Y-167681197D01*
X100838326Y-167704858D01*
X100839500Y-167728750D01*
X100839500Y-168216250D01*
X100838326Y-168240142D01*
X100834816Y-168263803D01*
X100829004Y-168287007D01*
X100820946Y-168309529D01*
X100810718Y-168331153D01*
X100798421Y-168351670D01*
X100784171Y-168370883D01*
X100768107Y-168388607D01*
X100750383Y-168404671D01*
X100731170Y-168418921D01*
X100710653Y-168431218D01*
X100689029Y-168441446D01*
X100666507Y-168449504D01*
X100643303Y-168455316D01*
X100619642Y-168458826D01*
X100595750Y-168460000D01*
X99683250Y-168460000D01*
X99659358Y-168458826D01*
X99635697Y-168455316D01*
X99612493Y-168449504D01*
X99589971Y-168441446D01*
X99568347Y-168431218D01*
X99547830Y-168418921D01*
X99528617Y-168404671D01*
X99510893Y-168388607D01*
X99494829Y-168370883D01*
X99480579Y-168351670D01*
X99468282Y-168331153D01*
X99458054Y-168309529D01*
X99449996Y-168287007D01*
X99444184Y-168263803D01*
X99440674Y-168240142D01*
X99439500Y-168216250D01*
X99439500Y-167728750D01*
X99440674Y-167704858D01*
X99444184Y-167681197D01*
X99449996Y-167657993D01*
X99458054Y-167635471D01*
X99468282Y-167613847D01*
X99480579Y-167593330D01*
X99494829Y-167574117D01*
X99510893Y-167556393D01*
X99528617Y-167540329D01*
X99547830Y-167526079D01*
X99568347Y-167513782D01*
X99589971Y-167503554D01*
X99612493Y-167495496D01*
X99635697Y-167489684D01*
X99659358Y-167486174D01*
X99683250Y-167485000D01*
X100595750Y-167485000D01*
X100619642Y-167486174D01*
G37*
G36*
X80159942Y-155725974D02*
G01*
X80183603Y-155729484D01*
X80206807Y-155735296D01*
X80229329Y-155743354D01*
X80250953Y-155753582D01*
X80271470Y-155765879D01*
X80290683Y-155780129D01*
X80308407Y-155796193D01*
X80324471Y-155813917D01*
X80338721Y-155833130D01*
X80351018Y-155853647D01*
X80361246Y-155875271D01*
X80369304Y-155897793D01*
X80375116Y-155920997D01*
X80378626Y-155944658D01*
X80379800Y-155968550D01*
X80379800Y-156456050D01*
X80378626Y-156479942D01*
X80375116Y-156503603D01*
X80369304Y-156526807D01*
X80361246Y-156549329D01*
X80351018Y-156570953D01*
X80338721Y-156591470D01*
X80324471Y-156610683D01*
X80308407Y-156628407D01*
X80290683Y-156644471D01*
X80271470Y-156658721D01*
X80250953Y-156671018D01*
X80229329Y-156681246D01*
X80206807Y-156689304D01*
X80183603Y-156695116D01*
X80159942Y-156698626D01*
X80136050Y-156699800D01*
X79223550Y-156699800D01*
X79199658Y-156698626D01*
X79175997Y-156695116D01*
X79152793Y-156689304D01*
X79130271Y-156681246D01*
X79108647Y-156671018D01*
X79088130Y-156658721D01*
X79068917Y-156644471D01*
X79051193Y-156628407D01*
X79035129Y-156610683D01*
X79020879Y-156591470D01*
X79008582Y-156570953D01*
X78998354Y-156549329D01*
X78990296Y-156526807D01*
X78984484Y-156503603D01*
X78980974Y-156479942D01*
X78979800Y-156456050D01*
X78979800Y-155968550D01*
X78980974Y-155944658D01*
X78984484Y-155920997D01*
X78990296Y-155897793D01*
X78998354Y-155875271D01*
X79008582Y-155853647D01*
X79020879Y-155833130D01*
X79035129Y-155813917D01*
X79051193Y-155796193D01*
X79068917Y-155780129D01*
X79088130Y-155765879D01*
X79108647Y-155753582D01*
X79130271Y-155743354D01*
X79152793Y-155735296D01*
X79175997Y-155729484D01*
X79199658Y-155725974D01*
X79223550Y-155724800D01*
X80136050Y-155724800D01*
X80159942Y-155725974D01*
G37*
G36*
X80159942Y-157600974D02*
G01*
X80183603Y-157604484D01*
X80206807Y-157610296D01*
X80229329Y-157618354D01*
X80250953Y-157628582D01*
X80271470Y-157640879D01*
X80290683Y-157655129D01*
X80308407Y-157671193D01*
X80324471Y-157688917D01*
X80338721Y-157708130D01*
X80351018Y-157728647D01*
X80361246Y-157750271D01*
X80369304Y-157772793D01*
X80375116Y-157795997D01*
X80378626Y-157819658D01*
X80379800Y-157843550D01*
X80379800Y-158331050D01*
X80378626Y-158354942D01*
X80375116Y-158378603D01*
X80369304Y-158401807D01*
X80361246Y-158424329D01*
X80351018Y-158445953D01*
X80338721Y-158466470D01*
X80324471Y-158485683D01*
X80308407Y-158503407D01*
X80290683Y-158519471D01*
X80271470Y-158533721D01*
X80250953Y-158546018D01*
X80229329Y-158556246D01*
X80206807Y-158564304D01*
X80183603Y-158570116D01*
X80159942Y-158573626D01*
X80136050Y-158574800D01*
X79223550Y-158574800D01*
X79199658Y-158573626D01*
X79175997Y-158570116D01*
X79152793Y-158564304D01*
X79130271Y-158556246D01*
X79108647Y-158546018D01*
X79088130Y-158533721D01*
X79068917Y-158519471D01*
X79051193Y-158503407D01*
X79035129Y-158485683D01*
X79020879Y-158466470D01*
X79008582Y-158445953D01*
X78998354Y-158424329D01*
X78990296Y-158401807D01*
X78984484Y-158378603D01*
X78980974Y-158354942D01*
X78979800Y-158331050D01*
X78979800Y-157843550D01*
X78980974Y-157819658D01*
X78984484Y-157795997D01*
X78990296Y-157772793D01*
X78998354Y-157750271D01*
X79008582Y-157728647D01*
X79020879Y-157708130D01*
X79035129Y-157688917D01*
X79051193Y-157671193D01*
X79068917Y-157655129D01*
X79088130Y-157640879D01*
X79108647Y-157628582D01*
X79130271Y-157618354D01*
X79152793Y-157610296D01*
X79175997Y-157604484D01*
X79199658Y-157600974D01*
X79223550Y-157599800D01*
X80136050Y-157599800D01*
X80159942Y-157600974D01*
G37*
M02*
