G04 #@! TF.GenerationSoftware,KiCad,Pcbnew,(5.1.5)-3*
G04 #@! TF.CreationDate,2020-01-28T12:29:24+09:00*
G04 #@! TF.ProjectId,SchoolDesk,5363686f-6f6c-4446-9573-6b2e6b696361,rev?*
G04 #@! TF.SameCoordinates,Original*
G04 #@! TF.FileFunction,Legend,Top*
G04 #@! TF.FilePolarity,Positive*
%FSLAX46Y46*%
G04 Gerber Fmt 4.6, Leading zero omitted, Abs format (unit mm)*
G04 Created by KiCad (PCBNEW (5.1.5)-3) date 2020-01-28 12:29:24*
%MOMM*%
%LPD*%
G04 APERTURE LIST*
%ADD10C,0.120000*%
%ADD11C,0.100000*%
%ADD12C,0.010000*%
%ADD13C,0.150000*%
G04 APERTURE END LIST*
D10*
X111228500Y-165735000D02*
G75*
G03X111228500Y-165735000I-1310000J0D01*
G01*
X109918500Y-167045000D02*
X109918500Y-167175000D01*
X114340000Y-151295500D02*
X114340000Y-149295500D01*
X119340000Y-151295500D02*
X119340000Y-149295500D01*
X119340000Y-149295500D02*
X114340000Y-149295500D01*
X114340000Y-151295500D02*
X113740000Y-151295500D01*
X119940000Y-151295500D02*
X119340000Y-151295500D01*
X113740000Y-163395500D02*
X119940000Y-163395500D01*
X119940000Y-151295500D02*
X119940000Y-153670500D01*
X119940000Y-155320500D02*
X119940000Y-156670500D01*
X119940000Y-158320500D02*
X119940000Y-160720500D01*
X119940000Y-162270500D02*
X119940000Y-163395500D01*
X113740000Y-161820500D02*
X113740000Y-151295500D01*
X119940000Y-162270500D02*
X121340000Y-162270500D01*
X119940000Y-160720500D02*
X121340000Y-160720500D01*
X59606500Y-184468000D02*
X59606500Y-184933000D01*
X59606500Y-181843000D02*
X59606500Y-182308000D01*
X64420979Y-184468429D02*
G75*
G02X59911816Y-184468000I-2254479J1080429D01*
G01*
X64420979Y-182307571D02*
G75*
G03X59911816Y-182308000I-2254479J-1080429D01*
G01*
X64954315Y-184468827D02*
G75*
G02X59606500Y-184932830I-2787815J1080827D01*
G01*
X64954315Y-182307173D02*
G75*
G03X59606500Y-181843170I-2787815J-1080827D01*
G01*
D11*
X99979500Y-164919500D02*
X99479500Y-164919500D01*
X99979500Y-164219500D02*
X99979500Y-164919500D01*
X86329500Y-164919500D02*
X86329500Y-164119500D01*
X86904500Y-164919500D02*
X86329500Y-164919500D01*
X99979500Y-152169500D02*
X99304500Y-152169500D01*
X99979500Y-153019500D02*
X99979500Y-152169500D01*
X86329500Y-152169500D02*
X87004500Y-152169500D01*
X86329500Y-153119500D02*
X86329500Y-152169500D01*
D12*
G36*
X104169192Y-180760166D02*
G01*
X104256985Y-180803540D01*
X104365249Y-180879122D01*
X104444155Y-180961542D01*
X104498195Y-181065037D01*
X104531859Y-181203843D01*
X104549637Y-181392194D01*
X104556020Y-181644328D01*
X104556393Y-181752724D01*
X104555304Y-181990287D01*
X104550778Y-182160068D01*
X104540932Y-182277550D01*
X104523882Y-182358215D01*
X104497741Y-182417545D01*
X104470542Y-182458020D01*
X104296920Y-182630225D01*
X104092462Y-182733806D01*
X103871896Y-182764960D01*
X103649954Y-182719885D01*
X103579640Y-182688009D01*
X103411311Y-182600271D01*
X103411311Y-183975172D01*
X103534162Y-183911643D01*
X103696033Y-183862491D01*
X103894995Y-183849900D01*
X104093672Y-183873147D01*
X104243710Y-183925370D01*
X104368159Y-184024826D01*
X104474492Y-184167143D01*
X104482487Y-184181755D01*
X104516207Y-184250582D01*
X104540834Y-184319956D01*
X104557786Y-184403996D01*
X104568481Y-184516816D01*
X104574338Y-184672533D01*
X104576773Y-184885265D01*
X104577213Y-185124664D01*
X104577213Y-185888443D01*
X104119180Y-185888443D01*
X104119180Y-184480108D01*
X103991067Y-184372308D01*
X103857982Y-184286079D01*
X103731952Y-184270401D01*
X103605222Y-184310747D01*
X103537683Y-184350254D01*
X103487414Y-184406527D01*
X103451662Y-184491572D01*
X103427672Y-184617394D01*
X103412689Y-184795998D01*
X103403960Y-185039391D01*
X103400886Y-185201394D01*
X103390492Y-185867623D01*
X103171885Y-185880209D01*
X102953279Y-185892795D01*
X102953279Y-181758464D01*
X103411311Y-181758464D01*
X103422989Y-181988953D01*
X103462338Y-182148950D01*
X103535834Y-182248497D01*
X103649951Y-182297639D01*
X103765246Y-182307459D01*
X103895762Y-182296175D01*
X103982383Y-182251764D01*
X104036549Y-182193081D01*
X104079190Y-182129962D01*
X104104574Y-182059645D01*
X104115869Y-181961123D01*
X104116240Y-181813387D01*
X104112440Y-181689683D01*
X104103712Y-181503328D01*
X104090720Y-181380982D01*
X104068841Y-181303377D01*
X104033454Y-181251245D01*
X104000059Y-181221111D01*
X103860525Y-181155399D01*
X103695381Y-181144787D01*
X103600554Y-181167423D01*
X103506666Y-181247881D01*
X103444474Y-181404392D01*
X103414331Y-181635852D01*
X103411311Y-181758464D01*
X102953279Y-181758464D01*
X102953279Y-180725164D01*
X103182295Y-180725164D01*
X103319794Y-180730602D01*
X103390733Y-180749909D01*
X103411303Y-180787576D01*
X103411311Y-180788692D01*
X103420855Y-180825581D01*
X103462949Y-180821393D01*
X103546639Y-180780859D01*
X103741646Y-180718850D01*
X103961046Y-180712332D01*
X104169192Y-180760166D01*
G37*
X104169192Y-180760166D02*
X104256985Y-180803540D01*
X104365249Y-180879122D01*
X104444155Y-180961542D01*
X104498195Y-181065037D01*
X104531859Y-181203843D01*
X104549637Y-181392194D01*
X104556020Y-181644328D01*
X104556393Y-181752724D01*
X104555304Y-181990287D01*
X104550778Y-182160068D01*
X104540932Y-182277550D01*
X104523882Y-182358215D01*
X104497741Y-182417545D01*
X104470542Y-182458020D01*
X104296920Y-182630225D01*
X104092462Y-182733806D01*
X103871896Y-182764960D01*
X103649954Y-182719885D01*
X103579640Y-182688009D01*
X103411311Y-182600271D01*
X103411311Y-183975172D01*
X103534162Y-183911643D01*
X103696033Y-183862491D01*
X103894995Y-183849900D01*
X104093672Y-183873147D01*
X104243710Y-183925370D01*
X104368159Y-184024826D01*
X104474492Y-184167143D01*
X104482487Y-184181755D01*
X104516207Y-184250582D01*
X104540834Y-184319956D01*
X104557786Y-184403996D01*
X104568481Y-184516816D01*
X104574338Y-184672533D01*
X104576773Y-184885265D01*
X104577213Y-185124664D01*
X104577213Y-185888443D01*
X104119180Y-185888443D01*
X104119180Y-184480108D01*
X103991067Y-184372308D01*
X103857982Y-184286079D01*
X103731952Y-184270401D01*
X103605222Y-184310747D01*
X103537683Y-184350254D01*
X103487414Y-184406527D01*
X103451662Y-184491572D01*
X103427672Y-184617394D01*
X103412689Y-184795998D01*
X103403960Y-185039391D01*
X103400886Y-185201394D01*
X103390492Y-185867623D01*
X103171885Y-185880209D01*
X102953279Y-185892795D01*
X102953279Y-181758464D01*
X103411311Y-181758464D01*
X103422989Y-181988953D01*
X103462338Y-182148950D01*
X103535834Y-182248497D01*
X103649951Y-182297639D01*
X103765246Y-182307459D01*
X103895762Y-182296175D01*
X103982383Y-182251764D01*
X104036549Y-182193081D01*
X104079190Y-182129962D01*
X104104574Y-182059645D01*
X104115869Y-181961123D01*
X104116240Y-181813387D01*
X104112440Y-181689683D01*
X104103712Y-181503328D01*
X104090720Y-181380982D01*
X104068841Y-181303377D01*
X104033454Y-181251245D01*
X104000059Y-181221111D01*
X103860525Y-181155399D01*
X103695381Y-181144787D01*
X103600554Y-181167423D01*
X103506666Y-181247881D01*
X103444474Y-181404392D01*
X103414331Y-181635852D01*
X103411311Y-181758464D01*
X102953279Y-181758464D01*
X102953279Y-180725164D01*
X103182295Y-180725164D01*
X103319794Y-180730602D01*
X103390733Y-180749909D01*
X103411303Y-180787576D01*
X103411311Y-180788692D01*
X103420855Y-180825581D01*
X103462949Y-180821393D01*
X103546639Y-180780859D01*
X103741646Y-180718850D01*
X103961046Y-180712332D01*
X104169192Y-180760166D01*
G36*
X105906221Y-183864247D02*
G01*
X106102111Y-183916514D01*
X106251233Y-184011253D01*
X106356465Y-184135338D01*
X106389179Y-184188296D01*
X106413331Y-184243768D01*
X106430216Y-184314730D01*
X106441127Y-184414154D01*
X106447360Y-184555016D01*
X106450209Y-184750289D01*
X106450968Y-185012948D01*
X106450984Y-185082633D01*
X106450984Y-185888443D01*
X106251115Y-185888443D01*
X106123630Y-185879515D01*
X106029366Y-185856896D01*
X106005749Y-185842946D01*
X105941185Y-185818870D01*
X105875241Y-185842946D01*
X105766668Y-185873003D01*
X105608958Y-185885100D01*
X105434156Y-185879851D01*
X105274307Y-185857869D01*
X105180984Y-185829663D01*
X105000391Y-185713731D01*
X104887530Y-185552847D01*
X104836791Y-185338936D01*
X104836320Y-185333443D01*
X104840773Y-185238547D01*
X105243443Y-185238547D01*
X105278646Y-185346484D01*
X105335986Y-185407229D01*
X105451087Y-185453172D01*
X105603014Y-185471512D01*
X105757939Y-185462485D01*
X105882036Y-185426332D01*
X105916803Y-185403137D01*
X105977556Y-185295960D01*
X105992951Y-185174120D01*
X105992951Y-185014017D01*
X105762597Y-185014017D01*
X105543759Y-185030863D01*
X105377863Y-185078593D01*
X105274662Y-185152986D01*
X105243443Y-185238547D01*
X104840773Y-185238547D01*
X104847287Y-185099731D01*
X104924369Y-184914946D01*
X105069286Y-184775206D01*
X105089317Y-184762495D01*
X105175390Y-184721105D01*
X105281927Y-184696041D01*
X105430859Y-184683858D01*
X105607787Y-184681057D01*
X105992951Y-184680902D01*
X105992951Y-184519443D01*
X105976613Y-184394168D01*
X105934922Y-184310241D01*
X105930041Y-184305773D01*
X105837264Y-184269059D01*
X105697216Y-184254828D01*
X105542445Y-184261821D01*
X105405501Y-184288780D01*
X105324241Y-184329212D01*
X105280210Y-184361601D01*
X105233715Y-184367784D01*
X105169549Y-184341248D01*
X105072505Y-184275479D01*
X104927374Y-184163963D01*
X104914053Y-184153516D01*
X104920879Y-184114862D01*
X104977822Y-184050572D01*
X105064370Y-183979131D01*
X105160008Y-183919021D01*
X105190056Y-183904827D01*
X105299659Y-183876503D01*
X105460265Y-183856300D01*
X105639698Y-183848196D01*
X105648089Y-183848180D01*
X105906221Y-183864247D01*
G37*
X105906221Y-183864247D02*
X106102111Y-183916514D01*
X106251233Y-184011253D01*
X106356465Y-184135338D01*
X106389179Y-184188296D01*
X106413331Y-184243768D01*
X106430216Y-184314730D01*
X106441127Y-184414154D01*
X106447360Y-184555016D01*
X106450209Y-184750289D01*
X106450968Y-185012948D01*
X106450984Y-185082633D01*
X106450984Y-185888443D01*
X106251115Y-185888443D01*
X106123630Y-185879515D01*
X106029366Y-185856896D01*
X106005749Y-185842946D01*
X105941185Y-185818870D01*
X105875241Y-185842946D01*
X105766668Y-185873003D01*
X105608958Y-185885100D01*
X105434156Y-185879851D01*
X105274307Y-185857869D01*
X105180984Y-185829663D01*
X105000391Y-185713731D01*
X104887530Y-185552847D01*
X104836791Y-185338936D01*
X104836320Y-185333443D01*
X104840773Y-185238547D01*
X105243443Y-185238547D01*
X105278646Y-185346484D01*
X105335986Y-185407229D01*
X105451087Y-185453172D01*
X105603014Y-185471512D01*
X105757939Y-185462485D01*
X105882036Y-185426332D01*
X105916803Y-185403137D01*
X105977556Y-185295960D01*
X105992951Y-185174120D01*
X105992951Y-185014017D01*
X105762597Y-185014017D01*
X105543759Y-185030863D01*
X105377863Y-185078593D01*
X105274662Y-185152986D01*
X105243443Y-185238547D01*
X104840773Y-185238547D01*
X104847287Y-185099731D01*
X104924369Y-184914946D01*
X105069286Y-184775206D01*
X105089317Y-184762495D01*
X105175390Y-184721105D01*
X105281927Y-184696041D01*
X105430859Y-184683858D01*
X105607787Y-184681057D01*
X105992951Y-184680902D01*
X105992951Y-184519443D01*
X105976613Y-184394168D01*
X105934922Y-184310241D01*
X105930041Y-184305773D01*
X105837264Y-184269059D01*
X105697216Y-184254828D01*
X105542445Y-184261821D01*
X105405501Y-184288780D01*
X105324241Y-184329212D01*
X105280210Y-184361601D01*
X105233715Y-184367784D01*
X105169549Y-184341248D01*
X105072505Y-184275479D01*
X104927374Y-184163963D01*
X104914053Y-184153516D01*
X104920879Y-184114862D01*
X104977822Y-184050572D01*
X105064370Y-183979131D01*
X105160008Y-183919021D01*
X105190056Y-183904827D01*
X105299659Y-183876503D01*
X105460265Y-183856300D01*
X105639698Y-183848196D01*
X105648089Y-183848180D01*
X105906221Y-183864247D01*
G36*
X107200525Y-183852540D02*
G01*
X107262837Y-183871218D01*
X107282925Y-183912255D01*
X107283770Y-183930782D01*
X107287375Y-183982383D01*
X107312200Y-183990484D01*
X107379263Y-183955108D01*
X107419098Y-183930937D01*
X107544773Y-183879175D01*
X107694877Y-183853581D01*
X107852263Y-183851613D01*
X107999786Y-183870729D01*
X108120300Y-183908387D01*
X108196660Y-183962044D01*
X108211719Y-184029158D01*
X108204119Y-184047333D01*
X108148718Y-184122777D01*
X108062810Y-184215568D01*
X108047272Y-184230568D01*
X107965388Y-184299540D01*
X107894737Y-184321825D01*
X107795932Y-184306272D01*
X107756348Y-184295938D01*
X107633172Y-184271116D01*
X107546564Y-184282278D01*
X107473424Y-184321646D01*
X107406426Y-184374479D01*
X107357082Y-184440924D01*
X107322791Y-184533652D01*
X107300952Y-184665334D01*
X107288966Y-184848641D01*
X107284231Y-185096246D01*
X107283770Y-185245744D01*
X107283770Y-185888443D01*
X106867377Y-185888443D01*
X106867377Y-183848115D01*
X107075574Y-183848115D01*
X107200525Y-183852540D01*
G37*
X107200525Y-183852540D02*
X107262837Y-183871218D01*
X107282925Y-183912255D01*
X107283770Y-183930782D01*
X107287375Y-183982383D01*
X107312200Y-183990484D01*
X107379263Y-183955108D01*
X107419098Y-183930937D01*
X107544773Y-183879175D01*
X107694877Y-183853581D01*
X107852263Y-183851613D01*
X107999786Y-183870729D01*
X108120300Y-183908387D01*
X108196660Y-183962044D01*
X108211719Y-184029158D01*
X108204119Y-184047333D01*
X108148718Y-184122777D01*
X108062810Y-184215568D01*
X108047272Y-184230568D01*
X107965388Y-184299540D01*
X107894737Y-184321825D01*
X107795932Y-184306272D01*
X107756348Y-184295938D01*
X107633172Y-184271116D01*
X107546564Y-184282278D01*
X107473424Y-184321646D01*
X107406426Y-184374479D01*
X107357082Y-184440924D01*
X107322791Y-184533652D01*
X107300952Y-184665334D01*
X107288966Y-184848641D01*
X107284231Y-185096246D01*
X107283770Y-185245744D01*
X107283770Y-185888443D01*
X106867377Y-185888443D01*
X106867377Y-183848115D01*
X107075574Y-183848115D01*
X107200525Y-183852540D01*
G36*
X109823770Y-185888443D02*
G01*
X109594754Y-185888443D01*
X109461825Y-185884546D01*
X109392595Y-185868407D01*
X109367668Y-185833354D01*
X109365738Y-185809653D01*
X109361534Y-185762123D01*
X109335026Y-185753008D01*
X109265367Y-185782308D01*
X109211196Y-185809653D01*
X109003223Y-185874451D01*
X108777147Y-185878201D01*
X108593345Y-185829873D01*
X108422187Y-185713118D01*
X108291716Y-185540781D01*
X108220273Y-185337506D01*
X108218454Y-185326141D01*
X108207839Y-185202136D01*
X108202560Y-185024117D01*
X108202984Y-184889480D01*
X108657828Y-184889480D01*
X108668365Y-185068428D01*
X108692334Y-185215924D01*
X108724783Y-185299217D01*
X108847544Y-185413041D01*
X108993299Y-185453845D01*
X109143607Y-185420848D01*
X109272049Y-185322422D01*
X109320692Y-185256224D01*
X109349134Y-185177231D01*
X109362456Y-185061926D01*
X109365738Y-184888736D01*
X109359865Y-184717229D01*
X109344353Y-184566540D01*
X109322362Y-184465698D01*
X109318697Y-184456659D01*
X109230012Y-184349195D01*
X109100572Y-184290195D01*
X108955743Y-184280669D01*
X108820891Y-184321626D01*
X108721383Y-184414076D01*
X108711060Y-184432473D01*
X108678750Y-184544646D01*
X108661148Y-184705934D01*
X108657828Y-184889480D01*
X108202984Y-184889480D01*
X108203200Y-184821212D01*
X108206194Y-184712010D01*
X108226558Y-184441856D01*
X108268883Y-184239024D01*
X108339294Y-184089077D01*
X108443912Y-183977579D01*
X108545479Y-183912127D01*
X108687384Y-183866117D01*
X108863879Y-183850336D01*
X109044607Y-183863190D01*
X109199213Y-183903081D01*
X109280899Y-183950801D01*
X109365738Y-184027579D01*
X109365738Y-183056967D01*
X109823770Y-183056967D01*
X109823770Y-185888443D01*
G37*
X109823770Y-185888443D02*
X109594754Y-185888443D01*
X109461825Y-185884546D01*
X109392595Y-185868407D01*
X109367668Y-185833354D01*
X109365738Y-185809653D01*
X109361534Y-185762123D01*
X109335026Y-185753008D01*
X109265367Y-185782308D01*
X109211196Y-185809653D01*
X109003223Y-185874451D01*
X108777147Y-185878201D01*
X108593345Y-185829873D01*
X108422187Y-185713118D01*
X108291716Y-185540781D01*
X108220273Y-185337506D01*
X108218454Y-185326141D01*
X108207839Y-185202136D01*
X108202560Y-185024117D01*
X108202984Y-184889480D01*
X108657828Y-184889480D01*
X108668365Y-185068428D01*
X108692334Y-185215924D01*
X108724783Y-185299217D01*
X108847544Y-185413041D01*
X108993299Y-185453845D01*
X109143607Y-185420848D01*
X109272049Y-185322422D01*
X109320692Y-185256224D01*
X109349134Y-185177231D01*
X109362456Y-185061926D01*
X109365738Y-184888736D01*
X109359865Y-184717229D01*
X109344353Y-184566540D01*
X109322362Y-184465698D01*
X109318697Y-184456659D01*
X109230012Y-184349195D01*
X109100572Y-184290195D01*
X108955743Y-184280669D01*
X108820891Y-184321626D01*
X108721383Y-184414076D01*
X108711060Y-184432473D01*
X108678750Y-184544646D01*
X108661148Y-184705934D01*
X108657828Y-184889480D01*
X108202984Y-184889480D01*
X108203200Y-184821212D01*
X108206194Y-184712010D01*
X108226558Y-184441856D01*
X108268883Y-184239024D01*
X108339294Y-184089077D01*
X108443912Y-183977579D01*
X108545479Y-183912127D01*
X108687384Y-183866117D01*
X108863879Y-183850336D01*
X109044607Y-183863190D01*
X109199213Y-183903081D01*
X109280899Y-183950801D01*
X109365738Y-184027579D01*
X109365738Y-183056967D01*
X109823770Y-183056967D01*
X109823770Y-185888443D01*
G36*
X111586942Y-183868935D02*
G01*
X111802248Y-184514344D01*
X112017555Y-185159754D01*
X112085064Y-184930738D01*
X112125691Y-184789204D01*
X112179133Y-184597936D01*
X112236842Y-184387693D01*
X112267355Y-184274918D01*
X112382136Y-183848115D01*
X112855687Y-183848115D01*
X112714139Y-184295738D01*
X112644433Y-184515903D01*
X112560223Y-184781471D01*
X112472281Y-185058492D01*
X112393772Y-185305492D01*
X112214952Y-185867623D01*
X112021882Y-185880185D01*
X111828811Y-185892746D01*
X111724118Y-185547070D01*
X111659553Y-185332335D01*
X111589092Y-185095604D01*
X111527511Y-184886526D01*
X111525081Y-184878205D01*
X111479085Y-184736537D01*
X111438503Y-184639874D01*
X111410080Y-184603321D01*
X111404239Y-184607549D01*
X111383738Y-184664217D01*
X111344785Y-184785605D01*
X111292122Y-184956448D01*
X111230491Y-185161482D01*
X111197143Y-185274262D01*
X111016546Y-185888443D01*
X110633267Y-185888443D01*
X110326867Y-184920328D01*
X110240791Y-184648759D01*
X110162380Y-184402138D01*
X110095339Y-184192048D01*
X110043369Y-184030076D01*
X110010174Y-183927808D01*
X110000084Y-183897928D01*
X110008072Y-183867334D01*
X110070792Y-183853935D01*
X110201315Y-183855275D01*
X110221747Y-183856288D01*
X110463792Y-183868935D01*
X110622317Y-184451885D01*
X110680585Y-184664486D01*
X110732655Y-184851377D01*
X110773944Y-184996331D01*
X110799866Y-185083120D01*
X110804656Y-185097269D01*
X110824504Y-185080998D01*
X110864530Y-184996697D01*
X110920138Y-184855842D01*
X110986731Y-184669911D01*
X111043024Y-184501956D01*
X111257578Y-183844209D01*
X111586942Y-183868935D01*
G37*
X111586942Y-183868935D02*
X111802248Y-184514344D01*
X112017555Y-185159754D01*
X112085064Y-184930738D01*
X112125691Y-184789204D01*
X112179133Y-184597936D01*
X112236842Y-184387693D01*
X112267355Y-184274918D01*
X112382136Y-183848115D01*
X112855687Y-183848115D01*
X112714139Y-184295738D01*
X112644433Y-184515903D01*
X112560223Y-184781471D01*
X112472281Y-185058492D01*
X112393772Y-185305492D01*
X112214952Y-185867623D01*
X112021882Y-185880185D01*
X111828811Y-185892746D01*
X111724118Y-185547070D01*
X111659553Y-185332335D01*
X111589092Y-185095604D01*
X111527511Y-184886526D01*
X111525081Y-184878205D01*
X111479085Y-184736537D01*
X111438503Y-184639874D01*
X111410080Y-184603321D01*
X111404239Y-184607549D01*
X111383738Y-184664217D01*
X111344785Y-184785605D01*
X111292122Y-184956448D01*
X111230491Y-185161482D01*
X111197143Y-185274262D01*
X111016546Y-185888443D01*
X110633267Y-185888443D01*
X110326867Y-184920328D01*
X110240791Y-184648759D01*
X110162380Y-184402138D01*
X110095339Y-184192048D01*
X110043369Y-184030076D01*
X110010174Y-183927808D01*
X110000084Y-183897928D01*
X110008072Y-183867334D01*
X110070792Y-183853935D01*
X110201315Y-183855275D01*
X110221747Y-183856288D01*
X110463792Y-183868935D01*
X110622317Y-184451885D01*
X110680585Y-184664486D01*
X110732655Y-184851377D01*
X110773944Y-184996331D01*
X110799866Y-185083120D01*
X110804656Y-185097269D01*
X110824504Y-185080998D01*
X110864530Y-184996697D01*
X110920138Y-184855842D01*
X110986731Y-184669911D01*
X111043024Y-184501956D01*
X111257578Y-183844209D01*
X111586942Y-183868935D01*
G36*
X113928670Y-183860480D02*
G01*
X114104179Y-183903109D01*
X114154912Y-183925693D01*
X114253254Y-183984847D01*
X114328727Y-184051472D01*
X114384571Y-184137135D01*
X114424026Y-184253405D01*
X114450332Y-184411848D01*
X114466729Y-184624034D01*
X114476457Y-184901529D01*
X114480151Y-185086885D01*
X114493745Y-185888443D01*
X114261544Y-185888443D01*
X114120677Y-185882536D01*
X114048102Y-185862350D01*
X114029344Y-185828453D01*
X114019441Y-185791799D01*
X113975166Y-185798807D01*
X113914836Y-185828197D01*
X113763803Y-185873246D01*
X113569693Y-185885385D01*
X113365531Y-185865529D01*
X113184340Y-185814592D01*
X113168089Y-185807522D01*
X113002491Y-185691188D01*
X112893324Y-185529467D01*
X112843091Y-185340430D01*
X112846928Y-185272515D01*
X113256763Y-185272515D01*
X113292875Y-185363914D01*
X113399942Y-185429411D01*
X113572684Y-185464563D01*
X113665000Y-185469231D01*
X113818850Y-185457282D01*
X113921115Y-185410844D01*
X113946066Y-185388771D01*
X114013661Y-185268681D01*
X114029344Y-185159754D01*
X114029344Y-185014017D01*
X113826352Y-185014017D01*
X113590387Y-185026043D01*
X113424881Y-185063871D01*
X113320305Y-185130121D01*
X113296891Y-185159656D01*
X113256763Y-185272515D01*
X112846928Y-185272515D01*
X112854295Y-185142148D01*
X112929440Y-184952692D01*
X113031968Y-184824656D01*
X113094065Y-184769302D01*
X113154855Y-184732924D01*
X113233952Y-184710744D01*
X113350971Y-184697982D01*
X113525527Y-184689857D01*
X113594763Y-184687521D01*
X114029344Y-184673321D01*
X114028707Y-184541784D01*
X114011876Y-184403519D01*
X113951026Y-184319917D01*
X113828095Y-184266507D01*
X113824797Y-184265555D01*
X113650504Y-184244555D01*
X113479952Y-184271985D01*
X113353200Y-184338689D01*
X113302342Y-184371625D01*
X113247565Y-184367068D01*
X113163272Y-184319349D01*
X113113773Y-184285671D01*
X113016955Y-184213716D01*
X112956982Y-184159779D01*
X112947359Y-184144337D01*
X112986985Y-184064424D01*
X113104064Y-183968989D01*
X113154918Y-183936789D01*
X113301113Y-183881332D01*
X113498137Y-183849913D01*
X113716989Y-183842855D01*
X113928670Y-183860480D01*
G37*
X113928670Y-183860480D02*
X114104179Y-183903109D01*
X114154912Y-183925693D01*
X114253254Y-183984847D01*
X114328727Y-184051472D01*
X114384571Y-184137135D01*
X114424026Y-184253405D01*
X114450332Y-184411848D01*
X114466729Y-184624034D01*
X114476457Y-184901529D01*
X114480151Y-185086885D01*
X114493745Y-185888443D01*
X114261544Y-185888443D01*
X114120677Y-185882536D01*
X114048102Y-185862350D01*
X114029344Y-185828453D01*
X114019441Y-185791799D01*
X113975166Y-185798807D01*
X113914836Y-185828197D01*
X113763803Y-185873246D01*
X113569693Y-185885385D01*
X113365531Y-185865529D01*
X113184340Y-185814592D01*
X113168089Y-185807522D01*
X113002491Y-185691188D01*
X112893324Y-185529467D01*
X112843091Y-185340430D01*
X112846928Y-185272515D01*
X113256763Y-185272515D01*
X113292875Y-185363914D01*
X113399942Y-185429411D01*
X113572684Y-185464563D01*
X113665000Y-185469231D01*
X113818850Y-185457282D01*
X113921115Y-185410844D01*
X113946066Y-185388771D01*
X114013661Y-185268681D01*
X114029344Y-185159754D01*
X114029344Y-185014017D01*
X113826352Y-185014017D01*
X113590387Y-185026043D01*
X113424881Y-185063871D01*
X113320305Y-185130121D01*
X113296891Y-185159656D01*
X113256763Y-185272515D01*
X112846928Y-185272515D01*
X112854295Y-185142148D01*
X112929440Y-184952692D01*
X113031968Y-184824656D01*
X113094065Y-184769302D01*
X113154855Y-184732924D01*
X113233952Y-184710744D01*
X113350971Y-184697982D01*
X113525527Y-184689857D01*
X113594763Y-184687521D01*
X114029344Y-184673321D01*
X114028707Y-184541784D01*
X114011876Y-184403519D01*
X113951026Y-184319917D01*
X113828095Y-184266507D01*
X113824797Y-184265555D01*
X113650504Y-184244555D01*
X113479952Y-184271985D01*
X113353200Y-184338689D01*
X113302342Y-184371625D01*
X113247565Y-184367068D01*
X113163272Y-184319349D01*
X113113773Y-184285671D01*
X113016955Y-184213716D01*
X112956982Y-184159779D01*
X112947359Y-184144337D01*
X112986985Y-184064424D01*
X113104064Y-183968989D01*
X113154918Y-183936789D01*
X113301113Y-183881332D01*
X113498137Y-183849913D01*
X113716989Y-183842855D01*
X113928670Y-183860480D01*
G36*
X115905107Y-183847460D02*
G01*
X116065182Y-183879017D01*
X116156312Y-183925743D01*
X116252179Y-184003370D01*
X116115787Y-184175579D01*
X116031694Y-184279867D01*
X115974592Y-184330746D01*
X115917844Y-184338519D01*
X115834811Y-184313488D01*
X115795833Y-184299327D01*
X115636926Y-184278433D01*
X115491399Y-184323220D01*
X115384560Y-184424399D01*
X115367205Y-184456659D01*
X115348303Y-184542115D01*
X115333716Y-184699606D01*
X115324126Y-184917969D01*
X115320219Y-185186038D01*
X115320164Y-185224172D01*
X115320164Y-185888443D01*
X114862131Y-185888443D01*
X114862131Y-183848115D01*
X115091148Y-183848115D01*
X115223199Y-183851563D01*
X115291992Y-183866907D01*
X115317430Y-183901648D01*
X115320164Y-183934416D01*
X115320164Y-184020717D01*
X115429878Y-183934416D01*
X115555680Y-183875538D01*
X115724681Y-183846426D01*
X115905107Y-183847460D01*
G37*
X115905107Y-183847460D02*
X116065182Y-183879017D01*
X116156312Y-183925743D01*
X116252179Y-184003370D01*
X116115787Y-184175579D01*
X116031694Y-184279867D01*
X115974592Y-184330746D01*
X115917844Y-184338519D01*
X115834811Y-184313488D01*
X115795833Y-184299327D01*
X115636926Y-184278433D01*
X115491399Y-184323220D01*
X115384560Y-184424399D01*
X115367205Y-184456659D01*
X115348303Y-184542115D01*
X115333716Y-184699606D01*
X115324126Y-184917969D01*
X115320219Y-185186038D01*
X115320164Y-185224172D01*
X115320164Y-185888443D01*
X114862131Y-185888443D01*
X114862131Y-183848115D01*
X115091148Y-183848115D01*
X115223199Y-183851563D01*
X115291992Y-183866907D01*
X115317430Y-183901648D01*
X115320164Y-183934416D01*
X115320164Y-184020717D01*
X115429878Y-183934416D01*
X115555680Y-183875538D01*
X115724681Y-183846426D01*
X115905107Y-183847460D01*
G36*
X117220842Y-183858999D02*
G01*
X117419876Y-183910746D01*
X117586561Y-184017544D01*
X117667269Y-184097326D01*
X117799568Y-184285931D01*
X117875390Y-184504720D01*
X117901438Y-184773668D01*
X117901571Y-184795410D01*
X117901803Y-185014017D01*
X116643595Y-185014017D01*
X116670415Y-185128525D01*
X116718841Y-185232232D01*
X116803596Y-185340290D01*
X116821323Y-185357541D01*
X116973680Y-185450904D01*
X117147424Y-185466738D01*
X117347411Y-185405313D01*
X117381311Y-185388771D01*
X117485288Y-185338484D01*
X117554931Y-185309834D01*
X117567083Y-185307184D01*
X117609501Y-185332913D01*
X117690399Y-185395861D01*
X117731465Y-185430259D01*
X117816560Y-185509276D01*
X117844503Y-185561451D01*
X117825110Y-185609446D01*
X117814743Y-185622570D01*
X117744531Y-185680008D01*
X117628674Y-185749813D01*
X117547869Y-185790564D01*
X117318501Y-185862362D01*
X117064564Y-185885625D01*
X116824074Y-185858059D01*
X116756721Y-185838321D01*
X116548262Y-185726612D01*
X116393746Y-185554721D01*
X116292278Y-185320979D01*
X116242965Y-185023716D01*
X116237551Y-184868279D01*
X116253359Y-184641973D01*
X116652623Y-184641973D01*
X116691240Y-184658702D01*
X116795042Y-184671829D01*
X116945956Y-184679575D01*
X117048197Y-184680902D01*
X117232101Y-184679623D01*
X117348174Y-184673638D01*
X117411852Y-184659724D01*
X117438567Y-184634655D01*
X117443770Y-184598280D01*
X117408073Y-184486229D01*
X117318196Y-184375488D01*
X117199966Y-184290489D01*
X117081690Y-184255718D01*
X116921044Y-184286563D01*
X116781978Y-184375732D01*
X116685557Y-184504263D01*
X116652623Y-184641973D01*
X116253359Y-184641973D01*
X116260572Y-184538733D01*
X116331624Y-184276175D01*
X116452210Y-184078525D01*
X116623834Y-183943702D01*
X116847998Y-183869626D01*
X116969438Y-183855360D01*
X117220842Y-183858999D01*
G37*
X117220842Y-183858999D02*
X117419876Y-183910746D01*
X117586561Y-184017544D01*
X117667269Y-184097326D01*
X117799568Y-184285931D01*
X117875390Y-184504720D01*
X117901438Y-184773668D01*
X117901571Y-184795410D01*
X117901803Y-185014017D01*
X116643595Y-185014017D01*
X116670415Y-185128525D01*
X116718841Y-185232232D01*
X116803596Y-185340290D01*
X116821323Y-185357541D01*
X116973680Y-185450904D01*
X117147424Y-185466738D01*
X117347411Y-185405313D01*
X117381311Y-185388771D01*
X117485288Y-185338484D01*
X117554931Y-185309834D01*
X117567083Y-185307184D01*
X117609501Y-185332913D01*
X117690399Y-185395861D01*
X117731465Y-185430259D01*
X117816560Y-185509276D01*
X117844503Y-185561451D01*
X117825110Y-185609446D01*
X117814743Y-185622570D01*
X117744531Y-185680008D01*
X117628674Y-185749813D01*
X117547869Y-185790564D01*
X117318501Y-185862362D01*
X117064564Y-185885625D01*
X116824074Y-185858059D01*
X116756721Y-185838321D01*
X116548262Y-185726612D01*
X116393746Y-185554721D01*
X116292278Y-185320979D01*
X116242965Y-185023716D01*
X116237551Y-184868279D01*
X116253359Y-184641973D01*
X116652623Y-184641973D01*
X116691240Y-184658702D01*
X116795042Y-184671829D01*
X116945956Y-184679575D01*
X117048197Y-184680902D01*
X117232101Y-184679623D01*
X117348174Y-184673638D01*
X117411852Y-184659724D01*
X117438567Y-184634655D01*
X117443770Y-184598280D01*
X117408073Y-184486229D01*
X117318196Y-184375488D01*
X117199966Y-184290489D01*
X117081690Y-184255718D01*
X116921044Y-184286563D01*
X116781978Y-184375732D01*
X116685557Y-184504263D01*
X116652623Y-184641973D01*
X116253359Y-184641973D01*
X116260572Y-184538733D01*
X116331624Y-184276175D01*
X116452210Y-184078525D01*
X116623834Y-183943702D01*
X116847998Y-183869626D01*
X116969438Y-183855360D01*
X117220842Y-183858999D01*
G36*
X102084610Y-180746802D02*
G01*
X102302447Y-180843108D01*
X102467816Y-181003919D01*
X102580957Y-181229482D01*
X102642112Y-181520042D01*
X102646495Y-181565408D01*
X102649930Y-181885256D01*
X102605398Y-182165614D01*
X102515609Y-182392847D01*
X102467529Y-182465941D01*
X102300055Y-182620643D01*
X102086768Y-182720838D01*
X101848154Y-182762418D01*
X101604697Y-182741272D01*
X101419630Y-182676145D01*
X101260479Y-182566393D01*
X101130404Y-182422496D01*
X101128154Y-182419130D01*
X101075330Y-182330314D01*
X101041001Y-182241005D01*
X101020212Y-182128294D01*
X101008009Y-181969273D01*
X101002633Y-181838868D01*
X101000395Y-181720611D01*
X101416706Y-181720611D01*
X101420775Y-181838335D01*
X101435545Y-181995049D01*
X101461602Y-182095621D01*
X101508593Y-182167173D01*
X101552603Y-182208971D01*
X101708623Y-182296484D01*
X101871869Y-182308179D01*
X102023904Y-182245212D01*
X102099920Y-182174653D01*
X102154697Y-182103550D01*
X102186737Y-182035512D01*
X102200800Y-181946967D01*
X102201642Y-181814339D01*
X102197309Y-181692195D01*
X102187989Y-181517710D01*
X102173212Y-181404538D01*
X102146580Y-181330721D01*
X102101691Y-181274298D01*
X102066120Y-181242050D01*
X101917329Y-181157340D01*
X101756813Y-181153117D01*
X101622220Y-181203292D01*
X101507400Y-181308075D01*
X101438996Y-181480198D01*
X101416706Y-181720611D01*
X101000395Y-181720611D01*
X100997724Y-181579548D01*
X101006107Y-181385610D01*
X101031228Y-181239745D01*
X101076532Y-181124641D01*
X101145464Y-181022986D01*
X101171022Y-180992802D01*
X101330825Y-180842412D01*
X101502231Y-180754566D01*
X101711849Y-180717762D01*
X101814064Y-180714754D01*
X102084610Y-180746802D01*
G37*
X102084610Y-180746802D02*
X102302447Y-180843108D01*
X102467816Y-181003919D01*
X102580957Y-181229482D01*
X102642112Y-181520042D01*
X102646495Y-181565408D01*
X102649930Y-181885256D01*
X102605398Y-182165614D01*
X102515609Y-182392847D01*
X102467529Y-182465941D01*
X102300055Y-182620643D01*
X102086768Y-182720838D01*
X101848154Y-182762418D01*
X101604697Y-182741272D01*
X101419630Y-182676145D01*
X101260479Y-182566393D01*
X101130404Y-182422496D01*
X101128154Y-182419130D01*
X101075330Y-182330314D01*
X101041001Y-182241005D01*
X101020212Y-182128294D01*
X101008009Y-181969273D01*
X101002633Y-181838868D01*
X101000395Y-181720611D01*
X101416706Y-181720611D01*
X101420775Y-181838335D01*
X101435545Y-181995049D01*
X101461602Y-182095621D01*
X101508593Y-182167173D01*
X101552603Y-182208971D01*
X101708623Y-182296484D01*
X101871869Y-182308179D01*
X102023904Y-182245212D01*
X102099920Y-182174653D01*
X102154697Y-182103550D01*
X102186737Y-182035512D01*
X102200800Y-181946967D01*
X102201642Y-181814339D01*
X102197309Y-181692195D01*
X102187989Y-181517710D01*
X102173212Y-181404538D01*
X102146580Y-181330721D01*
X102101691Y-181274298D01*
X102066120Y-181242050D01*
X101917329Y-181157340D01*
X101756813Y-181153117D01*
X101622220Y-181203292D01*
X101507400Y-181308075D01*
X101438996Y-181480198D01*
X101416706Y-181720611D01*
X101000395Y-181720611D01*
X100997724Y-181579548D01*
X101006107Y-181385610D01*
X101031228Y-181239745D01*
X101076532Y-181124641D01*
X101145464Y-181022986D01*
X101171022Y-180992802D01*
X101330825Y-180842412D01*
X101502231Y-180754566D01*
X101711849Y-180717762D01*
X101814064Y-180714754D01*
X102084610Y-180746802D01*
G36*
X105997325Y-180771526D02*
G01*
X106038819Y-180791061D01*
X106182434Y-180896263D01*
X106318236Y-181049793D01*
X106419638Y-181218845D01*
X106448480Y-181296567D01*
X106474794Y-181435398D01*
X106490485Y-181603177D01*
X106492391Y-181672459D01*
X106492623Y-181891066D01*
X105234415Y-181891066D01*
X105261234Y-182005574D01*
X105327066Y-182141004D01*
X105442161Y-182258046D01*
X105579087Y-182333442D01*
X105666342Y-182349098D01*
X105784672Y-182330099D01*
X105925851Y-182282446D01*
X105973811Y-182260521D01*
X106151171Y-182171944D01*
X106302530Y-182287391D01*
X106389869Y-182365474D01*
X106436342Y-182429922D01*
X106438695Y-182448837D01*
X106397178Y-182494681D01*
X106306190Y-182564349D01*
X106223605Y-182618700D01*
X106000751Y-182716405D01*
X105750913Y-182760628D01*
X105503290Y-182749130D01*
X105305902Y-182689029D01*
X105102424Y-182560284D01*
X104957821Y-182390774D01*
X104867361Y-182171462D01*
X104826311Y-181893309D01*
X104822671Y-181766034D01*
X104837239Y-181474375D01*
X104839028Y-181465891D01*
X105255941Y-181465891D01*
X105267423Y-181493242D01*
X105314616Y-181508324D01*
X105411951Y-181514788D01*
X105573864Y-181516285D01*
X105636210Y-181516312D01*
X105825897Y-181514052D01*
X105946189Y-181505844D01*
X106010884Y-181489550D01*
X106033780Y-181463027D01*
X106034590Y-181454510D01*
X106008460Y-181386825D01*
X105943063Y-181292005D01*
X105914948Y-181258805D01*
X105810574Y-181164906D01*
X105701775Y-181127988D01*
X105643157Y-181124902D01*
X105484574Y-181163493D01*
X105351587Y-181267155D01*
X105267228Y-181417717D01*
X105265733Y-181422623D01*
X105255941Y-181465891D01*
X104839028Y-181465891D01*
X104885684Y-181244722D01*
X104972955Y-181060983D01*
X105079689Y-180930557D01*
X105277020Y-180789131D01*
X105508985Y-180713556D01*
X105755712Y-180706724D01*
X105997325Y-180771526D01*
G37*
X105997325Y-180771526D02*
X106038819Y-180791061D01*
X106182434Y-180896263D01*
X106318236Y-181049793D01*
X106419638Y-181218845D01*
X106448480Y-181296567D01*
X106474794Y-181435398D01*
X106490485Y-181603177D01*
X106492391Y-181672459D01*
X106492623Y-181891066D01*
X105234415Y-181891066D01*
X105261234Y-182005574D01*
X105327066Y-182141004D01*
X105442161Y-182258046D01*
X105579087Y-182333442D01*
X105666342Y-182349098D01*
X105784672Y-182330099D01*
X105925851Y-182282446D01*
X105973811Y-182260521D01*
X106151171Y-182171944D01*
X106302530Y-182287391D01*
X106389869Y-182365474D01*
X106436342Y-182429922D01*
X106438695Y-182448837D01*
X106397178Y-182494681D01*
X106306190Y-182564349D01*
X106223605Y-182618700D01*
X106000751Y-182716405D01*
X105750913Y-182760628D01*
X105503290Y-182749130D01*
X105305902Y-182689029D01*
X105102424Y-182560284D01*
X104957821Y-182390774D01*
X104867361Y-182171462D01*
X104826311Y-181893309D01*
X104822671Y-181766034D01*
X104837239Y-181474375D01*
X104839028Y-181465891D01*
X105255941Y-181465891D01*
X105267423Y-181493242D01*
X105314616Y-181508324D01*
X105411951Y-181514788D01*
X105573864Y-181516285D01*
X105636210Y-181516312D01*
X105825897Y-181514052D01*
X105946189Y-181505844D01*
X106010884Y-181489550D01*
X106033780Y-181463027D01*
X106034590Y-181454510D01*
X106008460Y-181386825D01*
X105943063Y-181292005D01*
X105914948Y-181258805D01*
X105810574Y-181164906D01*
X105701775Y-181127988D01*
X105643157Y-181124902D01*
X105484574Y-181163493D01*
X105351587Y-181267155D01*
X105267228Y-181417717D01*
X105265733Y-181422623D01*
X105255941Y-181465891D01*
X104839028Y-181465891D01*
X104885684Y-181244722D01*
X104972955Y-181060983D01*
X105079689Y-180930557D01*
X105277020Y-180789131D01*
X105508985Y-180713556D01*
X105755712Y-180706724D01*
X105997325Y-180771526D01*
G36*
X110536418Y-180718003D02*
G01*
X110694100Y-180747907D01*
X110857685Y-180810452D01*
X110875164Y-180818426D01*
X110999217Y-180883656D01*
X111085129Y-180944274D01*
X111112898Y-180983106D01*
X111086453Y-181046437D01*
X111022220Y-181139881D01*
X110993708Y-181174762D01*
X110876211Y-181312066D01*
X110724732Y-181222691D01*
X110580570Y-181163152D01*
X110414000Y-181131326D01*
X110254262Y-181129316D01*
X110130594Y-181159221D01*
X110100916Y-181177886D01*
X110044398Y-181263466D01*
X110037529Y-181362049D01*
X110079820Y-181439062D01*
X110104836Y-181453998D01*
X110179796Y-181472547D01*
X110311561Y-181494348D01*
X110473991Y-181515180D01*
X110503956Y-181518447D01*
X110764840Y-181563575D01*
X110954055Y-181640230D01*
X111079543Y-181755491D01*
X111149243Y-181916435D01*
X111170956Y-182113015D01*
X111140961Y-182336473D01*
X111043559Y-182511949D01*
X110878361Y-182639758D01*
X110644977Y-182720218D01*
X110385902Y-182751962D01*
X110174633Y-182751580D01*
X110003265Y-182722749D01*
X109886230Y-182682944D01*
X109738350Y-182613587D01*
X109601687Y-182533097D01*
X109553115Y-182497670D01*
X109428197Y-182395705D01*
X109729509Y-182090813D01*
X109900796Y-182204165D01*
X110072594Y-182289300D01*
X110256048Y-182333830D01*
X110432397Y-182338528D01*
X110582881Y-182304170D01*
X110688740Y-182231529D01*
X110722921Y-182170238D01*
X110717794Y-182071941D01*
X110632857Y-181996773D01*
X110468343Y-181944866D01*
X110288101Y-181920875D01*
X110010709Y-181875104D01*
X109804635Y-181788748D01*
X109667122Y-181659280D01*
X109595413Y-181484172D01*
X109585479Y-181276565D01*
X109634548Y-181059714D01*
X109746420Y-180895805D01*
X109922097Y-180784088D01*
X110162581Y-180723814D01*
X110340743Y-180711999D01*
X110536418Y-180718003D01*
G37*
X110536418Y-180718003D02*
X110694100Y-180747907D01*
X110857685Y-180810452D01*
X110875164Y-180818426D01*
X110999217Y-180883656D01*
X111085129Y-180944274D01*
X111112898Y-180983106D01*
X111086453Y-181046437D01*
X111022220Y-181139881D01*
X110993708Y-181174762D01*
X110876211Y-181312066D01*
X110724732Y-181222691D01*
X110580570Y-181163152D01*
X110414000Y-181131326D01*
X110254262Y-181129316D01*
X110130594Y-181159221D01*
X110100916Y-181177886D01*
X110044398Y-181263466D01*
X110037529Y-181362049D01*
X110079820Y-181439062D01*
X110104836Y-181453998D01*
X110179796Y-181472547D01*
X110311561Y-181494348D01*
X110473991Y-181515180D01*
X110503956Y-181518447D01*
X110764840Y-181563575D01*
X110954055Y-181640230D01*
X111079543Y-181755491D01*
X111149243Y-181916435D01*
X111170956Y-182113015D01*
X111140961Y-182336473D01*
X111043559Y-182511949D01*
X110878361Y-182639758D01*
X110644977Y-182720218D01*
X110385902Y-182751962D01*
X110174633Y-182751580D01*
X110003265Y-182722749D01*
X109886230Y-182682944D01*
X109738350Y-182613587D01*
X109601687Y-182533097D01*
X109553115Y-182497670D01*
X109428197Y-182395705D01*
X109729509Y-182090813D01*
X109900796Y-182204165D01*
X110072594Y-182289300D01*
X110256048Y-182333830D01*
X110432397Y-182338528D01*
X110582881Y-182304170D01*
X110688740Y-182231529D01*
X110722921Y-182170238D01*
X110717794Y-182071941D01*
X110632857Y-181996773D01*
X110468343Y-181944866D01*
X110288101Y-181920875D01*
X110010709Y-181875104D01*
X109804635Y-181788748D01*
X109667122Y-181659280D01*
X109595413Y-181484172D01*
X109585479Y-181276565D01*
X109634548Y-181059714D01*
X109746420Y-180895805D01*
X109922097Y-180784088D01*
X110162581Y-180723814D01*
X110340743Y-180711999D01*
X110536418Y-180718003D01*
G36*
X112512521Y-180749805D02*
G01*
X112723136Y-180864505D01*
X112887915Y-181045574D01*
X112965554Y-181192838D01*
X112998886Y-181322907D01*
X113020483Y-181508333D01*
X113029739Y-181721939D01*
X113026045Y-181936550D01*
X113008794Y-182124991D01*
X112988643Y-182225637D01*
X112920667Y-182363323D01*
X112802942Y-182509566D01*
X112661065Y-182637452D01*
X112520632Y-182720063D01*
X112517207Y-182721373D01*
X112342945Y-182757472D01*
X112136427Y-182758365D01*
X111940174Y-182725501D01*
X111864396Y-182699161D01*
X111669221Y-182588484D01*
X111529438Y-182443478D01*
X111437599Y-182251503D01*
X111386254Y-181999920D01*
X111374637Y-181868142D01*
X111376119Y-181702553D01*
X111822459Y-181702553D01*
X111837494Y-181944177D01*
X111880772Y-182128303D01*
X111949551Y-182245949D01*
X111998550Y-182279590D01*
X112124093Y-182303050D01*
X112273318Y-182296104D01*
X112402333Y-182262345D01*
X112436166Y-182243772D01*
X112525428Y-182135599D01*
X112584345Y-181970051D01*
X112609424Y-181768581D01*
X112597174Y-181552646D01*
X112569796Y-181422690D01*
X112491191Y-181272191D01*
X112367104Y-181178114D01*
X112217661Y-181145587D01*
X112062987Y-181179738D01*
X111944174Y-181263273D01*
X111881735Y-181332193D01*
X111845293Y-181400126D01*
X111827923Y-181492064D01*
X111822699Y-181632999D01*
X111822459Y-181702553D01*
X111376119Y-181702553D01*
X111377785Y-181516495D01*
X111435056Y-181228134D01*
X111546457Y-181003049D01*
X111711993Y-180841230D01*
X111931670Y-180742666D01*
X111978842Y-180731236D01*
X112262336Y-180704406D01*
X112512521Y-180749805D01*
G37*
X112512521Y-180749805D02*
X112723136Y-180864505D01*
X112887915Y-181045574D01*
X112965554Y-181192838D01*
X112998886Y-181322907D01*
X113020483Y-181508333D01*
X113029739Y-181721939D01*
X113026045Y-181936550D01*
X113008794Y-182124991D01*
X112988643Y-182225637D01*
X112920667Y-182363323D01*
X112802942Y-182509566D01*
X112661065Y-182637452D01*
X112520632Y-182720063D01*
X112517207Y-182721373D01*
X112342945Y-182757472D01*
X112136427Y-182758365D01*
X111940174Y-182725501D01*
X111864396Y-182699161D01*
X111669221Y-182588484D01*
X111529438Y-182443478D01*
X111437599Y-182251503D01*
X111386254Y-181999920D01*
X111374637Y-181868142D01*
X111376119Y-181702553D01*
X111822459Y-181702553D01*
X111837494Y-181944177D01*
X111880772Y-182128303D01*
X111949551Y-182245949D01*
X111998550Y-182279590D01*
X112124093Y-182303050D01*
X112273318Y-182296104D01*
X112402333Y-182262345D01*
X112436166Y-182243772D01*
X112525428Y-182135599D01*
X112584345Y-181970051D01*
X112609424Y-181768581D01*
X112597174Y-181552646D01*
X112569796Y-181422690D01*
X112491191Y-181272191D01*
X112367104Y-181178114D01*
X112217661Y-181145587D01*
X112062987Y-181179738D01*
X111944174Y-181263273D01*
X111881735Y-181332193D01*
X111845293Y-181400126D01*
X111827923Y-181492064D01*
X111822699Y-181632999D01*
X111822459Y-181702553D01*
X111376119Y-181702553D01*
X111377785Y-181516495D01*
X111435056Y-181228134D01*
X111546457Y-181003049D01*
X111711993Y-180841230D01*
X111931670Y-180742666D01*
X111978842Y-180731236D01*
X112262336Y-180704406D01*
X112512521Y-180749805D01*
G36*
X113779508Y-181373311D02*
G01*
X113783444Y-181678698D01*
X113797823Y-181910660D01*
X113826504Y-182078786D01*
X113873348Y-182192671D01*
X113942211Y-182261905D01*
X114036954Y-182296080D01*
X114154262Y-182304811D01*
X114277123Y-182295028D01*
X114370444Y-182259287D01*
X114438084Y-182187995D01*
X114483901Y-182071561D01*
X114511755Y-181900391D01*
X114525504Y-181664896D01*
X114529016Y-181373311D01*
X114529016Y-180725164D01*
X114987049Y-180725164D01*
X114987049Y-182723853D01*
X114758033Y-182723853D01*
X114619971Y-182718258D01*
X114548878Y-182698611D01*
X114529016Y-182661313D01*
X114517054Y-182628094D01*
X114469447Y-182635121D01*
X114373485Y-182682132D01*
X114153548Y-182754654D01*
X113920274Y-182749516D01*
X113696755Y-182670766D01*
X113590313Y-182608558D01*
X113509122Y-182541204D01*
X113449808Y-182456928D01*
X113408996Y-182343957D01*
X113383312Y-182190515D01*
X113369381Y-181984827D01*
X113363829Y-181715118D01*
X113363115Y-181506551D01*
X113363115Y-180725164D01*
X113779508Y-180725164D01*
X113779508Y-181373311D01*
G37*
X113779508Y-181373311D02*
X113783444Y-181678698D01*
X113797823Y-181910660D01*
X113826504Y-182078786D01*
X113873348Y-182192671D01*
X113942211Y-182261905D01*
X114036954Y-182296080D01*
X114154262Y-182304811D01*
X114277123Y-182295028D01*
X114370444Y-182259287D01*
X114438084Y-182187995D01*
X114483901Y-182071561D01*
X114511755Y-181900391D01*
X114525504Y-181664896D01*
X114529016Y-181373311D01*
X114529016Y-180725164D01*
X114987049Y-180725164D01*
X114987049Y-182723853D01*
X114758033Y-182723853D01*
X114619971Y-182718258D01*
X114548878Y-182698611D01*
X114529016Y-182661313D01*
X114517054Y-182628094D01*
X114469447Y-182635121D01*
X114373485Y-182682132D01*
X114153548Y-182754654D01*
X113920274Y-182749516D01*
X113696755Y-182670766D01*
X113590313Y-182608558D01*
X113509122Y-182541204D01*
X113449808Y-182456928D01*
X113408996Y-182343957D01*
X113383312Y-182190515D01*
X113369381Y-181984827D01*
X113363829Y-181715118D01*
X113363115Y-181506551D01*
X113363115Y-180725164D01*
X113779508Y-180725164D01*
X113779508Y-181373311D01*
G36*
X117832288Y-180742602D02*
G01*
X118073543Y-180845090D01*
X118149531Y-180894981D01*
X118246648Y-180971651D01*
X118307612Y-181031936D01*
X118318197Y-181051571D01*
X118288308Y-181095142D01*
X118211819Y-181169077D01*
X118150582Y-181220679D01*
X117982967Y-181355378D01*
X117850614Y-181244010D01*
X117748336Y-181172113D01*
X117648610Y-181147296D01*
X117534475Y-181153357D01*
X117353234Y-181198418D01*
X117228475Y-181291949D01*
X117152658Y-181443154D01*
X117118240Y-181661236D01*
X117118231Y-181661373D01*
X117121208Y-181905124D01*
X117167467Y-182083966D01*
X117259742Y-182205730D01*
X117322650Y-182246964D01*
X117489717Y-182298311D01*
X117668162Y-182298342D01*
X117823415Y-182248522D01*
X117860164Y-182224180D01*
X117952330Y-182162004D01*
X118024387Y-182151813D01*
X118102102Y-182198092D01*
X118188018Y-182281212D01*
X118324011Y-182421521D01*
X118173023Y-182545978D01*
X117939740Y-182686443D01*
X117676673Y-182755666D01*
X117401760Y-182750653D01*
X117221216Y-182704755D01*
X117010194Y-182591249D01*
X116841426Y-182412685D01*
X116764753Y-182286639D01*
X116702654Y-182105791D01*
X116671581Y-181876745D01*
X116671342Y-181628510D01*
X116701743Y-181390093D01*
X116762592Y-181190503D01*
X116772176Y-181170039D01*
X116914102Y-180969341D01*
X117106259Y-180823217D01*
X117333464Y-180734698D01*
X117580535Y-180706815D01*
X117832288Y-180742602D01*
G37*
X117832288Y-180742602D02*
X118073543Y-180845090D01*
X118149531Y-180894981D01*
X118246648Y-180971651D01*
X118307612Y-181031936D01*
X118318197Y-181051571D01*
X118288308Y-181095142D01*
X118211819Y-181169077D01*
X118150582Y-181220679D01*
X117982967Y-181355378D01*
X117850614Y-181244010D01*
X117748336Y-181172113D01*
X117648610Y-181147296D01*
X117534475Y-181153357D01*
X117353234Y-181198418D01*
X117228475Y-181291949D01*
X117152658Y-181443154D01*
X117118240Y-181661236D01*
X117118231Y-181661373D01*
X117121208Y-181905124D01*
X117167467Y-182083966D01*
X117259742Y-182205730D01*
X117322650Y-182246964D01*
X117489717Y-182298311D01*
X117668162Y-182298342D01*
X117823415Y-182248522D01*
X117860164Y-182224180D01*
X117952330Y-182162004D01*
X118024387Y-182151813D01*
X118102102Y-182198092D01*
X118188018Y-182281212D01*
X118324011Y-182421521D01*
X118173023Y-182545978D01*
X117939740Y-182686443D01*
X117676673Y-182755666D01*
X117401760Y-182750653D01*
X117221216Y-182704755D01*
X117010194Y-182591249D01*
X116841426Y-182412685D01*
X116764753Y-182286639D01*
X116702654Y-182105791D01*
X116671581Y-181876745D01*
X116671342Y-181628510D01*
X116701743Y-181390093D01*
X116762592Y-181190503D01*
X116772176Y-181170039D01*
X116914102Y-180969341D01*
X117106259Y-180823217D01*
X117333464Y-180734698D01*
X117580535Y-180706815D01*
X117832288Y-180742602D01*
G36*
X119357792Y-180718019D02*
G01*
X119464414Y-180743922D01*
X119668830Y-180838772D01*
X119843625Y-180983633D01*
X119964597Y-181157320D01*
X119981217Y-181196317D01*
X120004016Y-181298465D01*
X120019975Y-181449573D01*
X120025410Y-181602301D01*
X120025410Y-181891066D01*
X119421639Y-181891066D01*
X119172619Y-181892007D01*
X118997189Y-181897723D01*
X118885665Y-181912550D01*
X118828360Y-181940827D01*
X118815588Y-181986890D01*
X118837662Y-182055077D01*
X118877205Y-182134863D01*
X118987509Y-182268017D01*
X119140792Y-182334355D01*
X119328141Y-182332194D01*
X119540363Y-182259991D01*
X119723773Y-182170883D01*
X119875962Y-182291220D01*
X120028151Y-182411558D01*
X119884974Y-182543843D01*
X119693828Y-182668832D01*
X119458753Y-182744189D01*
X119205898Y-182765278D01*
X118961413Y-182727460D01*
X118921967Y-182714628D01*
X118707090Y-182602414D01*
X118547250Y-182435118D01*
X118439080Y-182207748D01*
X118379210Y-181915308D01*
X118378513Y-181909040D01*
X118373152Y-181590332D01*
X118394823Y-181476632D01*
X118817869Y-181476632D01*
X118856722Y-181494116D01*
X118962205Y-181507508D01*
X119117707Y-181515155D01*
X119216249Y-181516312D01*
X119400013Y-181515588D01*
X119514914Y-181510983D01*
X119575366Y-181498848D01*
X119595783Y-181475530D01*
X119590581Y-181437382D01*
X119586217Y-181422623D01*
X119511724Y-181283944D01*
X119394566Y-181172179D01*
X119291173Y-181123066D01*
X119153816Y-181126032D01*
X119014629Y-181187278D01*
X118897874Y-181288683D01*
X118827810Y-181412122D01*
X118817869Y-181476632D01*
X118394823Y-181476632D01*
X118426579Y-181310020D01*
X118532572Y-181074780D01*
X118684911Y-180891284D01*
X118877374Y-180766209D01*
X119103742Y-180706229D01*
X119357792Y-180718019D01*
G37*
X119357792Y-180718019D02*
X119464414Y-180743922D01*
X119668830Y-180838772D01*
X119843625Y-180983633D01*
X119964597Y-181157320D01*
X119981217Y-181196317D01*
X120004016Y-181298465D01*
X120019975Y-181449573D01*
X120025410Y-181602301D01*
X120025410Y-181891066D01*
X119421639Y-181891066D01*
X119172619Y-181892007D01*
X118997189Y-181897723D01*
X118885665Y-181912550D01*
X118828360Y-181940827D01*
X118815588Y-181986890D01*
X118837662Y-182055077D01*
X118877205Y-182134863D01*
X118987509Y-182268017D01*
X119140792Y-182334355D01*
X119328141Y-182332194D01*
X119540363Y-182259991D01*
X119723773Y-182170883D01*
X119875962Y-182291220D01*
X120028151Y-182411558D01*
X119884974Y-182543843D01*
X119693828Y-182668832D01*
X119458753Y-182744189D01*
X119205898Y-182765278D01*
X118961413Y-182727460D01*
X118921967Y-182714628D01*
X118707090Y-182602414D01*
X118547250Y-182435118D01*
X118439080Y-182207748D01*
X118379210Y-181915308D01*
X118378513Y-181909040D01*
X118373152Y-181590332D01*
X118394823Y-181476632D01*
X118817869Y-181476632D01*
X118856722Y-181494116D01*
X118962205Y-181507508D01*
X119117707Y-181515155D01*
X119216249Y-181516312D01*
X119400013Y-181515588D01*
X119514914Y-181510983D01*
X119575366Y-181498848D01*
X119595783Y-181475530D01*
X119590581Y-181437382D01*
X119586217Y-181422623D01*
X119511724Y-181283944D01*
X119394566Y-181172179D01*
X119291173Y-181123066D01*
X119153816Y-181126032D01*
X119014629Y-181187278D01*
X118897874Y-181288683D01*
X118827810Y-181412122D01*
X118817869Y-181476632D01*
X118394823Y-181476632D01*
X118426579Y-181310020D01*
X118532572Y-181074780D01*
X118684911Y-180891284D01*
X118877374Y-180766209D01*
X119103742Y-180706229D01*
X119357792Y-180718019D01*
G36*
X107993108Y-180759563D02*
G01*
X108096740Y-180809062D01*
X108197106Y-180880561D01*
X108273568Y-180962853D01*
X108329262Y-181067811D01*
X108367323Y-181207313D01*
X108390885Y-181393233D01*
X108403085Y-181637448D01*
X108407056Y-181951833D01*
X108407118Y-181984754D01*
X108408033Y-182723853D01*
X107950000Y-182723853D01*
X107950000Y-182042481D01*
X107949674Y-181790050D01*
X107947419Y-181607093D01*
X107941319Y-181479807D01*
X107929459Y-181394386D01*
X107909924Y-181337026D01*
X107880797Y-181293924D01*
X107840224Y-181251334D01*
X107698269Y-181159824D01*
X107543306Y-181142843D01*
X107395677Y-181200701D01*
X107344337Y-181243763D01*
X107306647Y-181284249D01*
X107279587Y-181327607D01*
X107261397Y-181387463D01*
X107250316Y-181477441D01*
X107244586Y-181611168D01*
X107242444Y-181802270D01*
X107242131Y-182034911D01*
X107242131Y-182723853D01*
X106784098Y-182723853D01*
X106784098Y-180725164D01*
X107013115Y-180725164D01*
X107150614Y-180730602D01*
X107221553Y-180749909D01*
X107242122Y-180787576D01*
X107242131Y-180788692D01*
X107251675Y-180825581D01*
X107293767Y-180821395D01*
X107377459Y-180780861D01*
X107567273Y-180721224D01*
X107784401Y-180714591D01*
X107993108Y-180759563D01*
G37*
X107993108Y-180759563D02*
X108096740Y-180809062D01*
X108197106Y-180880561D01*
X108273568Y-180962853D01*
X108329262Y-181067811D01*
X108367323Y-181207313D01*
X108390885Y-181393233D01*
X108403085Y-181637448D01*
X108407056Y-181951833D01*
X108407118Y-181984754D01*
X108408033Y-182723853D01*
X107950000Y-182723853D01*
X107950000Y-182042481D01*
X107949674Y-181790050D01*
X107947419Y-181607093D01*
X107941319Y-181479807D01*
X107929459Y-181394386D01*
X107909924Y-181337026D01*
X107880797Y-181293924D01*
X107840224Y-181251334D01*
X107698269Y-181159824D01*
X107543306Y-181142843D01*
X107395677Y-181200701D01*
X107344337Y-181243763D01*
X107306647Y-181284249D01*
X107279587Y-181327607D01*
X107261397Y-181387463D01*
X107250316Y-181477441D01*
X107244586Y-181611168D01*
X107242444Y-181802270D01*
X107242131Y-182034911D01*
X107242131Y-182723853D01*
X106784098Y-182723853D01*
X106784098Y-180725164D01*
X107013115Y-180725164D01*
X107150614Y-180730602D01*
X107221553Y-180749909D01*
X107242122Y-180787576D01*
X107242131Y-180788692D01*
X107251675Y-180825581D01*
X107293767Y-180821395D01*
X107377459Y-180780861D01*
X107567273Y-180721224D01*
X107784401Y-180714591D01*
X107993108Y-180759563D01*
G36*
X116448869Y-180723231D02*
G01*
X116592092Y-180766989D01*
X116684306Y-180822280D01*
X116714344Y-180866004D01*
X116706076Y-180917834D01*
X116652427Y-180999259D01*
X116607063Y-181056927D01*
X116513546Y-181161182D01*
X116443287Y-181205045D01*
X116383393Y-181202182D01*
X116205720Y-181156967D01*
X116075234Y-181159020D01*
X115969273Y-181210261D01*
X115933700Y-181240252D01*
X115819836Y-181345778D01*
X115819836Y-182723853D01*
X115361803Y-182723853D01*
X115361803Y-180725164D01*
X115590820Y-180725164D01*
X115728318Y-180730602D01*
X115799258Y-180749909D01*
X115819827Y-180787576D01*
X115819836Y-180788692D01*
X115829550Y-180828146D01*
X115873478Y-180823000D01*
X115934344Y-180794536D01*
X116060054Y-180741569D01*
X116162134Y-180709703D01*
X116293480Y-180701533D01*
X116448869Y-180723231D01*
G37*
X116448869Y-180723231D02*
X116592092Y-180766989D01*
X116684306Y-180822280D01*
X116714344Y-180866004D01*
X116706076Y-180917834D01*
X116652427Y-180999259D01*
X116607063Y-181056927D01*
X116513546Y-181161182D01*
X116443287Y-181205045D01*
X116383393Y-181202182D01*
X116205720Y-181156967D01*
X116075234Y-181159020D01*
X115969273Y-181210261D01*
X115933700Y-181240252D01*
X115819836Y-181345778D01*
X115819836Y-182723853D01*
X115361803Y-182723853D01*
X115361803Y-180725164D01*
X115590820Y-180725164D01*
X115728318Y-180730602D01*
X115799258Y-180749909D01*
X115819827Y-180787576D01*
X115819836Y-180788692D01*
X115829550Y-180828146D01*
X115873478Y-180823000D01*
X115934344Y-180794536D01*
X116060054Y-180741569D01*
X116162134Y-180709703D01*
X116293480Y-180701533D01*
X116448869Y-180723231D01*
G36*
X111738305Y-166920960D02*
G01*
X111926557Y-167919542D01*
X112621183Y-168205889D01*
X113315808Y-168492237D01*
X114149128Y-167925586D01*
X114382501Y-167767811D01*
X114593457Y-167626939D01*
X114772153Y-167509401D01*
X114908744Y-167421629D01*
X114993386Y-167370055D01*
X115016437Y-167358935D01*
X115057963Y-167387535D01*
X115146698Y-167466604D01*
X115272697Y-167586041D01*
X115426014Y-167735744D01*
X115596702Y-167905615D01*
X115774814Y-168085551D01*
X115950406Y-168265454D01*
X116113530Y-168435222D01*
X116254241Y-168584754D01*
X116362592Y-168703952D01*
X116428637Y-168782713D01*
X116444426Y-168809072D01*
X116421703Y-168857666D01*
X116357999Y-168964126D01*
X116260013Y-169118039D01*
X116134441Y-169308991D01*
X115987982Y-169526569D01*
X115903115Y-169650671D01*
X115748426Y-169877279D01*
X115610970Y-170081770D01*
X115497414Y-170253965D01*
X115414428Y-170383685D01*
X115368678Y-170460751D01*
X115361803Y-170476947D01*
X115377388Y-170522975D01*
X115419868Y-170630250D01*
X115482835Y-170783687D01*
X115559879Y-170968206D01*
X115644590Y-171168721D01*
X115730558Y-171370152D01*
X115811373Y-171557415D01*
X115880627Y-171715428D01*
X115931908Y-171829107D01*
X115958809Y-171883370D01*
X115960396Y-171885506D01*
X116002635Y-171895867D01*
X116115126Y-171918982D01*
X116286209Y-171952579D01*
X116504223Y-171994385D01*
X116757509Y-172042127D01*
X116905288Y-172069659D01*
X117175938Y-172121190D01*
X117420397Y-172170225D01*
X117626300Y-172214081D01*
X117781277Y-172250074D01*
X117872962Y-172275521D01*
X117891393Y-172283595D01*
X117909445Y-172338242D01*
X117924010Y-172461662D01*
X117935098Y-172639423D01*
X117942719Y-172857091D01*
X117946884Y-173100235D01*
X117947602Y-173354423D01*
X117944882Y-173605220D01*
X117938735Y-173838196D01*
X117929171Y-174038918D01*
X117916199Y-174192954D01*
X117899829Y-174285870D01*
X117890011Y-174305213D01*
X117831323Y-174328398D01*
X117706966Y-174361544D01*
X117533390Y-174400758D01*
X117327042Y-174442145D01*
X117255011Y-174455534D01*
X116907719Y-174519147D01*
X116633383Y-174570378D01*
X116422939Y-174611261D01*
X116267322Y-174643834D01*
X116157467Y-174670132D01*
X116084311Y-174692192D01*
X116038787Y-174712049D01*
X116011833Y-174731741D01*
X116008061Y-174735632D01*
X115970415Y-174798324D01*
X115912986Y-174920331D01*
X115841508Y-175086712D01*
X115761715Y-175282529D01*
X115679343Y-175492840D01*
X115600125Y-175702708D01*
X115529796Y-175897191D01*
X115474089Y-176061350D01*
X115438741Y-176180245D01*
X115429484Y-176238936D01*
X115430256Y-176240992D01*
X115461620Y-176288964D01*
X115532774Y-176394516D01*
X115636240Y-176546660D01*
X115764540Y-176734410D01*
X115910199Y-176946780D01*
X115951680Y-177007130D01*
X116099587Y-177225929D01*
X116229739Y-177425562D01*
X116335045Y-177594565D01*
X116408416Y-177721475D01*
X116442763Y-177794829D01*
X116444426Y-177803841D01*
X116415569Y-177851207D01*
X116335831Y-177945042D01*
X116215462Y-178075261D01*
X116064713Y-178231779D01*
X115893836Y-178404510D01*
X115713079Y-178583371D01*
X115532694Y-178758276D01*
X115362932Y-178919140D01*
X115214042Y-179055878D01*
X115096276Y-179158407D01*
X115019883Y-179216640D01*
X114998750Y-179226148D01*
X114949560Y-179203754D01*
X114848847Y-179143356D01*
X114713017Y-179055129D01*
X114608510Y-178984115D01*
X114419149Y-178853811D01*
X114194899Y-178700384D01*
X113969964Y-178547201D01*
X113849032Y-178465218D01*
X113439704Y-178188353D01*
X113096102Y-178374136D01*
X112939565Y-178455523D01*
X112806454Y-178518784D01*
X112716389Y-178554865D01*
X112693463Y-178559885D01*
X112665895Y-178522817D01*
X112611508Y-178418069D01*
X112534363Y-178255303D01*
X112438518Y-178044181D01*
X112328034Y-177794365D01*
X112206971Y-177515517D01*
X112079389Y-177217299D01*
X111949347Y-176909374D01*
X111820906Y-176601404D01*
X111698126Y-176303050D01*
X111585067Y-176023975D01*
X111485788Y-175773841D01*
X111404349Y-175562310D01*
X111344811Y-175399043D01*
X111311234Y-175293705D01*
X111305834Y-175257527D01*
X111348634Y-175211381D01*
X111442344Y-175136472D01*
X111567373Y-175048364D01*
X111577867Y-175041394D01*
X111901020Y-174782721D01*
X112161587Y-174480938D01*
X112357310Y-174145695D01*
X112485932Y-173786642D01*
X112545195Y-173413426D01*
X112532839Y-173035700D01*
X112446607Y-172663111D01*
X112284241Y-172305310D01*
X112236472Y-172227027D01*
X111988009Y-171910919D01*
X111694481Y-171657079D01*
X111366047Y-171466827D01*
X111012865Y-171341485D01*
X110645095Y-171282372D01*
X110272897Y-171290807D01*
X109906429Y-171368112D01*
X109555851Y-171515606D01*
X109231323Y-171734610D01*
X109130936Y-171823498D01*
X108875449Y-172101744D01*
X108689278Y-172394656D01*
X108561570Y-172722986D01*
X108490444Y-173048133D01*
X108472886Y-173413702D01*
X108531434Y-173781086D01*
X108660142Y-174137866D01*
X108853062Y-174471626D01*
X109104248Y-174769947D01*
X109407752Y-175020411D01*
X109447640Y-175046813D01*
X109574009Y-175133272D01*
X109670073Y-175208184D01*
X109716000Y-175256015D01*
X109716668Y-175257527D01*
X109706808Y-175309267D01*
X109667722Y-175426696D01*
X109603472Y-175600154D01*
X109518120Y-175819979D01*
X109415727Y-176076513D01*
X109300354Y-176360096D01*
X109176063Y-176661067D01*
X109046916Y-176969767D01*
X108916974Y-177276536D01*
X108790298Y-177571714D01*
X108670951Y-177845640D01*
X108562994Y-178088656D01*
X108470488Y-178291101D01*
X108397496Y-178443315D01*
X108348077Y-178535638D01*
X108328177Y-178559885D01*
X108267366Y-178541004D01*
X108153582Y-178490364D01*
X108006445Y-178417017D01*
X107925538Y-178374136D01*
X107581935Y-178188353D01*
X107172607Y-178465218D01*
X106963654Y-178607054D01*
X106734887Y-178763141D01*
X106520509Y-178910109D01*
X106413129Y-178984115D01*
X106262102Y-179085531D01*
X106134218Y-179165898D01*
X106046158Y-179215041D01*
X106017555Y-179225429D01*
X105975924Y-179197405D01*
X105883789Y-179119172D01*
X105750082Y-178998852D01*
X105583735Y-178844568D01*
X105393680Y-178664443D01*
X105273479Y-178548790D01*
X105063185Y-178342167D01*
X104881444Y-178157358D01*
X104735603Y-178002270D01*
X104633009Y-177884807D01*
X104581009Y-177812875D01*
X104576020Y-177798278D01*
X104599171Y-177742753D01*
X104663146Y-177630484D01*
X104760847Y-177472837D01*
X104885180Y-177281179D01*
X105029046Y-177066876D01*
X105069959Y-177007130D01*
X105219033Y-176789982D01*
X105352775Y-176594475D01*
X105463709Y-176431599D01*
X105544356Y-176312337D01*
X105587241Y-176247678D01*
X105591383Y-176240992D01*
X105585188Y-176189462D01*
X105552300Y-176076166D01*
X105498455Y-175916042D01*
X105429387Y-175724032D01*
X105350831Y-175515074D01*
X105268520Y-175304109D01*
X105188189Y-175106076D01*
X105115572Y-174935916D01*
X105056405Y-174808567D01*
X105016420Y-174738971D01*
X105013578Y-174735632D01*
X104989127Y-174715742D01*
X104947831Y-174696073D01*
X104880623Y-174674589D01*
X104778441Y-174649253D01*
X104632219Y-174618029D01*
X104432893Y-174578882D01*
X104171397Y-174529775D01*
X103838669Y-174468672D01*
X103766628Y-174455534D01*
X103553115Y-174414282D01*
X103366978Y-174373926D01*
X103224666Y-174338361D01*
X103142629Y-174311480D01*
X103131628Y-174305213D01*
X103113502Y-174249654D01*
X103098767Y-174125495D01*
X103087436Y-173947169D01*
X103079516Y-173729109D01*
X103075019Y-173485746D01*
X103073954Y-173231514D01*
X103076330Y-172980845D01*
X103082159Y-172748171D01*
X103091449Y-172547924D01*
X103104211Y-172394538D01*
X103120454Y-172302444D01*
X103130246Y-172283595D01*
X103184761Y-172264582D01*
X103308896Y-172233650D01*
X103490285Y-172193482D01*
X103716560Y-172146762D01*
X103975353Y-172096173D01*
X104116351Y-172069659D01*
X104383873Y-172019650D01*
X104622438Y-171974346D01*
X104820386Y-171936021D01*
X104966057Y-171906947D01*
X105047791Y-171889397D01*
X105061243Y-171885506D01*
X105083979Y-171841638D01*
X105132040Y-171735976D01*
X105199019Y-171583613D01*
X105278510Y-171399646D01*
X105364108Y-171199170D01*
X105449405Y-170997281D01*
X105527995Y-170809073D01*
X105593473Y-170649642D01*
X105639431Y-170534084D01*
X105659463Y-170477494D01*
X105659836Y-170475021D01*
X105637126Y-170430379D01*
X105573459Y-170327647D01*
X105475525Y-170177037D01*
X105350017Y-169988757D01*
X105203626Y-169773018D01*
X105118525Y-169649098D01*
X104963455Y-169421883D01*
X104825725Y-169215595D01*
X104712053Y-169040671D01*
X104629161Y-168907545D01*
X104583769Y-168826653D01*
X104577213Y-168808520D01*
X104605395Y-168766312D01*
X104683304Y-168676191D01*
X104800990Y-168548254D01*
X104948500Y-168392596D01*
X105115881Y-168219315D01*
X105293181Y-168038507D01*
X105470448Y-167860267D01*
X105637730Y-167694693D01*
X105785075Y-167551880D01*
X105902530Y-167441925D01*
X105980143Y-167374924D01*
X106006108Y-167358935D01*
X106048384Y-167381419D01*
X106149501Y-167444585D01*
X106299627Y-167542003D01*
X106488930Y-167667243D01*
X106707579Y-167813875D01*
X106872511Y-167925586D01*
X107705831Y-168492237D01*
X108400456Y-168205889D01*
X109095082Y-167919542D01*
X109283334Y-166920960D01*
X109471587Y-165922377D01*
X111550052Y-165922377D01*
X111738305Y-166920960D01*
G37*
X111738305Y-166920960D02*
X111926557Y-167919542D01*
X112621183Y-168205889D01*
X113315808Y-168492237D01*
X114149128Y-167925586D01*
X114382501Y-167767811D01*
X114593457Y-167626939D01*
X114772153Y-167509401D01*
X114908744Y-167421629D01*
X114993386Y-167370055D01*
X115016437Y-167358935D01*
X115057963Y-167387535D01*
X115146698Y-167466604D01*
X115272697Y-167586041D01*
X115426014Y-167735744D01*
X115596702Y-167905615D01*
X115774814Y-168085551D01*
X115950406Y-168265454D01*
X116113530Y-168435222D01*
X116254241Y-168584754D01*
X116362592Y-168703952D01*
X116428637Y-168782713D01*
X116444426Y-168809072D01*
X116421703Y-168857666D01*
X116357999Y-168964126D01*
X116260013Y-169118039D01*
X116134441Y-169308991D01*
X115987982Y-169526569D01*
X115903115Y-169650671D01*
X115748426Y-169877279D01*
X115610970Y-170081770D01*
X115497414Y-170253965D01*
X115414428Y-170383685D01*
X115368678Y-170460751D01*
X115361803Y-170476947D01*
X115377388Y-170522975D01*
X115419868Y-170630250D01*
X115482835Y-170783687D01*
X115559879Y-170968206D01*
X115644590Y-171168721D01*
X115730558Y-171370152D01*
X115811373Y-171557415D01*
X115880627Y-171715428D01*
X115931908Y-171829107D01*
X115958809Y-171883370D01*
X115960396Y-171885506D01*
X116002635Y-171895867D01*
X116115126Y-171918982D01*
X116286209Y-171952579D01*
X116504223Y-171994385D01*
X116757509Y-172042127D01*
X116905288Y-172069659D01*
X117175938Y-172121190D01*
X117420397Y-172170225D01*
X117626300Y-172214081D01*
X117781277Y-172250074D01*
X117872962Y-172275521D01*
X117891393Y-172283595D01*
X117909445Y-172338242D01*
X117924010Y-172461662D01*
X117935098Y-172639423D01*
X117942719Y-172857091D01*
X117946884Y-173100235D01*
X117947602Y-173354423D01*
X117944882Y-173605220D01*
X117938735Y-173838196D01*
X117929171Y-174038918D01*
X117916199Y-174192954D01*
X117899829Y-174285870D01*
X117890011Y-174305213D01*
X117831323Y-174328398D01*
X117706966Y-174361544D01*
X117533390Y-174400758D01*
X117327042Y-174442145D01*
X117255011Y-174455534D01*
X116907719Y-174519147D01*
X116633383Y-174570378D01*
X116422939Y-174611261D01*
X116267322Y-174643834D01*
X116157467Y-174670132D01*
X116084311Y-174692192D01*
X116038787Y-174712049D01*
X116011833Y-174731741D01*
X116008061Y-174735632D01*
X115970415Y-174798324D01*
X115912986Y-174920331D01*
X115841508Y-175086712D01*
X115761715Y-175282529D01*
X115679343Y-175492840D01*
X115600125Y-175702708D01*
X115529796Y-175897191D01*
X115474089Y-176061350D01*
X115438741Y-176180245D01*
X115429484Y-176238936D01*
X115430256Y-176240992D01*
X115461620Y-176288964D01*
X115532774Y-176394516D01*
X115636240Y-176546660D01*
X115764540Y-176734410D01*
X115910199Y-176946780D01*
X115951680Y-177007130D01*
X116099587Y-177225929D01*
X116229739Y-177425562D01*
X116335045Y-177594565D01*
X116408416Y-177721475D01*
X116442763Y-177794829D01*
X116444426Y-177803841D01*
X116415569Y-177851207D01*
X116335831Y-177945042D01*
X116215462Y-178075261D01*
X116064713Y-178231779D01*
X115893836Y-178404510D01*
X115713079Y-178583371D01*
X115532694Y-178758276D01*
X115362932Y-178919140D01*
X115214042Y-179055878D01*
X115096276Y-179158407D01*
X115019883Y-179216640D01*
X114998750Y-179226148D01*
X114949560Y-179203754D01*
X114848847Y-179143356D01*
X114713017Y-179055129D01*
X114608510Y-178984115D01*
X114419149Y-178853811D01*
X114194899Y-178700384D01*
X113969964Y-178547201D01*
X113849032Y-178465218D01*
X113439704Y-178188353D01*
X113096102Y-178374136D01*
X112939565Y-178455523D01*
X112806454Y-178518784D01*
X112716389Y-178554865D01*
X112693463Y-178559885D01*
X112665895Y-178522817D01*
X112611508Y-178418069D01*
X112534363Y-178255303D01*
X112438518Y-178044181D01*
X112328034Y-177794365D01*
X112206971Y-177515517D01*
X112079389Y-177217299D01*
X111949347Y-176909374D01*
X111820906Y-176601404D01*
X111698126Y-176303050D01*
X111585067Y-176023975D01*
X111485788Y-175773841D01*
X111404349Y-175562310D01*
X111344811Y-175399043D01*
X111311234Y-175293705D01*
X111305834Y-175257527D01*
X111348634Y-175211381D01*
X111442344Y-175136472D01*
X111567373Y-175048364D01*
X111577867Y-175041394D01*
X111901020Y-174782721D01*
X112161587Y-174480938D01*
X112357310Y-174145695D01*
X112485932Y-173786642D01*
X112545195Y-173413426D01*
X112532839Y-173035700D01*
X112446607Y-172663111D01*
X112284241Y-172305310D01*
X112236472Y-172227027D01*
X111988009Y-171910919D01*
X111694481Y-171657079D01*
X111366047Y-171466827D01*
X111012865Y-171341485D01*
X110645095Y-171282372D01*
X110272897Y-171290807D01*
X109906429Y-171368112D01*
X109555851Y-171515606D01*
X109231323Y-171734610D01*
X109130936Y-171823498D01*
X108875449Y-172101744D01*
X108689278Y-172394656D01*
X108561570Y-172722986D01*
X108490444Y-173048133D01*
X108472886Y-173413702D01*
X108531434Y-173781086D01*
X108660142Y-174137866D01*
X108853062Y-174471626D01*
X109104248Y-174769947D01*
X109407752Y-175020411D01*
X109447640Y-175046813D01*
X109574009Y-175133272D01*
X109670073Y-175208184D01*
X109716000Y-175256015D01*
X109716668Y-175257527D01*
X109706808Y-175309267D01*
X109667722Y-175426696D01*
X109603472Y-175600154D01*
X109518120Y-175819979D01*
X109415727Y-176076513D01*
X109300354Y-176360096D01*
X109176063Y-176661067D01*
X109046916Y-176969767D01*
X108916974Y-177276536D01*
X108790298Y-177571714D01*
X108670951Y-177845640D01*
X108562994Y-178088656D01*
X108470488Y-178291101D01*
X108397496Y-178443315D01*
X108348077Y-178535638D01*
X108328177Y-178559885D01*
X108267366Y-178541004D01*
X108153582Y-178490364D01*
X108006445Y-178417017D01*
X107925538Y-178374136D01*
X107581935Y-178188353D01*
X107172607Y-178465218D01*
X106963654Y-178607054D01*
X106734887Y-178763141D01*
X106520509Y-178910109D01*
X106413129Y-178984115D01*
X106262102Y-179085531D01*
X106134218Y-179165898D01*
X106046158Y-179215041D01*
X106017555Y-179225429D01*
X105975924Y-179197405D01*
X105883789Y-179119172D01*
X105750082Y-178998852D01*
X105583735Y-178844568D01*
X105393680Y-178664443D01*
X105273479Y-178548790D01*
X105063185Y-178342167D01*
X104881444Y-178157358D01*
X104735603Y-178002270D01*
X104633009Y-177884807D01*
X104581009Y-177812875D01*
X104576020Y-177798278D01*
X104599171Y-177742753D01*
X104663146Y-177630484D01*
X104760847Y-177472837D01*
X104885180Y-177281179D01*
X105029046Y-177066876D01*
X105069959Y-177007130D01*
X105219033Y-176789982D01*
X105352775Y-176594475D01*
X105463709Y-176431599D01*
X105544356Y-176312337D01*
X105587241Y-176247678D01*
X105591383Y-176240992D01*
X105585188Y-176189462D01*
X105552300Y-176076166D01*
X105498455Y-175916042D01*
X105429387Y-175724032D01*
X105350831Y-175515074D01*
X105268520Y-175304109D01*
X105188189Y-175106076D01*
X105115572Y-174935916D01*
X105056405Y-174808567D01*
X105016420Y-174738971D01*
X105013578Y-174735632D01*
X104989127Y-174715742D01*
X104947831Y-174696073D01*
X104880623Y-174674589D01*
X104778441Y-174649253D01*
X104632219Y-174618029D01*
X104432893Y-174578882D01*
X104171397Y-174529775D01*
X103838669Y-174468672D01*
X103766628Y-174455534D01*
X103553115Y-174414282D01*
X103366978Y-174373926D01*
X103224666Y-174338361D01*
X103142629Y-174311480D01*
X103131628Y-174305213D01*
X103113502Y-174249654D01*
X103098767Y-174125495D01*
X103087436Y-173947169D01*
X103079516Y-173729109D01*
X103075019Y-173485746D01*
X103073954Y-173231514D01*
X103076330Y-172980845D01*
X103082159Y-172748171D01*
X103091449Y-172547924D01*
X103104211Y-172394538D01*
X103120454Y-172302444D01*
X103130246Y-172283595D01*
X103184761Y-172264582D01*
X103308896Y-172233650D01*
X103490285Y-172193482D01*
X103716560Y-172146762D01*
X103975353Y-172096173D01*
X104116351Y-172069659D01*
X104383873Y-172019650D01*
X104622438Y-171974346D01*
X104820386Y-171936021D01*
X104966057Y-171906947D01*
X105047791Y-171889397D01*
X105061243Y-171885506D01*
X105083979Y-171841638D01*
X105132040Y-171735976D01*
X105199019Y-171583613D01*
X105278510Y-171399646D01*
X105364108Y-171199170D01*
X105449405Y-170997281D01*
X105527995Y-170809073D01*
X105593473Y-170649642D01*
X105639431Y-170534084D01*
X105659463Y-170477494D01*
X105659836Y-170475021D01*
X105637126Y-170430379D01*
X105573459Y-170327647D01*
X105475525Y-170177037D01*
X105350017Y-169988757D01*
X105203626Y-169773018D01*
X105118525Y-169649098D01*
X104963455Y-169421883D01*
X104825725Y-169215595D01*
X104712053Y-169040671D01*
X104629161Y-168907545D01*
X104583769Y-168826653D01*
X104577213Y-168808520D01*
X104605395Y-168766312D01*
X104683304Y-168676191D01*
X104800990Y-168548254D01*
X104948500Y-168392596D01*
X105115881Y-168219315D01*
X105293181Y-168038507D01*
X105470448Y-167860267D01*
X105637730Y-167694693D01*
X105785075Y-167551880D01*
X105902530Y-167441925D01*
X105980143Y-167374924D01*
X106006108Y-167358935D01*
X106048384Y-167381419D01*
X106149501Y-167444585D01*
X106299627Y-167542003D01*
X106488930Y-167667243D01*
X106707579Y-167813875D01*
X106872511Y-167925586D01*
X107705831Y-168492237D01*
X108400456Y-168205889D01*
X109095082Y-167919542D01*
X109283334Y-166920960D01*
X109471587Y-165922377D01*
X111550052Y-165922377D01*
X111738305Y-166920960D01*
D10*
X60426000Y-167410500D02*
X56466000Y-167410500D01*
X60426000Y-167410500D02*
X60426000Y-151480500D01*
X60426000Y-151480500D02*
X40426000Y-151480500D01*
X40426000Y-167410500D02*
X40426000Y-151480500D01*
X54366000Y-167410500D02*
X46496000Y-167410500D01*
X44386000Y-167410500D02*
X40426000Y-167410500D01*
X65980000Y-153670000D02*
X68640000Y-153670000D01*
X65980000Y-153670000D02*
X65980000Y-186750000D01*
X65980000Y-186750000D02*
X68640000Y-186750000D01*
X68640000Y-153670000D02*
X68640000Y-186750000D01*
X68640000Y-151070000D02*
X68640000Y-152400000D01*
X67310000Y-151070000D02*
X68640000Y-151070000D01*
X81220000Y-153670000D02*
X83880000Y-153670000D01*
X81220000Y-153670000D02*
X81220000Y-186750000D01*
X81220000Y-186750000D02*
X83880000Y-186750000D01*
X83880000Y-153670000D02*
X83880000Y-186750000D01*
X83880000Y-151070000D02*
X83880000Y-152400000D01*
X82550000Y-151070000D02*
X83880000Y-151070000D01*
X46613578Y-168454000D02*
X46096422Y-168454000D01*
X46613578Y-169874000D02*
X46096422Y-169874000D01*
X56646578Y-169874000D02*
X56129422Y-169874000D01*
X56646578Y-168454000D02*
X56129422Y-168454000D01*
X106680000Y-167045000D02*
X106680000Y-167175000D01*
X107990000Y-165735000D02*
G75*
G03X107990000Y-165735000I-1310000J0D01*
G01*
X109716500Y-160720500D02*
X111116500Y-160720500D01*
X109716500Y-162270500D02*
X111116500Y-162270500D01*
X103516500Y-161820500D02*
X103516500Y-151295500D01*
X109716500Y-162270500D02*
X109716500Y-163395500D01*
X109716500Y-158320500D02*
X109716500Y-160720500D01*
X109716500Y-155320500D02*
X109716500Y-156670500D01*
X109716500Y-151295500D02*
X109716500Y-153670500D01*
X103516500Y-163395500D02*
X109716500Y-163395500D01*
X109716500Y-151295500D02*
X109116500Y-151295500D01*
X104116500Y-151295500D02*
X103516500Y-151295500D01*
X109116500Y-149295500D02*
X104116500Y-149295500D01*
X109116500Y-151295500D02*
X109116500Y-149295500D01*
X104116500Y-151295500D02*
X104116500Y-149295500D01*
X31028000Y-151232000D02*
X31028000Y-149232000D01*
X36028000Y-151232000D02*
X36028000Y-149232000D01*
X36028000Y-149232000D02*
X31028000Y-149232000D01*
X31028000Y-151232000D02*
X30428000Y-151232000D01*
X36628000Y-151232000D02*
X36028000Y-151232000D01*
X30428000Y-163332000D02*
X36628000Y-163332000D01*
X36628000Y-151232000D02*
X36628000Y-153607000D01*
X36628000Y-155257000D02*
X36628000Y-156607000D01*
X36628000Y-158257000D02*
X36628000Y-160657000D01*
X36628000Y-162207000D02*
X36628000Y-163332000D01*
X30428000Y-161757000D02*
X30428000Y-151232000D01*
X36628000Y-162207000D02*
X38028000Y-162207000D01*
X36628000Y-160657000D02*
X38028000Y-160657000D01*
X36790000Y-165735000D02*
X36660000Y-165735000D01*
X39410000Y-165735000D02*
G75*
G03X39410000Y-165735000I-1310000J0D01*
G01*
X124605600Y-151626000D02*
X122485600Y-151626000D01*
X124605600Y-153686000D02*
X124605600Y-151626000D01*
X122485600Y-153686000D02*
X122485600Y-151626000D01*
X124605600Y-153686000D02*
X122485600Y-153686000D01*
X124605600Y-154686000D02*
X124605600Y-155746000D01*
X124605600Y-155746000D02*
X123545600Y-155746000D01*
X120447500Y-184042500D02*
X120447500Y-186162500D01*
X122507500Y-184042500D02*
X120447500Y-184042500D01*
X122507500Y-186162500D02*
X120447500Y-186162500D01*
X122507500Y-184042500D02*
X122507500Y-186162500D01*
X123507500Y-184042500D02*
X124567500Y-184042500D01*
X124567500Y-184042500D02*
X124567500Y-185102500D01*
X25927500Y-186162500D02*
X25927500Y-185102500D01*
X26987500Y-186162500D02*
X25927500Y-186162500D01*
X27987500Y-186162500D02*
X27987500Y-184042500D01*
X27987500Y-184042500D02*
X30047500Y-184042500D01*
X27987500Y-186162500D02*
X30047500Y-186162500D01*
X30047500Y-186162500D02*
X30047500Y-184042500D01*
X102064000Y-164611500D02*
X103124000Y-164611500D01*
X102064000Y-165671500D02*
X102064000Y-164611500D01*
X102064000Y-166671500D02*
X104184000Y-166671500D01*
X104184000Y-166671500D02*
X104184000Y-166731500D01*
X102064000Y-166671500D02*
X102064000Y-166731500D01*
X102064000Y-166731500D02*
X104184000Y-166731500D01*
X73870000Y-186226000D02*
X75990000Y-186226000D01*
X73870000Y-186166000D02*
X73870000Y-186226000D01*
X75990000Y-186166000D02*
X75990000Y-186226000D01*
X73870000Y-186166000D02*
X75990000Y-186166000D01*
X73870000Y-185166000D02*
X73870000Y-184106000D01*
X73870000Y-184106000D02*
X74930000Y-184106000D01*
X62884500Y-151657500D02*
X63944500Y-151657500D01*
X62884500Y-152717500D02*
X62884500Y-151657500D01*
X62884500Y-153717500D02*
X65004500Y-153717500D01*
X65004500Y-153717500D02*
X65004500Y-153777500D01*
X62884500Y-153717500D02*
X62884500Y-153777500D01*
X62884500Y-153777500D02*
X65004500Y-153777500D01*
X28047500Y-155746000D02*
X26987500Y-155746000D01*
X28047500Y-154686000D02*
X28047500Y-155746000D01*
X28047500Y-153686000D02*
X25927500Y-153686000D01*
X25927500Y-153686000D02*
X25927500Y-151626000D01*
X28047500Y-153686000D02*
X28047500Y-151626000D01*
X28047500Y-151626000D02*
X25927500Y-151626000D01*
X59170500Y-178630078D02*
X59170500Y-178112922D01*
X60590500Y-178630078D02*
X60590500Y-178112922D01*
X63194000Y-178630078D02*
X63194000Y-178112922D01*
X61774000Y-178630078D02*
X61774000Y-178112922D01*
X65162500Y-178630078D02*
X65162500Y-178112922D01*
X63742500Y-178630078D02*
X63742500Y-178112922D01*
X80389800Y-161971222D02*
X80389800Y-162488378D01*
X78969800Y-161971222D02*
X78969800Y-162488378D01*
X99429500Y-168651422D02*
X99429500Y-169168578D01*
X100849500Y-168651422D02*
X100849500Y-169168578D01*
X80389800Y-156891222D02*
X80389800Y-157408378D01*
X78969800Y-156891222D02*
X78969800Y-157408378D01*
D13*
X109339142Y-170695880D02*
X109005809Y-170219690D01*
X108767714Y-170695880D02*
X108767714Y-169695880D01*
X109148666Y-169695880D01*
X109243904Y-169743500D01*
X109291523Y-169791119D01*
X109339142Y-169886357D01*
X109339142Y-170029214D01*
X109291523Y-170124452D01*
X109243904Y-170172071D01*
X109148666Y-170219690D01*
X108767714Y-170219690D01*
X110291523Y-170695880D02*
X109720095Y-170695880D01*
X110005809Y-170695880D02*
X110005809Y-169695880D01*
X109910571Y-169838738D01*
X109815333Y-169933976D01*
X109720095Y-169981595D01*
X111243904Y-170695880D02*
X110672476Y-170695880D01*
X110958190Y-170695880D02*
X110958190Y-169695880D01*
X110862952Y-169838738D01*
X110767714Y-169933976D01*
X110672476Y-169981595D01*
X112418880Y-153590523D02*
X113133166Y-153590523D01*
X113276023Y-153638142D01*
X113371261Y-153733380D01*
X113418880Y-153876238D01*
X113418880Y-153971476D01*
X113418880Y-152590523D02*
X113418880Y-153161952D01*
X113418880Y-152876238D02*
X112418880Y-152876238D01*
X112561738Y-152971476D01*
X112656976Y-153066714D01*
X112704595Y-153161952D01*
X112418880Y-152257190D02*
X112418880Y-151638142D01*
X112799833Y-151971476D01*
X112799833Y-151828619D01*
X112847452Y-151733380D01*
X112895071Y-151685761D01*
X112990309Y-151638142D01*
X113228404Y-151638142D01*
X113323642Y-151685761D01*
X113371261Y-151733380D01*
X113418880Y-151828619D01*
X113418880Y-152114333D01*
X113371261Y-152209571D01*
X113323642Y-152257190D01*
X58872380Y-184253095D02*
X57872380Y-184253095D01*
X57872380Y-184015000D01*
X57920000Y-183872142D01*
X58015238Y-183776904D01*
X58110476Y-183729285D01*
X58300952Y-183681666D01*
X58443809Y-183681666D01*
X58634285Y-183729285D01*
X58729523Y-183776904D01*
X58824761Y-183872142D01*
X58872380Y-184015000D01*
X58872380Y-184253095D01*
X58872380Y-182729285D02*
X58872380Y-183300714D01*
X58872380Y-183015000D02*
X57872380Y-183015000D01*
X58015238Y-183110238D01*
X58110476Y-183205476D01*
X58158095Y-183300714D01*
X102576261Y-162496333D02*
X102623880Y-162353476D01*
X102623880Y-162115380D01*
X102576261Y-162020142D01*
X102528642Y-161972523D01*
X102433404Y-161924904D01*
X102338166Y-161924904D01*
X102242928Y-161972523D01*
X102195309Y-162020142D01*
X102147690Y-162115380D01*
X102100071Y-162305857D01*
X102052452Y-162401095D01*
X102004833Y-162448714D01*
X101909595Y-162496333D01*
X101814357Y-162496333D01*
X101719119Y-162448714D01*
X101671500Y-162401095D01*
X101623880Y-162305857D01*
X101623880Y-162067761D01*
X101671500Y-161924904D01*
X101623880Y-161591571D02*
X102623880Y-161353476D01*
X101909595Y-161163000D01*
X102623880Y-160972523D01*
X101623880Y-160734428D01*
X102623880Y-159829666D02*
X102623880Y-160401095D01*
X102623880Y-160115380D02*
X101623880Y-160115380D01*
X101766738Y-160210619D01*
X101861976Y-160305857D01*
X101909595Y-160401095D01*
X38885880Y-152479333D02*
X39600166Y-152479333D01*
X39743023Y-152526952D01*
X39838261Y-152622190D01*
X39885880Y-152765047D01*
X39885880Y-152860285D01*
X38981119Y-152050761D02*
X38933500Y-152003142D01*
X38885880Y-151907904D01*
X38885880Y-151669809D01*
X38933500Y-151574571D01*
X38981119Y-151526952D01*
X39076357Y-151479333D01*
X39171595Y-151479333D01*
X39314452Y-151526952D01*
X39885880Y-152098380D01*
X39885880Y-151479333D01*
X69707166Y-151915880D02*
X69707166Y-152630166D01*
X69659547Y-152773023D01*
X69564309Y-152868261D01*
X69421452Y-152915880D01*
X69326214Y-152915880D01*
X70611928Y-152249214D02*
X70611928Y-152915880D01*
X70373833Y-151868261D02*
X70135738Y-152582547D01*
X70754785Y-152582547D01*
X79422666Y-151852380D02*
X79422666Y-152566666D01*
X79375047Y-152709523D01*
X79279809Y-152804761D01*
X79136952Y-152852380D01*
X79041714Y-152852380D01*
X80375047Y-151852380D02*
X79898857Y-151852380D01*
X79851238Y-152328571D01*
X79898857Y-152280952D01*
X79994095Y-152233333D01*
X80232190Y-152233333D01*
X80327428Y-152280952D01*
X80375047Y-152328571D01*
X80422666Y-152423809D01*
X80422666Y-152661904D01*
X80375047Y-152757142D01*
X80327428Y-152804761D01*
X80232190Y-152852380D01*
X79994095Y-152852380D01*
X79898857Y-152804761D01*
X79851238Y-152757142D01*
X46188333Y-171394380D02*
X45855000Y-170918190D01*
X45616904Y-171394380D02*
X45616904Y-170394380D01*
X45997857Y-170394380D01*
X46093095Y-170442000D01*
X46140714Y-170489619D01*
X46188333Y-170584857D01*
X46188333Y-170727714D01*
X46140714Y-170822952D01*
X46093095Y-170870571D01*
X45997857Y-170918190D01*
X45616904Y-170918190D01*
X47093095Y-170394380D02*
X46616904Y-170394380D01*
X46569285Y-170870571D01*
X46616904Y-170822952D01*
X46712142Y-170775333D01*
X46950238Y-170775333D01*
X47045476Y-170822952D01*
X47093095Y-170870571D01*
X47140714Y-170965809D01*
X47140714Y-171203904D01*
X47093095Y-171299142D01*
X47045476Y-171346761D01*
X46950238Y-171394380D01*
X46712142Y-171394380D01*
X46616904Y-171346761D01*
X46569285Y-171299142D01*
X56221333Y-171394380D02*
X55888000Y-170918190D01*
X55649904Y-171394380D02*
X55649904Y-170394380D01*
X56030857Y-170394380D01*
X56126095Y-170442000D01*
X56173714Y-170489619D01*
X56221333Y-170584857D01*
X56221333Y-170727714D01*
X56173714Y-170822952D01*
X56126095Y-170870571D01*
X56030857Y-170918190D01*
X55649904Y-170918190D01*
X57078476Y-170394380D02*
X56888000Y-170394380D01*
X56792761Y-170442000D01*
X56745142Y-170489619D01*
X56649904Y-170632476D01*
X56602285Y-170822952D01*
X56602285Y-171203904D01*
X56649904Y-171299142D01*
X56697523Y-171346761D01*
X56792761Y-171394380D01*
X56983238Y-171394380D01*
X57078476Y-171346761D01*
X57126095Y-171299142D01*
X57173714Y-171203904D01*
X57173714Y-170965809D01*
X57126095Y-170870571D01*
X57078476Y-170822952D01*
X56983238Y-170775333D01*
X56792761Y-170775333D01*
X56697523Y-170822952D01*
X56649904Y-170870571D01*
X56602285Y-170965809D01*
X106640333Y-170822880D02*
X106307000Y-170346690D01*
X106068904Y-170822880D02*
X106068904Y-169822880D01*
X106449857Y-169822880D01*
X106545095Y-169870500D01*
X106592714Y-169918119D01*
X106640333Y-170013357D01*
X106640333Y-170156214D01*
X106592714Y-170251452D01*
X106545095Y-170299071D01*
X106449857Y-170346690D01*
X106068904Y-170346690D01*
X107497476Y-170156214D02*
X107497476Y-170822880D01*
X107259380Y-169775261D02*
X107021285Y-170489547D01*
X107640333Y-170489547D01*
X102068380Y-152542833D02*
X102782666Y-152542833D01*
X102925523Y-152590452D01*
X103020761Y-152685690D01*
X103068380Y-152828547D01*
X103068380Y-152923785D01*
X102068380Y-151638071D02*
X102068380Y-151828547D01*
X102116000Y-151923785D01*
X102163619Y-151971404D01*
X102306476Y-152066642D01*
X102496952Y-152114261D01*
X102877904Y-152114261D01*
X102973142Y-152066642D01*
X103020761Y-152019023D01*
X103068380Y-151923785D01*
X103068380Y-151733309D01*
X103020761Y-151638071D01*
X102973142Y-151590452D01*
X102877904Y-151542833D01*
X102639809Y-151542833D01*
X102544571Y-151590452D01*
X102496952Y-151638071D01*
X102449333Y-151733309D01*
X102449333Y-151923785D01*
X102496952Y-152019023D01*
X102544571Y-152066642D01*
X102639809Y-152114261D01*
X28979880Y-152542833D02*
X29694166Y-152542833D01*
X29837023Y-152590452D01*
X29932261Y-152685690D01*
X29979880Y-152828547D01*
X29979880Y-152923785D01*
X28979880Y-152161880D02*
X28979880Y-151495214D01*
X29979880Y-151923785D01*
X36853833Y-168536880D02*
X36520500Y-168060690D01*
X36282404Y-168536880D02*
X36282404Y-167536880D01*
X36663357Y-167536880D01*
X36758595Y-167584500D01*
X36806214Y-167632119D01*
X36853833Y-167727357D01*
X36853833Y-167870214D01*
X36806214Y-167965452D01*
X36758595Y-168013071D01*
X36663357Y-168060690D01*
X36282404Y-168060690D01*
X37806214Y-168536880D02*
X37234785Y-168536880D01*
X37520500Y-168536880D02*
X37520500Y-167536880D01*
X37425261Y-167679738D01*
X37330023Y-167774976D01*
X37234785Y-167822595D01*
X123872666Y-156487880D02*
X123872666Y-157202166D01*
X123825047Y-157345023D01*
X123729809Y-157440261D01*
X123586952Y-157487880D01*
X123491714Y-157487880D01*
X124872666Y-157487880D02*
X124301238Y-157487880D01*
X124586952Y-157487880D02*
X124586952Y-156487880D01*
X124491714Y-156630738D01*
X124396476Y-156725976D01*
X124301238Y-156773595D01*
X118729166Y-185443880D02*
X118729166Y-186158166D01*
X118681547Y-186301023D01*
X118586309Y-186396261D01*
X118443452Y-186443880D01*
X118348214Y-186443880D01*
X119110119Y-185443880D02*
X119729166Y-185443880D01*
X119395833Y-185824833D01*
X119538690Y-185824833D01*
X119633928Y-185872452D01*
X119681547Y-185920071D01*
X119729166Y-186015309D01*
X119729166Y-186253404D01*
X119681547Y-186348642D01*
X119633928Y-186396261D01*
X119538690Y-186443880D01*
X119252976Y-186443880D01*
X119157738Y-186396261D01*
X119110119Y-186348642D01*
X31162666Y-185316880D02*
X31162666Y-186031166D01*
X31115047Y-186174023D01*
X31019809Y-186269261D01*
X30876952Y-186316880D01*
X30781714Y-186316880D01*
X31686476Y-186316880D02*
X31876952Y-186316880D01*
X31972190Y-186269261D01*
X32019809Y-186221642D01*
X32115047Y-186078785D01*
X32162666Y-185888309D01*
X32162666Y-185507357D01*
X32115047Y-185412119D01*
X32067428Y-185364500D01*
X31972190Y-185316880D01*
X31781714Y-185316880D01*
X31686476Y-185364500D01*
X31638857Y-185412119D01*
X31591238Y-185507357D01*
X31591238Y-185745452D01*
X31638857Y-185840690D01*
X31686476Y-185888309D01*
X31781714Y-185935928D01*
X31972190Y-185935928D01*
X32067428Y-185888309D01*
X32115047Y-185840690D01*
X32162666Y-185745452D01*
X102314476Y-167282880D02*
X102314476Y-167997166D01*
X102266857Y-168140023D01*
X102171619Y-168235261D01*
X102028761Y-168282880D01*
X101933523Y-168282880D01*
X103314476Y-168282880D02*
X102743047Y-168282880D01*
X103028761Y-168282880D02*
X103028761Y-167282880D01*
X102933523Y-167425738D01*
X102838285Y-167520976D01*
X102743047Y-167568595D01*
X103933523Y-167282880D02*
X104028761Y-167282880D01*
X104124000Y-167330500D01*
X104171619Y-167378119D01*
X104219238Y-167473357D01*
X104266857Y-167663833D01*
X104266857Y-167901928D01*
X104219238Y-168092404D01*
X104171619Y-168187642D01*
X104124000Y-168235261D01*
X104028761Y-168282880D01*
X103933523Y-168282880D01*
X103838285Y-168235261D01*
X103790666Y-168187642D01*
X103743047Y-168092404D01*
X103695428Y-167901928D01*
X103695428Y-167663833D01*
X103743047Y-167473357D01*
X103790666Y-167378119D01*
X103838285Y-167330500D01*
X103933523Y-167282880D01*
X77041476Y-185380380D02*
X77041476Y-186094666D01*
X76993857Y-186237523D01*
X76898619Y-186332761D01*
X76755761Y-186380380D01*
X76660523Y-186380380D01*
X78041476Y-186380380D02*
X77470047Y-186380380D01*
X77755761Y-186380380D02*
X77755761Y-185380380D01*
X77660523Y-185523238D01*
X77565285Y-185618476D01*
X77470047Y-185666095D01*
X78993857Y-186380380D02*
X78422428Y-186380380D01*
X78708142Y-186380380D02*
X78708142Y-185380380D01*
X78612904Y-185523238D01*
X78517666Y-185618476D01*
X78422428Y-185666095D01*
X61237880Y-153463523D02*
X61952166Y-153463523D01*
X62095023Y-153511142D01*
X62190261Y-153606380D01*
X62237880Y-153749238D01*
X62237880Y-153844476D01*
X62237880Y-152463523D02*
X62237880Y-153034952D01*
X62237880Y-152749238D02*
X61237880Y-152749238D01*
X61380738Y-152844476D01*
X61475976Y-152939714D01*
X61523595Y-153034952D01*
X61333119Y-152082571D02*
X61285500Y-152034952D01*
X61237880Y-151939714D01*
X61237880Y-151701619D01*
X61285500Y-151606380D01*
X61333119Y-151558761D01*
X61428357Y-151511142D01*
X61523595Y-151511142D01*
X61666452Y-151558761D01*
X62237880Y-152130190D01*
X62237880Y-151511142D01*
X26209666Y-156551380D02*
X26209666Y-157265666D01*
X26162047Y-157408523D01*
X26066809Y-157503761D01*
X25923952Y-157551380D01*
X25828714Y-157551380D01*
X26828714Y-156979952D02*
X26733476Y-156932333D01*
X26685857Y-156884714D01*
X26638238Y-156789476D01*
X26638238Y-156741857D01*
X26685857Y-156646619D01*
X26733476Y-156599000D01*
X26828714Y-156551380D01*
X27019190Y-156551380D01*
X27114428Y-156599000D01*
X27162047Y-156646619D01*
X27209666Y-156741857D01*
X27209666Y-156789476D01*
X27162047Y-156884714D01*
X27114428Y-156932333D01*
X27019190Y-156979952D01*
X26828714Y-156979952D01*
X26733476Y-157027571D01*
X26685857Y-157075190D01*
X26638238Y-157170428D01*
X26638238Y-157360904D01*
X26685857Y-157456142D01*
X26733476Y-157503761D01*
X26828714Y-157551380D01*
X27019190Y-157551380D01*
X27114428Y-157503761D01*
X27162047Y-157456142D01*
X27209666Y-157360904D01*
X27209666Y-157170428D01*
X27162047Y-157075190D01*
X27114428Y-157027571D01*
X27019190Y-156979952D01*
X60332880Y-175934666D02*
X59856690Y-176268000D01*
X60332880Y-176506095D02*
X59332880Y-176506095D01*
X59332880Y-176125142D01*
X59380500Y-176029904D01*
X59428119Y-175982285D01*
X59523357Y-175934666D01*
X59666214Y-175934666D01*
X59761452Y-175982285D01*
X59809071Y-176029904D01*
X59856690Y-176125142D01*
X59856690Y-176506095D01*
X59428119Y-175553714D02*
X59380500Y-175506095D01*
X59332880Y-175410857D01*
X59332880Y-175172761D01*
X59380500Y-175077523D01*
X59428119Y-175029904D01*
X59523357Y-174982285D01*
X59618595Y-174982285D01*
X59761452Y-175029904D01*
X60332880Y-175601333D01*
X60332880Y-174982285D01*
X62936380Y-175934666D02*
X62460190Y-176268000D01*
X62936380Y-176506095D02*
X61936380Y-176506095D01*
X61936380Y-176125142D01*
X61984000Y-176029904D01*
X62031619Y-175982285D01*
X62126857Y-175934666D01*
X62269714Y-175934666D01*
X62364952Y-175982285D01*
X62412571Y-176029904D01*
X62460190Y-176125142D01*
X62460190Y-176506095D01*
X61936380Y-175601333D02*
X61936380Y-174982285D01*
X62317333Y-175315619D01*
X62317333Y-175172761D01*
X62364952Y-175077523D01*
X62412571Y-175029904D01*
X62507809Y-174982285D01*
X62745904Y-174982285D01*
X62841142Y-175029904D01*
X62888761Y-175077523D01*
X62936380Y-175172761D01*
X62936380Y-175458476D01*
X62888761Y-175553714D01*
X62841142Y-175601333D01*
X64904880Y-175934666D02*
X64428690Y-176268000D01*
X64904880Y-176506095D02*
X63904880Y-176506095D01*
X63904880Y-176125142D01*
X63952500Y-176029904D01*
X64000119Y-175982285D01*
X64095357Y-175934666D01*
X64238214Y-175934666D01*
X64333452Y-175982285D01*
X64381071Y-176029904D01*
X64428690Y-176125142D01*
X64428690Y-176506095D01*
X63904880Y-175601333D02*
X63904880Y-174934666D01*
X64904880Y-175363238D01*
X78557380Y-162409166D02*
X78081190Y-162742500D01*
X78557380Y-162980595D02*
X77557380Y-162980595D01*
X77557380Y-162599642D01*
X77605000Y-162504404D01*
X77652619Y-162456785D01*
X77747857Y-162409166D01*
X77890714Y-162409166D01*
X77985952Y-162456785D01*
X78033571Y-162504404D01*
X78081190Y-162599642D01*
X78081190Y-162980595D01*
X77985952Y-161837738D02*
X77938333Y-161932976D01*
X77890714Y-161980595D01*
X77795476Y-162028214D01*
X77747857Y-162028214D01*
X77652619Y-161980595D01*
X77605000Y-161932976D01*
X77557380Y-161837738D01*
X77557380Y-161647261D01*
X77605000Y-161552023D01*
X77652619Y-161504404D01*
X77747857Y-161456785D01*
X77795476Y-161456785D01*
X77890714Y-161504404D01*
X77938333Y-161552023D01*
X77985952Y-161647261D01*
X77985952Y-161837738D01*
X78033571Y-161932976D01*
X78081190Y-161980595D01*
X78176428Y-162028214D01*
X78366904Y-162028214D01*
X78462142Y-161980595D01*
X78509761Y-161932976D01*
X78557380Y-161837738D01*
X78557380Y-161647261D01*
X78509761Y-161552023D01*
X78462142Y-161504404D01*
X78366904Y-161456785D01*
X78176428Y-161456785D01*
X78081190Y-161504404D01*
X78033571Y-161552023D01*
X77985952Y-161647261D01*
X99972833Y-167076380D02*
X99639500Y-166600190D01*
X99401404Y-167076380D02*
X99401404Y-166076380D01*
X99782357Y-166076380D01*
X99877595Y-166124000D01*
X99925214Y-166171619D01*
X99972833Y-166266857D01*
X99972833Y-166409714D01*
X99925214Y-166504952D01*
X99877595Y-166552571D01*
X99782357Y-166600190D01*
X99401404Y-166600190D01*
X100449023Y-167076380D02*
X100639500Y-167076380D01*
X100734738Y-167028761D01*
X100782357Y-166981142D01*
X100877595Y-166838285D01*
X100925214Y-166647809D01*
X100925214Y-166266857D01*
X100877595Y-166171619D01*
X100829976Y-166124000D01*
X100734738Y-166076380D01*
X100544261Y-166076380D01*
X100449023Y-166124000D01*
X100401404Y-166171619D01*
X100353785Y-166266857D01*
X100353785Y-166504952D01*
X100401404Y-166600190D01*
X100449023Y-166647809D01*
X100544261Y-166695428D01*
X100734738Y-166695428D01*
X100829976Y-166647809D01*
X100877595Y-166600190D01*
X100925214Y-166504952D01*
X78557380Y-157805357D02*
X78081190Y-158138690D01*
X78557380Y-158376785D02*
X77557380Y-158376785D01*
X77557380Y-157995833D01*
X77605000Y-157900595D01*
X77652619Y-157852976D01*
X77747857Y-157805357D01*
X77890714Y-157805357D01*
X77985952Y-157852976D01*
X78033571Y-157900595D01*
X78081190Y-157995833D01*
X78081190Y-158376785D01*
X78557380Y-156852976D02*
X78557380Y-157424404D01*
X78557380Y-157138690D02*
X77557380Y-157138690D01*
X77700238Y-157233928D01*
X77795476Y-157329166D01*
X77843095Y-157424404D01*
X77557380Y-156233928D02*
X77557380Y-156138690D01*
X77605000Y-156043452D01*
X77652619Y-155995833D01*
X77747857Y-155948214D01*
X77938333Y-155900595D01*
X78176428Y-155900595D01*
X78366904Y-155948214D01*
X78462142Y-155995833D01*
X78509761Y-156043452D01*
X78557380Y-156138690D01*
X78557380Y-156233928D01*
X78509761Y-156329166D01*
X78462142Y-156376785D01*
X78366904Y-156424404D01*
X78176428Y-156472023D01*
X77938333Y-156472023D01*
X77747857Y-156424404D01*
X77652619Y-156376785D01*
X77605000Y-156329166D01*
X77557380Y-156233928D01*
M02*
